<svg width="204" height="398" viewBox="0 0 204 398" fill="none" xmlns="http://www.w3.org/2000/svg">
<path d="M174.249 0H31.3729C16.6264 0 4.67334 11.8477 4.67334 26.4642V366.129C4.67334 380.745 16.6264 392.593 31.3729 392.593H174.249C188.995 392.593 200.948 380.745 200.948 366.129V26.4642C200.948 11.8477 188.995 0 174.249 0ZM200.207 363.671C200.207 366.425 199.765 369.086 198.953 371.577C198.891 371.77 198.829 371.958 198.758 372.147C198.692 372.34 198.625 372.523 198.549 372.712C198.502 372.853 198.445 372.999 198.388 373.136C198.221 373.555 198.041 373.964 197.851 374.374C197.765 374.558 197.684 374.737 197.594 374.915C197.471 375.165 197.347 375.41 197.214 375.66C197.129 375.824 197.038 375.989 196.948 376.149C196.853 376.323 196.753 376.493 196.649 376.667C196.373 377.138 196.074 377.604 195.76 378.061C195.661 378.202 195.561 378.353 195.456 378.494C195.342 378.654 195.228 378.814 195.105 378.97C194.991 379.125 194.872 379.285 194.748 379.441C194.63 379.596 194.506 379.752 194.378 379.902C194.254 380.053 194.126 380.208 193.993 380.359C193.741 380.66 193.47 380.952 193.2 381.24C192.782 381.682 192.354 382.111 191.903 382.525C191.77 382.648 191.637 382.77 191.494 382.888C191.181 383.161 190.867 383.429 190.544 383.693C190.406 383.801 190.264 383.914 190.116 384.023C189.646 384.385 189.162 384.729 188.663 385.059C188.501 385.172 188.33 385.28 188.164 385.383C187.827 385.6 187.484 385.803 187.138 385.996C186.967 386.099 186.796 386.193 186.625 386.283C186.064 386.589 185.494 386.871 184.91 387.126C184.758 387.201 184.601 387.262 184.449 387.328C184.263 387.413 184.083 387.484 183.893 387.559C183.703 387.634 183.518 387.705 183.327 387.776C182.905 387.931 182.482 388.082 182.05 388.213C181.902 388.261 181.746 388.308 181.593 388.35C181.028 388.515 180.449 388.666 179.864 388.793C179.66 388.835 179.456 388.882 179.251 388.92C179.038 388.962 178.819 389.005 178.596 389.038C178.197 389.108 177.788 389.165 177.375 389.217H177.36C177.28 389.226 177.204 389.235 177.123 389.24C177.071 389.249 177.009 389.254 176.957 389.254C176.933 389.259 176.914 389.259 176.885 389.259C177.251 389.221 177.612 389.169 177.978 389.113C178.159 389.085 178.334 389.052 178.52 389.019C178.7 388.99 178.876 388.948 179.052 388.915C179.589 388.807 180.111 388.675 180.634 388.534C180.81 388.491 180.981 388.435 181.152 388.383C181.494 388.279 181.831 388.166 182.168 388.049C182.672 387.865 183.171 387.672 183.655 387.46C183.817 387.394 183.983 387.324 184.14 387.243C184.297 387.168 184.458 387.093 184.615 387.017C184.933 386.862 185.242 386.697 185.556 386.532C185.864 386.358 186.164 386.189 186.468 386.005C186.739 385.84 187.009 385.666 187.275 385.492C187.304 385.478 187.328 385.459 187.356 385.44C187.793 385.143 188.221 384.842 188.634 384.522C188.772 384.418 188.91 384.31 189.047 384.197C189.432 383.886 189.812 383.561 190.178 383.227C191.081 382.398 191.922 381.503 192.682 380.543C192.791 380.411 192.9 380.27 193.005 380.128C194.107 378.683 195.043 377.11 195.779 375.443C195.898 375.179 196.012 374.901 196.117 374.633C196.644 373.31 197.053 371.93 197.328 370.503C197.38 370.225 197.433 369.938 197.475 369.656C197.651 368.507 197.741 367.334 197.741 366.133V26.4642C197.741 14.4611 188.53 4.55353 176.748 3.31509C176.539 3.29625 176.325 3.27741 176.121 3.26329C175.907 3.24916 175.688 3.23503 175.474 3.22562H175.47C175.071 3.20678 174.672 3.19736 174.263 3.19736H31.3919C30.9833 3.19736 30.5842 3.20678 30.1852 3.22562H30.1709C17.7856 3.86132 7.90864 14.042 7.90864 26.4689V366.129C7.90864 378.08 17.0397 387.955 28.7504 389.259C28.5937 389.245 28.4321 389.231 28.2754 389.212H28.2611C27.8478 389.165 27.4439 389.103 27.0401 389.033C24.5935 388.618 22.2561 387.87 20.0897 386.829C19.9377 386.754 19.7857 386.683 19.6336 386.608C19.2488 386.405 18.864 386.203 18.4887 385.991C18.3129 385.892 18.1466 385.793 17.9803 385.69C17.1299 385.176 16.3033 384.621 15.5242 384.013C15.3816 383.905 15.2439 383.797 15.1013 383.684C14.6833 383.349 14.2795 383.005 13.8851 382.652C13.7569 382.535 13.6286 382.417 13.5051 382.294C13.3578 382.158 13.2105 382.021 13.068 381.875C12.9302 381.734 12.7877 381.588 12.6452 381.447C12.5502 381.353 12.4599 381.258 12.3744 381.16C12.2604 381.037 12.1464 380.915 12.0371 380.792C11.372 380.053 10.7544 379.285 10.1795 378.48C10.075 378.339 9.97522 378.188 9.87545 378.047C9.5619 377.595 9.27211 377.133 8.99181 376.663C8.88729 376.498 8.78752 376.323 8.69251 376.149C7.97513 374.873 7.3623 373.531 6.87297 372.142C6.8017 371.949 6.73993 371.765 6.67817 371.572C6.36461 370.612 6.10807 369.627 5.90854 368.624C5.87053 368.422 5.82778 368.219 5.79452 368.022C5.55223 366.609 5.42395 365.154 5.42395 363.671V26.4642C5.42395 26.2099 5.42871 25.9603 5.43821 25.706C5.43821 25.513 5.4477 25.3293 5.45721 25.141C5.47621 24.7266 5.50472 24.3216 5.55223 23.9119C5.57123 23.7 5.595 23.4881 5.6235 23.2809C5.63775 23.1679 5.65199 23.0596 5.66624 22.9466C5.6805 22.8148 5.6995 22.6829 5.72325 22.5416C5.75175 22.3297 5.78978 22.1178 5.82778 21.9059C5.89429 21.5386 5.96554 21.1761 6.05106 20.8135C6.08906 20.6298 6.13658 20.4556 6.17934 20.2766C6.30761 19.7398 6.45489 19.2218 6.62592 18.6992C6.67817 18.5391 6.73517 18.3695 6.78743 18.2094C6.85869 18.0069 6.92521 17.8045 7.00122 17.6114C7.06298 17.4466 7.12475 17.2818 7.19126 17.1217C7.24352 16.9851 7.29576 16.8533 7.35277 16.7167C7.41929 16.5566 7.48579 16.3918 7.55706 16.2364C7.60931 16.114 7.66159 15.9962 7.7186 15.8785C7.79936 15.6996 7.87538 15.53 7.96565 15.3511C8.10817 15.045 8.26493 14.7437 8.42646 14.4423C8.50723 14.2916 8.588 14.1362 8.67827 13.9855C8.77328 13.8066 8.87778 13.6323 8.9823 13.4581C9.69967 12.2432 10.5168 11.0942 11.4242 10.0159C11.5525 9.86521 11.6808 9.70981 11.8138 9.55913C11.9611 9.39431 12.1131 9.22008 12.2699 9.05527C12.5264 8.78215 12.7829 8.50903 13.0537 8.25004C13.3435 7.9628 13.6334 7.68968 13.9327 7.42127C14.2367 7.15757 14.536 6.88916 14.8496 6.63488C15.0016 6.50774 15.1631 6.38531 15.3199 6.25817C15.6382 6.0133 15.9612 5.77315 16.289 5.5377C16.6169 5.30696 16.9494 5.08093 17.2915 4.85961C17.6335 4.643 17.9756 4.4311 18.3272 4.22862C18.5029 4.12502 18.6787 4.02613 18.8592 3.92725C19.0398 3.82836 19.2156 3.73418 19.3961 3.64C19.5814 3.54582 19.7571 3.45164 19.9424 3.36688C20.1277 3.27741 20.3083 3.18794 20.4983 3.10318C20.8641 2.93837 21.2442 2.77356 21.6242 2.62287C21.8048 2.54753 21.9853 2.4769 22.1705 2.40626C22.1848 2.39684 22.2038 2.39214 22.2181 2.38743C22.4034 2.31679 22.5886 2.25558 22.7739 2.18494C22.9592 2.12373 23.1397 2.06251 23.325 1.99659C23.534 1.93066 23.7431 1.86474 23.9521 1.80352C24.1516 1.7423 24.3464 1.69051 24.546 1.63871C24.7502 1.58691 24.9498 1.5304 25.1493 1.48331C25.3536 1.43622 25.5579 1.38443 25.7574 1.34204C26.1708 1.24787 26.5793 1.16781 26.9974 1.10189C27.2017 1.06893 27.4107 1.03126 27.615 1.003C28.0616 0.937077 28.5129 0.885279 28.9642 0.847607C29.3205 0.814645 29.6816 0.7911 30.0426 0.767555C30.2612 0.758138 30.4845 0.74872 30.7078 0.744011C30.9311 0.739302 31.1543 0.734593 31.3776 0.734593H174.249C174.472 0.734593 174.695 0.739302 174.919 0.744011C175.104 0.74872 175.289 0.753429 175.474 0.762846C175.897 0.781682 176.311 0.809936 176.729 0.852316H176.743C176.957 0.871152 177.166 0.894696 177.375 0.92295C177.589 0.946495 177.798 0.974748 178.002 1.00771C178.211 1.03596 178.42 1.07364 178.624 1.1066C178.833 1.13956 179.038 1.18194 179.237 1.21961C179.242 1.2149 179.247 1.2149 179.247 1.21961C179.451 1.25728 179.655 1.30437 179.855 1.34675C180.045 1.38443 180.225 1.43151 180.411 1.46919C180.453 1.4786 180.496 1.48802 180.529 1.49744C180.705 1.53982 180.876 1.58691 181.052 1.634C181.294 1.69992 181.536 1.76585 181.774 1.84119C181.936 1.88828 182.102 1.94008 182.259 1.99188C182.62 2.1096 182.976 2.23203 183.332 2.36388C183.575 2.44864 183.812 2.54282 184.045 2.637C184.216 2.70763 184.387 2.77827 184.558 2.85361C184.748 2.93366 184.929 3.01371 185.119 3.10318C185.304 3.18794 185.484 3.27741 185.67 3.36218C186.976 3.99788 188.216 4.73718 189.385 5.58008C189.527 5.67897 189.675 5.78256 189.812 5.89087C190.33 6.27229 190.824 6.67255 191.304 7.09165C191.518 7.2753 191.727 7.45894 191.926 7.65201C192.763 8.42427 193.546 9.24834 194.264 10.1195C194.397 10.2749 194.52 10.4303 194.644 10.5857C194.905 10.9153 195.152 11.2449 195.395 11.5793C195.518 11.7441 195.637 11.9183 195.751 12.0925C195.955 12.3845 196.145 12.6811 196.335 12.9825C196.43 13.1332 196.521 13.2886 196.611 13.4393C196.777 13.7312 196.948 14.0185 197.105 14.3199C197.186 14.4611 197.262 14.6071 197.333 14.7531C197.594 15.2475 197.832 15.7514 198.06 16.2646C198.112 16.3965 198.174 16.5283 198.226 16.6696C198.44 17.1829 198.639 17.7009 198.815 18.2283C198.886 18.426 198.948 18.6144 199.01 18.8122C199.366 19.9423 199.647 21.1007 199.841 22.2874C199.86 22.4098 199.879 22.5369 199.903 22.6688C199.932 22.876 199.965 23.0832 199.989 23.2857C200.012 23.4976 200.036 23.7047 200.06 23.9166C200.084 24.1286 200.098 24.3405 200.122 24.5524C200.145 24.9385 200.164 25.3293 200.174 25.7202C200.183 25.9697 200.188 26.2193 200.188 26.4736V363.671H200.207Z" fill="#C7C7C7"/>
<path d="M28.8883 389.278C28.6792 389.259 28.4702 389.24 28.2659 389.212H28.2517C27.8384 389.165 27.4345 389.104 27.0307 389.033C24.5841 388.618 22.2467 387.87 20.0803 386.829C19.9283 386.754 19.7762 386.683 19.6242 386.608C19.2394 386.405 18.8546 386.203 18.4793 385.991C18.3035 385.892 18.1372 385.793 17.9709 385.69C17.1205 385.176 16.2939 384.621 15.5147 384.013C15.3722 383.905 15.2345 383.797 15.0919 383.684C14.6739 383.349 14.2701 383.005 13.8757 382.652C13.7475 382.535 13.6192 382.417 13.4957 382.294C13.3484 382.158 13.2011 382.021 13.0586 381.875C12.9208 381.734 12.7783 381.588 12.6358 381.447C12.5407 381.353 12.4505 381.258 12.365 381.16C12.251 381.037 12.1369 380.915 12.0277 380.792C11.3626 380.053 10.7449 379.285 10.1701 378.48C10.0656 378.339 9.96582 378.188 9.86606 378.047C9.5525 377.595 9.26268 377.133 8.98238 376.663C8.87787 376.498 8.77813 376.323 8.68311 376.149C7.96574 374.873 7.35287 373.531 6.86354 372.142C6.79228 371.949 6.7305 371.765 6.66874 371.572C6.35519 370.612 6.09865 369.627 5.89911 368.624C5.86111 368.422 5.81835 368.219 5.7851 368.022C5.54281 366.609 5.41455 365.154 5.41455 363.671V28.9222C5.41455 15.1439 16.4079 3.85658 30.1567 3.22559C17.7714 3.86129 7.89446 14.042 7.89446 26.4689V366.129C7.89446 378.132 17.1015 388.039 28.8835 389.278H28.8883Z" fill="url(#paint0_linear_497_4141)"/>
<path d="M200.207 28.9221V363.671C200.207 366.425 199.765 369.086 198.953 371.577C198.891 371.77 198.83 371.958 198.758 372.147C198.692 372.34 198.625 372.523 198.549 372.712C198.502 372.853 198.445 372.999 198.388 373.136C198.221 373.555 198.041 373.964 197.851 374.374C197.765 374.558 197.685 374.737 197.594 374.915C197.471 375.165 197.347 375.41 197.214 375.659C197.129 375.824 197.039 375.989 196.948 376.149C196.853 376.323 196.753 376.493 196.649 376.667C196.373 377.138 196.074 377.604 195.761 378.061C195.661 378.202 195.561 378.353 195.456 378.494C195.342 378.654 195.224 378.814 195.105 378.97C194.991 379.13 194.867 379.29 194.749 379.441C194.625 379.596 194.502 379.752 194.378 379.902C194.255 380.053 194.126 380.208 193.993 380.359C193.737 380.66 193.471 380.952 193.2 381.24C192.782 381.682 192.354 382.111 191.903 382.525C191.77 382.643 191.637 382.765 191.494 382.888C191.181 383.161 190.867 383.429 190.544 383.693C190.406 383.801 190.264 383.91 190.117 384.023C189.646 384.385 189.162 384.729 188.663 385.059C188.501 385.167 188.33 385.275 188.164 385.383C187.827 385.6 187.485 385.803 187.138 385.996C186.972 386.094 186.796 386.193 186.625 386.283C186.064 386.589 185.494 386.871 184.91 387.126C184.758 387.201 184.601 387.262 184.449 387.328C184.264 387.413 184.083 387.484 183.893 387.559C183.703 387.634 183.518 387.705 183.328 387.776C182.905 387.931 182.482 388.082 182.05 388.213C181.898 388.261 181.746 388.308 181.594 388.35C181.028 388.515 180.449 388.666 179.864 388.793C179.66 388.835 179.456 388.882 179.251 388.92C179.038 388.962 178.819 389.005 178.596 389.038C178.187 389.108 177.784 389.165 177.375 389.216H177.361C177.152 389.24 176.943 389.259 176.738 389.282C188.52 388.044 197.732 378.136 197.732 366.133V26.4641C197.732 14.2491 188.193 4.20497 176.106 3.26318C189.556 4.20497 200.207 15.3557 200.207 28.9221Z" fill="url(#paint1_linear_497_4141)"/>
<path d="M200.207 363.67V366.128C200.207 380.316 188.563 391.858 174.249 391.858H31.3777C17.0635 391.858 5.41455 380.316 5.41455 366.128V363.67C5.41455 365.154 5.54281 366.609 5.7851 368.021C5.81835 368.224 5.86111 368.426 5.89911 368.624C6.09865 369.627 6.35519 370.607 6.66874 371.572C6.7305 371.765 6.79228 371.949 6.86354 372.142C7.35288 373.531 7.96574 374.873 8.68311 376.149C8.77813 376.323 8.87787 376.493 8.98238 376.662C9.25793 377.133 9.5525 377.595 9.86606 378.047C9.96582 378.188 10.0656 378.339 10.1701 378.48C10.7449 379.285 11.3626 380.057 12.0277 380.792C12.1369 380.914 12.251 381.037 12.365 381.159C12.4553 381.258 12.5455 381.352 12.6358 381.446C12.7735 381.588 12.9161 381.734 13.0586 381.875C13.2011 382.016 13.3484 382.153 13.4957 382.294C13.6192 382.416 13.7475 382.534 13.8757 382.652C14.2653 383.005 14.6739 383.349 15.0919 383.683C15.2297 383.796 15.3675 383.905 15.5147 384.013C16.2986 384.616 17.1205 385.176 17.9709 385.689C18.1372 385.793 18.3082 385.892 18.4793 385.991C18.8546 386.207 19.2394 386.41 19.6242 386.607C19.7762 386.683 19.9283 386.753 20.0803 386.829C22.2467 387.869 24.5793 388.623 27.0307 389.033C27.4298 389.103 27.8384 389.16 28.2517 389.211H28.2659C28.684 389.259 29.0973 389.301 29.5202 389.329C29.7339 389.343 29.9525 389.357 30.1663 389.367C30.5701 389.386 30.9739 389.395 31.3872 389.395H174.258C174.667 389.395 175.066 389.386 175.47 389.367C175.684 389.357 175.902 389.343 176.116 389.329C176.458 389.306 176.795 389.277 177.133 389.235C177.213 389.23 177.289 389.221 177.37 389.211H177.384C177.798 389.164 178.201 389.103 178.605 389.033C178.829 389 179.047 388.957 179.261 388.915C179.47 388.877 179.674 388.83 179.874 388.788C180.458 388.661 181.038 388.515 181.603 388.345C181.755 388.303 181.912 388.256 182.059 388.208C182.491 388.077 182.914 387.931 183.337 387.771C183.527 387.7 183.712 387.629 183.902 387.554C184.092 387.479 184.273 387.408 184.458 387.323C184.61 387.257 184.767 387.196 184.919 387.121C185.503 386.866 186.074 386.579 186.634 386.278C186.805 386.188 186.976 386.094 187.147 385.991C187.494 385.793 187.836 385.59 188.173 385.378C188.34 385.275 188.511 385.167 188.672 385.054C189.166 384.724 189.656 384.38 190.126 384.018C190.269 383.909 190.416 383.796 190.554 383.688C190.877 383.424 191.195 383.156 191.504 382.883C191.642 382.765 191.775 382.643 191.912 382.52C192.364 382.101 192.796 381.677 193.209 381.235C193.48 380.947 193.751 380.655 194.003 380.354C194.136 380.203 194.264 380.048 194.387 379.897C194.516 379.747 194.639 379.591 194.758 379.436C194.882 379.28 195 379.12 195.114 378.965C195.238 378.809 195.352 378.649 195.466 378.489C195.57 378.348 195.67 378.197 195.77 378.056C196.084 377.599 196.378 377.133 196.658 376.662C196.763 376.488 196.863 376.318 196.958 376.144C197.053 375.984 197.143 375.819 197.224 375.654C197.357 375.41 197.48 375.165 197.604 374.91C197.694 374.732 197.784 374.553 197.86 374.369C198.05 373.959 198.226 373.55 198.397 373.13C198.454 372.994 198.511 372.853 198.559 372.707C198.635 372.518 198.701 372.335 198.768 372.142C198.839 371.953 198.901 371.765 198.962 371.572C199.775 369.081 200.217 366.425 200.217 363.666L200.207 363.67Z" fill="url(#paint2_linear_497_4141)"/>
<path d="M200.207 26.464V28.922C200.207 15.5628 189.888 4.55332 176.733 3.31487C176.524 3.29603 176.311 3.2772 176.106 3.26307C175.893 3.24894 175.674 3.23482 175.46 3.2254H175.456C175.056 3.20656 174.657 3.19715 174.249 3.19715H31.3777C30.9691 3.19715 30.5701 3.20656 30.171 3.2254H30.1567C16.4079 3.8611 5.41455 15.1437 5.41455 28.922V26.464C5.41455 26.2097 5.41929 25.9601 5.42879 25.7058C5.42879 25.5128 5.43831 25.3291 5.44781 25.1408C5.46681 24.7264 5.49529 24.3214 5.5428 23.9117C5.56181 23.6998 5.58557 23.4879 5.61408 23.2807C5.62833 23.1677 5.64257 23.0594 5.65682 22.9464C5.67107 22.8145 5.6901 22.6827 5.71385 22.5414C5.74236 22.3295 5.78035 22.1176 5.81836 21.9057C5.88487 21.5384 5.95615 21.1758 6.04166 20.8132C6.07967 20.6296 6.12716 20.4554 6.16991 20.2764C6.29819 19.7396 6.44546 19.2216 6.61649 18.6989C6.66875 18.5388 6.72577 18.3693 6.77803 18.2092C6.84929 18.0067 6.91581 17.8042 6.99182 17.6112C7.05358 17.4464 7.11533 17.2816 7.18184 17.1214C7.2341 16.9849 7.28637 16.853 7.34338 16.7165C7.40989 16.5564 7.4764 16.3916 7.54766 16.2362C7.59992 16.1137 7.65216 15.996 7.70917 15.8783C7.78993 15.6994 7.86596 15.5298 7.95622 15.3509C8.09875 15.0448 8.25554 14.7434 8.41707 14.4421C8.49783 14.2914 8.57858 14.136 8.66884 13.9853C8.76386 13.8064 8.86838 13.6321 8.9729 13.4579C9.69027 12.243 10.5074 11.094 11.4148 10.0157C11.5431 9.86499 11.6713 9.70959 11.8044 9.55891C11.9516 9.3941 12.1037 9.21987 12.2605 9.05505C12.517 8.78194 12.7736 8.50882 13.0443 8.24983C13.3341 7.96258 13.6239 7.68946 13.9232 7.42106C14.2273 7.15736 14.5266 6.88895 14.8401 6.63466C14.9922 6.50752 15.1537 6.38509 15.3105 6.25795C15.6288 6.01308 15.9518 5.77293 16.2796 5.53748C16.6075 5.30675 16.94 5.08072 17.2821 4.8594C17.6241 4.64279 17.9662 4.43088 18.3177 4.2284C18.4935 4.1248 18.6693 4.02592 18.8498 3.92703C19.0304 3.82814 19.2061 3.73396 19.3867 3.63978C19.5719 3.54561 19.7477 3.45143 19.933 3.36667C20.1183 3.2772 20.2988 3.18773 20.4889 3.10297C20.8547 2.93815 21.2347 2.77334 21.6148 2.62266C21.7953 2.54731 21.9759 2.47668 22.1612 2.40605C22.1754 2.39663 22.1944 2.39192 22.2087 2.38721C22.3939 2.31658 22.5792 2.25536 22.7645 2.18473C22.9498 2.12351 23.1303 2.06229 23.3156 1.99637C23.5246 1.93044 23.7337 1.86452 23.9427 1.8033C24.1422 1.74209 24.337 1.69029 24.5366 1.63849C24.7408 1.58669 24.9404 1.53018 25.1399 1.48309C25.3442 1.43601 25.5485 1.38421 25.748 1.34183C26.1613 1.24765 26.5699 1.1676 26.988 1.10167C27.1922 1.06871 27.4013 1.03104 27.6056 1.00278C28.0521 0.936859 28.5035 0.885061 28.9548 0.847389C29.3111 0.814427 29.6722 0.790882 30.0332 0.767338C30.2518 0.75792 30.4751 0.748502 30.6983 0.743793C30.9216 0.739084 31.1449 0.734375 31.3682 0.734375H174.239C174.463 0.734375 174.686 0.739084 174.909 0.743793C175.094 0.748502 175.28 0.753211 175.465 0.762629C175.888 0.781464 176.301 0.809718 176.719 0.852098H176.733C176.947 0.870934 177.156 0.894479 177.365 0.922732C177.579 0.946277 177.788 0.97453 177.992 1.00749C178.201 1.03575 178.411 1.07342 178.615 1.10638C178.824 1.13934 179.028 1.18172 179.228 1.21939C179.232 1.21469 179.237 1.21469 179.237 1.21939C179.441 1.25707 179.646 1.30416 179.845 1.34654C180.035 1.38421 180.216 1.4313 180.401 1.46897C180.444 1.47839 180.487 1.4878 180.52 1.49722C180.696 1.5396 180.867 1.58669 181.042 1.63378C181.285 1.69971 181.527 1.76563 181.765 1.84097C181.926 1.88806 182.092 1.93986 182.249 1.99166C182.61 2.10938 182.967 2.23181 183.323 2.36366C183.565 2.44843 183.803 2.5426 184.035 2.63678C184.206 2.70742 184.378 2.77805 184.549 2.85339C184.739 2.93345 184.919 3.0135 185.109 3.10297C185.294 3.18773 185.475 3.2772 185.66 3.36196C186.967 3.99766 188.207 4.73697 189.375 5.57986C189.518 5.67875 189.665 5.78235 189.803 5.89065C190.321 6.27208 190.815 6.67233 191.295 7.09143C191.508 7.27508 191.718 7.45873 191.917 7.65179C192.753 8.42406 193.537 9.24812 194.254 10.1193C194.387 10.2747 194.511 10.4301 194.635 10.5855C194.896 10.9151 195.143 11.2447 195.385 11.579C195.509 11.7439 195.627 11.9181 195.741 12.0923C195.946 12.3843 196.136 12.6809 196.326 12.9823C196.421 13.133 196.511 13.2884 196.601 13.4391C196.768 13.731 196.939 14.0183 197.095 14.3196C197.176 14.4609 197.252 14.6069 197.324 14.7529C197.585 15.2473 197.822 15.7512 198.05 16.2644C198.103 16.3963 198.164 16.5281 198.217 16.6694C198.43 17.1827 198.63 17.7006 198.806 18.228C198.877 18.4258 198.939 18.6142 199 18.812C199.357 19.9421 199.637 21.1005 199.832 22.2871C199.851 22.4096 199.87 22.5367 199.894 22.6686C199.922 22.8758 199.955 23.083 199.979 23.2854C200.003 23.4973 200.027 23.7045 200.05 23.9164C200.074 24.1283 200.088 24.3402 200.112 24.5521C200.136 24.9383 200.155 25.3291 200.164 25.72C200.174 25.9695 200.179 26.2191 200.179 26.4734L200.207 26.464Z" fill="url(#paint3_linear_497_4141)"/>
<path d="M175.46 3.22112H175.455C175.061 3.20229 174.657 3.19287 174.249 3.19287H31.3775C30.969 3.19287 30.5699 3.20229 30.1708 3.22112H30.1566C17.7712 3.85683 7.89429 14.0375 7.89429 26.4644V366.129C7.89429 378.344 17.4292 388.388 29.5152 389.33C29.729 389.344 29.9475 389.358 30.1613 389.367C30.5651 389.386 30.969 389.396 31.3823 389.396H174.253C174.662 389.396 175.061 389.386 175.465 389.367C175.679 389.358 175.897 389.344 176.111 389.33C188.192 388.388 197.737 378.339 197.737 366.129V26.4644C197.737 14.0375 187.855 3.85212 175.47 3.22112H175.46ZM195.746 366.124C195.746 377.167 187.047 386.504 175.964 387.366C175.764 387.38 175.565 387.394 175.36 387.399C174.995 387.418 174.624 387.427 174.249 387.427H31.3775C31.0022 387.427 30.6222 387.418 30.2516 387.399C30.0521 387.394 29.8525 387.38 29.6673 387.366C18.5694 386.5 9.87537 377.167 9.87537 366.124V26.4644C9.87537 15.1347 18.8021 5.79691 30.2136 5.18946H30.2706C30.6317 5.17062 31.0022 5.1612 31.3775 5.1612H174.249C174.619 5.1612 174.99 5.17062 175.356 5.18475H175.389C186.81 5.78278 195.746 15.13 195.746 26.4644V366.129V366.124Z" fill="#404040"/>
<path d="M195.741 26.6005V366.265C195.741 368.37 195.423 370.414 194.839 372.344C194.368 373.889 193.727 375.363 192.929 376.742C192.767 377.03 192.591 377.307 192.42 377.581C192.154 377.995 191.874 378.395 191.589 378.791C190.767 379.902 189.841 380.929 188.824 381.866C190.701 378.612 191.779 374.84 191.779 370.851V366.934C191.789 366.703 191.793 366.467 191.793 366.232V26.5676C191.793 26.3274 191.789 26.0872 191.779 25.8518V22.0187C191.779 17.9785 190.705 14.1878 188.819 10.9292C193.086 14.8282 195.741 20.4224 195.741 26.6005Z" fill="url(#paint4_linear_497_4141)"/>
<path d="M175.284 7.14806H175.194C174.881 7.12922 174.567 7.12451 174.249 7.12451H31.3776C31.0546 7.12451 30.7315 7.12922 30.4132 7.14335L30.3182 7.15277H30.2707C19.9425 7.72725 11.8613 16.2033 11.8613 26.4641V366.124C11.8613 376.159 19.7477 384.625 29.8336 385.412C29.9809 385.421 30.1472 385.435 30.3039 385.44H30.361C30.6983 385.459 31.0356 385.468 31.3776 385.468H174.249C174.586 385.468 174.919 385.459 175.251 385.44H175.313C175.479 385.435 175.65 385.421 175.807 385.407C185.874 384.625 193.76 376.149 193.76 366.124V26.4641C193.76 16.1704 185.646 7.68958 175.284 7.14806ZM188.558 366.129C188.558 369.349 187.451 372.34 185.589 374.746C185.484 374.878 185.385 375 185.28 375.123C184.967 375.499 184.634 375.862 184.287 376.206C183.978 376.502 183.655 376.799 183.323 377.072H183.318C182.895 377.416 182.453 377.736 181.993 378.037C181.532 378.339 181.061 378.607 180.567 378.847H180.563C180.32 378.97 180.068 379.083 179.812 379.191H179.807C179.555 379.299 179.294 379.398 179.033 379.488C178.51 379.676 177.969 379.832 177.418 379.954C176.757 380.1 176.083 380.204 175.389 380.26C175.327 380.265 175.265 380.269 175.199 380.279H174.976C174.914 380.288 174.857 380.288 174.8 380.298C174.738 380.298 174.681 380.302 174.619 380.302C174.496 380.302 174.367 380.307 174.249 380.307H31.3824C31.2636 380.307 31.1401 380.302 31.0118 380.302C30.8883 380.298 30.76 380.293 30.6365 380.284H30.437C30.3752 380.274 30.3134 380.265 30.2422 380.26C22.8547 379.686 17.0634 373.474 17.0634 366.124V26.4641C17.0634 18.991 22.9212 12.7988 30.4275 12.309H30.551L30.7458 12.2902C30.9786 12.2808 31.1828 12.2808 31.3776 12.2808H174.244C174.439 12.2808 174.648 12.2808 174.876 12.2902H175.014C175.061 12.2949 175.109 12.2996 175.156 12.309C175.299 12.3138 175.436 12.3279 175.569 12.342C175.631 12.342 175.693 12.3467 175.759 12.3608C175.883 12.3703 176.011 12.3844 176.135 12.4079C176.282 12.4173 176.429 12.4409 176.577 12.4691C176.581 12.4691 176.596 12.4691 176.6 12.4739C176.814 12.5021 177.028 12.5398 177.237 12.5869C177.275 12.5963 177.318 12.6104 177.356 12.6151C177.532 12.6481 177.703 12.6952 177.874 12.7376C178.125 12.8035 178.372 12.8788 178.624 12.9589C178.824 13.0154 179.023 13.0813 179.213 13.1567C179.422 13.232 179.636 13.3168 179.84 13.4062C180.254 13.5757 180.653 13.7688 181.047 13.9807C181.403 14.1691 181.75 14.3763 182.088 14.5929C182.164 14.6447 182.235 14.6965 182.316 14.7436C182.453 14.8377 182.586 14.9366 182.724 15.0308C182.905 15.1532 183.076 15.2898 183.247 15.4311C183.589 15.7089 183.917 15.9961 184.23 16.2975C184.396 16.4435 184.548 16.6036 184.691 16.7637C184.838 16.9238 184.986 17.0839 185.128 17.2487C185.703 17.9127 186.216 18.6237 186.653 19.3866C186.876 19.7633 187.076 20.1588 187.261 20.5591C187.442 20.9593 187.613 21.3643 187.76 21.7881C187.836 21.9953 187.903 22.2072 187.964 22.4191C188.102 22.8806 188.221 23.3515 188.306 23.8271C188.344 24.0201 188.382 24.2038 188.401 24.3969C188.506 25.0655 188.553 25.7625 188.553 26.4594V366.129H188.558Z" fill="black"/>
<path d="M55.2695 18.8213C55.2173 18.7272 55.1792 18.6283 55.1317 18.5341C55.1222 18.4964 55.1033 18.4587 55.0938 18.4258C55.1508 18.5623 55.2078 18.6895 55.2695 18.8213Z" fill="black"/>
<path d="M150.528 18.4258C150.518 18.4587 150.499 18.4917 150.49 18.5341C150.442 18.6283 150.404 18.7272 150.352 18.8213C150.414 18.6895 150.471 18.5623 150.528 18.4258Z" fill="black"/>
<path d="M153.63 12.2855C152.452 12.3467 151.497 13.2508 151.378 14.4045C151.378 14.5128 151.373 14.6117 151.369 14.7153C151.35 15.1438 151.307 15.5676 151.231 15.982C151.207 16.128 151.183 16.2692 151.15 16.4105C151.117 16.5894 151.074 16.759 151.031 16.9285C150.998 17.0792 150.951 17.2346 150.908 17.3852C150.898 17.4182 150.884 17.4512 150.875 17.4935C150.865 17.5265 150.851 17.5689 150.837 17.6066C150.832 17.6395 150.818 17.6678 150.808 17.696C150.789 17.7478 150.775 17.7996 150.756 17.8467C150.732 17.9032 150.718 17.9597 150.694 18.0162C150.647 18.1575 150.59 18.2941 150.533 18.4259C150.476 18.5625 150.419 18.6896 150.357 18.8215C150.352 18.845 150.347 18.8591 150.333 18.878C150.328 18.8874 150.328 18.8968 150.324 18.9062C150.271 19.0192 150.214 19.1275 150.157 19.2311C150.11 19.3253 150.062 19.4242 150.01 19.5137C150.001 19.5419 149.982 19.5702 149.958 19.6031C149.934 19.6549 149.905 19.6973 149.877 19.7444C149.844 19.8103 149.801 19.8763 149.763 19.9375C149.753 19.9563 149.744 19.9704 149.734 19.9893C149.725 20.0128 149.706 20.0364 149.687 20.0646C149.658 20.1117 149.635 20.1494 149.606 20.1871C149.578 20.2389 149.549 20.2812 149.516 20.3283C149.492 20.366 149.464 20.4084 149.435 20.446C149.426 20.4696 149.407 20.4837 149.388 20.5073C149.354 20.5591 149.326 20.6014 149.293 20.6485C149.269 20.6815 149.245 20.7145 149.217 20.7427C149.188 20.7945 149.155 20.8369 149.112 20.884C149.107 20.8934 149.093 20.9075 149.088 20.9169C149.084 20.9264 149.069 20.9405 149.06 20.9452C149.027 20.997 148.984 21.0488 148.946 21.0959C148.936 21.1194 148.917 21.1335 148.898 21.1524C148.86 21.2089 148.813 21.2654 148.765 21.3172H148.761C148.704 21.3831 148.647 21.4538 148.59 21.515C148.537 21.5903 148.476 21.6562 148.414 21.7175C148.414 21.7222 148.409 21.7269 148.409 21.7269H148.404C148.371 21.774 148.328 21.8116 148.29 21.8493C148.252 21.8964 148.205 21.9388 148.157 21.9859C148.119 22.033 148.076 22.0706 148.034 22.1083C147.958 22.1883 147.886 22.259 147.801 22.3343C147.744 22.3955 147.687 22.4473 147.62 22.5038C147.582 22.5368 147.544 22.5698 147.506 22.6074C147.416 22.6875 147.316 22.7675 147.226 22.8382C147.141 22.9135 147.05 22.9794 146.96 23.0548C146.903 23.1019 146.851 23.1396 146.794 23.1772C146.732 23.229 146.67 23.2714 146.599 23.3185C146.599 23.3232 146.594 23.3232 146.594 23.3232C146.532 23.3703 146.471 23.4127 146.399 23.4551C146.371 23.4833 146.342 23.5021 146.314 23.5163C146.205 23.5822 146.1 23.6575 145.991 23.7187C145.905 23.78 145.82 23.8318 145.734 23.8789C145.625 23.9448 145.52 24.0107 145.406 24.0578C145.368 24.086 145.321 24.1096 145.283 24.1331C145.273 24.1378 145.264 24.1426 145.254 24.1426C145.174 24.1896 145.093 24.2273 145.012 24.265C144.946 24.3027 144.87 24.3403 144.789 24.3733C144.727 24.4063 144.656 24.4345 144.589 24.4628C144.556 24.4816 144.523 24.491 144.48 24.5099C144.452 24.5287 144.423 24.5381 144.39 24.5475H144.385C144.209 24.6229 144.038 24.6888 143.862 24.75C143.696 24.8065 143.539 24.863 143.373 24.9148C143.193 24.9713 143.017 25.0231 142.832 25.0655C142.466 25.155 142.09 25.235 141.715 25.2915C141.563 25.3151 141.402 25.3386 141.245 25.3527C141.212 25.3575 141.183 25.3575 141.15 25.3622C141.012 25.3716 140.879 25.3857 140.746 25.3904C140.584 25.3998 140.432 25.4093 140.28 25.414C140.228 25.414 140.176 25.414 140.133 25.4187H65.4741C65.4266 25.414 65.3791 25.414 65.3268 25.414C65.1748 25.4093 65.018 25.4045 64.8613 25.3904C64.7282 25.3857 64.5952 25.3716 64.4574 25.3622C64.4242 25.3575 64.3957 25.3575 64.3624 25.3527C64.2009 25.3339 64.0441 25.3151 63.8921 25.2915C63.5168 25.235 63.1415 25.155 62.7757 25.0655C62.5951 25.0184 62.4193 24.9713 62.2341 24.9148C62.0678 24.863 61.911 24.8065 61.7447 24.75C61.569 24.6888 61.3979 24.6182 61.2221 24.5475H61.2174C61.1841 24.5381 61.1556 24.524 61.1271 24.5099C61.0891 24.491 61.0511 24.4816 61.0179 24.4628C60.9513 24.4345 60.8801 24.4063 60.8183 24.3733C60.7376 24.3403 60.6663 24.3074 60.595 24.265C60.5095 24.2273 60.4287 24.1849 60.3527 24.1426C60.3432 24.1426 60.3337 24.1378 60.3242 24.1331C60.2862 24.1096 60.2387 24.086 60.2007 24.0578C60.0867 24.006 59.9774 23.9448 59.8729 23.8789C59.7874 23.8318 59.7019 23.7847 59.6164 23.7187C59.5071 23.6575 59.4026 23.5822 59.2933 23.5163C59.2648 23.4974 59.2363 23.4833 59.2078 23.4551C59.1413 23.4174 59.0748 23.3703 59.013 23.3232C59.013 23.3232 59.0083 23.3232 59.0083 23.3185C58.9418 23.2714 58.8752 23.229 58.8135 23.1772C58.7565 23.1396 58.7042 23.0972 58.6472 23.0548C58.5569 22.9794 58.4667 22.9135 58.3812 22.8382C58.2909 22.7628 58.1959 22.6875 58.1009 22.6074C58.0628 22.5745 58.0248 22.5415 57.9868 22.5038C57.9203 22.4473 57.8633 22.3955 57.8063 22.3343C57.7208 22.259 57.6495 22.1883 57.5735 22.1083C57.526 22.0706 57.488 22.0282 57.45 21.9859C57.4025 21.9388 57.3597 21.8964 57.317 21.8493C57.279 21.8116 57.2362 21.7693 57.2029 21.7269H57.1982C57.165 21.6939 57.1365 21.6609 57.1079 21.6186C57.0177 21.515 56.9321 21.4161 56.8466 21.3125H56.8419C56.7944 21.2607 56.7516 21.2042 56.7089 21.1477C56.6899 21.1288 56.6756 21.1147 56.6614 21.0912C56.6234 21.0394 56.5806 20.9876 56.5474 20.9405C56.5379 20.9358 56.5236 20.9216 56.5189 20.9122C56.5141 20.9028 56.4998 20.8887 56.4951 20.8793C56.4571 20.8322 56.4191 20.7898 56.3906 20.738C56.3621 20.7097 56.3383 20.6768 56.3145 20.6438C56.2813 20.5967 56.2528 20.5544 56.2195 20.5026C56.2005 20.4837 56.191 20.4649 56.172 20.4413C56.1435 20.4037 56.115 20.3613 56.0913 20.3236C56.058 20.2765 56.0295 20.2341 56.001 20.1823C55.9725 20.1447 55.9488 20.1023 55.9202 20.0599C55.9107 20.0364 55.8917 20.0128 55.8727 19.9846C55.8632 19.9657 55.8537 19.9516 55.8442 19.9328C55.8062 19.8716 55.7635 19.8103 55.7302 19.7397C55.7017 19.6926 55.6732 19.6502 55.6494 19.5984C55.6304 19.5702 55.6162 19.5372 55.5972 19.509C55.5449 19.4195 55.4927 19.3206 55.4499 19.2264C55.3929 19.1181 55.3359 19.0145 55.2836 18.9015C55.2789 18.8921 55.2789 18.8827 55.2741 18.8733C55.2646 18.8544 55.2551 18.8403 55.2504 18.8168C55.1886 18.6849 55.1316 18.5578 55.0746 18.4212C55.0176 18.2846 54.9606 18.1528 54.9131 18.0115C54.8893 17.955 54.8751 17.8985 54.8513 17.842C54.8323 17.7902 54.818 17.7384 54.799 17.6913C54.7895 17.6631 54.7753 17.6348 54.7705 17.6019C54.7515 17.5642 54.742 17.5265 54.7325 17.4888C54.723 17.4559 54.7088 17.4135 54.6993 17.3805C54.6518 17.2298 54.609 17.0745 54.5758 16.9238C54.5283 16.7542 54.4902 16.5847 54.457 16.4105C54.4237 16.2645 54.4 16.1232 54.3762 15.9773C54.3002 15.5582 54.2574 15.1391 54.2384 14.7106C54.2337 14.607 54.229 14.5081 54.229 14.3998C54.1102 13.2461 53.1553 12.342 51.9771 12.2808H153.611L153.63 12.2855Z" fill="black"/>
<path d="M64.8661 25.3954C65.0229 25.4049 65.1797 25.4143 65.3317 25.419C65.2462 25.419 65.1559 25.419 65.0704 25.4143C64.9801 25.4143 64.8899 25.4096 64.7996 25.3954C64.6951 25.3907 64.6001 25.3766 64.5003 25.3719C64.4908 25.3719 64.4765 25.3719 64.467 25.3672C64.6048 25.3766 64.7378 25.3907 64.8708 25.3954H64.8661Z" fill="black"/>
<path d="M141.159 25.3672C141.159 25.3672 141.136 25.3719 141.126 25.3719C141.022 25.3766 140.927 25.3907 140.827 25.3954C140.737 25.4049 140.646 25.4143 140.556 25.4143C140.47 25.419 140.38 25.419 140.295 25.419C140.447 25.4143 140.603 25.4096 140.76 25.3954C140.893 25.3907 141.026 25.3766 141.164 25.3672H141.159Z" fill="black"/>
<path d="M54.9317 18.0151C54.9317 18.0151 54.927 18.0058 54.9223 17.9964C54.9034 17.9449 54.8892 17.8935 54.8704 17.8467C54.894 17.9028 54.9081 17.959 54.9317 18.0151Z" fill="black"/>
<path d="M55.2695 18.8218C55.2173 18.7276 55.1792 18.6288 55.1317 18.5346C55.1222 18.4969 55.1033 18.4592 55.0938 18.4263C55.1508 18.5628 55.2078 18.69 55.2695 18.8218Z" fill="black"/>
<path d="M56.6653 21.0997C56.6134 21.0435 56.5709 20.9827 56.5237 20.9219C56.5284 20.9312 56.5426 20.9453 56.552 20.9499C56.5851 21.0014 56.6276 21.0529 56.6653 21.0997Z" fill="black"/>
<path d="M57.1128 21.6235C57.051 21.5622 56.994 21.501 56.9417 21.4304C56.9084 21.3927 56.8752 21.3551 56.8467 21.3174H56.8514C56.9369 21.421 57.0225 21.5199 57.1128 21.6235Z" fill="black"/>
<path d="M57.3209 21.8536C57.2737 21.8162 57.2359 21.7694 57.2029 21.7319H57.2076C57.2407 21.7787 57.2831 21.8162 57.3209 21.8536Z" fill="black"/>
<path d="M58.6521 23.0548C58.5618 22.9936 58.4715 22.9182 58.386 22.8476C58.3338 22.8099 58.2767 22.7628 58.2245 22.711C58.177 22.6781 58.1437 22.6451 58.1057 22.6074C58.196 22.6875 58.2958 22.7675 58.386 22.8382C58.4715 22.9135 58.5618 22.9794 58.6521 23.0548Z" fill="black"/>
<path d="M58.8184 23.1772C58.8797 23.2287 58.9411 23.2708 59.0119 23.3176C58.9883 23.3083 58.9741 23.2942 58.9553 23.2849C58.9081 23.2521 58.8656 23.2194 58.8184 23.1772Z" fill="black"/>
<path d="M59.6211 23.7191C59.5546 23.6861 59.4881 23.6437 59.4264 23.6061C59.4216 23.6061 59.4216 23.6014 59.4169 23.6014C59.3789 23.5731 59.3361 23.5449 59.2981 23.5166C59.4074 23.5825 59.5166 23.6579 59.6211 23.7191Z" fill="black"/>
<path d="M61.7496 24.7503C61.6024 24.6985 61.4598 24.6467 61.3126 24.5855C61.2841 24.5761 61.2556 24.562 61.2271 24.5479C61.4028 24.6232 61.5738 24.6891 61.7496 24.7503Z" fill="black"/>
<path d="M62.2389 24.9148C62.4194 24.9713 62.5952 25.0231 62.7805 25.0655C62.6617 25.0372 62.5382 25.0043 62.4146 24.9713C62.3529 24.9525 62.2959 24.9384 62.2389 24.9195C62.1581 24.896 62.0773 24.8677 62.0013 24.8395C61.9158 24.8112 61.8303 24.783 61.7495 24.75C61.9158 24.8065 62.0726 24.863 62.2389 24.9148Z" fill="black"/>
<path d="M63.8968 25.2915C64.0488 25.315 64.2104 25.3385 64.3671 25.3527C64.2246 25.3433 64.0821 25.3244 63.9443 25.3009C63.9253 25.3009 63.9111 25.2962 63.8921 25.2962C63.8303 25.2868 63.7686 25.2726 63.702 25.2632C63.5785 25.2444 63.4502 25.2255 63.3267 25.1973C63.1699 25.1643 63.0132 25.1314 62.8564 25.089C62.8326 25.0843 62.8041 25.0796 62.7756 25.0654C63.1414 25.1549 63.5167 25.235 63.8921 25.2915H63.8968Z" fill="black"/>
<path d="M64.866 25.3954H64.7995C64.7662 25.3954 64.7234 25.3954 64.6902 25.3907C64.6284 25.386 64.5572 25.3813 64.4954 25.3719C64.4859 25.3719 64.4717 25.3719 64.4622 25.3672C64.5999 25.3766 64.7329 25.3907 64.866 25.3954Z" fill="black"/>
<path d="M140.138 25.4233C140.09 25.428 140.043 25.428 139.991 25.428H65.6309C65.5787 25.428 65.5264 25.428 65.4836 25.4233H140.143H140.138Z" fill="black"/>
<path d="M140.755 25.3954C140.888 25.3907 141.021 25.3766 141.159 25.3672C141.15 25.3719 141.135 25.3719 141.126 25.3719C141.064 25.3766 140.993 25.3813 140.931 25.3907C140.898 25.3954 140.855 25.3954 140.822 25.3954H140.755Z" fill="black"/>
<path d="M141.725 25.2915C142.1 25.235 142.475 25.1549 142.841 25.0654C142.813 25.0748 142.784 25.0843 142.76 25.089C142.599 25.1266 142.447 25.1643 142.29 25.1973C142.166 25.2255 142.038 25.2491 141.915 25.2632C141.853 25.2726 141.791 25.2868 141.725 25.2962C141.706 25.2962 141.691 25.3009 141.672 25.3009C141.535 25.3244 141.392 25.3385 141.25 25.3527C141.411 25.3338 141.568 25.315 141.72 25.2915H141.725Z" fill="black"/>
<path d="M143.872 24.75C143.791 24.783 143.705 24.8112 143.62 24.8395C143.539 24.8677 143.458 24.896 143.382 24.9195C143.325 24.9384 143.268 24.9525 143.207 24.9713C143.088 25.0043 142.96 25.0372 142.841 25.0655C143.021 25.0184 143.197 24.9713 143.382 24.9148C143.549 24.863 143.705 24.8065 143.872 24.75Z" fill="black"/>
<path d="M143.872 24.7503C144.048 24.6891 144.219 24.6185 144.395 24.5479C144.366 24.5667 144.338 24.5761 144.309 24.5855C144.162 24.6467 144.019 24.6985 143.872 24.7503Z" fill="black"/>
<path d="M146.005 23.7191C146.114 23.6579 146.219 23.5825 146.328 23.5166C146.29 23.5449 146.247 23.5731 146.209 23.6014C146.205 23.6014 146.205 23.6061 146.2 23.6061C146.138 23.6437 146.076 23.6861 146.005 23.7191Z" fill="black"/>
<path d="M146.802 23.1772C146.755 23.2147 146.712 23.2521 146.665 23.2849C146.646 23.2942 146.632 23.3083 146.608 23.3176C146.674 23.2708 146.741 23.2287 146.802 23.1772Z" fill="black"/>
<path d="M147.516 22.6123C147.478 22.6453 147.44 22.6782 147.397 22.7159C147.345 22.7677 147.288 22.8101 147.236 22.8525C147.15 22.9278 147.06 22.9984 146.969 23.0597C147.06 22.9843 147.15 22.9184 147.236 22.843C147.326 22.7677 147.426 22.6924 147.516 22.6123Z" fill="black"/>
<path d="M148.418 21.7319C148.385 21.7694 148.342 21.8162 148.3 21.8536C148.338 21.8162 148.38 21.774 148.413 21.7319H148.418Z" fill="black"/>
<path d="M148.778 21.3174C148.75 21.3548 148.717 21.3922 148.684 21.4297C148.66 21.4577 148.637 21.4858 148.604 21.5139C148.66 21.4531 148.717 21.3829 148.774 21.3174H148.778Z" fill="black"/>
<path d="M149.097 20.917C149.05 20.9778 149.007 21.0386 148.955 21.0948C148.993 21.0433 149.036 20.9919 149.069 20.9451C149.078 20.9404 149.092 20.9263 149.097 20.917Z" fill="black"/>
<path d="M150.528 18.4263C150.518 18.4592 150.499 18.4922 150.49 18.5346C150.442 18.6288 150.404 18.7276 150.352 18.8218C150.414 18.69 150.471 18.5628 150.528 18.4263Z" fill="black"/>
<path d="M150.751 17.8467C150.732 17.8981 150.718 17.9496 150.699 17.9964C150.694 18.0011 150.694 18.0058 150.689 18.0151C150.713 17.959 150.727 17.9028 150.751 17.8467Z" fill="black"/>
<path d="M191.774 366.934V370.852C191.774 374.84 190.701 378.612 188.819 381.866C185.385 385.021 180.914 387.088 175.973 387.474C175.774 387.489 175.569 387.503 175.37 387.507C175.004 387.526 174.633 387.536 174.258 387.536H31.3871C31.0117 387.536 30.6317 387.526 30.2611 387.507C30.0616 387.503 29.8573 387.489 29.6768 387.474C29.406 387.456 29.1304 387.427 28.8596 387.39C24.2418 386.853 20.0706 384.847 16.8306 381.866C14.935 378.603 13.8518 374.817 13.8518 370.814V366.232C13.8518 371.464 16.2462 376.229 20.0231 379.432C22.7501 381.748 26.1992 383.26 29.9903 383.552C30.1138 383.561 30.2373 383.575 30.3609 383.575H30.4702C30.7742 383.594 31.0783 383.604 31.3871 383.604H174.258C174.557 383.604 174.857 383.594 175.156 383.58H175.27C175.408 383.575 175.541 383.561 175.679 383.552C184.472 382.869 191.418 375.631 191.779 366.934H191.774Z" fill="url(#paint5_linear_497_4141)"/>
<path d="M195.741 26.6008L195.756 26.5678C195.756 15.2287 186.819 5.88623 175.398 5.2929H175.365C175.004 5.27407 174.634 5.26465 174.258 5.26465H31.3871C31.0166 5.26465 30.646 5.27407 30.2802 5.28819H30.2184C29.7529 5.31645 29.2968 5.35883 28.8407 5.41062C24.2087 5.95215 20.0422 7.93932 16.8069 10.8965C14.9256 14.1551 13.8472 17.9458 13.8472 21.9861V26.5678C13.8472 21.2938 16.2273 16.5425 20.0042 13.3405C22.8072 10.9672 26.3845 9.45089 30.3325 9.22015H30.4275L30.5558 9.20602C30.8598 9.1966 31.1306 9.1919 31.3824 9.1919H174.253C174.481 9.1919 174.729 9.1966 175.004 9.20602H175.009L175.189 9.21544C184.254 9.68633 191.409 16.9287 191.774 25.8521V22.019C191.774 17.9788 190.701 14.1881 188.815 10.9295C193.081 14.8285 195.737 20.4227 195.737 26.6008H195.741Z" fill="url(#paint6_linear_497_4141)"/>
<path d="M16.8212 381.762C12.5502 377.84 9.87549 372.246 9.87549 366.124V26.4643C9.87549 20.2862 12.5312 14.692 16.7974 10.793C14.9161 14.0515 13.8377 17.8422 13.8377 21.8825V370.711C13.8377 374.713 14.9209 378.504 16.8164 381.762H16.8212Z" fill="url(#paint7_linear_497_4141)"/>
<path d="M195.741 26.601V366.266C195.741 368.37 195.423 370.414 194.839 372.345C194.369 373.889 193.727 375.363 192.929 376.743C192.767 377.03 192.592 377.308 192.421 377.581C192.164 377.995 191.884 378.396 191.589 378.791C190.767 379.917 189.831 380.962 188.801 381.904C188.81 381.89 188.815 381.88 188.824 381.866C190.701 378.612 191.779 374.84 191.779 370.852V22.0192C191.779 17.979 190.706 14.1883 188.82 10.9297C193.086 14.8287 195.741 20.4229 195.741 26.601Z" fill="url(#paint8_linear_497_4141)"/>
<path d="M112.412 16.1799H92.0075C91.3471 16.1799 90.8103 15.6478 90.8103 14.9933C90.8103 14.3387 91.3471 13.8066 92.0075 13.8066H112.412C113.073 13.8066 113.609 14.3387 113.609 14.9933C113.609 15.6478 113.073 16.1799 112.412 16.1799Z" fill="url(#paint9_linear_497_4141)"/>
<path d="M188.558 26.4641V366.129C188.558 369.349 187.451 372.34 185.589 374.746C185.484 374.878 185.385 375 185.28 375.123C184.962 375.499 184.634 375.862 184.287 376.206C183.978 376.502 183.655 376.799 183.323 377.072H183.318C182.895 377.416 182.453 377.736 181.992 378.037C181.536 378.329 181.061 378.603 180.567 378.847H180.562C180.32 378.965 180.068 379.078 179.812 379.191H179.807C179.555 379.299 179.294 379.394 179.033 379.488C178.51 379.676 177.969 379.827 177.417 379.954C176.757 380.1 176.082 380.204 175.389 380.26C175.313 380.265 175.265 380.269 175.199 380.279H175.009L174.99 380.288C174.928 380.288 174.857 380.288 174.795 380.293C174.733 380.293 174.676 380.298 174.614 380.298C174.491 380.298 174.363 380.302 174.244 380.302H31.3775C31.2588 380.302 31.1353 380.298 31.007 380.298C30.8835 380.293 30.7552 380.288 30.6317 380.288H30.5176L30.4796 380.279H30.4321C30.3704 380.274 30.3134 380.269 30.2374 380.26C22.8499 379.686 17.0586 373.474 17.0586 366.124V26.4641C17.0586 18.991 22.9163 12.7987 30.4226 12.309H30.5461L30.7409 12.2902C30.9737 12.2808 31.178 12.2808 31.3728 12.2808H51.9866C53.1648 12.342 54.1197 13.2461 54.2384 14.3998C54.2432 14.4798 54.2432 14.5599 54.2432 14.6352V14.6682C54.2432 14.6682 54.2432 14.6964 54.2479 14.7059C54.2669 15.1344 54.3097 15.5582 54.3857 15.9726C54.4095 16.1185 54.4332 16.2598 54.4665 16.4011C54.4997 16.58 54.5425 16.7495 54.5853 16.9191C54.6185 17.0697 54.666 17.2251 54.7088 17.3758C54.7183 17.4088 54.7325 17.4512 54.742 17.4841C54.7515 17.5218 54.7658 17.5595 54.78 17.5971C54.7848 17.6301 54.799 17.6584 54.8085 17.6866C54.8275 17.7384 54.8418 17.7902 54.8608 17.8373C54.8798 17.8891 54.8941 17.9409 54.9131 17.988C54.9178 17.9927 54.9178 17.9974 54.9225 18.0068C54.9701 18.1481 55.0271 18.2846 55.0841 18.4165C55.1411 18.5531 55.1981 18.6802 55.2599 18.812C55.2646 18.8356 55.2694 18.8497 55.2836 18.8686C55.2884 18.878 55.2884 18.8874 55.2931 18.8968C55.3454 19.0098 55.4024 19.1181 55.4594 19.2217C55.5069 19.3159 55.5544 19.4148 55.6067 19.5043C55.6257 19.5325 55.6399 19.5655 55.6589 19.5937C55.6827 19.6455 55.7112 19.6879 55.7397 19.735C55.773 19.8009 55.8157 19.8668 55.8537 19.9281C55.8632 19.9469 55.8727 19.961 55.8822 19.9799C55.9012 20.0081 55.9155 20.0317 55.9297 20.0552C55.9582 20.1023 55.982 20.14 56.0105 20.1776C56.039 20.2294 56.0675 20.2718 56.1008 20.3189C56.1245 20.3566 56.153 20.399 56.1815 20.4366C56.2005 20.4602 56.21 20.4837 56.229 20.4978C56.2623 20.5496 56.2908 20.592 56.324 20.6391C56.3478 20.6721 56.3716 20.705 56.4001 20.7333C56.4286 20.7851 56.4618 20.8275 56.5046 20.8746C56.5093 20.884 56.5236 20.8981 56.5283 20.9075C56.5331 20.9169 56.5473 20.9311 56.5568 20.9358C56.5901 20.9876 56.6328 21.0394 56.6708 21.0865C56.6803 21.11 56.6994 21.1241 56.7184 21.143C56.7564 21.1995 56.8039 21.256 56.8514 21.3078H56.8561C56.8846 21.3455 56.9131 21.3878 56.9464 21.4208C56.9987 21.4867 57.0557 21.5526 57.1174 21.6139C57.1459 21.6515 57.1744 21.6892 57.2077 21.7222H57.2124C57.2457 21.7693 57.2884 21.8069 57.3265 21.8446C57.3645 21.8917 57.412 21.9341 57.4595 21.9812C57.4975 22.0282 57.5403 22.0659 57.583 22.1036C57.659 22.1836 57.7303 22.2543 57.8158 22.3296C57.8728 22.3908 57.9298 22.4426 57.9963 22.4991C58.0343 22.5321 58.0723 22.5651 58.1104 22.6027C58.1484 22.6357 58.1864 22.6687 58.2291 22.7063C58.2814 22.7534 58.3336 22.7958 58.3906 22.8382C58.4761 22.9182 58.5664 22.9889 58.6567 23.0548C58.7137 23.1019 58.766 23.1396 58.823 23.1772C58.8705 23.2149 58.9132 23.2526 58.9607 23.2855C58.9797 23.2949 58.994 23.3091 59.0177 23.3185C59.0177 23.3232 59.0225 23.3232 59.0225 23.3232C59.0843 23.3703 59.146 23.4127 59.2173 23.4551C59.2458 23.4833 59.2743 23.5021 59.3028 23.5163C59.3408 23.5445 59.3836 23.5728 59.4216 23.601C59.4263 23.601 59.4263 23.6057 59.4311 23.6057C59.4928 23.6434 59.5546 23.6858 59.6259 23.7188C59.7114 23.78 59.7969 23.8318 59.8824 23.8789C59.9917 23.9448 60.0962 24.0107 60.2102 24.0578C60.2482 24.086 60.2957 24.1096 60.3337 24.1331C60.3432 24.1378 60.3527 24.1426 60.3622 24.1426C60.443 24.1896 60.5238 24.2273 60.6045 24.265C60.671 24.3027 60.747 24.3403 60.8278 24.3733C60.8896 24.4063 60.9608 24.4345 61.0274 24.4628C61.0606 24.4816 61.0939 24.4957 61.1366 24.5099C61.1651 24.5287 61.1936 24.5381 61.2269 24.5475C61.2554 24.5664 61.2886 24.5758 61.3171 24.5852C61.4644 24.6464 61.6069 24.6982 61.7542 24.75C61.835 24.783 61.9205 24.8112 62.006 24.8395C62.0868 24.8677 62.1675 24.8913 62.2436 24.9148C62.3006 24.9384 62.3576 24.9525 62.4193 24.9713C62.5381 25.0043 62.6616 25.0373 62.7851 25.0655C62.8136 25.0749 62.8422 25.0843 62.8659 25.089C63.0274 25.1267 63.1795 25.1644 63.3362 25.1974C63.4598 25.2256 63.588 25.2492 63.7115 25.2633C63.7733 25.2727 63.8351 25.2868 63.9016 25.2915C63.9016 25.2915 63.9348 25.301 63.9538 25.301C64.0916 25.3245 64.2341 25.3386 64.3767 25.3528C64.4099 25.3575 64.4384 25.3575 64.4717 25.3622C64.4812 25.3669 64.4954 25.3669 64.505 25.3669C64.5667 25.3716 64.638 25.3763 64.6997 25.3857C64.733 25.3904 64.7757 25.3904 64.809 25.3904C64.8992 25.3998 64.9895 25.4093 65.0798 25.4093C65.2176 25.4187 65.3506 25.4281 65.4883 25.4187C65.5359 25.4234 65.5834 25.4234 65.6356 25.4234H139.995C140.048 25.4234 140.1 25.4234 140.143 25.4187C140.28 25.4234 140.413 25.4187 140.551 25.4093C140.641 25.4093 140.732 25.4045 140.822 25.3904C140.855 25.3904 140.898 25.3904 140.931 25.3857C140.993 25.381 141.064 25.3763 141.126 25.3669C141.135 25.3669 141.15 25.3669 141.159 25.3622C141.192 25.3575 141.221 25.3575 141.254 25.3528C141.397 25.3433 141.539 25.3245 141.677 25.301C141.696 25.301 141.71 25.2962 141.729 25.2962C141.791 25.2868 141.853 25.2727 141.919 25.2633C142.043 25.2444 142.171 25.2256 142.295 25.1974C142.456 25.1644 142.608 25.1314 142.765 25.089C142.789 25.0843 142.817 25.0796 142.846 25.0655C142.965 25.0373 143.088 25.0043 143.212 24.9713C143.273 24.9525 143.33 24.9384 143.387 24.9195C143.468 24.8913 143.549 24.8677 143.625 24.8395C143.71 24.8112 143.796 24.783 143.877 24.75C144.024 24.6982 144.167 24.6464 144.314 24.5852C144.342 24.5758 144.376 24.5617 144.404 24.5475C144.437 24.5381 144.466 24.524 144.494 24.5099C144.532 24.5004 144.57 24.4816 144.604 24.4628C144.67 24.4345 144.741 24.4063 144.803 24.3733C144.884 24.3403 144.955 24.3074 145.026 24.265C145.112 24.2273 145.193 24.1849 145.269 24.1426C145.278 24.1426 145.288 24.1378 145.297 24.1331C145.335 24.1096 145.383 24.086 145.421 24.0578C145.535 24.006 145.644 23.9448 145.749 23.8789C145.834 23.8318 145.92 23.7847 146.005 23.7188C146.072 23.6858 146.138 23.6434 146.2 23.6057C146.205 23.6057 146.205 23.601 146.209 23.601C146.247 23.5728 146.29 23.5445 146.328 23.5163C146.357 23.4974 146.385 23.4833 146.414 23.4551C146.48 23.4174 146.547 23.3703 146.608 23.3232C146.608 23.3232 146.613 23.3232 146.613 23.3185C146.637 23.3091 146.651 23.2949 146.67 23.2855C146.718 23.2526 146.76 23.2196 146.808 23.1772C146.865 23.1396 146.917 23.0972 146.974 23.0548C147.064 22.9936 147.155 22.9182 147.24 22.8476C147.297 22.8005 147.35 22.7581 147.402 22.711C147.449 22.6781 147.483 22.6451 147.521 22.6074C147.559 22.5745 147.597 22.5415 147.635 22.5038C147.701 22.4473 147.758 22.3955 147.815 22.3343C147.901 22.259 147.977 22.1884 148.048 22.1083C148.095 22.0706 148.133 22.0282 148.171 21.9859C148.219 21.9388 148.262 21.8964 148.304 21.8493C148.342 21.8116 148.385 21.7693 148.418 21.7269H148.423C148.423 21.7269 148.428 21.7222 148.428 21.7175C148.49 21.6562 148.551 21.5856 148.604 21.515C148.637 21.4867 148.661 21.4585 148.685 21.4302C148.718 21.3972 148.746 21.3549 148.775 21.3172H148.78C148.827 21.2654 148.87 21.2089 148.913 21.1524C148.932 21.1335 148.946 21.1194 148.96 21.0959C148.998 21.0441 149.041 20.9923 149.074 20.9452C149.084 20.9405 149.098 20.9264 149.103 20.9169C149.107 20.9075 149.122 20.8934 149.126 20.884C149.164 20.8369 149.202 20.7945 149.231 20.7427C149.259 20.7145 149.283 20.6815 149.307 20.6485C149.34 20.6014 149.369 20.5591 149.402 20.5073C149.421 20.4837 149.435 20.4696 149.449 20.446C149.478 20.4084 149.506 20.366 149.53 20.3283C149.563 20.2812 149.592 20.2389 149.62 20.1871C149.649 20.1494 149.673 20.107 149.701 20.0646C149.72 20.0364 149.734 20.0128 149.749 19.9893C149.758 19.9704 149.768 19.9563 149.777 19.9375C149.815 19.8763 149.858 19.815 149.891 19.7444C149.92 19.6973 149.948 19.6549 149.972 19.6031C149.996 19.5702 150.01 19.5419 150.024 19.5137C150.076 19.4242 150.129 19.3253 150.172 19.2311C150.229 19.1228 150.286 19.0192 150.338 18.9062C150.343 18.8968 150.343 18.8874 150.347 18.878C150.357 18.8591 150.366 18.845 150.371 18.8215C150.433 18.6896 150.49 18.5625 150.547 18.4259C150.604 18.2894 150.661 18.1575 150.708 18.0162C150.713 18.0115 150.713 18.0068 150.718 17.9974C150.737 17.9456 150.751 17.8938 150.77 17.8467C150.789 17.7949 150.803 17.7431 150.822 17.696C150.832 17.6678 150.846 17.6395 150.851 17.6066C150.87 17.5689 150.879 17.5265 150.889 17.4935C150.898 17.4559 150.913 17.4182 150.922 17.3852C150.97 17.2346 151.012 17.0792 151.046 16.9285C151.093 16.759 151.131 16.5894 151.164 16.4152C151.198 16.2692 151.221 16.128 151.245 15.982C151.321 15.5629 151.364 15.1438 151.383 14.7153C151.388 14.7059 151.388 14.687 151.388 14.6776V14.6446C151.388 14.5646 151.392 14.4845 151.392 14.4092C151.511 13.2555 152.466 12.3514 153.644 12.2902H174.258C174.453 12.2902 174.662 12.2902 174.89 12.2996H174.956L175.08 12.3184H175.204C175.327 12.3231 175.455 12.3373 175.579 12.3514C175.641 12.3514 175.702 12.3561 175.769 12.3702C175.892 12.3796 176.021 12.3938 176.144 12.4173C176.291 12.4362 176.439 12.4503 176.586 12.4785C176.591 12.4785 176.605 12.4785 176.61 12.4832C176.824 12.5162 177.037 12.5586 177.246 12.5963C177.284 12.6057 177.327 12.6198 177.365 12.6245C177.541 12.6622 177.712 12.7046 177.883 12.7469C178.135 12.8129 178.382 12.8882 178.634 12.9683C178.833 13.0295 179.033 13.1001 179.223 13.166C179.432 13.2461 179.646 13.3309 179.85 13.4156C180.258 13.5898 180.662 13.7829 181.057 13.9901C181.408 14.1832 181.76 14.3857 182.097 14.6023C182.173 14.6541 182.244 14.7059 182.325 14.7529C182.463 14.8471 182.596 14.946 182.734 15.0402C182.909 15.172 183.085 15.3039 183.256 15.4405C183.598 15.7183 183.926 16.0055 184.24 16.3069C184.396 16.4576 184.553 16.6177 184.7 16.7731C184.848 16.9332 184.995 17.0933 185.137 17.2581C185.708 17.9221 186.216 18.6378 186.662 19.396C186.886 19.7727 187.085 20.1682 187.271 20.5685C187.451 20.9687 187.622 21.3737 187.769 21.7975C187.845 22.0047 187.912 22.2166 187.974 22.4285C188.111 22.89 188.23 23.3609 188.316 23.8365C188.354 24.0248 188.382 24.2132 188.411 24.4063C188.515 25.0749 188.563 25.7718 188.563 26.4688L188.558 26.4641Z" fill="url(#paint10_linear_497_4141)"/>
<mask id="mask0_497_4141" style="mask-type:luminance" maskUnits="userSpaceOnUse" x="16" y="11" width="173" height="370">
<path d="M188.695 25.6554V365.996C188.695 369.223 187.584 372.219 185.715 374.63C185.61 374.762 185.51 374.885 185.405 375.008C185.086 375.385 184.757 375.748 184.409 376.093C184.099 376.39 183.775 376.687 183.441 376.961H183.436C183.012 377.306 182.568 377.626 182.106 377.928C181.648 378.221 181.171 378.495 180.675 378.74H180.671C180.427 378.858 180.175 378.971 179.917 379.084H179.913C179.66 379.193 179.398 379.287 179.135 379.382C178.611 379.57 178.067 379.721 177.514 379.849C176.851 379.995 176.174 380.099 175.478 380.155C175.402 380.16 175.354 380.165 175.288 380.174H175.097L175.078 380.184C175.016 380.184 174.944 380.184 174.882 380.188C174.82 380.188 174.763 380.193 174.701 380.193C174.577 380.193 174.448 380.198 174.329 380.198H30.9457C30.8265 380.198 30.7026 380.193 30.5738 380.193C30.4499 380.188 30.3211 380.184 30.1971 380.184H30.0827L30.0446 380.174H29.9969C29.9349 380.17 29.8777 380.165 29.8014 380.155C22.3872 379.58 16.575 373.356 16.575 365.991V25.6554C16.575 18.1674 22.4539 11.9629 29.9874 11.4722H30.1113L30.3068 11.4533C30.5405 11.4438 30.7455 11.4438 30.941 11.4438H51.6293C52.8118 11.5052 53.7702 12.4111 53.8894 13.5671C53.8941 13.6473 53.8941 13.7275 53.8941 13.803V13.836C53.8941 13.836 53.8941 13.8643 53.8989 13.8738C53.918 14.3031 53.9609 14.7278 54.0372 15.143C54.061 15.2893 54.0849 15.4308 54.1183 15.5724C54.1516 15.7517 54.1945 15.9215 54.2375 16.0914C54.2708 16.2424 54.3185 16.3981 54.3614 16.549C54.3709 16.5821 54.3852 16.6245 54.3948 16.6576C54.4043 16.6953 54.4186 16.7331 54.4329 16.7708C54.4377 16.8038 54.452 16.8321 54.4615 16.8605C54.4806 16.9124 54.4949 16.9643 54.514 17.0114C54.533 17.0633 54.5474 17.1152 54.5664 17.1624C54.5712 17.1671 54.5712 17.1719 54.576 17.1813C54.6236 17.3229 54.6809 17.4597 54.7381 17.5918C54.7953 17.7286 54.8525 17.856 54.9145 17.9881C54.9193 18.0117 54.924 18.0259 54.9383 18.0447C54.9431 18.0542 54.9431 18.0636 54.9479 18.0731C55.0003 18.1863 55.0575 18.2948 55.1147 18.3986C55.1624 18.493 55.2101 18.5921 55.2626 18.6817C55.2816 18.71 55.2959 18.7431 55.315 18.7714C55.3388 18.8233 55.3675 18.8657 55.3961 18.9129C55.4294 18.979 55.4724 19.045 55.5105 19.1064C55.52 19.1252 55.5296 19.1394 55.5391 19.1583C55.5582 19.1866 55.5725 19.2102 55.5868 19.2338C55.6154 19.2809 55.6392 19.3187 55.6679 19.3564C55.6965 19.4083 55.7251 19.4508 55.7584 19.498C55.7823 19.5357 55.8109 19.5782 55.8395 19.6159C55.8586 19.6395 55.8681 19.6631 55.8872 19.6773C55.9205 19.7292 55.9492 19.7716 55.9825 19.8188C56.0064 19.8519 56.0302 19.8849 56.0588 19.9132C56.0874 19.9651 56.1208 20.0076 56.1637 20.0547C56.1685 20.0642 56.1828 20.0783 56.1875 20.0878C56.1923 20.0972 56.2066 20.1114 56.2162 20.1161C56.2495 20.168 56.2924 20.2199 56.3306 20.2671C56.3401 20.2907 56.3592 20.3048 56.3783 20.3237C56.4164 20.3803 56.4641 20.4369 56.5118 20.4888H56.5165C56.5452 20.5266 56.5738 20.569 56.6071 20.6021C56.6596 20.6681 56.7168 20.7342 56.7788 20.7955C56.8074 20.8333 56.836 20.871 56.8694 20.904H56.8741C56.9075 20.9512 56.9504 20.989 56.9886 21.0267C57.0267 21.0739 57.0744 21.1164 57.1221 21.1635C57.1602 21.2107 57.2032 21.2485 57.2461 21.2862C57.3224 21.3664 57.3939 21.4372 57.4797 21.5127C57.5369 21.574 57.5941 21.6259 57.6609 21.6826C57.699 21.7156 57.7372 21.7486 57.7753 21.7864C57.8134 21.8194 57.8516 21.8524 57.8945 21.8902C57.947 21.9373 57.9994 21.9798 58.0566 22.0223C58.1424 22.1025 58.233 22.1733 58.3236 22.2393C58.3809 22.2865 58.4333 22.3242 58.4905 22.362C58.5382 22.3997 58.5811 22.4375 58.6288 22.4705C58.6478 22.48 58.6621 22.4941 58.686 22.5035C58.686 22.5083 58.6908 22.5083 58.6908 22.5083C58.7527 22.5554 58.8147 22.5979 58.8863 22.6404C58.9149 22.6687 58.9435 22.6876 58.9721 22.7017C59.0102 22.73 59.0531 22.7583 59.0913 22.7866C59.096 22.7866 59.096 22.7914 59.1008 22.7914C59.1628 22.8291 59.2248 22.8716 59.2963 22.9046C59.3821 22.9659 59.4679 23.0178 59.5538 23.065C59.6634 23.1311 59.7683 23.1971 59.8828 23.2443C59.9209 23.2726 59.9686 23.2962 60.0067 23.3198C60.0163 23.3245 60.0258 23.3292 60.0353 23.3292C60.1164 23.3764 60.1975 23.4142 60.2785 23.4519C60.3453 23.4897 60.4215 23.5274 60.5026 23.5604C60.5646 23.5935 60.6361 23.6218 60.7029 23.6501C60.7362 23.669 60.7696 23.6831 60.8125 23.6973C60.8411 23.7161 60.8697 23.7256 60.9031 23.735C60.9317 23.7539 60.9651 23.7633 60.9937 23.7728C61.1415 23.8341 61.2845 23.886 61.4324 23.9379C61.5134 23.9709 61.5993 23.9992 61.6851 24.0276C61.7661 24.0559 61.8472 24.0795 61.9235 24.103C61.9807 24.1266 62.0379 24.1408 62.0999 24.1597C62.2191 24.1927 62.343 24.2257 62.467 24.254C62.4956 24.2635 62.5242 24.2729 62.5481 24.2776C62.7102 24.3154 62.8628 24.3531 63.0201 24.3861C63.1441 24.4145 63.2728 24.438 63.3968 24.4522C63.4588 24.4616 63.5208 24.4758 63.5875 24.4805C63.5875 24.4805 63.6209 24.4899 63.6399 24.4899C63.7782 24.5135 63.9213 24.5277 64.0643 24.5418C64.0977 24.5466 64.1263 24.5466 64.1597 24.5513C64.1692 24.556 64.1835 24.556 64.193 24.556C64.255 24.5607 64.3265 24.5654 64.3885 24.5749C64.4219 24.5796 64.4648 24.5796 64.4982 24.5796C64.5888 24.589 64.6794 24.5985 64.77 24.5985C64.9082 24.6079 65.0417 24.6173 65.18 24.6079C65.2277 24.6126 65.2754 24.6126 65.3278 24.6126H139.957C140.009 24.6126 140.062 24.6126 140.104 24.6079C140.243 24.6126 140.376 24.6079 140.514 24.5985C140.605 24.5985 140.696 24.5937 140.786 24.5796C140.82 24.5796 140.863 24.5796 140.896 24.5749C140.958 24.5702 141.029 24.5654 141.091 24.556C141.101 24.556 141.115 24.556 141.125 24.5513C141.158 24.5466 141.187 24.5466 141.22 24.5418C141.363 24.5324 141.506 24.5135 141.645 24.4899C141.664 24.4899 141.678 24.4852 141.697 24.4852C141.759 24.4758 141.821 24.4616 141.888 24.4522C142.012 24.4333 142.14 24.4145 142.264 24.3861C142.426 24.3531 142.579 24.3201 142.736 24.2776C142.76 24.2729 142.789 24.2682 142.817 24.254C142.937 24.2257 143.061 24.1927 143.185 24.1597C143.247 24.1408 143.304 24.1266 143.361 24.1078C143.442 24.0795 143.523 24.0559 143.599 24.0276C143.685 23.9992 143.771 23.9709 143.852 23.9379C144 23.886 144.143 23.8341 144.291 23.7728C144.319 23.7633 144.353 23.7492 144.381 23.735C144.415 23.7256 144.443 23.7114 144.472 23.6973C144.51 23.6878 144.548 23.669 144.582 23.6501C144.648 23.6218 144.72 23.5935 144.782 23.5604C144.863 23.5274 144.934 23.4944 145.006 23.4519C145.092 23.4142 145.173 23.3717 145.249 23.3292C145.259 23.3292 145.268 23.3245 145.278 23.3198C145.316 23.2962 145.364 23.2726 145.402 23.2443C145.516 23.1924 145.626 23.1311 145.731 23.065C145.817 23.0178 145.902 22.9707 145.988 22.9046C146.055 22.8716 146.122 22.8291 146.184 22.7914C146.188 22.7914 146.188 22.7866 146.193 22.7866C146.231 22.7583 146.274 22.73 146.312 22.7017C146.341 22.6828 146.37 22.6687 146.398 22.6404C146.465 22.6026 146.532 22.5554 146.594 22.5083C146.594 22.5083 146.598 22.5083 146.598 22.5035C146.622 22.4941 146.637 22.48 146.656 22.4705C146.703 22.4375 146.746 22.4045 146.794 22.362C146.851 22.3242 146.904 22.2818 146.961 22.2393C147.051 22.178 147.142 22.1025 147.228 22.0317C147.285 21.9845 147.338 21.9421 147.39 21.8949C147.438 21.8619 147.471 21.8288 147.509 21.7911C147.547 21.7581 147.585 21.725 147.624 21.6873C147.69 21.6307 147.748 21.5788 147.805 21.5174C147.891 21.4419 147.967 21.3712 148.038 21.2909C148.086 21.2532 148.124 21.2107 148.162 21.1683C148.21 21.1211 148.253 21.0786 148.296 21.0314C148.334 20.9937 148.377 20.9512 148.41 20.9088H148.415C148.415 20.9088 148.42 20.904 148.42 20.8993C148.482 20.838 148.544 20.7672 148.596 20.6964C148.63 20.6681 148.654 20.6398 148.677 20.6115C148.711 20.5785 148.739 20.536 148.768 20.4983H148.773C148.82 20.4464 148.863 20.3897 148.906 20.3331C148.925 20.3143 148.94 20.3001 148.954 20.2765C148.992 20.2246 149.035 20.1727 149.068 20.1255C149.078 20.1208 149.092 20.1066 149.097 20.0972C149.102 20.0878 149.116 20.0736 149.121 20.0642C149.159 20.017 149.197 19.9745 149.226 19.9226C149.254 19.8943 149.278 19.8613 149.302 19.8283C149.335 19.7811 149.364 19.7386 149.397 19.6867C149.416 19.6631 149.431 19.649 149.445 19.6254C149.474 19.5876 149.502 19.5452 149.526 19.5074C149.559 19.4602 149.588 19.4178 149.617 19.3659C149.645 19.3281 149.669 19.2857 149.698 19.2432C149.717 19.2149 149.731 19.1913 149.745 19.1677C149.755 19.1488 149.764 19.1347 149.774 19.1158C149.812 19.0545 149.855 18.9931 149.888 18.9224C149.917 18.8752 149.946 18.8327 149.969 18.7808C149.993 18.7478 150.008 18.7195 150.022 18.6912C150.074 18.6015 150.127 18.5024 150.17 18.4081C150.227 18.2995 150.284 18.1957 150.337 18.0825C150.341 18.0731 150.341 18.0636 150.346 18.0542C150.356 18.0353 150.365 18.0212 150.37 17.9976C150.432 17.8655 150.489 17.7381 150.546 17.6012C150.604 17.4644 150.661 17.3323 150.708 17.1907C150.713 17.186 150.713 17.1813 150.718 17.1719C150.737 17.12 150.751 17.0681 150.77 17.0209C150.79 16.969 150.804 16.9171 150.823 16.8699C150.832 16.8416 150.847 16.8133 150.852 16.7802C150.871 16.7425 150.88 16.7 150.89 16.667C150.899 16.6293 150.914 16.5915 150.923 16.5585C150.971 16.4075 151.014 16.2518 151.047 16.1008C151.095 15.931 151.133 15.7611 151.166 15.5865C151.2 15.4402 151.223 15.2987 151.247 15.1524C151.324 14.7325 151.366 14.3126 151.386 13.8832C151.39 13.8738 151.39 13.8549 151.39 13.8455V13.8124C151.39 13.7322 151.395 13.652 151.395 13.5765C151.514 12.4205 152.473 11.5146 153.655 11.4533H174.343C174.539 11.4533 174.749 11.4533 174.978 11.4627H175.044L175.168 11.4816H175.292C175.416 11.4863 175.545 11.5005 175.669 11.5146C175.731 11.5146 175.793 11.5193 175.86 11.5335C175.984 11.5429 176.112 11.5571 176.236 11.5807C176.384 11.5996 176.532 11.6137 176.68 11.642C176.685 11.642 176.699 11.642 176.704 11.6467C176.918 11.6798 177.133 11.7222 177.343 11.76C177.381 11.7694 177.424 11.7836 177.462 11.7883C177.638 11.826 177.81 11.8685 177.981 11.911C178.234 11.977 178.482 12.0525 178.735 12.1327C178.935 12.1941 179.135 12.2648 179.326 12.3309C179.536 12.4111 179.75 12.496 179.955 12.581C180.365 12.7555 180.771 12.949 181.167 13.1566C181.519 13.35 181.872 13.5529 182.211 13.77C182.287 13.8219 182.359 13.8738 182.44 13.921C182.578 14.0153 182.711 14.1144 182.85 14.2088C183.026 14.3409 183.202 14.473 183.374 14.6098C183.717 14.8882 184.046 15.176 184.361 15.478C184.518 15.629 184.676 15.7894 184.824 15.9451C184.971 16.1055 185.119 16.266 185.262 16.4311C185.834 17.0964 186.345 17.8136 186.793 18.5732C187.017 18.9507 187.217 19.347 187.403 19.7481C187.584 20.1491 187.756 20.5549 187.904 20.9795C187.98 21.1871 188.047 21.3995 188.109 21.6118C188.247 22.0742 188.366 22.546 188.452 23.0226C188.49 23.2113 188.519 23.4 188.547 23.5935C188.652 24.2635 188.7 24.9618 188.7 25.6601L188.695 25.6554Z" fill="white"/>
</mask>
<g mask="url(#mask0_497_4141)">
<path d="M0.0458984 27.792V73.3462L16.9683 36.8896L0.0458984 27.792Z" fill="#F6F6F6"/>
<path d="M0.0461426 -3.82373V16.726L21.078 28.0369L35.8673 -3.82373H0.0461426Z" fill="#F6F6F6"/>
<path d="M41.2642 -3.82373L0.0461426 84.9726V88.7632L42.4424 -3.82373H41.2642Z" fill="#F6F6F6"/>
<path d="M79.0612 -3.82373C79.1515 -3.14094 79.1942 -2.46756 79.199 -1.83185C79.1752 -0.320287 79.0327 0.904035 78.5196 1.9918C77.636 3.73881 77.5742 4.16732 72.0633 14.4893C71.1179 16.2599 70.7615 17.8891 70.7615 19.4384C70.6903 23.5822 73.5835 27.3541 75.5789 29.4025L83.945 13.1661L100.606 -3.82373H79.066H79.0612Z" fill="#F6F6F6"/>
<path d="M55.1362 -3.82373L36.4988 37.1345L64.1532 51.5627L73.8259 32.7929C71.5598 30.7257 67.1795 25.965 67.0797 19.4384C67.0797 17.3241 67.5928 15.0497 68.809 12.7847C74.3342 2.43915 74.2677 2.26491 75.2274 0.362507C75.2939 0.296582 75.5409 -0.729964 75.5219 -1.83185C75.5219 -2.46756 75.4649 -3.15506 75.3414 -3.82373H55.1362Z" fill="#F6F6F6"/>
<path d="M170.562 126.703L146.209 102.852L130.755 149.626L188.948 148.19L170.562 126.703Z" fill="#F6F6F6"/>
<path d="M8.75415 98.101L29.5437 107.01L55.4974 55.2875L33.4631 43.793L8.75415 98.101Z" fill="#F6F6F6"/>
<path d="M82.501 198.853C84.2303 184.952 86.1354 169.964 87.8267 156.77L79.3227 156.981L75.5078 196.965L82.4963 198.853H82.501Z" fill="#F6F6F6"/>
<path d="M77.2608 137.251L79.2799 111.955L74.4246 104.51L69.3745 107.057L0.0458984 148.501V152.856L76.1634 150.977L76.9615 141.023L62.139 135.678L63.398 132.255L77.2608 137.251Z" fill="#F6F6F6"/>
<path d="M7.23863 101.425L0.0458984 117.228V135.198L24.9449 122.644L28.0472 110.344L7.23863 101.425Z" fill="#F6F6F6"/>
<path d="M173.256 124.217L175.498 126.839L186.639 102.664C185.503 101.986 184.292 101.242 183.047 100.432C177.156 96.5752 170.467 91.4613 167.227 85.6081C165.269 82.0388 161.25 75.1119 156.799 67.5305L146.765 73.2519L144.931 70.0922L154.946 64.3803C153.991 62.7604 153.031 61.1311 152.076 59.5112L124.18 76.1432L142.142 93.7404L154.053 81.9352L156.656 84.5156L144.76 96.3068L150.97 102.386L159.616 94.3526L162.129 97.0131L153.587 104.952L173.26 124.221L173.256 124.217Z" fill="#F6F6F6"/>
<path d="M194.573 41.7726L189.86 36.9883L155.226 57.6322C156.195 59.2709 157.165 60.9191 158.134 62.5578L194.573 41.7678V41.7726Z" fill="#F6F6F6"/>
<path d="M141.668 34.7987C143.24 37.4357 147.392 44.4002 152.129 52.3913L185.456 32.5243L164.69 11.5225L141.668 34.7987Z" fill="#F6F6F6"/>
<path d="M92.7295 118.896L92.758 118.768C92.758 118.768 92.758 118.759 92.7818 118.623C92.8055 118.481 92.834 118.265 92.872 117.968C92.9385 117.384 93.0098 116.513 93.0051 115.468C93.0146 112.835 92.5442 109.134 90.6961 105.857C89.9313 104.491 88.3778 101.845 86.3872 98.4824L77.7217 102.852L83.0473 111.013L79.8643 150.888L88.6153 150.671C90.9527 132.49 92.7152 119.023 92.7152 119.018L92.7295 118.9V118.896Z" fill="#F6F6F6"/>
<path d="M160.039 6.81828L152.594 12.7186L132.627 -3.82861H105.737L86.9619 15.3132L78.3772 31.9687L119.662 71.7356L148.974 54.2607C144.703 47.0514 140.907 40.6802 139.045 37.5582L119.263 57.4487L116.64 54.8917L162.115 8.90904L160.039 6.80886V6.81828Z" fill="#F6F6F6"/>
<path d="M210.264 57.7031L197.228 44.4663L159.987 65.713C164.438 73.2991 168.467 80.2353 170.457 83.8706C173.526 89.6061 181.907 95.5535 188.173 99.3348L195.817 82.7405L182.311 74.7636L184.197 71.6321L197.361 79.4066L205.191 62.4167L208.54 63.933L200.92 80.4755L203.656 80.9982L210.264 66.2263V57.7125V57.7031Z" fill="#F6F6F6"/>
<path d="M192.492 105.927C191.789 105.564 190.891 105.084 189.841 104.505L178.135 129.914L180.515 132.697L192.492 105.927Z" fill="#F6F6F6"/>
<path d="M144.257 208.874L148.551 188.117L138.997 187.015L134.142 203.114L134.128 203.157V203.166L130.598 202.13V202.121L130.622 202.046L136.247 183.026L136.356 183.04L141.245 166.842L140.979 155.526L140.674 155.465L138.185 155.526L136.931 166.234L132.289 181.887L128.759 180.855L133.315 165.5L134.475 155.616L106.91 156.298L103.02 202.611C112.882 204.263 125.358 206.246 137.206 207.823C139.482 208.13 141.843 208.483 144.257 208.874Z" fill="#F6F6F6"/>
<path d="M103.21 156.388L95.271 156.586C94.8197 160.089 94.3541 163.725 93.8838 167.445C92.5108 178.191 91.0713 189.591 89.7363 200.318C92.2638 200.765 95.5513 201.344 99.3805 201.994L103.214 156.388H103.21Z" fill="#F6F6F6"/>
<path d="M66.4146 101.727L82.5626 92.0734C80.1539 88.0425 77.4887 83.6067 74.9043 79.3122C69.4171 70.191 64.2862 61.7102 62.6662 59.0261L58.7468 56.9824L32.9214 108.456L43.815 113.122L66.4098 101.727H66.4146Z" fill="#F6F6F6"/>
<path d="M120.332 248.255L117.429 265.49L141.411 268.089L143.862 255.723L120.645 248.302L120.332 248.255Z" fill="#F6F6F6"/>
<path d="M142.969 272.844L140.641 286.039L149.278 290.192L159.041 269.289H159.046L161.269 270.311L151.483 291.252L159.469 295.094L168.852 274.563L171.085 275.566L161.673 296.154L176.249 303.165L177.664 263.799L147.026 252.342L142.969 272.844Z" fill="#F6F6F6"/>
<path d="M116.403 73.6849L76.6289 35.373L67.4124 53.2576L67.9254 53.526L68.4575 54.4018C68.4718 54.4254 80.9996 75.1211 89.6604 89.6293L116.407 73.6849H116.403Z" fill="#F6F6F6"/>
<path d="M171.146 -1.6576C179.926 7.55307 189.418 15.9773 198.915 24.5005L198.962 24.4723L171.678 -2.77832C171.631 -2.61351 171.569 -2.4534 171.526 -2.28859C171.465 -2.05785 171.327 -1.84595 171.146 -1.6576Z" fill="#F6F6F6"/>
<path d="M89.8408 274.799L88.6531 300.415L94.8909 283.505L114.151 292.952L117.087 278.147L90.4822 271.116L89.8408 274.799Z" fill="#F6F6F6"/>
<path d="M210.264 225.317V214.397L207.87 213.62L210.264 206.368V198.914L187.85 192.152L181.94 210.489L178.439 209.382L178.634 208.775L185.427 187.608L185.456 187.617L196.259 154.09L182.534 154.429L168.172 205.563L164.628 204.584L178.691 154.523L159.417 154.999L155.34 179.236L151.711 178.637L155.668 155.093L144.661 155.361L144.941 167.331L140.071 183.464L152.965 184.952L147.886 209.481C171.256 213.568 198.753 220.985 210.264 225.312V225.317Z" fill="#F6F6F6"/>
<path d="M79.9924 342.273L87.855 346.012L87.8693 345.946L87.9595 345.781C89.1282 343.672 90.4775 342.014 91.9217 340.71L81.2894 337.197L79.9972 342.268L79.9924 342.273Z" fill="#F6F6F6"/>
<path d="M126.85 149.725L143.283 99.9842L120.921 78.083L92.7627 94.8656C94.7533 98.2184 96.3115 100.884 97.1192 102.32C99.8129 107.147 100.35 112.053 100.359 115.472C100.359 117.855 100.088 119.54 99.9934 120.054C99.9364 120.496 99.6799 122.469 99.2713 125.61L109.167 129.424L107.419 150.21L126.85 149.729V149.725Z" fill="#F6F6F6"/>
<path d="M210.264 94.2299L203.148 91.1079L183.156 135.786L193.675 148.072L203.865 147.822L204.107 140.001L207.889 129.698H207.894L210.264 130.555V94.2299Z" fill="#F6F6F6"/>
<path d="M29.2917 120.449L39.5583 115.274L31.4724 111.809L29.2917 120.449Z" fill="#F6F6F6"/>
<path d="M96.0549 150.483L103.723 150.295L105.276 131.831L98.7914 129.331C98.093 134.708 97.1429 142.059 96.0549 150.483Z" fill="#F6F6F6"/>
<path d="M210.265 275.985L180.087 264.703L177.337 341.162L181.921 342.828L193.575 309.715L197.048 310.916L185.375 344.086L190.268 345.866L210.265 285.935V275.985Z" fill="#F6F6F6"/>
<path d="M169.289 358.707L199.927 369.378L205.566 356.617L175.484 345.664L169.289 358.707Z" fill="#F6F6F6"/>
<path d="M162.889 372.175L194.335 382.04L198.943 371.614L168.239 360.916L162.889 372.175Z" fill="#F6F6F6"/>
<path d="M132.128 354.949L130.204 360.369L160.547 371.393L165.911 360.105L160.747 358.307L158.115 363.797L132.128 354.949Z" fill="#F6F6F6"/>
<path d="M83.1279 329.978L87.3847 316.722L86.5723 316.478L83.1279 329.978Z" fill="#F6F6F6"/>
<path d="M158.523 386.89L180.748 398.088H187.247L193.347 384.281L161.854 374.402L156.405 386.508L158.267 387.436L158.523 386.89Z" fill="#F6F6F6"/>
<path d="M148.504 398.088L159.526 373.606L129.391 362.658L119.686 390.003L136.465 398.088H148.504ZM134.812 368.257L147.074 373.117L142.988 382.841L130.318 376.761L134.817 368.252L134.812 368.257Z" fill="#F6F6F6"/>
<path d="M114.222 398.088L116.65 391.241L76.6527 371.967L74.3818 393.605L83.1138 398.088H114.222Z" fill="#F6F6F6"/>
<path d="M142.727 309.433L136.641 306.659L128.451 324.252L137.52 327.491L142.727 309.433Z" fill="#F6F6F6"/>
<path d="M95.4801 312.475L103.072 290.23L96.2545 286.882L88.9572 306.678L88.3729 306.471L88.2066 310.087L87.4797 312.941L88.5011 313.247L89.4418 310.313L95.4801 312.475Z" fill="#F6F6F6"/>
<path d="M87.1092 349.704L79.3749 346.026L76.9187 369.401L91.4942 376.422L96.0977 366.919L98.3069 367.969L93.7033 377.486L117.467 388.938L127.087 361.829L115.586 357.652L116.426 355.368L127.9 359.536L129.805 354.168L118.389 350.283L110.63 369.038L106.554 383.179L104.198 382.511L107.908 369.636C98.82 368.106 93.3613 366.034 90.0547 363.826C86.5819 361.532 85.4939 358.886 85.5224 356.889C85.5224 355.491 85.9833 354.488 86.2303 354.05L87.1092 349.708V349.704Z" fill="#F6F6F6"/>
<path d="M59.0509 208.591C43.7201 205.855 29.4582 200.12 14.3126 196.847C9.57128 195.82 4.80621 194.921 0.0458984 194.026V219.422C7.96075 222.049 14.6356 226.65 14.6356 226.65C21.8806 246.842 12.4075 256.099 0.0458984 259.076V296.723L57.7825 303.848L57.6922 304.583C61.3361 296.408 63.5595 291.44 63.5595 291.435C63.5595 291.431 64.2341 289.91 65.3363 287.07C66.4385 284.231 67.9445 280.12 69.555 275.081C72.776 265.013 76.3914 251.245 77.9877 236.59C78.648 230.558 79.6362 222.209 80.7907 212.721C73.5457 211.336 66.3054 209.891 59.0509 208.596V208.591Z" fill="#F6F6F6"/>
<path d="M30.1612 304.117L29.04 335.2L28.5127 335.181L42.6749 338.393C47.9958 326.376 52.7988 315.574 56.457 307.361L30.166 304.117H30.1612Z" fill="#F6F6F6"/>
<path d="M95.0858 244.737L90.905 268.71L121.343 276.758L138.347 284.932L140.56 272.402L140.936 270.481L114.583 267.627L117.899 247.915L109.286 246.715L105.357 264.787L102.958 264.274L106.853 246.376L95.0858 244.737Z" fill="#F6F6F6"/>
<path d="M0.0458984 158.936V176.585L71.9066 195.99L75.6218 157.071L0.0458984 158.936Z" fill="#F6F6F6"/>
<path d="M47.825 -3.82373L0.0461426 100.526V105.409L49.7539 -3.82373H47.825Z" fill="#F6F6F6"/>
<path d="M0.0458984 180.361V188.611C8.07001 190.156 16.1274 191.531 24.0945 193.447C38.4895 196.913 52.11 202.168 66.771 204.725C71.6691 205.578 76.5529 206.496 81.4368 207.424C81.6363 205.808 81.8358 204.17 82.0449 202.507L0.0458984 180.366V180.361Z" fill="#F6F6F6"/>
<path d="M71.7261 398.088L71.8307 395.037L42.2759 379.869L43.4018 377.708L72.0397 392.404L77.0043 345.089L50.4045 339.066C47.9721 344.562 45.4209 350.33 42.8127 356.24C37.4111 368.478 31.7719 381.32 26.4604 393.516L34.266 398.083H71.7261V398.088Z" fill="#F6F6F6"/>
<path d="M166.961 357.893L174.12 342.824L168.923 341.261L161.806 356.099L166.961 357.893Z" fill="#F6F6F6"/>
<path d="M137.411 304.338L143.463 307.092L148.38 292.462L140.199 288.53L137.411 304.338Z" fill="#F6F6F6"/>
<path d="M119.457 278.773L116.431 294.072L135.116 303.236L137.905 287.423L120.479 279.041L119.457 278.773Z" fill="#F6F6F6"/>
<path d="M88.5534 354.95L88.4156 355.157C88.4156 355.157 88.4156 355.157 88.3776 355.223C88.3396 355.293 88.2826 355.416 88.2208 355.571C88.102 355.882 87.9785 356.339 87.9785 356.89C88.0023 358.067 88.4536 359.781 91.4324 361.815C94.3161 363.755 99.58 365.813 108.702 367.311L111.148 361.391L110.697 362.183L91.0761 354.888L92.8006 343.271C91.8884 344.237 91.0095 345.395 90.1924 346.808L88.5486 354.95H88.5534Z" fill="#F6F6F6"/>
<path d="M134.427 305.609L115.942 296.54L111.642 318.248L126.132 323.423L134.427 305.609Z" fill="#F6F6F6"/>
<path d="M113.662 295.424L105.291 291.318L97.7891 313.299L109.305 317.415L113.662 295.424Z" fill="#F6F6F6"/>
<path d="M175.489 324.37L144.979 310.459L139.834 328.316L146.537 330.713L174.952 339.264L175.489 324.37Z" fill="#F6F6F6"/>
<path d="M176.173 305.331L175.973 305.736L160.78 298.423L155.654 312.654L175.583 321.737L176.173 305.331Z" fill="#F6F6F6"/>
<path d="M145.701 308.114L153.416 311.632L158.557 297.359L150.604 293.531L145.701 308.114Z" fill="#F6F6F6"/>
<path d="M30.983 364.871C34.4511 356.988 37.8907 349.195 41.164 341.788L0.0410156 332.459V361.716L16.8446 368.379L15.4811 371.765L0.0410156 365.643V370.202L24.0944 380.566C25.8902 376.469 27.6955 372.339 29.5103 368.219L10.431 358.632L12.0938 355.378L30.983 364.866V364.871Z" fill="#F6F6F6"/>
<path d="M101.737 216.333C97.1572 215.669 92.5917 214.892 88.0404 214.063C86.9097 223.335 85.95 231.481 85.3039 237.372C81.9451 268.018 70.3721 294.162 70.2961 294.369C70.2914 294.383 68.3103 298.814 65.0227 306.184L85.1281 312.235L85.7647 309.734L87.399 274.521L96.8151 220.566L99.2333 220.98L95.5086 242.34L107.376 243.993L107.447 243.673L110.307 221.833L112.735 222.148L109.87 244.059L109.809 244.337L118.308 245.523L121.752 225.035L124.17 225.435L120.735 245.858L121.187 245.919L144.337 253.321L149.145 229.047L151.549 229.518L147.506 249.926L177.797 261.251L180.781 233.657C170.533 231.048 160.509 227.79 150.243 224.959C134.318 220.566 118.042 218.701 101.737 216.337V216.333Z" fill="#F6F6F6"/>
<path d="M210.265 239.553C204.763 238.512 199.257 237.49 193.741 236.511C190.178 235.875 186.667 235.107 183.185 234.26L180.187 261.995V262.137L210.265 273.386V239.553Z" fill="#F6F6F6"/>
<path d="M210.264 229.221C210.032 229.131 209.799 229.042 209.566 228.952C197.257 224.178 161.63 214.736 136.717 211.44C118.431 209.005 98.7345 205.62 89.2851 203.943C89.0808 205.582 88.8813 207.197 88.6865 208.789C97.3187 210.409 105.965 211.963 114.688 213.116C129.23 215.042 143.839 217.039 157.968 221.084C173.275 225.468 188.13 230.219 203.841 233.063C205.984 233.45 208.122 233.85 210.264 234.245V229.221Z" fill="#F6F6F6"/>
<path d="M182.809 -3.82373H182.453L181.346 -1.7518L204.392 21.2607L210.264 17.8421V12.0312L202.877 16.0668L182.809 -3.82373Z" fill="#F6F6F6"/>
<path d="M0.0458984 300.396V328.725L25.3867 334.47L26.4984 303.664L0.0458984 300.396Z" fill="#F6F6F6"/>
<path d="M62.0344 312.89C59.1649 319.331 55.7063 327.111 51.9104 335.667L77.655 341.496L84.2254 315.771L63.5261 309.542C63.0463 310.615 62.557 311.722 62.0344 312.885V312.89Z" fill="#F6F6F6"/>
<path d="M16.4645 398.088C18.4694 393.473 20.5313 388.727 22.6359 383.914L11.6472 379.182L6.53061 391.731L3.11953 390.365L8.26939 377.727L0.0410156 374.181V391.717L9.72317 398.088H16.4645Z" fill="#F6F6F6"/>
<path d="M132.627 -3.82373L152.594 12.7234L160.039 6.81845L149.516 -3.82373H132.627Z" fill="#DCD8BA"/>
<path d="M182.81 -3.82373L202.877 16.0668L210.265 12.0312V-2.5429L209.324 -3.82373H182.81Z" fill="#F6F6F6"/>
<path d="M139.734 328.664L146.537 330.712L139.834 328.315L139.734 328.664Z" fill="#F6F6F6"/>
<path d="M81.2896 337.197L91.9219 340.71C95.3424 337.621 99.3094 336.585 102.801 336.613C108.127 336.627 112.464 338.784 113.22 339.175L132.651 345.941L136.456 331.485L87.3896 316.718L83.1376 329.969L81.2943 337.192L81.2896 337.197Z" fill="#F6F6F6"/>
<path d="M132.128 354.949L158.115 363.797L160.747 358.307L134.218 349.068L132.128 354.949Z" fill="#F6F6F6"/>
<path d="M126.132 323.423L111.642 318.248L111.277 320.103L125.662 324.431L126.132 323.423Z" fill="#F6F6F6"/>
<path d="M161.806 356.098L168.923 341.26L138.798 332.196L134.969 346.751L161.806 356.098Z" fill="#F6F6F6"/>
<path d="M137.52 327.492L128.451 324.252L128.037 325.147L137.387 327.958L137.52 327.492Z" fill="#F6F6F6"/>
<path d="M95.4802 312.475L89.4419 310.313L88.5012 313.247L94.5918 315.084L95.4802 312.475Z" fill="#F6F6F6"/>
<path d="M131.905 348.258L120.75 344.373L120.826 344.406L118.393 350.278L129.809 354.163L131.905 348.258Z" fill="#F6F6F6"/>
<path d="M110.697 362.177L111.148 361.386L118.507 343.591L112.231 341.406L112.146 341.359C112.146 341.359 111.124 340.794 109.405 340.21C107.69 339.622 105.328 339.038 102.796 339.043C99.466 339.071 95.9029 339.989 92.7958 343.266L91.0713 354.883L110.692 362.177H110.697Z" fill="#F6F6F6"/>
<path d="M109.305 317.414L97.7888 313.299L96.9431 315.79L108.915 319.392L109.305 317.414Z" fill="#F6F6F6"/>
<path d="M147.079 373.116L134.817 368.257L130.318 376.761L142.988 382.84L147.079 373.116Z" fill="#F6F6F6"/>
<path d="M14.6356 226.65C14.6356 226.65 7.96075 222.049 0.0458984 219.422V259.076C12.4075 256.104 21.8806 246.847 14.6356 226.65Z" fill="#B4CD9B"/>
<path d="M66.7757 204.72C52.1099 202.163 38.4941 196.908 24.0991 193.443C16.1368 191.526 8.07465 190.151 0.0505371 188.606V194.022C4.81085 194.921 9.57592 195.821 14.3172 196.842C29.4628 200.115 43.7247 205.851 59.0556 208.586C66.3148 209.881 73.5503 211.327 80.7953 212.711C81.0043 210.979 81.2229 209.213 81.4462 207.409C76.5623 206.486 71.6785 205.563 66.7804 204.711L66.7757 204.72Z" fill="#7E8085"/>
<path d="M210.264 234.25C208.122 233.854 205.984 233.454 203.841 233.068C188.13 230.224 173.275 225.468 157.967 221.088C143.839 217.044 129.23 215.042 114.688 213.121C105.965 211.967 97.3234 210.413 88.6864 208.793C88.4631 210.588 88.2493 212.349 88.0403 214.072C92.5963 214.896 97.1571 215.678 101.737 216.342C118.046 218.706 134.318 220.57 150.243 224.964C160.509 227.799 170.533 231.053 180.781 233.661L180.809 233.416L183.247 233.675L183.185 234.269C186.667 235.116 190.178 235.884 193.741 236.52C199.257 237.504 204.763 238.526 210.264 239.562V234.255V234.25Z" fill="#7E8085"/>
<path d="M42.4424 -3.82373L0.0461426 88.7632V100.526L47.825 -3.82373H42.4424Z" fill="white"/>
<path d="M16.8495 368.384L0.0458984 361.721V365.648L15.486 371.77L16.8495 368.384Z" fill="white"/>
<path d="M181.346 -1.7518L182.453 -3.82373H170.633L171.678 -2.77835L198.962 24.4722L198.915 24.5005L190.853 29.3036L158.1 -3.82373H149.516L160.039 6.82316L162.115 8.92334L116.64 54.906L119.263 57.463L139.045 37.5725C140.907 40.6945 144.703 47.0657 148.974 54.275L119.662 71.7499L78.3772 31.983L86.9619 15.3275L105.737 -3.81431H100.606L83.9451 13.1755L75.579 29.4119C73.5884 27.3635 70.6951 23.5917 70.7617 19.4478C70.7617 17.9033 71.118 16.2693 72.0634 14.4987C77.5743 4.17674 77.6361 3.74823 78.5197 2.00122C79.0328 0.913453 79.1801 -0.310869 79.1991 -1.82244C79.1991 -2.45814 79.1563 -3.13152 79.0613 -3.81431H75.3367C75.4602 -3.15035 75.522 -2.45814 75.5172 -1.82244C75.5362 -0.720546 75.2892 0.306001 75.2227 0.371926C74.263 2.26962 74.3295 2.44386 68.8043 12.7941C67.5881 15.0591 67.075 17.3335 67.075 19.4478C67.1748 25.9744 71.5598 30.7398 73.8212 32.8023L64.1485 51.5721L36.4941 37.144L55.1315 -3.81431H49.7536L0.0458589 105.419V117.243L7.23859 101.44L28.0471 110.354L24.9449 122.653L0.0458589 135.212V148.51L69.3697 107.067L74.4198 104.519L79.2751 111.959L77.256 137.256L63.3931 132.26L62.1342 135.688L76.9519 141.028L76.1586 150.982L0.0411324 152.861V158.94L75.617 157.076L71.9018 195.995L0.0411324 176.589V180.371L82.0401 202.512C81.8358 204.17 81.6315 205.813 81.432 207.428C81.2087 209.227 80.9949 210.998 80.7811 212.731C79.6219 222.219 78.6385 230.568 77.9781 236.6C76.3819 251.254 72.7665 265.023 69.5455 275.091C67.9349 280.129 66.4289 284.24 65.3267 287.08C64.2245 289.919 63.5499 291.44 63.5499 291.445C63.5499 291.445 61.3218 296.418 57.6827 304.592L57.7729 303.858L0.036377 296.733V300.406L26.4889 303.669L25.3772 334.475L0.036377 328.73V332.469L41.1594 341.798C37.8861 349.2 34.4417 356.998 30.9784 364.881L12.0892 355.392L10.4264 358.646L29.5056 368.234C27.6956 372.354 25.8855 376.484 24.0897 380.58L0.036377 370.216V374.19L8.26478 377.736L3.11489 390.375L6.52597 391.74L11.6426 379.191L22.6312 383.924C20.5266 388.736 18.4648 393.483 16.4599 398.098H24.4698C24.6408 397.697 24.8166 397.302 24.9876 396.901L27.0305 398.098H34.2659L26.4604 393.53C31.7718 381.329 37.411 368.492 42.8126 356.254C45.4208 350.344 47.972 344.576 50.4044 339.081L77.0042 345.103L72.0396 392.419L43.4017 377.722L42.2758 379.883L71.8306 395.051L71.7261 398.102H74.1775L74.2393 396.289L77.7691 398.102H83.1042L74.3723 393.619L76.6432 371.982L116.64 391.255L114.213 398.102H116.806L118.859 392.324L130.85 398.102H136.461L119.681 390.017L129.387 362.672L159.521 373.621L148.499 398.102H151.188L155.397 388.746L157.222 389.654L174.153 398.098H179.612L158.257 387.446L156.395 386.518L161.844 374.407L193.337 384.286L187.237 398.093H191.256L196.867 385.393L204.103 387.663C203.342 390.855 202.245 394.387 200.929 398.093H204.825C205.951 394.825 206.906 391.679 207.618 388.764L210.255 389.593V387.046L197.855 383.156L202.416 372.834L210.255 375.565V372.99L203.404 370.602L209.02 357.888L210.255 358.34V343.997L207.328 352.091L193.713 347.133L210.255 297.552V285.94L190.259 345.876L185.365 344.096L197.038 310.921L193.561 309.72L181.907 342.834L177.322 341.167L180.073 264.708L210.25 275.99V273.391L180.168 262.141V262L183.171 234.264L183.232 233.671L180.795 233.412L180.767 233.657L177.783 261.251L147.492 249.926L151.535 229.518L149.131 229.052L144.323 253.326L121.172 245.924L120.721 245.863L124.156 225.44L121.738 225.04L118.293 245.528L109.794 244.342L109.856 244.064L112.721 222.153L110.293 221.838L107.433 243.678L107.362 243.998L95.4944 242.345L99.219 220.985L96.8008 220.571L87.3847 274.526L85.7505 309.739L85.1138 312.24L65.0084 306.189C68.2912 298.819 70.2771 294.393 70.2818 294.374C70.3578 294.167 81.9308 268.023 85.2896 237.377C85.931 231.486 86.8954 223.34 88.0261 214.068C88.2351 212.344 88.4537 210.583 88.6722 208.789C88.867 207.198 89.0665 205.582 89.2708 203.944C98.7201 205.62 118.417 209.01 136.703 211.44C161.616 214.737 197.242 224.183 209.552 228.953C209.785 229.042 210.017 229.132 210.25 229.221V225.317C198.739 220.99 171.241 213.573 147.872 209.486L152.951 184.957L140.057 183.469L144.927 167.336L144.646 155.366L155.654 155.098L151.696 178.643L155.326 179.241L159.402 155.004L178.676 154.528L164.614 204.589L168.158 205.568L182.52 154.434L196.245 154.095L185.441 187.623L185.413 187.613L178.619 208.78L178.424 209.382L181.926 210.494L187.836 192.157L210.25 198.919V195.11L200.231 192.087L188.952 188.682L189.028 188.451L190.473 183.973L200.131 153.996L210.25 153.746V147.667L207.537 147.733L207.761 140.693L208.526 138.617L210.255 138.937V135.226L209.799 135.141L210.255 133.903V130.555L207.884 129.703L204.103 140.006L203.86 147.827L193.67 148.077L183.156 135.787L203.148 91.1083L210.26 94.2303V90.2418L204.639 87.7744L210.26 75.2109V66.2169L203.651 80.9888L200.915 80.4661L208.535 63.9236L205.186 62.4074L197.356 79.3972L184.192 71.6227L182.306 74.7542L195.812 82.7311L188.168 99.3254C181.902 95.5488 173.522 89.5967 170.453 83.8612C168.462 80.226 164.438 73.2897 159.982 65.7036L197.223 44.4569L210.26 57.6937V48.9963L195.257 33.7629L203.395 28.9128L210.26 35.849V27.1704L208.83 25.7248L210.26 24.8913V17.8421L204.392 21.2607L181.346 -1.75651V-1.7518ZM42.6749 338.393L28.5127 335.182L29.0401 335.2L30.1612 304.117L56.4522 307.361C52.7941 315.574 47.991 326.376 42.6701 338.393H42.6749ZM127.904 359.536L116.431 355.369L115.59 357.653L127.092 361.829L117.472 388.939L93.7081 377.487L98.3116 367.97L96.1025 366.92L91.4989 376.422L76.9234 369.401L79.3796 346.026L87.1139 349.704L86.235 354.045C85.9928 354.488 85.5319 355.491 85.5272 356.885C85.4987 358.882 86.5866 361.528 90.0594 363.821C93.366 366.034 98.8247 368.102 107.913 369.632L104.203 382.506L106.559 383.175L110.635 369.034L118.393 350.278L120.821 344.406L120.745 344.373L131.905 348.258L129.809 354.163L127.904 359.531V359.536ZM87.9786 356.89C87.9786 356.343 88.1021 355.882 88.2209 355.571C88.2779 355.416 88.3397 355.298 88.3777 355.223C88.4157 355.157 88.4204 355.157 88.4156 355.157L88.5534 354.95L90.1972 346.808C91.0143 345.395 91.8885 344.232 92.8054 343.267C95.9077 339.989 99.4755 339.071 102.806 339.043C105.338 339.043 107.699 339.622 109.414 340.211C111.134 340.799 112.146 341.369 112.155 341.36L112.241 341.407L118.517 343.592L111.158 361.387L108.711 367.306C99.5848 365.808 94.3256 363.751 91.4419 361.811C88.4632 359.776 88.0118 358.062 87.9881 356.885L87.9786 356.89ZM160.552 371.393L130.209 360.37L132.133 354.954L134.223 349.068L160.751 358.312L165.916 360.111L160.552 371.393ZM111.647 318.248L115.947 296.545L134.432 305.614L126.142 323.428L125.672 324.436L111.281 320.104L111.647 318.248ZM109.31 317.415L108.915 319.392L96.9434 315.79L97.7937 313.299L105.295 291.318L113.666 295.424L109.31 317.415ZM155.654 312.654L160.78 298.428L175.978 305.737L176.177 305.332L175.588 321.742L155.659 312.654H155.654ZM175.488 324.375L174.952 339.264L146.532 330.713L139.729 328.664L139.829 328.316L144.979 310.46L175.484 324.37L175.488 324.375ZM153.416 311.637L145.701 308.119L150.604 293.536L158.557 297.359L153.416 311.632V311.637ZM143.463 307.097L137.415 304.338L140.204 288.53L148.38 292.462L143.463 307.093V307.097ZM135.116 303.241L116.431 294.073L119.462 278.773L120.484 279.042L137.91 287.424L135.116 303.236V303.241ZM128.455 324.257L136.646 306.664L142.732 309.438L137.525 327.497L137.392 327.963L128.042 325.147L128.46 324.252L128.455 324.257ZM138.803 332.201L168.928 341.265L174.125 342.829L166.966 357.897L161.811 356.103L134.969 346.751L138.798 332.196L138.803 332.201ZM194.34 382.045L162.889 372.18L168.239 360.921L198.943 371.615L194.34 382.04V382.045ZM205.571 356.621L199.931 369.387L169.289 358.712L175.484 345.668L205.566 356.621H205.571ZM147.036 252.347L177.674 263.804L176.258 303.175L161.683 296.163L171.094 275.571L168.861 274.568L159.483 295.099L151.497 291.257L161.279 270.311L159.055 269.289L149.293 290.192L140.656 286.039L142.983 272.845L147.045 252.342L147.036 252.347ZM120.336 248.259L120.65 248.302L143.867 255.723L141.42 268.089L117.438 265.489L120.336 248.259ZM95.0953 244.742L106.858 246.381L102.963 264.279L105.357 264.792L109.286 246.72L117.899 247.92L114.583 267.627L140.936 270.486L140.556 272.402L138.342 284.933L121.343 276.753L90.9003 268.71L95.081 244.737L95.0953 244.742ZM89.8504 274.804L90.4917 271.121L117.092 278.152L114.16 292.961L94.9005 283.51L88.6627 300.425L89.8504 274.804ZM88.2114 310.092L88.3777 306.476L88.962 306.688L96.2592 286.891L103.077 290.235L95.4849 312.48L94.5965 315.089L88.5059 313.257L87.4845 312.951L88.2114 310.097V310.092ZM86.5818 316.487L87.3942 316.732L136.461 331.499L132.655 345.956L113.224 339.189C112.469 338.798 108.132 336.641 102.806 336.627C99.314 336.599 95.3471 337.64 91.9265 340.724C90.4823 342.028 89.1378 343.686 87.9643 345.795L87.8741 345.96L87.8598 346.026L79.9972 342.287L81.2894 337.216L83.1328 329.992L86.5771 316.496L86.5818 316.487ZM84.2349 315.781L77.6646 341.506L51.9199 335.676C55.7111 327.12 59.1744 319.341 62.0439 312.899C62.5617 311.736 63.0558 310.629 63.5357 309.556L84.2349 315.785V315.781ZM141.667 34.7989L164.69 11.5227L185.456 32.5245L152.129 52.3915C147.397 44.4004 143.245 37.4359 141.667 34.7989ZM120.925 78.0834L143.287 99.9846L126.854 149.725L107.424 150.205L109.172 129.42L99.276 125.606C99.6846 122.46 99.9411 120.492 99.9981 120.049C100.093 119.541 100.359 117.85 100.364 115.468C100.359 112.054 99.8176 107.142 97.1239 102.316C96.321 100.879 94.758 98.2188 92.7674 94.8613L120.925 78.0787V78.0834ZM105.272 131.831L103.718 150.295L96.0502 150.483C97.1334 142.054 98.0883 134.704 98.7867 129.331L105.272 131.831ZM76.6241 35.3734L116.398 73.6852L89.6509 89.6297C80.9902 75.1215 68.4623 54.4257 68.448 54.4022L67.9159 53.5263L67.4028 53.2579L76.6194 35.3734H76.6241ZM8.74934 98.1011L33.4631 43.793L55.4926 55.2875L29.5389 107.01L8.74934 98.1058V98.1011ZM29.2871 120.45L31.4677 111.809L39.5536 115.275L29.2871 120.454V120.45ZM66.4099 101.727L43.8151 113.123L32.9215 108.456L58.7468 56.9827L62.6663 59.0264C64.291 61.7104 69.4219 70.1959 74.9043 79.3124C77.4888 83.6023 80.1492 88.0428 82.5626 92.0736L66.4147 101.727H66.4099ZM82.4962 198.849L75.5077 196.96L79.3226 156.977L87.8266 156.765C86.1353 169.959 84.2302 184.943 82.5009 198.849H82.4962ZM88.6057 150.667L79.8547 150.883L83.0377 111.008L77.7121 102.848L86.3776 98.4778C88.3729 101.84 89.9264 104.491 90.6865 105.852C92.5346 109.129 93.0049 112.831 92.9954 115.463C92.9954 116.513 92.9242 117.379 92.8624 117.963C92.8292 118.26 92.7959 118.477 92.7722 118.618C92.7484 118.754 92.7436 118.764 92.7484 118.764L92.7199 118.891L92.7056 119.009C92.7056 119.009 90.9431 132.481 88.6057 150.662V150.667ZM89.7269 200.318C91.0619 189.596 92.5013 178.191 93.8743 167.445C94.3494 163.725 94.815 160.089 95.2616 156.586L103.2 156.388L99.3663 201.994C95.5371 201.344 92.2495 200.765 89.7221 200.318H89.7269ZM136.351 183.041L136.242 183.027L130.617 202.046L130.593 202.121V202.131L134.114 203.167V203.157L134.128 203.115L138.983 187.015L148.537 188.117L144.242 208.874C141.829 208.483 139.468 208.125 137.192 207.824C125.344 206.251 112.868 204.269 103.005 202.611L106.896 156.299L134.461 155.616L133.301 165.5L128.745 180.856L132.275 181.887L136.917 166.235L138.171 155.526L140.66 155.465L140.964 155.526L141.23 166.842L136.342 183.041H136.351ZM188.943 148.19L130.745 149.626L146.2 102.848L170.552 126.703L188.943 148.19ZM199.333 83.8754L202.117 84.4075L193.979 102.589C193.556 102.367 193.076 102.113 192.525 101.816C192.159 101.623 191.769 101.411 191.361 101.185L199.333 83.8801V83.8754ZM189.831 104.5C190.881 105.084 191.784 105.56 192.482 105.923L180.505 132.693L178.125 129.91L189.831 104.5ZM167.222 85.6035C170.467 91.4567 177.151 96.5706 183.042 100.427C184.287 101.237 185.498 101.981 186.634 102.659L175.493 126.835L173.251 124.212L153.578 104.943L162.12 97.0039L159.607 94.3433L150.955 102.377L144.746 96.2975L156.642 84.5064L154.039 81.9259L142.128 93.7312L124.165 76.1339L152.062 59.502C153.017 61.1218 153.982 62.7511 154.932 64.371L144.917 70.0829L146.751 73.2426L156.785 67.5213C161.236 75.1026 165.255 82.0295 167.213 85.5988L167.222 85.6035ZM158.129 62.5581C157.165 60.9193 156.191 59.2712 155.222 57.6325L189.855 36.9886L194.568 41.7728L158.129 62.5628V62.5581Z" fill="white"/>
<path d="M35.8673 -3.82373L21.078 28.0369L0.0461426 16.726V27.792L16.9686 36.8897L0.0461426 73.3462V84.9725L41.2642 -3.82373H35.8673Z" fill="white"/>
</g>
<path d="M140.822 209.628V215.683H134.522V209.628H140.822ZM140.675 180.706L139.948 205.065H135.292L134.565 180.706H140.675Z" fill="white"/>
<path d="M139.251 132.086C139.251 145.601 115.036 181.271 115.036 181.271C115.036 181.271 90.8215 145.605 90.8215 132.086C90.8215 118.571 101.663 107.614 115.036 107.614C128.41 107.614 139.251 118.571 139.251 132.086Z" fill="#FF5B01"/>
<path d="M126.419 131.008C126.419 137.36 121.322 142.512 115.037 142.512C108.751 142.512 103.654 137.36 103.654 131.008C103.654 124.656 108.751 119.504 115.037 119.504C121.322 119.504 126.419 124.656 126.419 131.008Z" fill="white"/>
<path d="M124.253 181.262C124.253 182.519 120.001 183.541 114.761 183.541C109.521 183.541 105.269 182.519 105.269 181.262C105.269 180.004 109.521 178.982 114.761 178.982C120.001 178.982 124.253 180.004 124.253 181.262Z" stroke="#FF5B01" stroke-width="0.79" stroke-miterlimit="10"/>
<path opacity="0.91" d="M114.756 185.288C122.174 185.288 128.187 183.684 128.187 181.705C128.187 179.725 122.174 178.121 114.756 178.121C107.339 178.121 101.326 179.725 101.326 181.705C101.326 183.684 107.339 185.288 114.756 185.288Z" stroke="#FF5B01" stroke-width="0.73" stroke-miterlimit="10"/>
<path opacity="0.82" d="M114.756 187.026C124.346 187.026 132.12 184.839 132.12 182.142C132.12 179.446 124.346 177.259 114.756 177.259C105.166 177.259 97.3918 179.446 97.3918 182.142C97.3918 184.839 105.166 187.026 114.756 187.026Z" stroke="#FF5B01" stroke-width="0.66" stroke-miterlimit="10"/>
<path opacity="0.73" d="M114.756 188.773C126.519 188.773 136.054 186.002 136.054 182.585C136.054 179.168 126.519 176.397 114.756 176.397C102.994 176.397 93.4583 179.168 93.4583 182.585C93.4583 186.002 102.994 188.773 114.756 188.773Z" stroke="#FF5B01" stroke-width="0.6" stroke-miterlimit="10"/>
<path opacity="0.64" d="M114.756 190.515C128.694 190.515 139.992 187.16 139.992 183.023C139.992 178.885 128.694 175.531 114.756 175.531C100.818 175.531 89.5198 178.885 89.5198 183.023C89.5198 187.16 100.818 190.515 114.756 190.515Z" stroke="#FF5B01" stroke-width="0.53" stroke-miterlimit="10"/>
<path opacity="0.55" d="M114.756 192.262C130.866 192.262 143.926 188.324 143.926 183.466C143.926 178.608 130.866 174.669 114.756 174.669C98.646 174.669 85.5862 178.608 85.5862 183.466C85.5862 188.324 98.646 192.262 114.756 192.262Z" stroke="#FF5B01" stroke-width="0.47" stroke-miterlimit="10"/>
<path opacity="0.45" d="M114.756 194.004C133.039 194.004 147.86 189.484 147.86 183.908C147.86 178.332 133.039 173.812 114.756 173.812C96.4734 173.812 81.6523 178.332 81.6523 183.908C81.6523 189.484 96.4734 194.004 114.756 194.004Z" stroke="#FF5B01" stroke-width="0.4" stroke-miterlimit="10"/>
<path opacity="0.36" d="M114.756 195.746C135.211 195.746 151.793 190.642 151.793 184.346C151.793 178.05 135.211 172.946 114.756 172.946C94.3009 172.946 77.7188 178.05 77.7188 184.346C77.7188 190.642 94.3009 195.746 114.756 195.746Z" stroke="#FF5B01" stroke-width="0.34" stroke-miterlimit="10"/>
<path opacity="0.27" d="M114.756 197.493C137.386 197.493 155.732 191.805 155.732 184.789C155.732 177.772 137.386 172.084 114.756 172.084C92.1257 172.084 73.7803 177.772 73.7803 184.789C73.7803 191.805 92.1257 197.493 114.756 197.493Z" stroke="#FF5B01" stroke-width="0.27" stroke-miterlimit="10"/>
<path opacity="0.18" d="M114.756 199.236C139.559 199.236 159.665 192.964 159.665 185.227C159.665 177.49 139.559 171.218 114.756 171.218C89.9533 171.218 69.8467 177.49 69.8467 185.227C69.8467 192.964 89.9533 199.236 114.756 199.236Z" stroke="#FF5B01" stroke-width="0.21" stroke-miterlimit="10"/>
<path opacity="0.09" d="M114.756 200.978C141.731 200.978 163.599 194.124 163.599 185.669C163.599 177.214 141.731 170.36 114.756 170.36C87.7809 170.36 65.9131 177.214 65.9131 185.669C65.9131 194.124 87.7809 200.978 114.756 200.978Z" stroke="#FF5B01" stroke-width="0.14" stroke-miterlimit="10"/>
<defs>
<linearGradient id="paint0_linear_497_4141" x1="5.4193" y1="196.249" x2="8.29354" y2="196.249" gradientUnits="userSpaceOnUse">
<stop stop-color="#666666"/>
<stop offset="0.06" stop-color="#727272"/>
<stop offset="0.33" stop-color="#A8A8A8"/>
<stop offset="0.57" stop-color="#CFCFCF"/>
<stop offset="0.76" stop-color="#E8E8E8"/>
<stop offset="0.87" stop-color="#F1F1F1"/>
<stop offset="0.95" stop-color="#F7F7F7"/>
<stop offset="1" stop-color="white"/>
</linearGradient>
<linearGradient id="paint1_linear_497_4141" x1="197.789" y1="196.268" x2="200.64" y2="196.268" gradientUnits="userSpaceOnUse">
<stop stop-color="white"/>
<stop offset="0.05" stop-color="#F7F7F7"/>
<stop offset="0.13" stop-color="#F1F1F1"/>
<stop offset="0.24" stop-color="#E8E8E8"/>
<stop offset="0.43" stop-color="#CFCFCF"/>
<stop offset="0.67" stop-color="#A8A8A8"/>
<stop offset="0.94" stop-color="#727272"/>
<stop offset="1" stop-color="#666666"/>
</linearGradient>
<linearGradient id="paint2_linear_497_4141" x1="102.811" y1="391.853" x2="102.811" y2="369.283" gradientUnits="userSpaceOnUse">
<stop stop-color="#F1F1F1"/>
<stop offset="0.12" stop-color="#E3E3E3"/>
<stop offset="0.34" stop-color="#BEBEBE"/>
<stop offset="0.63" stop-color="#838383"/>
<stop offset="1" stop-color="#333333"/>
</linearGradient>
<linearGradient id="paint3_linear_497_4141" x1="102.811" y1="22.2871" x2="102.811" y2="-5.8958" gradientUnits="userSpaceOnUse">
<stop stop-color="#333333"/>
<stop offset="0.07" stop-color="#4B4B4B"/>
<stop offset="0.25" stop-color="#818181"/>
<stop offset="0.42" stop-color="#AEAEAE"/>
<stop offset="0.59" stop-color="#D1D1D1"/>
<stop offset="0.74" stop-color="#EAEAEA"/>
<stop offset="0.89" stop-color="#F9F9F9"/>
<stop offset="1" stop-color="white"/>
</linearGradient>
<linearGradient id="paint4_linear_497_4141" x1="188.815" y1="196.395" x2="195.741" y2="196.395" gradientUnits="userSpaceOnUse">
<stop stop-color="#F0F0F0"/>
<stop offset="0.14" stop-color="#B7B7B7"/>
<stop offset="0.27" stop-color="#888888"/>
<stop offset="0.4" stop-color="#636363"/>
<stop offset="0.51" stop-color="#484848"/>
<stop offset="0.62" stop-color="#383838"/>
<stop offset="0.7" stop-color="#333333"/>
</linearGradient>
<linearGradient id="paint5_linear_497_4141" x1="13.8518" y1="376.884" x2="191.774" y2="376.884" gradientUnits="userSpaceOnUse">
<stop/>
<stop offset="0.1" stop-color="#141414"/>
<stop offset="0.26" stop-color="#2C2C2C"/>
<stop offset="0.4" stop-color="#3A3A3A"/>
<stop offset="0.52" stop-color="#404040"/>
<stop offset="0.63" stop-color="#383838"/>
<stop offset="0.79" stop-color="#232323"/>
<stop offset="0.99" stop-color="#020202"/>
<stop offset="1"/>
</linearGradient>
<linearGradient id="paint6_linear_497_4141" x1="-314.177" y1="15.9304" x2="195.756" y2="15.9304" gradientUnits="userSpaceOnUse">
<stop/>
<stop offset="0.1" stop-color="#141414"/>
<stop offset="0.26" stop-color="#2C2C2C"/>
<stop offset="0.4" stop-color="#3A3A3A"/>
<stop offset="0.52" stop-color="#404040"/>
<stop offset="0.63" stop-color="#383838"/>
<stop offset="0.79" stop-color="#232323"/>
<stop offset="0.99" stop-color="#020202"/>
<stop offset="1"/>
</linearGradient>
<linearGradient id="paint7_linear_497_4141" x1="9.88024" y1="196.278" x2="13.9849" y2="196.278" gradientUnits="userSpaceOnUse">
<stop stop-color="#404040"/>
<stop offset="0.64" stop-color="#191919"/>
<stop offset="1" stop-color="#0A0A0A"/>
</linearGradient>
<linearGradient id="paint8_linear_497_4141" x1="188.796" y1="196.419" x2="195.741" y2="196.419" gradientUnits="userSpaceOnUse">
<stop stop-color="#0A0A0A"/>
<stop offset="0.36" stop-color="#191919"/>
<stop offset="1" stop-color="#404040"/>
</linearGradient>
<linearGradient id="paint9_linear_497_4141" x1="90.8103" y1="14.9933" x2="113.609" y2="14.9933" gradientUnits="userSpaceOnUse">
<stop stop-color="#333333"/>
<stop offset="0.09" stop-color="#2A2A2A"/>
<stop offset="0.29" stop-color="#1E1E1E"/>
<stop offset="0.48" stop-color="#1A1A1A"/>
<stop offset="0.79" stop-color="#1B1B1B"/>
<stop offset="0.9" stop-color="#222222"/>
<stop offset="0.98" stop-color="#2E2E2E"/>
<stop offset="1" stop-color="#333333"/>
</linearGradient>
<linearGradient id="paint10_linear_497_4141" x1="3.6043" y1="366.599" x2="199.389" y2="24.473" gradientUnits="userSpaceOnUse">
<stop stop-color="#3F3E3E"/>
<stop offset="1" stop-color="#222221"/>
</linearGradient>
</defs>
</svg>
