<svg width="205" height="242" viewBox="0 0 205 242" fill="none" xmlns="http://www.w3.org/2000/svg">
<path d="M174.749 0H31.8729C17.1264 0 5.17334 11.8477 5.17334 26.4642V366.129C5.17334 380.745 17.1264 392.593 31.8729 392.593H174.749C189.495 392.593 201.448 380.745 201.448 366.129V26.4642C201.448 11.8477 189.495 0 174.749 0ZM200.707 363.671C200.707 366.425 200.265 369.086 199.453 371.577C199.391 371.77 199.329 371.958 199.258 372.147C199.192 372.34 199.125 372.523 199.049 372.712C199.002 372.853 198.945 372.999 198.888 373.136C198.721 373.555 198.541 373.964 198.351 374.374C198.265 374.558 198.184 374.737 198.094 374.915C197.971 375.165 197.847 375.41 197.714 375.66C197.629 375.824 197.538 375.989 197.448 376.149C197.353 376.323 197.253 376.493 197.149 376.667C196.873 377.138 196.574 377.604 196.26 378.061C196.161 378.202 196.061 378.353 195.956 378.494C195.842 378.654 195.728 378.814 195.605 378.97C195.491 379.125 195.372 379.285 195.248 379.441C195.13 379.596 195.006 379.752 194.878 379.902C194.754 380.053 194.626 380.208 194.493 380.359C194.241 380.66 193.97 380.952 193.7 381.24C193.282 381.682 192.854 382.111 192.403 382.525C192.27 382.648 192.137 382.77 191.994 382.888C191.681 383.161 191.367 383.429 191.044 383.693C190.906 383.801 190.764 383.914 190.616 384.023C190.146 384.385 189.662 384.729 189.163 385.059C189.001 385.172 188.83 385.28 188.664 385.383C188.327 385.6 187.984 385.803 187.638 385.996C187.467 386.099 187.296 386.193 187.125 386.283C186.564 386.589 185.994 386.871 185.41 387.126C185.258 387.201 185.101 387.262 184.949 387.328C184.763 387.413 184.583 387.484 184.393 387.559C184.203 387.634 184.018 387.705 183.827 387.776C183.405 387.931 182.982 388.082 182.55 388.214C182.402 388.261 182.246 388.308 182.093 388.35C181.528 388.515 180.949 388.666 180.364 388.793C180.16 388.835 179.956 388.882 179.751 388.92C179.538 388.962 179.319 389.005 179.096 389.038C178.697 389.108 178.288 389.165 177.875 389.216H177.86C177.78 389.226 177.704 389.235 177.623 389.24C177.571 389.249 177.509 389.254 177.457 389.254C177.433 389.259 177.414 389.259 177.385 389.259C177.751 389.221 178.112 389.169 178.478 389.113C178.659 389.085 178.834 389.052 179.02 389.019C179.2 388.99 179.376 388.948 179.552 388.915C180.089 388.807 180.611 388.675 181.134 388.534C181.31 388.491 181.481 388.435 181.652 388.383C181.994 388.279 182.331 388.166 182.668 388.049C183.172 387.865 183.671 387.672 184.155 387.46C184.317 387.394 184.483 387.324 184.64 387.243C184.797 387.168 184.958 387.093 185.115 387.017C185.433 386.862 185.742 386.697 186.056 386.532C186.364 386.358 186.664 386.189 186.968 386.005C187.239 385.84 187.509 385.666 187.775 385.492C187.804 385.478 187.828 385.459 187.856 385.44C188.293 385.143 188.721 384.842 189.134 384.522C189.272 384.418 189.41 384.31 189.547 384.197C189.932 383.886 190.312 383.561 190.678 383.227C191.581 382.398 192.422 381.503 193.182 380.543C193.291 380.411 193.4 380.27 193.505 380.128C194.607 378.683 195.543 377.11 196.279 375.443C196.398 375.179 196.512 374.901 196.617 374.633C197.144 373.31 197.553 371.93 197.828 370.503C197.88 370.225 197.933 369.938 197.975 369.656C198.151 368.507 198.241 367.334 198.241 366.133V26.4642C198.241 14.4611 189.03 4.55353 177.248 3.31509C177.039 3.29625 176.825 3.27741 176.621 3.26329C176.407 3.24916 176.188 3.23503 175.974 3.22562H175.97C175.571 3.20678 175.172 3.19736 174.763 3.19736H31.8919C31.4833 3.19736 31.0842 3.20678 30.6852 3.22562H30.6709C18.2856 3.86132 8.40864 14.042 8.40864 26.4689V366.129C8.40864 378.08 17.5397 387.955 29.2504 389.259C29.0937 389.245 28.9321 389.231 28.7754 389.212H28.7611C28.3478 389.165 27.9439 389.103 27.5401 389.033C25.0935 388.618 22.7561 387.87 20.5897 386.829C20.4377 386.754 20.2857 386.683 20.1336 386.608C19.7488 386.405 19.364 386.203 18.9887 385.991C18.8129 385.892 18.6466 385.793 18.4803 385.69C17.6299 385.176 16.8033 384.621 16.0242 384.013C15.8816 383.905 15.7439 383.797 15.6013 383.684C15.1833 383.349 14.7795 383.005 14.3851 382.652C14.2569 382.535 14.1286 382.417 14.0051 382.294C13.8578 382.158 13.7105 382.021 13.568 381.875C13.4302 381.734 13.2877 381.588 13.1452 381.447C13.0502 381.353 12.9599 381.258 12.8744 381.16C12.7604 381.037 12.6464 380.915 12.5371 380.792C11.872 380.053 11.2544 379.285 10.6795 378.48C10.575 378.339 10.4752 378.188 10.3755 378.047C10.0619 377.595 9.77211 377.133 9.49181 376.663C9.38729 376.498 9.28752 376.323 9.19251 376.149C8.47513 374.873 7.8623 373.531 7.37297 372.142C7.3017 371.949 7.23993 371.765 7.17817 371.572C6.86461 370.612 6.60807 369.627 6.40854 368.624C6.37053 368.422 6.32778 368.219 6.29452 368.022C6.05223 366.609 5.92395 365.154 5.92395 363.671V26.4642C5.92395 26.2099 5.92871 25.9603 5.93821 25.706C5.93821 25.513 5.9477 25.3293 5.95721 25.141C5.97621 24.7266 6.00472 24.3216 6.05223 23.9119C6.07123 23.7 6.095 23.4881 6.1235 23.2809C6.13775 23.1679 6.15199 23.0596 6.16624 22.9466C6.1805 22.8148 6.1995 22.6829 6.22325 22.5416C6.25175 22.3297 6.28978 22.1178 6.32778 21.9059C6.39429 21.5386 6.46554 21.1761 6.55106 20.8135C6.58906 20.6298 6.63658 20.4556 6.67934 20.2766C6.80761 19.7398 6.95489 19.2218 7.12592 18.6992C7.17817 18.5391 7.23517 18.3695 7.28743 18.2094C7.35869 18.0069 7.42521 17.8045 7.50122 17.6114C7.56298 17.4466 7.62475 17.2818 7.69126 17.1217C7.74352 16.9851 7.79576 16.8533 7.85277 16.7167C7.91929 16.5566 7.98579 16.3918 8.05706 16.2364C8.10931 16.114 8.16159 15.9962 8.2186 15.8785C8.29936 15.6996 8.37538 15.53 8.46565 15.3511C8.60817 15.045 8.76493 14.7437 8.92646 14.4423C9.00723 14.2916 9.088 14.1362 9.17827 13.9855C9.27328 13.8066 9.37778 13.6323 9.4823 13.4581C10.1997 12.2432 11.0168 11.0942 11.9242 10.0159C12.0525 9.86521 12.1808 9.70981 12.3138 9.55912C12.4611 9.39431 12.6131 9.22008 12.7699 9.05527C13.0264 8.78215 13.2829 8.50903 13.5537 8.25004C13.8435 7.9628 14.1334 7.68968 14.4327 7.42127C14.7367 7.15757 15.036 6.88916 15.3496 6.63488C15.5016 6.50774 15.6631 6.38531 15.8199 6.25817C16.1382 6.0133 16.4612 5.77315 16.789 5.5377C17.1169 5.30696 17.4494 5.08093 17.7915 4.85961C18.1335 4.643 18.4756 4.4311 18.8272 4.22862C19.0029 4.12502 19.1787 4.02613 19.3592 3.92725C19.5398 3.82836 19.7156 3.73418 19.8961 3.64C20.0814 3.54582 20.2571 3.45164 20.4424 3.36688C20.6277 3.27741 20.8083 3.18794 20.9983 3.10318C21.3641 2.93837 21.7442 2.77356 22.1242 2.62287C22.3048 2.54753 22.4853 2.4769 22.6705 2.40626C22.6848 2.39684 22.7038 2.39214 22.7181 2.38743C22.9034 2.31679 23.0886 2.25558 23.2739 2.18494C23.4592 2.12373 23.6397 2.06251 23.825 1.99659C24.034 1.93066 24.2431 1.86474 24.4521 1.80352C24.6516 1.7423 24.8464 1.69051 25.046 1.63871C25.2502 1.58691 25.4498 1.5304 25.6493 1.48331C25.8536 1.43622 26.0579 1.38443 26.2574 1.34204C26.6708 1.24787 27.0793 1.16781 27.4974 1.10189C27.7017 1.06893 27.9107 1.03126 28.115 1.003C28.5616 0.937077 29.0129 0.885279 29.4642 0.847607C29.8205 0.814645 30.1816 0.7911 30.5426 0.767555C30.7612 0.758138 30.9845 0.74872 31.2078 0.744011C31.4311 0.739302 31.6543 0.734593 31.8776 0.734593H174.749C174.972 0.734593 175.195 0.739302 175.419 0.744011C175.604 0.74872 175.789 0.753429 175.974 0.762846C176.397 0.781682 176.811 0.809936 177.229 0.852316H177.243C177.457 0.871152 177.666 0.894696 177.875 0.92295C178.089 0.946495 178.298 0.974748 178.502 1.00771C178.711 1.03596 178.92 1.07364 179.124 1.1066C179.333 1.13956 179.538 1.18194 179.737 1.21961C179.742 1.2149 179.747 1.2149 179.747 1.21961C179.951 1.25728 180.155 1.30437 180.355 1.34675C180.545 1.38443 180.725 1.43151 180.911 1.46919C180.953 1.4786 180.996 1.48802 181.029 1.49744C181.205 1.53982 181.376 1.58691 181.552 1.634C181.794 1.69992 182.036 1.76585 182.274 1.84119C182.436 1.88828 182.602 1.94008 182.759 1.99188C183.12 2.1096 183.476 2.23203 183.832 2.36388C184.075 2.44864 184.312 2.54282 184.545 2.637C184.716 2.70763 184.887 2.77827 185.058 2.85361C185.248 2.93366 185.429 3.01371 185.619 3.10318C185.804 3.18794 185.984 3.27741 186.17 3.36217C187.476 3.99788 188.716 4.73718 189.885 5.58008C190.027 5.67897 190.175 5.78256 190.312 5.89087C190.83 6.27229 191.324 6.67255 191.804 7.09165C192.018 7.2753 192.227 7.45894 192.426 7.65201C193.263 8.42427 194.046 9.24834 194.764 10.1195C194.897 10.2749 195.02 10.4303 195.144 10.5857C195.405 10.9153 195.652 11.2449 195.895 11.5793C196.018 11.7441 196.137 11.9183 196.251 12.0925C196.455 12.3845 196.645 12.6811 196.835 12.9825C196.93 13.1332 197.021 13.2886 197.111 13.4393C197.277 13.7312 197.448 14.0185 197.605 14.3199C197.686 14.4611 197.762 14.6071 197.833 14.7531C198.094 15.2475 198.332 15.7514 198.56 16.2646C198.612 16.3965 198.674 16.5283 198.726 16.6696C198.94 17.1829 199.139 17.7009 199.315 18.2283C199.386 18.426 199.448 18.6144 199.51 18.8122C199.866 19.9423 200.147 21.1007 200.341 22.2874C200.36 22.4098 200.379 22.5369 200.403 22.6688C200.432 22.876 200.465 23.0832 200.489 23.2857C200.512 23.4976 200.536 23.7047 200.56 23.9166C200.584 24.1286 200.598 24.3405 200.622 24.5524C200.645 24.9385 200.664 25.3293 200.674 25.7202C200.683 25.9697 200.688 26.2193 200.688 26.4736V363.671H200.707Z" fill="#C7C7C7"/>
<path d="M29.3883 389.278C29.1792 389.259 28.9702 389.24 28.7659 389.212H28.7517C28.3384 389.165 27.9345 389.104 27.5307 389.033C25.0841 388.618 22.7467 387.87 20.5803 386.829C20.4283 386.754 20.2762 386.683 20.1242 386.608C19.7394 386.405 19.3546 386.203 18.9793 385.991C18.8035 385.892 18.6372 385.793 18.4709 385.69C17.6205 385.176 16.7939 384.621 16.0147 384.013C15.8722 383.905 15.7345 383.797 15.5919 383.684C15.1739 383.349 14.7701 383.005 14.3757 382.652C14.2475 382.535 14.1192 382.417 13.9957 382.294C13.8484 382.158 13.7011 382.021 13.5586 381.875C13.4208 381.734 13.2783 381.588 13.1358 381.447C13.0407 381.353 12.9505 381.258 12.865 381.16C12.751 381.037 12.6369 380.915 12.5277 380.792C11.8626 380.053 11.2449 379.285 10.6701 378.48C10.5656 378.339 10.4658 378.188 10.3661 378.047C10.0525 377.595 9.76268 377.133 9.48238 376.663C9.37787 376.498 9.27813 376.323 9.18311 376.149C8.46574 374.873 7.85287 373.531 7.36354 372.142C7.29228 371.949 7.2305 371.765 7.16874 371.572C6.85519 370.612 6.59865 369.627 6.39911 368.624C6.36111 368.422 6.31835 368.219 6.2851 368.022C6.04281 366.609 5.91455 365.154 5.91455 363.671V28.9222C5.91455 15.1439 16.9079 3.85658 30.6567 3.22559C18.2714 3.86129 8.39446 14.042 8.39446 26.4689V366.129C8.39446 378.132 17.6015 388.039 29.3835 389.278H29.3883Z" fill="url(#paint0_linear_70_4008)"/>
<path d="M200.707 28.9221V363.671C200.707 366.425 200.265 369.086 199.453 371.577C199.391 371.77 199.33 371.958 199.258 372.147C199.192 372.34 199.125 372.523 199.049 372.712C199.002 372.853 198.945 372.999 198.888 373.136C198.721 373.555 198.541 373.964 198.351 374.374C198.265 374.558 198.185 374.737 198.094 374.915C197.971 375.165 197.847 375.41 197.714 375.659C197.629 375.824 197.539 375.989 197.448 376.149C197.353 376.323 197.253 376.493 197.149 376.667C196.873 377.138 196.574 377.604 196.261 378.061C196.161 378.202 196.061 378.353 195.956 378.494C195.842 378.654 195.724 378.814 195.605 378.97C195.491 379.13 195.367 379.29 195.249 379.441C195.125 379.596 195.002 379.752 194.878 379.902C194.755 380.053 194.626 380.208 194.493 380.359C194.237 380.66 193.971 380.952 193.7 381.24C193.282 381.682 192.854 382.111 192.403 382.525C192.27 382.643 192.137 382.765 191.994 382.888C191.681 383.161 191.367 383.429 191.044 383.693C190.906 383.801 190.764 383.91 190.617 384.023C190.146 384.385 189.662 384.729 189.163 385.059C189.001 385.167 188.83 385.275 188.664 385.383C188.327 385.6 187.985 385.803 187.638 385.996C187.472 386.094 187.296 386.193 187.125 386.283C186.564 386.589 185.994 386.871 185.41 387.126C185.258 387.201 185.101 387.262 184.949 387.328C184.764 387.413 184.583 387.484 184.393 387.559C184.203 387.634 184.018 387.705 183.828 387.776C183.405 387.931 182.982 388.082 182.55 388.214C182.398 388.261 182.246 388.308 182.094 388.35C181.528 388.515 180.949 388.666 180.364 388.793C180.16 388.835 179.956 388.882 179.751 388.92C179.538 388.962 179.319 389.005 179.096 389.038C178.687 389.108 178.284 389.165 177.875 389.216H177.861C177.652 389.24 177.443 389.259 177.238 389.282C189.02 388.044 198.232 378.136 198.232 366.133V26.4641C198.232 14.2491 188.693 4.20497 176.606 3.26318C190.056 4.20497 200.707 15.3557 200.707 28.9221Z" fill="url(#paint1_linear_70_4008)"/>
<path d="M200.707 26.464V28.922C200.707 15.5628 190.388 4.55332 177.233 3.31487C177.024 3.29603 176.811 3.2772 176.606 3.26307C176.393 3.24894 176.174 3.23482 175.96 3.2254H175.956C175.556 3.20656 175.157 3.19714 174.749 3.19714H31.8777C31.4691 3.19714 31.0701 3.20656 30.671 3.2254H30.6567C16.9079 3.8611 5.91455 15.1437 5.91455 28.922V26.464C5.91455 26.2097 5.91929 25.9601 5.92879 25.7058C5.92879 25.5128 5.93831 25.3291 5.94781 25.1408C5.96681 24.7264 5.99529 24.3214 6.0428 23.9117C6.06181 23.6998 6.08557 23.4879 6.11408 23.2807C6.12833 23.1677 6.14257 23.0594 6.15682 22.9464C6.17107 22.8145 6.1901 22.6827 6.21385 22.5414C6.24236 22.3295 6.28035 22.1176 6.31836 21.9057C6.38487 21.5384 6.45615 21.1758 6.54166 20.8132C6.57967 20.6296 6.62716 20.4554 6.66991 20.2764C6.79819 19.7396 6.94546 19.2216 7.11649 18.6989C7.16875 18.5388 7.22577 18.3693 7.27803 18.2092C7.34929 18.0067 7.41581 17.8042 7.49182 17.6112C7.55358 17.4464 7.61533 17.2816 7.68184 17.1214C7.7341 16.9849 7.78637 16.853 7.84338 16.7165C7.90989 16.5564 7.9764 16.3916 8.04766 16.2362C8.09992 16.1137 8.15216 15.996 8.20917 15.8783C8.28993 15.6994 8.36596 15.5298 8.45622 15.3509C8.59875 15.0448 8.75554 14.7434 8.91707 14.4421C8.99783 14.2914 9.07858 14.136 9.16884 13.9853C9.26386 13.8064 9.36838 13.6321 9.4729 13.4579C10.1903 12.243 11.0074 11.094 11.9148 10.0157C12.0431 9.86499 12.1713 9.70959 12.3044 9.55891C12.4516 9.3941 12.6037 9.21987 12.7605 9.05505C13.017 8.78194 13.2736 8.50882 13.5443 8.24983C13.8341 7.96258 14.1239 7.68946 14.4232 7.42105C14.7273 7.15735 15.0266 6.88895 15.3401 6.63466C15.4922 6.50752 15.6537 6.38509 15.8105 6.25795C16.1288 6.01308 16.4518 5.77293 16.7796 5.53748C17.1075 5.30675 17.44 5.08072 17.7821 4.8594C18.1241 4.64279 18.4662 4.43088 18.8177 4.2284C18.9935 4.1248 19.1693 4.02592 19.3498 3.92703C19.5304 3.82814 19.7061 3.73396 19.8867 3.63978C20.0719 3.54561 20.2477 3.45143 20.433 3.36667C20.6183 3.2772 20.7988 3.18773 20.9889 3.10297C21.3547 2.93815 21.7347 2.77334 22.1148 2.62266C22.2953 2.54731 22.4759 2.47668 22.6612 2.40604C22.6754 2.39663 22.6944 2.39192 22.7087 2.38721C22.8939 2.31658 23.0792 2.25536 23.2645 2.18473C23.4498 2.12351 23.6303 2.06229 23.8156 1.99637C24.0246 1.93044 24.2337 1.86452 24.4427 1.8033C24.6422 1.74209 24.837 1.69029 25.0366 1.63849C25.2408 1.58669 25.4404 1.53018 25.6399 1.48309C25.8442 1.43601 26.0485 1.38421 26.248 1.34183C26.6613 1.24765 27.0699 1.1676 27.488 1.10167C27.6922 1.06871 27.9013 1.03104 28.1056 1.00278C28.5521 0.936859 29.0035 0.885061 29.4548 0.847389C29.8111 0.814427 30.1722 0.790882 30.5332 0.767338C30.7518 0.75792 30.9751 0.748502 31.1983 0.743793C31.4216 0.739084 31.6449 0.734375 31.8682 0.734375H174.739C174.963 0.734375 175.186 0.739084 175.409 0.743793C175.594 0.748502 175.78 0.753211 175.965 0.762629C176.388 0.781464 176.801 0.809718 177.219 0.852098H177.233C177.447 0.870934 177.656 0.894479 177.865 0.922732C178.079 0.946277 178.288 0.97453 178.492 1.00749C178.701 1.03575 178.911 1.07342 179.115 1.10638C179.324 1.13934 179.528 1.18172 179.728 1.21939C179.732 1.21469 179.737 1.21469 179.737 1.21939C179.941 1.25707 180.146 1.30416 180.345 1.34654C180.535 1.38421 180.716 1.4313 180.901 1.46897C180.944 1.47839 180.987 1.4878 181.02 1.49722C181.196 1.5396 181.367 1.58669 181.542 1.63378C181.785 1.69971 182.027 1.76563 182.265 1.84097C182.426 1.88806 182.592 1.93986 182.749 1.99166C183.11 2.10938 183.467 2.23181 183.823 2.36366C184.065 2.44843 184.303 2.5426 184.535 2.63678C184.706 2.70742 184.878 2.77805 185.049 2.85339C185.239 2.93344 185.419 3.0135 185.609 3.10297C185.794 3.18773 185.975 3.2772 186.16 3.36196C187.467 3.99766 188.707 4.73697 189.875 5.57986C190.018 5.67875 190.165 5.78235 190.303 5.89065C190.821 6.27208 191.315 6.67234 191.795 7.09143C192.008 7.27508 192.218 7.45873 192.417 7.65179C193.253 8.42406 194.037 9.24812 194.754 10.1193C194.887 10.2747 195.011 10.4301 195.135 10.5855C195.396 10.9151 195.643 11.2447 195.885 11.579C196.009 11.7439 196.127 11.9181 196.241 12.0923C196.446 12.3843 196.636 12.6809 196.826 12.9823C196.921 13.133 197.011 13.2884 197.101 13.4391C197.268 13.731 197.439 14.0183 197.595 14.3196C197.676 14.4609 197.752 14.6069 197.824 14.7529C198.085 15.2473 198.322 15.7512 198.55 16.2644C198.603 16.3963 198.664 16.5281 198.717 16.6694C198.93 17.1827 199.13 17.7006 199.306 18.228C199.377 18.4258 199.439 18.6142 199.5 18.812C199.857 19.9421 200.137 21.1005 200.332 22.2871C200.351 22.4096 200.37 22.5367 200.394 22.6686C200.422 22.8758 200.455 23.083 200.479 23.2854C200.503 23.4973 200.527 23.7045 200.55 23.9164C200.574 24.1283 200.588 24.3402 200.612 24.5521C200.636 24.9383 200.655 25.3291 200.664 25.72C200.674 25.9695 200.679 26.2191 200.679 26.4734L200.707 26.464Z" fill="url(#paint2_linear_70_4008)"/>
<path d="M175.96 3.22112H175.956C175.561 3.20229 175.157 3.19287 174.749 3.19287H31.8778C31.4692 3.19287 31.0702 3.20229 30.6711 3.22112H30.6568C18.2715 3.85683 8.39453 14.0375 8.39453 26.4644V366.129C8.39453 378.344 17.9294 388.388 30.0155 389.33C30.2293 389.344 30.4478 389.358 30.6616 389.367C31.0654 389.386 31.4692 389.396 31.8825 389.396H174.754C175.162 389.396 175.561 389.386 175.965 389.367C176.179 389.358 176.397 389.344 176.611 389.33C188.692 388.388 198.237 378.339 198.237 366.129V26.4644C198.237 14.0375 188.355 3.85212 175.97 3.22112H175.96ZM196.246 366.124C196.246 377.167 187.548 386.504 176.464 387.366C176.264 387.38 176.065 387.394 175.861 387.399C175.495 387.418 175.124 387.427 174.749 387.427H31.8778C31.5025 387.427 31.1224 387.418 30.7518 387.399C30.5523 387.394 30.3528 387.38 30.1675 387.366C19.0696 386.5 10.3756 377.167 10.3756 366.124V26.4644C10.3756 15.1347 19.3024 5.79691 30.7138 5.18946H30.7709C31.1319 5.17062 31.5025 5.1612 31.8778 5.1612H174.749C175.119 5.1612 175.49 5.17062 175.856 5.18475H175.889C187.31 5.78278 196.246 15.13 196.246 26.4644V366.129V366.124Z" fill="#404040"/>
<path d="M196.241 26.6005V366.265C196.241 368.37 195.923 370.414 195.339 372.344C194.868 373.889 194.227 375.363 193.429 376.742C193.267 377.03 193.091 377.307 192.92 377.581C192.654 377.995 192.374 378.395 192.089 378.791C191.267 379.902 190.341 380.929 189.324 381.866C191.201 378.612 192.279 374.84 192.279 370.852V366.934C192.289 366.703 192.293 366.467 192.293 366.232V26.5676C192.293 26.3274 192.289 26.0872 192.279 25.8518V22.0187C192.279 17.9785 191.205 14.1878 189.319 10.9292C193.586 14.8282 196.241 20.4224 196.241 26.6005Z" fill="url(#paint3_linear_70_4008)"/>
<path d="M175.784 7.14806H175.694C175.381 7.12922 175.067 7.12451 174.749 7.12451H31.8776C31.5546 7.12451 31.2315 7.12922 30.9132 7.14335L30.8182 7.15277H30.7707C20.4425 7.72725 12.3613 16.2033 12.3613 26.4641V366.124C12.3613 376.159 20.2477 384.625 30.3336 385.412C30.4809 385.421 30.6472 385.435 30.8039 385.44H30.861C31.1983 385.459 31.5356 385.468 31.8776 385.468H174.749C175.086 385.468 175.419 385.459 175.751 385.44H175.813C175.979 385.435 176.15 385.421 176.307 385.407C186.374 384.625 194.26 376.149 194.26 366.124V26.4641C194.26 16.1704 186.146 7.68958 175.784 7.14806ZM189.058 366.129C189.058 369.349 187.951 372.34 186.089 374.746C185.984 374.878 185.885 375 185.78 375.123C185.467 375.499 185.134 375.862 184.787 376.206C184.478 376.502 184.155 376.799 183.823 377.072H183.818C183.395 377.416 182.953 377.736 182.493 378.037C182.032 378.339 181.561 378.607 181.067 378.847H181.063C180.82 378.97 180.568 379.083 180.312 379.191H180.307C180.055 379.299 179.794 379.398 179.533 379.488C179.01 379.676 178.469 379.832 177.918 379.954C177.257 380.1 176.583 380.204 175.889 380.26C175.827 380.265 175.765 380.269 175.699 380.279H175.476C175.414 380.288 175.357 380.288 175.3 380.298C175.238 380.298 175.181 380.302 175.119 380.302C174.996 380.302 174.867 380.307 174.749 380.307H31.8824C31.7636 380.307 31.6401 380.302 31.5118 380.302C31.3883 380.298 31.26 380.293 31.1365 380.284H30.937C30.8752 380.274 30.8134 380.265 30.7422 380.26C23.3547 379.686 17.5634 373.474 17.5634 366.124V26.4641C17.5634 18.991 23.4212 12.7988 30.9275 12.309H31.051L31.2458 12.2902C31.4786 12.2808 31.6828 12.2808 31.8776 12.2808H174.744C174.939 12.2808 175.148 12.2808 175.376 12.2902H175.514C175.561 12.2949 175.609 12.2996 175.656 12.309C175.799 12.3138 175.936 12.3279 176.069 12.342C176.131 12.342 176.193 12.3467 176.259 12.3608C176.383 12.3703 176.511 12.3844 176.635 12.4079C176.782 12.4173 176.929 12.4409 177.077 12.4691C177.081 12.4691 177.096 12.4691 177.1 12.4739C177.314 12.5021 177.528 12.5398 177.737 12.5869C177.775 12.5963 177.818 12.6104 177.856 12.6151C178.032 12.6481 178.203 12.6952 178.374 12.7376C178.625 12.8035 178.872 12.8788 179.124 12.9589C179.324 13.0154 179.523 13.0813 179.713 13.1567C179.922 13.232 180.136 13.3168 180.34 13.4062C180.754 13.5757 181.153 13.7688 181.547 13.9807C181.903 14.1691 182.25 14.3763 182.588 14.5929C182.664 14.6447 182.735 14.6965 182.816 14.7436C182.953 14.8377 183.086 14.9366 183.224 15.0308C183.405 15.1532 183.576 15.2898 183.747 15.4311C184.089 15.7089 184.417 15.9961 184.73 16.2975C184.896 16.4435 185.048 16.6036 185.191 16.7637C185.338 16.9238 185.486 17.0839 185.628 17.2487C186.203 17.9127 186.716 18.6237 187.153 19.3866C187.376 19.7633 187.576 20.1588 187.761 20.5591C187.942 20.9593 188.113 21.3643 188.26 21.7881C188.336 21.9953 188.403 22.2072 188.464 22.4191C188.602 22.8806 188.721 23.3515 188.806 23.8271C188.844 24.0201 188.882 24.2038 188.901 24.3969C189.006 25.0655 189.053 25.7625 189.053 26.4594V366.129H189.058Z" fill="black"/>
<path d="M55.7695 18.8213C55.7173 18.7272 55.6792 18.6283 55.6317 18.5341C55.6222 18.4964 55.6033 18.4587 55.5938 18.4258C55.6508 18.5623 55.7078 18.6895 55.7695 18.8213Z" fill="black"/>
<path d="M151.028 18.4258C151.018 18.4587 150.999 18.4917 150.99 18.5341C150.942 18.6283 150.904 18.7272 150.852 18.8213C150.914 18.6895 150.971 18.5623 151.028 18.4258Z" fill="black"/>
<path d="M154.13 12.2855C152.952 12.3467 151.997 13.2508 151.878 14.4045C151.878 14.5128 151.873 14.6117 151.869 14.7153C151.85 15.1438 151.807 15.5676 151.731 15.982C151.707 16.128 151.683 16.2692 151.65 16.4105C151.617 16.5894 151.574 16.759 151.531 16.9285C151.498 17.0792 151.451 17.2346 151.408 17.3852C151.398 17.4182 151.384 17.4512 151.375 17.4935C151.365 17.5265 151.351 17.5689 151.337 17.6066C151.332 17.6395 151.318 17.6678 151.308 17.696C151.289 17.7478 151.275 17.7996 151.256 17.8467C151.232 17.9032 151.218 17.9597 151.194 18.0162C151.147 18.1575 151.09 18.2941 151.033 18.4259C150.976 18.5625 150.919 18.6896 150.857 18.8215C150.852 18.845 150.847 18.8591 150.833 18.878C150.828 18.8874 150.828 18.8968 150.824 18.9062C150.771 19.0192 150.714 19.1275 150.657 19.2311C150.61 19.3253 150.562 19.4242 150.51 19.5137C150.501 19.5419 150.482 19.5702 150.458 19.6031C150.434 19.6549 150.405 19.6973 150.377 19.7444C150.344 19.8103 150.301 19.8763 150.263 19.9375C150.253 19.9563 150.244 19.9704 150.234 19.9893C150.225 20.0128 150.206 20.0364 150.187 20.0646C150.158 20.1117 150.135 20.1494 150.106 20.1871C150.078 20.2389 150.049 20.2812 150.016 20.3283C149.992 20.366 149.964 20.4084 149.935 20.446C149.926 20.4696 149.907 20.4837 149.888 20.5073C149.854 20.5591 149.826 20.6014 149.793 20.6485C149.769 20.6815 149.745 20.7145 149.717 20.7427C149.688 20.7945 149.655 20.8369 149.612 20.884C149.607 20.8934 149.593 20.9075 149.588 20.9169C149.584 20.9264 149.569 20.9405 149.56 20.9452C149.527 20.997 149.484 21.0488 149.446 21.0959C149.436 21.1194 149.417 21.1335 149.398 21.1524C149.36 21.2089 149.313 21.2654 149.265 21.3172H149.261C149.204 21.3831 149.147 21.4538 149.09 21.515C149.037 21.5903 148.976 21.6562 148.914 21.7175C148.914 21.7222 148.909 21.7269 148.909 21.7269H148.904C148.871 21.774 148.828 21.8116 148.79 21.8493C148.752 21.8964 148.705 21.9388 148.657 21.9859C148.619 22.033 148.576 22.0706 148.534 22.1083C148.458 22.1883 148.386 22.259 148.301 22.3343C148.244 22.3955 148.187 22.4473 148.12 22.5038C148.082 22.5368 148.044 22.5698 148.006 22.6074C147.916 22.6875 147.816 22.7675 147.726 22.8382C147.641 22.9135 147.55 22.9794 147.46 23.0548C147.403 23.1019 147.351 23.1396 147.294 23.1772C147.232 23.229 147.17 23.2714 147.099 23.3185C147.099 23.3232 147.094 23.3232 147.094 23.3232C147.032 23.3703 146.971 23.4127 146.899 23.4551C146.871 23.4833 146.842 23.5021 146.814 23.5163C146.705 23.5822 146.6 23.6575 146.491 23.7188C146.405 23.78 146.32 23.8318 146.234 23.8789C146.125 23.9448 146.021 24.0107 145.906 24.0578C145.868 24.086 145.821 24.1096 145.783 24.1331C145.773 24.1378 145.764 24.1426 145.754 24.1426C145.674 24.1896 145.593 24.2273 145.512 24.265C145.446 24.3027 145.37 24.3403 145.289 24.3733C145.227 24.4063 145.156 24.4345 145.089 24.4628C145.056 24.4816 145.023 24.491 144.98 24.5099C144.952 24.5287 144.923 24.5381 144.89 24.5475H144.885C144.709 24.6229 144.538 24.6888 144.362 24.75C144.196 24.8065 144.039 24.863 143.873 24.9148C143.693 24.9713 143.517 25.0231 143.332 25.0655C142.966 25.155 142.59 25.235 142.215 25.2915C142.063 25.3151 141.902 25.3386 141.745 25.3527C141.712 25.3575 141.683 25.3575 141.65 25.3622C141.512 25.3716 141.379 25.3857 141.246 25.3904C141.084 25.3998 140.932 25.4093 140.78 25.414C140.728 25.414 140.676 25.414 140.633 25.4187H65.9741C65.9266 25.414 65.8791 25.414 65.8268 25.414C65.6748 25.4093 65.518 25.4045 65.3613 25.3904C65.2282 25.3857 65.0952 25.3716 64.9574 25.3622C64.9242 25.3575 64.8957 25.3575 64.8624 25.3527C64.7009 25.3339 64.5441 25.3151 64.3921 25.2915C64.0168 25.235 63.6415 25.155 63.2757 25.0655C63.0951 25.0184 62.9193 24.9713 62.7341 24.9148C62.5678 24.863 62.411 24.8065 62.2447 24.75C62.069 24.6888 61.8979 24.6182 61.7221 24.5475H61.7174C61.6841 24.5381 61.6556 24.524 61.6271 24.5099C61.5891 24.491 61.5511 24.4816 61.5179 24.4628C61.4513 24.4345 61.3801 24.4063 61.3183 24.3733C61.2376 24.3403 61.1663 24.3074 61.095 24.265C61.0095 24.2273 60.9287 24.1849 60.8527 24.1426C60.8432 24.1426 60.8337 24.1378 60.8242 24.1331C60.7862 24.1096 60.7387 24.086 60.7007 24.0578C60.5867 24.006 60.4774 23.9448 60.3729 23.8789C60.2874 23.8318 60.2019 23.7847 60.1164 23.7188C60.0071 23.6575 59.9026 23.5822 59.7933 23.5163C59.7648 23.4974 59.7363 23.4833 59.7078 23.4551C59.6413 23.4174 59.5748 23.3703 59.513 23.3232C59.513 23.3232 59.5083 23.3232 59.5083 23.3185C59.4418 23.2714 59.3752 23.229 59.3135 23.1772C59.2565 23.1396 59.2042 23.0972 59.1472 23.0548C59.0569 22.9794 58.9667 22.9135 58.8812 22.8382C58.7909 22.7628 58.6959 22.6875 58.6009 22.6074C58.5628 22.5745 58.5248 22.5415 58.4868 22.5038C58.4203 22.4473 58.3633 22.3955 58.3063 22.3343C58.2208 22.259 58.1495 22.1883 58.0735 22.1083C58.026 22.0706 57.988 22.0282 57.95 21.9859C57.9025 21.9388 57.8597 21.8964 57.817 21.8493C57.779 21.8116 57.7362 21.7693 57.7029 21.7269H57.6982C57.665 21.6939 57.6365 21.6609 57.6079 21.6186C57.5177 21.515 57.4321 21.4161 57.3466 21.3125H57.3419C57.2944 21.2607 57.2516 21.2042 57.2089 21.1477C57.1899 21.1288 57.1756 21.1147 57.1614 21.0912C57.1234 21.0394 57.0806 20.9876 57.0474 20.9405C57.0379 20.9358 57.0236 20.9216 57.0189 20.9122C57.0141 20.9028 56.9998 20.8887 56.9951 20.8793C56.9571 20.8322 56.9191 20.7898 56.8906 20.738C56.8621 20.7097 56.8383 20.6768 56.8145 20.6438C56.7813 20.5967 56.7528 20.5544 56.7195 20.5026C56.7005 20.4837 56.691 20.4649 56.672 20.4413C56.6435 20.4037 56.615 20.3613 56.5913 20.3236C56.558 20.2765 56.5295 20.2341 56.501 20.1823C56.4725 20.1447 56.4488 20.1023 56.4202 20.0599C56.4107 20.0364 56.3917 20.0128 56.3727 19.9846C56.3632 19.9657 56.3537 19.9516 56.3442 19.9328C56.3062 19.8716 56.2635 19.8103 56.2302 19.7397C56.2017 19.6926 56.1732 19.6502 56.1494 19.5984C56.1304 19.5702 56.1162 19.5372 56.0972 19.509C56.0449 19.4195 55.9927 19.3206 55.9499 19.2264C55.8929 19.1181 55.8359 19.0145 55.7836 18.9015C55.7789 18.8921 55.7789 18.8827 55.7741 18.8733C55.7646 18.8544 55.7551 18.8403 55.7504 18.8168C55.6886 18.6849 55.6316 18.5578 55.5746 18.4212C55.5176 18.2846 55.4606 18.1528 55.4131 18.0115C55.3893 17.955 55.3751 17.8985 55.3513 17.842C55.3323 17.7902 55.318 17.7384 55.299 17.6913C55.2895 17.6631 55.2753 17.6348 55.2705 17.6019C55.2515 17.5642 55.242 17.5265 55.2325 17.4888C55.223 17.4559 55.2088 17.4135 55.1993 17.3805C55.1518 17.2298 55.109 17.0745 55.0758 16.9238C55.0283 16.7542 54.9902 16.5847 54.957 16.4105C54.9237 16.2645 54.9 16.1232 54.8762 15.9773C54.8002 15.5582 54.7574 15.1391 54.7384 14.7106C54.7337 14.607 54.729 14.5081 54.729 14.3998C54.6102 13.2461 53.6553 12.342 52.4771 12.2808H154.111L154.13 12.2855Z" fill="black"/>
<path d="M65.3658 25.3954C65.5226 25.4049 65.6794 25.4143 65.8314 25.419C65.7459 25.419 65.6557 25.419 65.5702 25.4143C65.4799 25.4143 65.3896 25.4096 65.2994 25.3954C65.1948 25.3907 65.0998 25.3766 65.0001 25.3719C64.9906 25.3719 64.9763 25.3719 64.9668 25.3672C65.1046 25.3766 65.2376 25.3907 65.3706 25.3954H65.3658Z" fill="black"/>
<path d="M141.659 25.3672C141.659 25.3672 141.635 25.3719 141.626 25.3719C141.521 25.3766 141.426 25.3907 141.327 25.3954C141.236 25.4049 141.146 25.4143 141.056 25.4143C140.97 25.419 140.88 25.419 140.794 25.419C140.946 25.4143 141.103 25.4096 141.26 25.3954C141.393 25.3907 141.526 25.3766 141.664 25.3672H141.659Z" fill="black"/>
<path d="M55.432 18.0151C55.432 18.0151 55.4273 18.0058 55.4225 17.9964C55.4036 17.9449 55.3895 17.8935 55.3706 17.8467C55.3942 17.9028 55.4084 17.959 55.432 18.0151Z" fill="black"/>
<path d="M55.7695 18.8218C55.7173 18.7276 55.6792 18.6288 55.6317 18.5346C55.6222 18.4969 55.6033 18.4592 55.5938 18.4263C55.6508 18.5628 55.7078 18.69 55.7695 18.8218Z" fill="black"/>
<path d="M57.1651 21.0997C57.1132 21.0435 57.0706 20.9827 57.0234 20.9219C57.0282 20.9312 57.0423 20.9453 57.0518 20.9499C57.0848 21.0014 57.1273 21.0529 57.1651 21.0997Z" fill="black"/>
<path d="M57.6128 21.6235C57.551 21.5622 57.494 21.501 57.4417 21.4304C57.4084 21.3927 57.3752 21.3551 57.3467 21.3174H57.3514C57.4369 21.421 57.5225 21.5199 57.6128 21.6235Z" fill="black"/>
<path d="M57.8212 21.8536C57.7739 21.8162 57.7362 21.7694 57.7031 21.7319H57.7079C57.7409 21.7787 57.7834 21.8162 57.8212 21.8536Z" fill="black"/>
<path d="M59.1518 23.0548C59.0616 22.9936 58.9713 22.9182 58.8858 22.8476C58.8335 22.8099 58.7765 22.7628 58.7242 22.711C58.6767 22.6781 58.6435 22.6451 58.6055 22.6074C58.6957 22.6875 58.7955 22.7675 58.8858 22.8382C58.9713 22.9135 59.0616 22.9794 59.1518 23.0548Z" fill="black"/>
<path d="M59.3184 23.1772C59.3797 23.2287 59.4411 23.2708 59.5119 23.3176C59.4883 23.3083 59.4741 23.2942 59.4553 23.2849C59.4081 23.2521 59.3656 23.2194 59.3184 23.1772Z" fill="black"/>
<path d="M60.1214 23.7191C60.0549 23.6861 59.9884 23.6437 59.9266 23.6061C59.9219 23.6061 59.9219 23.6014 59.9171 23.6014C59.8791 23.5731 59.8363 23.5449 59.7983 23.5166C59.9076 23.5825 60.0169 23.6579 60.1214 23.7191Z" fill="black"/>
<path d="M62.2496 24.7503C62.1024 24.6985 61.9598 24.6467 61.8126 24.5855C61.7841 24.5761 61.7556 24.562 61.7271 24.5479C61.9028 24.6232 62.0738 24.6891 62.2496 24.7503Z" fill="black"/>
<path d="M62.7389 24.9148C62.9194 24.9713 63.0952 25.0231 63.2805 25.0655C63.1617 25.0372 63.0382 25.0043 62.9146 24.9713C62.8529 24.9525 62.7959 24.9384 62.7389 24.9195C62.6581 24.896 62.5773 24.8677 62.5013 24.8395C62.4158 24.8112 62.3303 24.783 62.2495 24.75C62.4158 24.8065 62.5726 24.863 62.7389 24.9148Z" fill="black"/>
<path d="M64.3971 25.2915C64.5491 25.315 64.7106 25.3385 64.8674 25.3527C64.7249 25.3433 64.5823 25.3244 64.4446 25.3009C64.4256 25.3009 64.4113 25.2962 64.3923 25.2962C64.3305 25.2868 64.2688 25.2726 64.2023 25.2632C64.0788 25.2444 63.9505 25.2255 63.827 25.1973C63.6702 25.1643 63.5134 25.1314 63.3566 25.089C63.3329 25.0843 63.3044 25.0796 63.2759 25.0654C63.6417 25.1549 64.017 25.235 64.3923 25.2915H64.3971Z" fill="black"/>
<path d="M65.3662 25.3954H65.2997C65.2665 25.3954 65.2237 25.3954 65.1904 25.3907C65.1287 25.386 65.0574 25.3813 64.9957 25.3719C64.9862 25.3719 64.9719 25.3719 64.9624 25.3672C65.1002 25.3766 65.2332 25.3907 65.3662 25.3954Z" fill="black"/>
<path d="M140.638 25.4233C140.591 25.428 140.543 25.428 140.491 25.428H66.1312C66.0789 25.428 66.0266 25.428 65.9839 25.4233H140.643H140.638Z" fill="black"/>
<path d="M141.255 25.3954C141.388 25.3907 141.521 25.3766 141.659 25.3672C141.65 25.3719 141.635 25.3719 141.626 25.3719C141.564 25.3766 141.493 25.3813 141.431 25.3907C141.398 25.3954 141.355 25.3954 141.322 25.3954H141.255Z" fill="black"/>
<path d="M142.225 25.2915C142.6 25.235 142.975 25.1549 143.341 25.0654C143.313 25.0748 143.284 25.0843 143.26 25.089C143.099 25.1266 142.947 25.1643 142.79 25.1973C142.666 25.2255 142.538 25.2491 142.415 25.2632C142.353 25.2726 142.291 25.2868 142.225 25.2962C142.206 25.2962 142.191 25.3009 142.172 25.3009C142.035 25.3244 141.892 25.3385 141.75 25.3527C141.911 25.3338 142.068 25.315 142.22 25.2915H142.225Z" fill="black"/>
<path d="M144.372 24.75C144.291 24.783 144.205 24.8112 144.12 24.8395C144.039 24.8677 143.958 24.896 143.882 24.9195C143.825 24.9384 143.768 24.9525 143.707 24.9713C143.588 25.0043 143.46 25.0372 143.341 25.0655C143.521 25.0184 143.697 24.9713 143.882 24.9148C144.049 24.863 144.205 24.8065 144.372 24.75Z" fill="black"/>
<path d="M144.372 24.7503C144.548 24.6891 144.719 24.6185 144.895 24.5479C144.866 24.5667 144.838 24.5761 144.809 24.5855C144.662 24.6467 144.519 24.6985 144.372 24.7503Z" fill="black"/>
<path d="M146.505 23.7191C146.615 23.6579 146.719 23.5825 146.828 23.5166C146.79 23.5449 146.748 23.5731 146.71 23.6014C146.705 23.6014 146.705 23.6061 146.7 23.6061C146.638 23.6437 146.577 23.6861 146.505 23.7191Z" fill="black"/>
<path d="M147.302 23.1772C147.255 23.2147 147.212 23.2521 147.165 23.2849C147.146 23.2942 147.132 23.3083 147.108 23.3176C147.174 23.2708 147.241 23.2287 147.302 23.1772Z" fill="black"/>
<path d="M148.016 22.6123C147.978 22.6453 147.94 22.6782 147.897 22.7159C147.845 22.7677 147.788 22.8101 147.736 22.8525C147.65 22.9278 147.56 22.9984 147.47 23.0597C147.56 22.9843 147.65 22.9184 147.736 22.843C147.826 22.7677 147.926 22.6924 148.016 22.6123Z" fill="black"/>
<path d="M148.918 21.7319C148.885 21.7694 148.842 21.8162 148.8 21.8536C148.838 21.8162 148.88 21.774 148.913 21.7319H148.918Z" fill="black"/>
<path d="M149.279 21.3174C149.25 21.3548 149.217 21.3922 149.184 21.4297C149.161 21.4577 149.137 21.4858 149.104 21.5139C149.161 21.4531 149.217 21.3829 149.274 21.3174H149.279Z" fill="black"/>
<path d="M149.597 20.917C149.55 20.9778 149.507 21.0386 149.456 21.0948C149.493 21.0433 149.536 20.9919 149.569 20.9451C149.578 20.9404 149.593 20.9263 149.597 20.917Z" fill="black"/>
<path d="M151.028 18.4263C151.018 18.4592 150.999 18.4922 150.99 18.5346C150.942 18.6288 150.904 18.7276 150.852 18.8218C150.914 18.69 150.971 18.5628 151.028 18.4263Z" fill="black"/>
<path d="M151.251 17.8467C151.232 17.8981 151.218 17.9496 151.199 17.9964C151.194 18.0011 151.194 18.0058 151.189 18.0151C151.213 17.959 151.227 17.9028 151.251 17.8467Z" fill="black"/>
<path d="M196.241 26.6008L196.256 26.5678C196.256 15.2287 187.319 5.88623 175.898 5.2929H175.865C175.504 5.27407 175.134 5.26465 174.758 5.26465H31.8871C31.5166 5.26465 31.146 5.27407 30.7802 5.28819H30.7184C30.2529 5.31645 29.7968 5.35883 29.3407 5.41062C24.7087 5.95215 20.5422 7.93932 17.3069 10.8965C15.4256 14.1551 14.3472 17.9458 14.3472 21.9861V26.5678C14.3472 21.2938 16.7273 16.5425 20.5042 13.3405C23.3072 10.9672 26.8845 9.45089 30.8325 9.22015H30.9275L31.0558 9.20602C31.3598 9.1966 31.6306 9.1919 31.8824 9.1919H174.753C174.981 9.1919 175.229 9.1966 175.504 9.20602H175.509L175.689 9.21544C184.754 9.68633 191.909 16.9287 192.274 25.8521V22.019C192.274 17.9788 191.201 14.1881 189.315 10.9295C193.581 14.8285 196.237 20.4227 196.237 26.6008H196.241Z" fill="url(#paint4_linear_70_4008)"/>
<path d="M17.3212 381.762C13.0502 377.84 10.3755 372.246 10.3755 366.124V26.4643C10.3755 20.2862 13.0312 14.692 17.2974 10.793C15.4161 14.0515 14.3377 17.8422 14.3377 21.8825V370.711C14.3377 374.713 15.4209 378.504 17.3164 381.762H17.3212Z" fill="url(#paint5_linear_70_4008)"/>
<path d="M196.241 26.601V366.266C196.241 368.37 195.923 370.414 195.339 372.345C194.868 373.889 194.227 375.363 193.429 376.743C193.267 377.03 193.091 377.308 192.92 377.581C192.664 377.995 192.384 378.396 192.089 378.791C191.267 379.917 190.331 380.962 189.3 381.904C189.31 381.89 189.315 381.88 189.324 381.866C191.201 378.612 192.279 374.84 192.279 370.852V22.0192C192.279 17.979 191.205 14.1883 189.319 10.9297C193.586 14.8287 196.241 20.4229 196.241 26.601Z" fill="url(#paint6_linear_70_4008)"/>
<path d="M112.912 16.1799H92.5072C91.8469 16.1799 91.3101 15.6478 91.3101 14.9933C91.3101 14.3387 91.8469 13.8066 92.5072 13.8066H112.912C113.572 13.8066 114.109 14.3387 114.109 14.9933C114.109 15.6478 113.572 16.1799 112.912 16.1799Z" fill="url(#paint7_linear_70_4008)"/>
<path d="M189.058 26.4641V366.129C189.058 369.349 187.951 372.34 186.089 374.746C185.984 374.878 185.885 375 185.78 375.123C185.462 375.499 185.134 375.862 184.787 376.206C184.478 376.502 184.155 376.799 183.823 377.072H183.818C183.395 377.416 182.953 377.736 182.492 378.037C182.036 378.329 181.561 378.603 181.067 378.847H181.062C180.82 378.965 180.568 379.078 180.312 379.191H180.307C180.055 379.299 179.794 379.394 179.533 379.488C179.01 379.676 178.469 379.827 177.917 379.954C177.257 380.1 176.582 380.204 175.889 380.26C175.813 380.265 175.765 380.269 175.699 380.279H175.509L175.49 380.288C175.428 380.288 175.357 380.288 175.295 380.293C175.233 380.293 175.176 380.298 175.114 380.298C174.991 380.298 174.863 380.302 174.744 380.302H31.8775C31.7588 380.302 31.6353 380.298 31.507 380.298C31.3835 380.293 31.2552 380.288 31.1317 380.288H31.0176L30.9796 380.279H30.9321C30.8704 380.274 30.8134 380.27 30.7374 380.26C23.3499 379.686 17.5586 373.474 17.5586 366.124V26.4641C17.5586 18.991 23.4163 12.7987 30.9226 12.309H31.0461L31.2409 12.2902C31.4737 12.2808 31.678 12.2808 31.8728 12.2808H52.4866C53.6648 12.342 54.6197 13.2461 54.7384 14.3998C54.7432 14.4798 54.7432 14.5599 54.7432 14.6352V14.6682C54.7432 14.6682 54.7432 14.6964 54.7479 14.7059C54.7669 15.1344 54.8097 15.5582 54.8857 15.9726C54.9095 16.1185 54.9332 16.2598 54.9665 16.4011C54.9997 16.58 55.0425 16.7495 55.0853 16.9191C55.1185 17.0697 55.166 17.2251 55.2088 17.3758C55.2183 17.4088 55.2325 17.4512 55.242 17.4841C55.2515 17.5218 55.2658 17.5595 55.28 17.5971C55.2848 17.6301 55.299 17.6584 55.3085 17.6866C55.3275 17.7384 55.3418 17.7902 55.3608 17.8373C55.3798 17.8891 55.3941 17.9409 55.4131 17.988C55.4178 17.9927 55.4178 17.9974 55.4225 18.0068C55.4701 18.1481 55.5271 18.2846 55.5841 18.4165C55.6411 18.5531 55.6981 18.6802 55.7599 18.812C55.7646 18.8356 55.7694 18.8497 55.7836 18.8686C55.7884 18.878 55.7884 18.8874 55.7931 18.8968C55.8454 19.0098 55.9024 19.1181 55.9594 19.2217C56.0069 19.3159 56.0544 19.4148 56.1067 19.5043C56.1257 19.5325 56.1399 19.5655 56.1589 19.5937C56.1827 19.6455 56.2112 19.6879 56.2397 19.735C56.273 19.8009 56.3157 19.8668 56.3537 19.9281C56.3632 19.9469 56.3727 19.961 56.3822 19.9799C56.4012 20.0081 56.4155 20.0317 56.4297 20.0552C56.4582 20.1023 56.482 20.14 56.5105 20.1776C56.539 20.2294 56.5675 20.2718 56.6008 20.3189C56.6245 20.3566 56.653 20.399 56.6815 20.4366C56.7005 20.4602 56.71 20.4837 56.729 20.4978C56.7623 20.5496 56.7908 20.592 56.824 20.6391C56.8478 20.6721 56.8716 20.705 56.9001 20.7333C56.9286 20.7851 56.9618 20.8275 57.0046 20.8746C57.0093 20.884 57.0236 20.8981 57.0283 20.9075C57.0331 20.9169 57.0473 20.9311 57.0568 20.9358C57.0901 20.9876 57.1328 21.0394 57.1708 21.0865C57.1803 21.11 57.1994 21.1241 57.2184 21.143C57.2564 21.1995 57.3039 21.256 57.3514 21.3078H57.3561C57.3846 21.3455 57.4131 21.3878 57.4464 21.4208C57.4987 21.4867 57.5557 21.5526 57.6174 21.6139C57.6459 21.6515 57.6744 21.6892 57.7077 21.7222H57.7124C57.7457 21.7693 57.7884 21.8069 57.8265 21.8446C57.8645 21.8917 57.912 21.9341 57.9595 21.9812C57.9975 22.0282 58.0403 22.0659 58.083 22.1036C58.159 22.1836 58.2303 22.2543 58.3158 22.3296C58.3728 22.3908 58.4298 22.4426 58.4963 22.4991C58.5343 22.5321 58.5723 22.5651 58.6104 22.6027C58.6484 22.6357 58.6864 22.6687 58.7291 22.7063C58.7814 22.7534 58.8336 22.7958 58.8906 22.8382C58.9761 22.9182 59.0664 22.9889 59.1567 23.0548C59.2137 23.1019 59.266 23.1396 59.323 23.1772C59.3705 23.2149 59.4132 23.2526 59.4607 23.2855C59.4797 23.2949 59.494 23.3091 59.5177 23.3185C59.5177 23.3232 59.5225 23.3232 59.5225 23.3232C59.5843 23.3703 59.646 23.4127 59.7173 23.4551C59.7458 23.4833 59.7743 23.5021 59.8028 23.5163C59.8408 23.5445 59.8836 23.5728 59.9216 23.601C59.9263 23.601 59.9263 23.6057 59.9311 23.6057C59.9928 23.6434 60.0546 23.6858 60.1259 23.7188C60.2114 23.78 60.2969 23.8318 60.3824 23.8789C60.4917 23.9448 60.5962 24.0107 60.7102 24.0578C60.7482 24.086 60.7957 24.1096 60.8337 24.1331C60.8432 24.1378 60.8527 24.1426 60.8622 24.1426C60.943 24.1896 61.0238 24.2273 61.1045 24.265C61.171 24.3027 61.247 24.3403 61.3278 24.3733C61.3896 24.4063 61.4608 24.4345 61.5274 24.4628C61.5606 24.4816 61.5939 24.4957 61.6366 24.5099C61.6651 24.5287 61.6936 24.5381 61.7269 24.5475C61.7554 24.5664 61.7886 24.5758 61.8171 24.5852C61.9644 24.6464 62.1069 24.6982 62.2542 24.75C62.335 24.783 62.4205 24.8112 62.506 24.8395C62.5868 24.8677 62.6675 24.8913 62.7436 24.9148C62.8006 24.9384 62.8576 24.9525 62.9193 24.9713C63.0381 25.0043 63.1616 25.0373 63.2851 25.0655C63.3136 25.0749 63.3422 25.0843 63.3659 25.0891C63.5274 25.1267 63.6795 25.1644 63.8362 25.1974C63.9598 25.2256 64.088 25.2492 64.2115 25.2633C64.2733 25.2727 64.3351 25.2868 64.4016 25.2915C64.4016 25.2915 64.4348 25.301 64.4538 25.301C64.5916 25.3245 64.7341 25.3386 64.8767 25.3528C64.9099 25.3575 64.9384 25.3575 64.9717 25.3622C64.9812 25.3669 64.9954 25.3669 65.005 25.3669C65.0667 25.3716 65.138 25.3763 65.1997 25.3857C65.233 25.3904 65.2757 25.3904 65.309 25.3904C65.3992 25.3998 65.4895 25.4093 65.5798 25.4093C65.7176 25.4187 65.8506 25.4281 65.9883 25.4187C66.0359 25.4234 66.0834 25.4234 66.1356 25.4234H140.495C140.548 25.4234 140.6 25.4234 140.643 25.4187C140.78 25.4234 140.913 25.4187 141.051 25.4093C141.141 25.4093 141.232 25.4045 141.322 25.3904C141.355 25.3904 141.398 25.3904 141.431 25.3857C141.493 25.381 141.564 25.3763 141.626 25.3669C141.635 25.3669 141.65 25.3669 141.659 25.3622C141.692 25.3575 141.721 25.3575 141.754 25.3528C141.897 25.3433 142.039 25.3245 142.177 25.301C142.196 25.301 142.21 25.2962 142.229 25.2962C142.291 25.2868 142.353 25.2727 142.419 25.2633C142.543 25.2444 142.671 25.2256 142.795 25.1974C142.956 25.1644 143.108 25.1314 143.265 25.0891C143.289 25.0843 143.317 25.0796 143.346 25.0655C143.465 25.0373 143.588 25.0043 143.712 24.9713C143.773 24.9525 143.83 24.9384 143.887 24.9195C143.968 24.8913 144.049 24.8677 144.125 24.8395C144.21 24.8112 144.296 24.783 144.377 24.75C144.524 24.6982 144.667 24.6464 144.814 24.5852C144.842 24.5758 144.876 24.5617 144.904 24.5475C144.937 24.5381 144.966 24.524 144.994 24.5099C145.032 24.5004 145.07 24.4816 145.104 24.4628C145.17 24.4345 145.241 24.4063 145.303 24.3733C145.384 24.3403 145.455 24.3074 145.526 24.265C145.612 24.2273 145.693 24.1849 145.769 24.1426C145.778 24.1426 145.788 24.1378 145.797 24.1331C145.835 24.1096 145.883 24.086 145.921 24.0578C146.035 24.006 146.144 23.9448 146.249 23.8789C146.334 23.8318 146.42 23.7847 146.505 23.7188C146.572 23.6858 146.638 23.6434 146.7 23.6057C146.705 23.6057 146.705 23.601 146.709 23.601C146.747 23.5728 146.79 23.5445 146.828 23.5163C146.857 23.4974 146.885 23.4833 146.914 23.4551C146.98 23.4174 147.047 23.3703 147.108 23.3232C147.108 23.3232 147.113 23.3232 147.113 23.3185C147.137 23.3091 147.151 23.2949 147.17 23.2855C147.218 23.2526 147.26 23.2196 147.308 23.1772C147.365 23.1396 147.417 23.0972 147.474 23.0548C147.564 22.9936 147.655 22.9182 147.74 22.8476C147.797 22.8005 147.85 22.7581 147.902 22.711C147.949 22.6781 147.983 22.6451 148.021 22.6074C148.059 22.5745 148.097 22.5415 148.135 22.5038C148.201 22.4473 148.258 22.3955 148.315 22.3343C148.401 22.259 148.477 22.1883 148.548 22.1083C148.595 22.0706 148.633 22.0282 148.671 21.9859C148.719 21.9388 148.762 21.8964 148.804 21.8493C148.842 21.8116 148.885 21.7693 148.918 21.7269H148.923C148.923 21.7269 148.928 21.7222 148.928 21.7175C148.99 21.6562 149.051 21.5856 149.104 21.515C149.137 21.4867 149.161 21.4585 149.185 21.4302C149.218 21.3972 149.246 21.3549 149.275 21.3172H149.28C149.327 21.2654 149.37 21.2089 149.413 21.1524C149.432 21.1335 149.446 21.1194 149.46 21.0959C149.498 21.0441 149.541 20.9923 149.574 20.9452C149.584 20.9405 149.598 20.9264 149.603 20.9169C149.607 20.9075 149.622 20.8934 149.626 20.884C149.664 20.8369 149.702 20.7945 149.731 20.7427C149.759 20.7145 149.783 20.6815 149.807 20.6485C149.84 20.6014 149.869 20.5591 149.902 20.5073C149.921 20.4837 149.935 20.4696 149.949 20.446C149.978 20.4084 150.006 20.366 150.03 20.3283C150.063 20.2812 150.092 20.2389 150.12 20.1871C150.149 20.1494 150.173 20.107 150.201 20.0646C150.22 20.0364 150.234 20.0128 150.249 19.9893C150.258 19.9704 150.268 19.9563 150.277 19.9375C150.315 19.8763 150.358 19.815 150.391 19.7444C150.42 19.6973 150.448 19.6549 150.472 19.6031C150.496 19.5702 150.51 19.5419 150.524 19.5137C150.576 19.4242 150.629 19.3253 150.672 19.2311C150.729 19.1228 150.786 19.0192 150.838 18.9062C150.843 18.8968 150.843 18.8874 150.847 18.878C150.857 18.8591 150.866 18.845 150.871 18.8215C150.933 18.6896 150.99 18.5625 151.047 18.4259C151.104 18.2894 151.161 18.1575 151.208 18.0162C151.213 18.0115 151.213 18.0068 151.218 17.9974C151.237 17.9456 151.251 17.8938 151.27 17.8467C151.289 17.7949 151.303 17.7431 151.322 17.696C151.332 17.6678 151.346 17.6395 151.351 17.6066C151.37 17.5689 151.379 17.5265 151.389 17.4935C151.398 17.4559 151.413 17.4182 151.422 17.3852C151.47 17.2346 151.512 17.0792 151.546 16.9285C151.593 16.759 151.631 16.5894 151.664 16.4152C151.698 16.2692 151.721 16.128 151.745 15.982C151.821 15.5629 151.864 15.1438 151.883 14.7153C151.888 14.7059 151.888 14.687 151.888 14.6776V14.6446C151.888 14.5646 151.892 14.4845 151.892 14.4092C152.011 13.2555 152.966 12.3514 154.144 12.2902H174.758C174.953 12.2902 175.162 12.2902 175.39 12.2996H175.456L175.58 12.3184H175.704C175.827 12.3231 175.955 12.3373 176.079 12.3514C176.141 12.3514 176.202 12.3561 176.269 12.3702C176.392 12.3796 176.521 12.3938 176.644 12.4173C176.791 12.4362 176.939 12.4503 177.086 12.4785C177.091 12.4785 177.105 12.4785 177.11 12.4832C177.324 12.5162 177.537 12.5586 177.746 12.5963C177.784 12.6057 177.827 12.6198 177.865 12.6245C178.041 12.6622 178.212 12.7046 178.383 12.7469C178.635 12.8129 178.882 12.8882 179.134 12.9683C179.333 13.0295 179.533 13.1001 179.723 13.166C179.932 13.2461 180.146 13.3309 180.35 13.4156C180.758 13.5898 181.162 13.7829 181.557 13.9901C181.908 14.1832 182.26 14.3857 182.597 14.6023C182.673 14.6541 182.744 14.7059 182.825 14.7529C182.963 14.8471 183.096 14.946 183.234 15.0402C183.409 15.172 183.585 15.3039 183.756 15.4405C184.098 15.7183 184.426 16.0055 184.74 16.3069C184.896 16.4576 185.053 16.6177 185.2 16.7731C185.348 16.9332 185.495 17.0933 185.637 17.2581C186.208 17.9221 186.716 18.6378 187.162 19.396C187.386 19.7727 187.585 20.1682 187.771 20.5685C187.951 20.9687 188.122 21.3737 188.269 21.7975C188.345 22.0047 188.412 22.2166 188.474 22.4285C188.611 22.89 188.73 23.3609 188.816 23.8365C188.854 24.0248 188.882 24.2132 188.911 24.4063C189.015 25.0749 189.063 25.7718 189.063 26.4688L189.058 26.4641Z" fill="url(#paint8_linear_70_4008)"/>
<mask id="mask0_70_4008" style="mask-type:luminance" maskUnits="userSpaceOnUse" x="17" y="11" width="173" height="370">
<path d="M189.195 25.6554V365.996C189.195 369.223 188.084 372.219 186.215 374.63C186.111 374.762 186.01 374.885 185.906 375.008C185.586 375.385 185.257 375.748 184.909 376.093C184.599 376.39 184.275 376.687 183.941 376.961H183.936C183.512 377.306 183.069 377.626 182.606 377.928C182.148 378.221 181.672 378.495 181.176 378.74H181.171C180.928 378.858 180.675 378.971 180.418 379.084H180.413C180.16 379.193 179.898 379.287 179.636 379.382C179.111 379.57 178.568 379.721 178.014 379.849C177.352 379.995 176.675 380.099 175.979 380.155C175.902 380.16 175.855 380.165 175.788 380.174H175.597L175.578 380.184C175.516 380.184 175.445 380.184 175.383 380.188C175.321 380.188 175.263 380.193 175.201 380.193C175.077 380.193 174.949 380.198 174.829 380.198H31.446C31.3268 380.198 31.2028 380.193 31.0741 380.193C30.9501 380.188 30.8214 380.184 30.6974 380.184H30.583L30.5448 380.174H30.4971C30.4352 380.17 30.378 380.165 30.3017 380.155C22.8874 379.58 17.0752 373.356 17.0752 365.991V25.6554C17.0752 18.1674 22.9541 11.9629 30.4876 11.4722H30.6116L30.8071 11.4533C31.0407 11.4438 31.2457 11.4438 31.4412 11.4438H52.1296C53.312 11.5052 54.2704 12.4111 54.3896 13.5671C54.3944 13.6473 54.3944 13.7275 54.3944 13.803V13.836C54.3944 13.836 54.3944 13.8643 54.3992 13.8738C54.4182 14.3031 54.4611 14.7278 54.5374 15.143C54.5613 15.2893 54.5851 15.4308 54.6185 15.5724C54.6519 15.7517 54.6948 15.9215 54.7377 16.0914C54.7711 16.2424 54.8187 16.3981 54.8616 16.549C54.8712 16.5821 54.8855 16.6245 54.895 16.6576C54.9046 16.6953 54.9189 16.7331 54.9332 16.7708C54.9379 16.8038 54.9522 16.8321 54.9618 16.8605C54.9809 16.9124 54.9951 16.9643 55.0142 17.0114C55.0333 17.0633 55.0476 17.1152 55.0667 17.1624C55.0715 17.1671 55.0714 17.1719 55.0762 17.1813C55.1239 17.3229 55.1811 17.4597 55.2383 17.5918C55.2955 17.7286 55.3528 17.856 55.4147 17.9881C55.4195 18.0117 55.4243 18.0259 55.4386 18.0447C55.4433 18.0542 55.4434 18.0636 55.4481 18.0731C55.5006 18.1863 55.5578 18.2948 55.615 18.3986C55.6627 18.493 55.7104 18.5921 55.7628 18.6817C55.7819 18.71 55.7962 18.7431 55.8152 18.7714C55.8391 18.8233 55.8677 18.8657 55.8963 18.9129C55.9297 18.979 55.9726 19.045 56.0107 19.1064C56.0203 19.1252 56.0298 19.1394 56.0394 19.1583C56.0584 19.1866 56.0727 19.2102 56.087 19.2338C56.1156 19.2809 56.1395 19.3187 56.1681 19.3564C56.1967 19.4083 56.2253 19.4508 56.2587 19.498C56.2825 19.5357 56.3111 19.5782 56.3397 19.6159C56.3588 19.6395 56.3683 19.6631 56.3874 19.6773C56.4208 19.7292 56.4494 19.7716 56.4828 19.8188C56.5066 19.8519 56.5305 19.8849 56.5591 19.9132C56.5877 19.9651 56.621 20.0076 56.664 20.0547C56.6687 20.0642 56.683 20.0783 56.6878 20.0878C56.6926 20.0972 56.7069 20.1114 56.7164 20.1161C56.7498 20.168 56.7927 20.2199 56.8308 20.2671C56.8404 20.2907 56.8595 20.3048 56.8785 20.3237C56.9167 20.3803 56.9643 20.4369 57.012 20.4888H57.0168C57.0454 20.5266 57.074 20.569 57.1074 20.6021C57.1598 20.6681 57.217 20.7342 57.279 20.7955C57.3076 20.8333 57.3362 20.871 57.3696 20.904H57.3744C57.4078 20.9512 57.4507 20.989 57.4888 21.0267C57.527 21.0739 57.5747 21.1164 57.6223 21.1635C57.6605 21.2107 57.7034 21.2485 57.7463 21.2862C57.8226 21.3664 57.8941 21.4372 57.9799 21.5127C58.0372 21.574 58.0944 21.6259 58.1611 21.6826C58.1993 21.7156 58.2374 21.7486 58.2755 21.7864C58.3137 21.8194 58.3518 21.8524 58.3947 21.8902C58.4472 21.9373 58.4996 21.9798 58.5568 22.0223C58.6427 22.1025 58.7333 22.1733 58.8239 22.2393C58.8811 22.2865 58.9335 22.3242 58.9907 22.362C59.0384 22.3997 59.0813 22.4375 59.129 22.4705C59.1481 22.48 59.1624 22.4941 59.1862 22.5035C59.1862 22.5083 59.191 22.5083 59.191 22.5083C59.253 22.5554 59.315 22.5979 59.3865 22.6404C59.4151 22.6687 59.4437 22.6876 59.4723 22.7017C59.5105 22.73 59.5534 22.7583 59.5915 22.7866C59.5963 22.7866 59.5963 22.7914 59.601 22.7914C59.663 22.8291 59.725 22.8716 59.7965 22.9046C59.8824 22.9659 59.9682 23.0178 60.054 23.065C60.1637 23.1311 60.2686 23.1971 60.383 23.2443C60.4211 23.2726 60.4688 23.2962 60.507 23.3198C60.5165 23.3245 60.526 23.3292 60.5356 23.3292C60.6166 23.3764 60.6977 23.4142 60.7788 23.4519C60.8455 23.4897 60.9218 23.5274 61.0028 23.5604C61.0648 23.5935 61.1364 23.6218 61.2031 23.6501C61.2365 23.669 61.2699 23.6831 61.3128 23.6973C61.3414 23.7161 61.37 23.7256 61.4034 23.735C61.432 23.7539 61.4653 23.7633 61.494 23.7728C61.6418 23.8341 61.7848 23.886 61.9326 23.9379C62.0137 23.9709 62.0995 23.9992 62.1853 24.0276C62.2664 24.0559 62.3474 24.0795 62.4237 24.103C62.4809 24.1266 62.5381 24.1408 62.6001 24.1597C62.7193 24.1927 62.8433 24.2257 62.9673 24.254C62.9959 24.2635 63.0245 24.2729 63.0483 24.2776C63.2104 24.3154 63.363 24.3531 63.5204 24.3861C63.6443 24.4145 63.773 24.438 63.897 24.4522C63.959 24.4616 64.021 24.4758 64.0877 24.4805C64.0877 24.4805 64.1211 24.4899 64.1402 24.4899C64.2785 24.5135 64.4215 24.5277 64.5645 24.5418C64.5979 24.5466 64.6265 24.5466 64.6599 24.5513C64.6694 24.556 64.6838 24.556 64.6933 24.556C64.7553 24.5607 64.8268 24.5654 64.8888 24.5749C64.9221 24.5796 64.965 24.5796 64.9984 24.5796C65.089 24.589 65.1796 24.5985 65.2702 24.5985C65.4085 24.6079 65.542 24.6173 65.6802 24.6079C65.7279 24.6126 65.7756 24.6126 65.8281 24.6126H140.457C140.509 24.6126 140.562 24.6126 140.605 24.6079C140.743 24.6126 140.876 24.6079 141.015 24.5985C141.105 24.5985 141.196 24.5937 141.287 24.5796C141.32 24.5796 141.363 24.5796 141.396 24.5749C141.458 24.5702 141.53 24.5654 141.592 24.556C141.601 24.556 141.616 24.556 141.625 24.5513C141.658 24.5466 141.687 24.5466 141.72 24.5418C141.863 24.5324 142.007 24.5135 142.145 24.4899C142.164 24.4899 142.178 24.4852 142.197 24.4852C142.259 24.4758 142.321 24.4616 142.388 24.4522C142.512 24.4333 142.641 24.4145 142.765 24.3861C142.927 24.3531 143.079 24.3201 143.237 24.2776C143.26 24.2729 143.289 24.2682 143.318 24.254C143.437 24.2257 143.561 24.1927 143.685 24.1597C143.747 24.1408 143.804 24.1266 143.861 24.1078C143.942 24.0795 144.023 24.0559 144.1 24.0276C144.185 23.9992 144.271 23.9709 144.352 23.9379C144.5 23.886 144.643 23.8341 144.791 23.7728C144.82 23.7633 144.853 23.7492 144.882 23.735C144.915 23.7256 144.944 23.7114 144.972 23.6973C145.01 23.6878 145.048 23.669 145.082 23.6501C145.149 23.6218 145.22 23.5935 145.282 23.5604C145.363 23.5274 145.435 23.4944 145.506 23.4519C145.592 23.4142 145.673 23.3717 145.749 23.3292C145.759 23.3292 145.768 23.3245 145.778 23.3198C145.816 23.2962 145.864 23.2726 145.902 23.2443C146.016 23.1924 146.126 23.1311 146.231 23.065C146.317 23.0178 146.403 22.9707 146.488 22.9046C146.555 22.8716 146.622 22.8291 146.684 22.7914C146.689 22.7914 146.689 22.7866 146.693 22.7866C146.732 22.7583 146.775 22.73 146.813 22.7017C146.841 22.6828 146.87 22.6687 146.898 22.6404C146.965 22.6026 147.032 22.5554 147.094 22.5083C147.094 22.5083 147.099 22.5083 147.099 22.5035C147.123 22.4941 147.137 22.48 147.156 22.4705C147.204 22.4375 147.247 22.4045 147.294 22.362C147.351 22.3242 147.404 22.2818 147.461 22.2393C147.552 22.178 147.642 22.1025 147.728 22.0317C147.785 21.9845 147.838 21.9421 147.89 21.8949C147.938 21.8619 147.971 21.8288 148.009 21.7911C148.048 21.758 148.086 21.725 148.124 21.6873C148.191 21.6307 148.248 21.5788 148.305 21.5174C148.391 21.4419 148.467 21.3712 148.539 21.2909C148.586 21.2532 148.624 21.2107 148.663 21.1683C148.71 21.1211 148.753 21.0786 148.796 21.0314C148.834 20.9937 148.877 20.9512 148.911 20.9088H148.915C148.915 20.9088 148.92 20.904 148.92 20.8993C148.982 20.838 149.044 20.7672 149.097 20.6964C149.13 20.6681 149.154 20.6398 149.178 20.6115C149.211 20.5785 149.24 20.536 149.268 20.4983H149.273C149.321 20.4464 149.364 20.3897 149.406 20.3331C149.426 20.3142 149.44 20.3001 149.454 20.2765C149.492 20.2246 149.535 20.1727 149.569 20.1255C149.578 20.1208 149.592 20.1066 149.597 20.0972C149.602 20.0878 149.616 20.0736 149.621 20.0642C149.659 20.017 149.697 19.9745 149.726 19.9226C149.755 19.8943 149.778 19.8613 149.802 19.8283C149.836 19.7811 149.864 19.7386 149.898 19.6867C149.917 19.6631 149.931 19.649 149.945 19.6254C149.974 19.5876 150.002 19.5452 150.026 19.5074C150.06 19.4602 150.088 19.4178 150.117 19.3659C150.145 19.3281 150.169 19.2857 150.198 19.2432C150.217 19.2149 150.231 19.1913 150.246 19.1677C150.255 19.1488 150.265 19.1347 150.274 19.1158C150.312 19.0545 150.355 18.9931 150.389 18.9224C150.417 18.8752 150.446 18.8327 150.47 18.7808C150.494 18.7478 150.508 18.7195 150.522 18.6912C150.575 18.6015 150.627 18.5024 150.67 18.4081C150.727 18.2995 150.784 18.1957 150.837 18.0825C150.842 18.0731 150.842 18.0636 150.846 18.0542C150.856 18.0353 150.865 18.0212 150.87 17.9976C150.932 17.8655 150.989 17.7381 151.047 17.6012C151.104 17.4644 151.161 17.3323 151.209 17.1907C151.214 17.186 151.214 17.1813 151.218 17.1719C151.237 17.12 151.252 17.0681 151.271 17.0209C151.29 16.969 151.304 16.9171 151.323 16.8699C151.333 16.8416 151.347 16.8133 151.352 16.7802C151.371 16.7425 151.38 16.7 151.39 16.667C151.399 16.6293 151.414 16.5915 151.423 16.5585C151.471 16.4075 151.514 16.2518 151.547 16.1008C151.595 15.931 151.633 15.7611 151.666 15.5865C151.7 15.4402 151.724 15.2987 151.748 15.1524C151.824 14.7325 151.867 14.3126 151.886 13.8832C151.891 13.8738 151.891 13.8549 151.891 13.8455V13.8124C151.891 13.7322 151.895 13.652 151.895 13.5765C152.015 12.4205 152.973 11.5146 154.155 11.4533H174.844C175.039 11.4533 175.249 11.4533 175.478 11.4627H175.545L175.669 11.4816H175.793C175.917 11.4863 176.045 11.5005 176.169 11.5146C176.231 11.5146 176.293 11.5193 176.36 11.5335C176.484 11.5429 176.613 11.5571 176.737 11.5807C176.884 11.5996 177.032 11.6137 177.18 11.642C177.185 11.642 177.199 11.642 177.204 11.6467C177.419 11.6798 177.633 11.7222 177.843 11.76C177.881 11.7694 177.924 11.7836 177.962 11.7883C178.138 11.826 178.31 11.8685 178.482 11.911C178.734 11.977 178.982 12.0525 179.235 12.1327C179.435 12.1941 179.636 12.2648 179.826 12.3309C180.036 12.4111 180.251 12.496 180.456 12.581C180.866 12.7555 181.271 12.949 181.667 13.1566C182.02 13.35 182.372 13.5529 182.711 13.77C182.787 13.8219 182.859 13.8738 182.94 13.921C183.078 14.0153 183.212 14.1144 183.35 14.2088C183.526 14.3409 183.703 14.473 183.874 14.6098C184.218 14.8882 184.547 15.176 184.861 15.478C185.019 15.629 185.176 15.7894 185.324 15.9451C185.472 16.1055 185.619 16.266 185.762 16.4311C186.335 17.0964 186.845 17.8136 187.293 18.5732C187.517 18.9507 187.717 19.347 187.903 19.7481C188.085 20.1491 188.256 20.5549 188.404 20.9795C188.48 21.1871 188.547 21.3995 188.609 21.6118C188.747 22.0742 188.866 22.546 188.952 23.0226C188.99 23.2113 189.019 23.4 189.048 23.5935C189.153 24.2635 189.2 24.9618 189.2 25.6601L189.195 25.6554Z" fill="white"/>
</mask>
<g mask="url(#mask0_70_4008)">
<path d="M0.545898 27.792V73.3462L17.4683 36.8896L0.545898 27.792Z" fill="#F6F6F6"/>
<path d="M0.546387 -3.82373V16.726L21.5782 28.0369L36.3675 -3.82373H0.546387Z" fill="#F6F6F6"/>
<path d="M41.7644 -3.82373L0.546387 84.9725V88.7632L42.9426 -3.82373H41.7644Z" fill="#F6F6F6"/>
<path d="M79.5617 -3.82373C79.6519 -3.14094 79.6947 -2.46756 79.6995 -1.83185C79.6757 -0.320287 79.5332 0.904035 79.0201 1.9918C78.1365 3.73881 78.0747 4.16732 72.5638 14.4893C71.6183 16.2599 71.262 17.8891 71.262 19.4384C71.1908 23.5822 74.084 27.3541 76.0794 29.4025L84.4455 13.1661L101.107 -3.82373H79.5664H79.5617Z" fill="#F6F6F6"/>
<path d="M55.6364 -3.82373L36.999 37.1345L64.6535 51.5627L74.3261 32.7929C72.06 30.7257 67.6797 25.965 67.58 19.4384C67.58 17.3241 68.0931 15.0497 69.3093 12.7847C74.8345 2.43915 74.7679 2.26491 75.7276 0.362507C75.7941 0.296582 76.0412 -0.729964 76.0222 -1.83185C76.0222 -2.46756 75.9652 -3.15506 75.8416 -3.82373H55.6364Z" fill="#F6F6F6"/>
<path d="M171.062 126.703L146.709 102.852L131.255 149.626L189.448 148.19L171.062 126.703Z" fill="#F6F6F6"/>
<path d="M9.25439 98.101L30.0439 107.01L55.9976 55.2875L33.9634 43.793L9.25439 98.101Z" fill="#F6F6F6"/>
<path d="M83.001 198.853C84.7303 184.952 86.6354 169.964 88.3267 156.77L79.8227 156.981L76.0078 196.965L82.9963 198.853H83.001Z" fill="#F6F6F6"/>
<path d="M77.7608 137.251L79.7799 111.955L74.9246 104.51L69.8745 107.057L0.545898 148.501V152.856L76.6634 150.977L77.4615 141.023L62.639 135.678L63.898 132.255L77.7608 137.251Z" fill="#F6F6F6"/>
<path d="M7.73863 101.425L0.545898 117.228V135.198L25.4449 122.644L28.5472 110.344L7.73863 101.425Z" fill="#F6F6F6"/>
<path d="M173.756 124.217L175.998 126.839L187.139 102.664C186.004 101.986 184.792 101.242 183.547 100.432C177.656 96.5752 170.967 91.4613 167.727 85.6081C165.77 82.0388 161.751 75.1119 157.299 67.5305L147.266 73.2519L145.432 70.0922L155.446 64.3803C154.492 62.7604 153.532 61.1311 152.577 59.5112L124.68 76.1432L142.643 93.7404L154.553 81.9352L157.157 84.5156L145.261 96.3068L151.47 102.386L160.116 94.3526L162.63 97.0131L154.088 104.952L173.761 124.221L173.756 124.217Z" fill="#F6F6F6"/>
<path d="M195.073 41.7726L190.36 36.9883L155.727 57.6322C156.696 59.2709 157.665 60.9191 158.634 62.5578L195.073 41.7678V41.7726Z" fill="#F6F6F6"/>
<path d="M142.168 34.7987C143.74 37.4357 147.893 44.4002 152.629 52.3913L185.956 32.5243L165.19 11.5225L142.168 34.7987Z" fill="#F6F6F6"/>
<path d="M93.2295 118.896L93.258 118.768C93.258 118.768 93.258 118.759 93.2818 118.623C93.3055 118.481 93.334 118.265 93.372 117.968C93.4385 117.384 93.5098 116.513 93.5051 115.468C93.5146 112.835 93.0442 109.134 91.1961 105.857C90.4313 104.491 88.8778 101.845 86.8872 98.4824L78.2217 102.852L83.5473 111.013L80.3643 150.888L89.1153 150.671C91.4527 132.49 93.2152 119.023 93.2152 119.018L93.2295 118.9V118.896Z" fill="#F6F6F6"/>
<path d="M160.539 6.81828L153.095 12.7186L133.127 -3.82861H106.237L87.4622 15.3132L78.8774 31.9687L120.162 71.7356L149.474 54.2607C145.203 47.0514 141.408 40.6802 139.545 37.5582L119.763 57.4487L117.14 54.8917L162.615 8.90904L160.539 6.80886V6.81828Z" fill="#F6F6F6"/>
<path d="M210.765 57.7031L197.728 44.4663L160.487 65.713C164.938 73.2991 168.967 80.2353 170.958 83.8706C174.027 89.6061 182.407 95.5535 188.673 99.3348L196.317 82.7405L182.811 74.7636L184.697 71.6321L197.861 79.4066L205.691 62.4167L209.04 63.933L201.42 80.4755L204.156 80.9982L210.765 66.2263V57.7125V57.7031Z" fill="#F6F6F6"/>
<path d="M192.992 105.927C192.289 105.564 191.391 105.084 190.341 104.505L178.635 129.914L181.015 132.697L192.992 105.927Z" fill="#F6F6F6"/>
<path d="M144.757 208.874L149.052 188.117L139.498 187.015L134.643 203.114L134.628 203.157V203.166L131.098 202.13V202.121L131.122 202.046L136.747 183.026L136.856 183.04L141.745 166.842L141.479 155.526L141.175 155.465L138.686 155.526L137.431 166.234L132.79 181.887L129.26 180.855L133.816 165.5L134.975 155.616L107.411 156.298L103.52 202.611C113.383 204.263 125.858 206.246 137.707 207.823C139.982 208.13 142.344 208.483 144.757 208.874Z" fill="#F6F6F6"/>
<path d="M103.71 156.388L95.7715 156.586C95.3202 160.089 94.8546 163.725 94.3843 167.445C93.0113 178.191 91.5718 189.591 90.2368 200.318C92.7642 200.765 96.0518 201.344 99.881 201.994L103.715 156.388H103.71Z" fill="#F6F6F6"/>
<path d="M66.9151 101.727L83.0631 92.0734C80.6544 88.0425 77.9892 83.6067 75.4048 79.3122C69.9176 70.191 64.7867 61.7102 63.1667 59.0261L59.2473 56.9824L33.4219 108.456L44.3155 113.122L66.9103 101.727H66.9151Z" fill="#F6F6F6"/>
<path d="M116.903 73.6849L77.1291 35.373L67.9126 53.2576L68.4257 53.526L68.9578 54.4018C68.972 54.4254 81.4999 75.1211 90.1606 89.6293L116.908 73.6849H116.903Z" fill="#F6F6F6"/>
<path d="M171.646 -1.6576C180.426 7.55307 189.918 15.9773 199.415 24.5005L199.462 24.4723L172.179 -2.77832C172.131 -2.61351 172.069 -2.4534 172.027 -2.28859C171.965 -2.05785 171.827 -1.84595 171.646 -1.6576Z" fill="#F6F6F6"/>
<path d="M210.764 225.317V214.397L208.37 213.62L210.764 206.368V198.914L188.35 192.152L182.44 210.489L178.939 209.382L179.134 208.775L185.927 187.608L185.956 187.617L196.759 154.09L183.034 154.429L168.672 205.563L165.128 204.584L179.191 154.523L159.917 154.999L155.84 179.236L152.211 178.637L156.168 155.093L145.161 155.361L145.441 167.331L140.571 183.464L153.465 184.952L148.386 209.481C171.756 213.568 199.253 220.985 210.764 225.312V225.317Z" fill="#F6F6F6"/>
<path d="M127.35 149.725L143.783 99.9842L121.421 78.083L93.2627 94.8656C95.2533 98.2184 96.8115 100.884 97.6192 102.32C100.313 107.147 100.85 112.053 100.859 115.472C100.859 117.855 100.588 119.54 100.493 120.054C100.436 120.496 100.18 122.469 99.7713 125.61L109.667 129.424L107.919 150.21L127.35 149.729V149.725Z" fill="#F6F6F6"/>
<path d="M210.765 94.2299L203.648 91.1079L183.657 135.786L194.175 148.072L204.366 147.822L204.608 140.001L208.389 129.698H208.394L210.765 130.555V94.2299Z" fill="#F6F6F6"/>
<path d="M29.792 120.449L40.0585 115.274L31.9726 111.809L29.792 120.449Z" fill="#F6F6F6"/>
<path d="M96.5552 150.483L104.223 150.295L105.776 131.831L99.2916 129.331C98.5933 134.708 97.6431 142.059 96.5552 150.483Z" fill="#F6F6F6"/>
<path d="M59.5509 208.591C44.2201 205.855 29.9582 200.12 14.8126 196.847C10.0713 195.82 5.30621 194.921 0.545898 194.026V219.422C8.46075 222.049 15.1356 226.65 15.1356 226.65C22.3806 246.842 12.9075 256.099 0.545898 259.076V296.723L58.2825 303.848L58.1922 304.583C61.8361 296.408 64.0595 291.44 64.0595 291.435C64.0595 291.431 64.7341 289.91 65.8363 287.07C66.9385 284.231 68.4445 280.12 70.055 275.081C73.276 265.013 76.8914 251.245 78.4877 236.59C79.148 230.558 80.1362 222.209 81.2907 212.721C74.0457 211.336 66.8054 209.891 59.5509 208.596V208.591Z" fill="#F6F6F6"/>
<path d="M0.545898 158.936V176.585L72.4066 195.99L76.1218 157.071L0.545898 158.936Z" fill="#F6F6F6"/>
<path d="M48.3253 -3.82373L0.546387 100.526V105.409L50.2541 -3.82373H48.3253Z" fill="#F6F6F6"/>
<path d="M0.545898 180.361V188.611C8.57001 190.156 16.6274 191.531 24.5945 193.447C38.9895 196.913 52.61 202.168 67.271 204.725C72.1691 205.578 77.0529 206.496 81.9368 207.424C82.1363 205.808 82.3358 204.17 82.5449 202.507L0.545898 180.366V180.361Z" fill="#F6F6F6"/>
<path d="M102.237 216.333C97.6574 215.669 93.0919 214.892 88.5406 214.063C87.4099 223.335 86.4503 231.481 85.8041 237.372C82.4453 268.018 70.8724 294.162 70.7964 294.369C70.7916 294.383 68.8105 298.814 65.5229 306.184L85.6284 312.235L86.265 309.734L87.8993 274.521L97.3153 220.566L99.7335 220.98L96.0089 242.34L107.876 243.993L107.948 243.673L110.808 221.833L113.235 222.148L110.371 244.059L110.309 244.337L118.808 245.523L122.252 225.035L124.671 225.435L121.236 245.858L121.687 245.919L144.838 253.321L149.646 229.047L152.049 229.518L148.006 249.926L178.298 261.251L181.281 233.657C171.034 231.048 161.009 227.79 150.743 224.959C134.818 220.566 118.542 218.701 102.237 216.337V216.333Z" fill="#F6F6F6"/>
<path d="M210.765 239.553C205.263 238.512 199.757 237.49 194.242 236.511C190.678 235.875 187.168 235.107 183.685 234.26L180.688 261.995V262.137L210.765 273.386V239.553Z" fill="#F6F6F6"/>
<path d="M210.764 229.221C210.532 229.131 210.299 229.042 210.066 228.952C197.757 224.178 162.13 214.736 137.217 211.44C118.931 209.005 99.2345 205.62 89.7851 203.943C89.5808 205.582 89.3813 207.197 89.1865 208.789C97.8187 210.409 106.465 211.963 115.188 213.116C129.73 215.042 144.339 217.039 158.468 221.084C173.775 225.468 188.63 230.219 204.341 233.063C206.484 233.45 208.622 233.85 210.764 234.245V229.221Z" fill="#F6F6F6"/>
<path d="M183.31 -3.82373H182.954L181.847 -1.7518L204.893 21.2607L210.765 17.8421V12.0312L203.377 16.0668L183.31 -3.82373Z" fill="#F6F6F6"/>
<path d="M133.127 -3.82373L153.095 12.7234L160.539 6.81845L150.016 -3.82373H133.127Z" fill="#DCD8BA"/>
<path d="M183.31 -3.82373L203.377 16.0668L210.765 12.0312V-2.5429L209.824 -3.82373H183.31Z" fill="#F6F6F6"/>
<path d="M15.1356 226.65C15.1356 226.65 8.46075 222.049 0.545898 219.422V259.076C12.9075 256.104 22.3806 246.847 15.1356 226.65Z" fill="#B4CD9B"/>
<path d="M67.2759 204.72C52.6101 202.163 38.9943 196.908 24.5994 193.443C16.637 191.526 8.5749 190.151 0.550781 188.606V194.022C5.31109 194.921 10.0762 195.821 14.8175 196.842C29.9631 200.115 44.225 205.851 59.5558 208.586C66.8151 209.881 74.0506 211.327 81.2955 212.711C81.5046 210.979 81.7231 209.213 81.9464 207.409C77.0626 206.486 72.1787 205.563 67.2807 204.711L67.2759 204.72Z" fill="#7E8085"/>
<path d="M210.765 234.25C208.622 233.854 206.484 233.454 204.341 233.068C188.631 230.224 173.775 225.468 158.468 221.088C144.339 217.044 129.73 215.042 115.188 213.121C106.465 211.967 97.8236 210.413 89.1866 208.793C88.9633 210.588 88.7496 212.349 88.5405 214.072C93.0966 214.896 97.6573 215.678 102.237 216.342C118.547 218.706 134.818 220.57 150.743 224.964C161.009 227.799 171.034 231.053 181.281 233.661L181.31 233.416L183.747 233.675L183.685 234.269C187.167 235.116 190.678 235.884 194.241 236.52C199.757 237.504 205.263 238.526 210.765 239.562V234.255V234.25Z" fill="#7E8085"/>
<path d="M42.9426 -3.82373L0.546387 88.7632V100.526L48.3253 -3.82373H42.9426Z" fill="white"/>
<path d="M181.846 -1.7518L182.953 -3.82373H171.133L172.179 -2.77835L199.462 24.4722L199.415 24.5005L191.353 29.3036L158.601 -3.82373H150.016L160.539 6.82316L162.615 8.92334L117.14 54.906L119.763 57.463L139.545 37.5725C141.408 40.6945 145.203 47.0657 149.474 54.275L120.162 71.7499L78.8774 31.983L87.4621 15.3275L106.237 -3.81431H101.106L84.4454 13.1755L76.0792 29.4119C74.0886 27.3635 71.1954 23.5917 71.2619 19.4478C71.2619 17.9033 71.6182 16.2693 72.5636 14.4987C78.0746 4.17674 78.1363 3.74823 79.02 2.00122C79.5331 0.913453 79.6803 -0.310869 79.6993 -1.82244C79.6993 -2.45814 79.6566 -3.13152 79.5615 -3.81431H75.8369C75.9604 -3.15035 76.0222 -2.45814 76.0175 -1.82244C76.0365 -0.720546 75.7894 0.306001 75.7229 0.371926C74.7633 2.26962 74.8298 2.44386 69.3046 12.7941C68.0884 15.0591 67.5753 17.3335 67.5753 19.4478C67.675 25.9744 72.06 30.7398 74.3214 32.8023L64.6488 51.5721L36.9943 37.144L55.6317 -3.81431H50.2538L0.546103 105.419V117.243L7.73883 101.44L28.5474 110.354L25.4451 122.653L0.546103 135.212V148.51L69.8699 107.067L74.92 104.519L79.7753 111.959L77.7562 137.256L63.8934 132.26L62.6344 135.688L77.4522 141.028L76.6588 150.982L0.541377 152.861V158.94L76.1172 157.076L72.4021 195.995L0.541377 176.589V180.371L82.5403 202.512C82.336 204.17 82.1317 205.813 81.9322 207.428C81.7089 209.227 81.4951 210.998 81.2813 212.731C80.1221 222.219 79.1387 230.568 78.4784 236.6C76.8821 251.254 73.2667 265.023 70.0457 275.091C68.4352 280.129 66.9292 284.24 65.827 287.08C64.7248 289.919 64.0502 291.44 64.0502 291.445C64.0502 291.445 61.822 296.418 58.1829 304.592L58.2732 303.858L0.536621 296.733V300.406L26.9891 303.669L25.8774 334.475L0.536621 328.73V332.469L41.6596 341.798C38.3863 349.2 34.942 356.998 31.4786 364.881L12.5894 355.392L10.9266 358.646L30.0059 368.233C28.1958 372.354 26.3858 376.484 24.59 380.58L0.536621 370.216V374.19L8.76502 377.736L3.61514 390.375L7.02621 391.74L12.1428 379.191L23.1315 383.924C21.0269 388.736 18.965 393.483 16.9602 398.098H24.97C25.1411 397.697 25.3168 397.302 25.4878 396.901L27.5307 398.098H34.7662L26.9606 393.53C32.272 381.329 37.9112 368.492 43.3129 356.254C45.9211 350.344 48.4723 344.576 50.9047 339.081L77.5045 345.103L72.5399 392.419L43.902 377.722L42.776 379.883L72.3308 395.051L72.2263 398.102H74.6777L74.7395 396.289L78.2693 398.102H83.6045L74.8725 393.619L77.1434 371.982L117.14 391.255L114.713 398.102H117.307L119.359 392.324L131.35 398.102H136.961L120.181 390.017L129.887 362.672L160.021 373.621L148.999 398.102H151.688L155.898 388.746L157.722 389.654L174.654 398.098H180.112L158.758 387.446L156.895 386.518L162.344 374.407L193.838 384.286L187.737 398.093H191.757L197.367 385.393L204.603 387.663C203.843 390.855 202.745 394.387 201.429 398.093H205.325C206.451 394.825 207.406 391.679 208.118 388.764L210.755 389.593V387.046L198.356 383.156L202.916 372.834L210.755 375.565V372.99L203.904 370.602L209.52 357.888L210.755 358.34V343.997L207.829 352.091L194.213 347.133L210.755 297.552V285.94L190.759 345.876L185.866 344.096L197.538 310.921L194.061 309.72L182.407 342.834L177.823 341.167L180.573 264.708L210.75 275.99V273.391L180.668 262.141V262L183.671 234.264L183.733 233.671L181.295 233.412L181.267 233.657L178.283 261.251L147.992 249.926L152.035 229.518L149.631 229.052L144.823 253.326L121.673 245.924L121.221 245.863L124.656 225.44L122.238 225.04L118.794 245.528L110.295 244.342L110.356 244.064L113.221 222.153L110.793 221.838L107.933 243.678L107.862 243.998L95.9946 242.345L99.7192 220.985L97.3011 220.571L87.885 274.526L86.2507 309.739L85.6141 312.24L65.5087 306.189C68.7915 298.819 70.7773 294.393 70.7821 294.374C70.8581 294.167 82.4311 268.023 85.7899 237.377C86.4312 231.486 87.3956 223.34 88.5263 214.068C88.7354 212.344 88.9539 210.583 89.1725 208.789C89.3672 207.198 89.5667 205.582 89.771 203.944C99.2204 205.62 118.917 209.01 137.203 211.44C162.116 214.737 197.743 224.183 210.052 228.953C210.285 229.042 210.518 229.132 210.75 229.221V225.317C199.239 220.99 171.741 213.573 148.372 209.486L153.451 184.957L140.557 183.469L145.427 167.336L145.146 155.366L156.154 155.098L152.197 178.643L155.826 179.241L159.902 155.004L179.177 154.528L165.114 204.589L168.658 205.568L183.02 154.434L196.745 154.095L185.942 187.623L185.913 187.613L179.12 208.78L178.925 209.382L182.426 210.494L188.336 192.157L210.75 198.919V195.11L200.731 192.087L189.453 188.682L189.528 188.451L190.973 183.973L200.631 153.996L210.75 153.746V147.667L208.038 147.733L208.261 140.693L209.026 138.617L210.755 138.937V135.226L210.299 135.141L210.755 133.903V130.555L208.384 129.703L204.603 140.006L204.361 147.827L194.17 148.077L183.656 135.787L203.648 91.1083L210.76 94.2303V90.2418L205.14 87.7744L210.76 75.2109V66.2169L204.151 80.9888L201.415 80.4661L209.035 63.9236L205.686 62.4074L197.857 79.3972L184.692 71.6227L182.806 74.7542L196.313 82.7311L188.669 99.3254C182.402 95.5488 174.022 89.5967 170.953 83.8612C168.962 80.226 164.938 73.2897 160.482 65.7036L197.724 44.4569L210.76 57.6937V48.9963L195.757 33.7629L203.895 28.9128L210.76 35.849V27.1704L209.33 25.7248L210.76 24.8913V17.8421L204.893 21.2607L181.846 -1.75651V-1.7518ZM43.1751 338.393L29.013 335.182L29.5403 335.2L30.6615 304.117L56.9525 307.361C53.2943 315.574 48.4913 326.376 43.1704 338.393H43.1751ZM128.405 359.536L116.931 355.369L116.091 357.653L127.592 361.829L117.972 388.939L94.2083 377.487L98.8118 367.97L96.6027 366.92L91.9992 376.422L77.4237 369.401L79.8799 346.026L87.6142 349.704L86.7353 354.046C86.493 354.488 86.0322 355.491 86.0274 356.885C85.9989 358.882 87.0868 361.528 90.5597 363.821C93.8662 366.034 99.3249 368.102 108.413 369.632L104.703 382.506L107.059 383.175L111.135 369.034L118.894 350.278L121.321 344.406L121.245 344.373L132.405 348.258L130.31 354.163L128.405 359.531V359.536ZM88.4788 356.89C88.4788 356.343 88.6023 355.882 88.7211 355.571C88.7781 355.416 88.8399 355.298 88.8779 355.223C88.9159 355.157 88.9206 355.157 88.9159 355.157L89.0537 354.95L90.6974 346.808C91.5146 345.395 92.3887 344.232 93.3056 343.267C96.4079 339.989 99.9758 339.071 103.306 339.043C105.838 339.043 108.199 339.622 109.914 340.211C111.634 340.799 112.646 341.369 112.656 341.36L112.741 341.407L119.017 343.592L111.658 361.387L109.211 367.306C100.085 365.808 94.8259 363.751 91.9422 361.811C88.9634 359.776 88.5121 358.062 88.4883 356.885L88.4788 356.89ZM161.052 371.393L130.709 360.37L132.633 354.954L134.723 349.068L161.252 358.312L166.416 360.111L161.052 371.393ZM112.147 318.248L116.447 296.545L134.932 305.614L126.642 323.428L126.172 324.436L111.782 320.104L112.147 318.248ZM109.81 317.415L109.416 319.392L97.4436 315.79L98.294 313.299L105.796 291.318L114.166 295.424L109.81 317.415ZM156.154 312.654L161.28 298.428L176.478 305.737L176.678 305.332L176.089 321.742L156.159 312.654H156.154ZM175.989 324.375L175.452 339.264L147.033 330.713L140.229 328.664L140.329 328.316L145.479 310.46L175.984 324.37L175.989 324.375ZM153.916 311.637L146.201 308.119L151.104 293.536L159.057 297.359L153.916 311.632V311.637ZM143.964 307.097L137.916 304.338L140.704 288.53L148.881 292.462L143.964 307.093V307.097ZM135.616 303.241L116.931 294.073L119.962 278.773L120.984 279.042L138.41 287.424L135.616 303.236V303.241ZM128.956 324.257L137.146 306.664L143.232 309.438L138.025 327.497L137.892 327.963L128.542 325.147L128.96 324.252L128.956 324.257ZM139.303 332.201L169.428 341.265L174.625 342.829L167.466 357.897L162.311 356.103L135.469 346.751L139.298 332.196L139.303 332.201ZM194.84 382.045L163.39 372.18L168.739 360.921L199.443 371.615L194.84 382.04V382.045ZM206.071 356.621L200.432 369.387L169.789 358.712L175.984 345.668L206.066 356.621H206.071ZM147.536 252.347L178.174 263.804L176.758 303.175L162.183 296.163L171.594 275.571L169.361 274.568L159.983 295.099L151.997 291.257L161.779 270.311L159.556 269.289L149.793 290.192L141.156 286.039L143.484 272.845L147.546 252.342L147.536 252.347ZM120.837 248.259L121.15 248.302L144.367 255.723L141.921 268.089L117.939 265.489L120.837 248.259ZM95.5955 244.742L107.359 246.381L103.463 264.279L105.857 264.792L109.786 246.72L118.399 247.92L115.083 267.627L141.436 270.486L141.056 272.402L138.842 284.933L121.844 276.753L91.4006 268.71L95.5813 244.737L95.5955 244.742ZM90.3506 274.804L90.992 271.121L117.592 278.152L114.661 292.961L95.4008 283.51L89.1629 300.425L90.3506 274.804ZM88.7116 310.092L88.8779 306.476L89.4622 306.688L96.7595 286.891L103.577 290.235L95.9851 312.48L95.0967 315.089L89.0062 313.257L87.9847 312.951L88.7116 310.097V310.092ZM87.0821 316.487L87.8945 316.732L136.961 331.499L133.155 345.956L113.725 339.189C112.969 338.798 108.632 336.641 103.306 336.627C99.8143 336.599 95.8473 337.64 92.4267 340.724C90.9825 342.028 89.638 343.686 88.4646 345.795L88.3743 345.96L88.3601 346.026L80.4975 342.287L81.7897 337.216L83.633 329.992L87.0773 316.496L87.0821 316.487ZM84.7352 315.781L78.1648 341.506L52.4202 335.676C56.2113 327.12 59.6747 319.341 62.5442 312.899C63.062 311.736 63.5561 310.629 64.0359 309.556L84.7352 315.785V315.781ZM142.168 34.7989L165.19 11.5227L185.956 32.5245L152.629 52.3915C147.897 44.4004 143.745 37.4359 142.168 34.7989ZM121.426 78.0834L143.788 99.9846L127.355 149.725L107.924 150.205L109.672 129.42L99.7763 125.606C100.185 122.46 100.441 120.492 100.498 120.049C100.593 119.541 100.859 117.85 100.864 115.468C100.859 112.054 100.318 107.142 97.6241 102.316C96.8212 100.879 95.2582 98.2188 93.2676 94.8613L121.426 78.0787V78.0834ZM105.772 131.831L104.218 150.295L96.5504 150.483C97.6336 142.054 98.5885 134.704 99.2869 129.331L105.772 131.831ZM77.1244 35.3734L116.898 73.6852L90.1511 89.6297C81.4904 75.1215 68.9625 54.4257 68.9483 54.4022L68.4162 53.5263L67.9031 53.2579L77.1197 35.3734H77.1244ZM9.24959 98.1011L33.9633 43.793L55.9928 55.2875L30.0391 107.01L9.24959 98.1058V98.1011ZM29.7873 120.45L31.968 111.809L40.0538 115.275L29.7873 120.454V120.45ZM66.9101 101.727L44.3153 113.123L33.4217 108.456L59.2471 56.9827L63.1665 59.0264C64.7913 61.7104 69.9222 70.1959 75.4046 79.3124C77.989 83.6022 80.6495 88.0428 83.0629 92.0736L66.9149 101.727H66.9101ZM82.9964 198.849L76.0079 196.96L79.8229 156.977L88.3268 156.765C86.6355 169.959 84.7304 184.943 83.0011 198.849H82.9964ZM89.1059 150.667L80.355 150.883L83.538 111.008L78.2123 102.848L86.8778 98.4778C88.8731 101.84 90.4267 104.491 91.1868 105.852C93.0349 109.129 93.5052 112.831 93.4957 115.463C93.4957 116.513 93.4244 117.379 93.3627 117.963C93.3294 118.26 93.2962 118.477 93.2724 118.618C93.2486 118.754 93.2439 118.764 93.2486 118.764L93.2201 118.891L93.2059 119.009C93.2059 119.009 91.4433 132.481 89.1059 150.662V150.667ZM90.2271 200.318C91.5621 189.596 93.0016 178.191 94.3746 167.445C94.8496 163.725 95.3152 160.089 95.7618 156.586L103.7 156.388L99.8665 201.994C96.0373 201.344 92.7498 200.765 90.2224 200.318H90.2271ZM136.852 183.041L136.742 183.027L131.117 202.046L131.094 202.121V202.131L134.614 203.167V203.157L134.628 203.115L139.483 187.015L149.037 188.117L144.743 208.874C142.329 208.483 139.968 208.125 137.692 207.824C125.844 206.251 113.368 204.269 103.506 202.611L107.397 156.299L134.961 155.616L133.802 165.5L129.246 180.856L132.775 181.887L137.417 166.235L138.671 155.526L141.161 155.465L141.465 155.526L141.731 166.842L136.842 183.041H136.852ZM189.443 148.19L131.246 149.626L146.7 102.848L171.053 126.703L189.443 148.19ZM199.833 83.8754L202.617 84.4075L194.479 102.589C194.056 102.367 193.576 102.113 193.025 101.816C192.659 101.623 192.27 101.411 191.861 101.185L199.833 83.8801V83.8754ZM190.331 104.5C191.381 105.084 192.284 105.56 192.982 105.923L181.006 132.693L178.625 129.91L190.331 104.5ZM167.722 85.6035C170.967 91.4567 177.651 96.5706 183.542 100.427C184.787 101.237 185.999 101.981 187.134 102.659L175.993 126.835L173.751 124.212L154.078 104.943L162.62 97.0039L160.107 94.3433L151.456 102.377L145.246 96.2975L157.142 84.5064L154.539 81.9259L142.629 93.7312L124.666 76.1339L152.562 59.502C153.517 61.1218 154.482 62.7511 155.432 64.371L145.417 70.0829L147.251 73.2426L157.285 67.5213C161.736 75.1026 165.755 82.0295 167.713 85.5988L167.722 85.6035ZM158.629 62.5581C157.665 60.9193 156.691 59.2712 155.722 57.6325L190.355 36.9886L195.068 41.7728L158.629 62.5628V62.5581Z" fill="white"/>
<path d="M36.3675 -3.82373L21.5782 28.0369L0.546387 16.726V27.792L17.4688 36.8897L0.546387 73.3462V84.9725L41.7644 -3.82373H36.3675Z" fill="white"/>
</g>
<path d="M141.322 209.628V215.683H135.022V209.628H141.322ZM141.175 180.706L140.448 205.065H135.792L135.065 180.706H141.175Z" fill="white"/>
<path d="M139.751 132.086C139.751 145.601 115.536 181.271 115.536 181.271C115.536 181.271 91.3213 145.605 91.3213 132.086C91.3213 118.571 102.163 107.614 115.536 107.614C128.91 107.614 139.751 118.571 139.751 132.086Z" fill="#FF5B01"/>
<path d="M126.919 131.008C126.919 137.36 121.822 142.512 115.536 142.512C109.251 142.512 104.153 137.36 104.153 131.008C104.153 124.656 109.251 119.504 115.536 119.504C121.822 119.504 126.919 124.656 126.919 131.008Z" fill="white"/>
<path d="M124.753 181.262C124.753 182.519 120.501 183.541 115.261 183.541C110.021 183.541 105.769 182.519 105.769 181.262C105.769 180.004 110.021 178.982 115.261 178.982C120.501 178.982 124.753 180.004 124.753 181.262Z" stroke="#FF5B01" stroke-width="0.79" stroke-miterlimit="10"/>
<path opacity="0.91" d="M115.256 185.288C122.674 185.288 128.687 183.684 128.687 181.705C128.687 179.725 122.674 178.121 115.256 178.121C107.839 178.121 101.826 179.725 101.826 181.705C101.826 183.684 107.839 185.288 115.256 185.288Z" stroke="#FF5B01" stroke-width="0.73" stroke-miterlimit="10"/>
<path opacity="0.82" d="M115.256 187.026C124.846 187.026 132.621 184.839 132.621 182.142C132.621 179.446 124.846 177.259 115.256 177.259C105.666 177.259 97.8921 179.446 97.8921 182.142C97.8921 184.839 105.666 187.026 115.256 187.026Z" stroke="#FF5B01" stroke-width="0.66" stroke-miterlimit="10"/>
<path opacity="0.73" d="M115.256 188.773C127.018 188.773 136.554 186.002 136.554 182.585C136.554 179.168 127.018 176.397 115.256 176.397C103.493 176.397 93.958 179.168 93.958 182.585C93.958 186.002 103.493 188.773 115.256 188.773Z" stroke="#FF5B01" stroke-width="0.6" stroke-miterlimit="10"/>
<path opacity="0.64" d="M115.256 190.515C129.194 190.515 140.493 187.16 140.493 183.023C140.493 178.885 129.194 175.531 115.256 175.531C101.319 175.531 90.02 178.885 90.02 183.023C90.02 187.16 101.319 190.515 115.256 190.515Z" stroke="#FF5B01" stroke-width="0.53" stroke-miterlimit="10"/>
<path opacity="0.55" d="M115.256 192.262C131.366 192.262 144.426 188.324 144.426 183.466C144.426 178.608 131.366 174.669 115.256 174.669C99.1458 174.669 86.0859 178.608 86.0859 183.466C86.0859 188.324 99.1458 192.262 115.256 192.262Z" stroke="#FF5B01" stroke-width="0.47" stroke-miterlimit="10"/>
<path opacity="0.45" d="M115.256 194.004C133.539 194.004 148.36 189.484 148.36 183.908C148.36 178.332 133.539 173.812 115.256 173.812C96.9734 173.812 82.1523 178.332 82.1523 183.908C82.1523 189.484 96.9734 194.004 115.256 194.004Z" stroke="#FF5B01" stroke-width="0.4" stroke-miterlimit="10"/>
<path opacity="0.36" d="M115.256 195.746C135.711 195.746 152.293 190.642 152.293 184.346C152.293 178.05 135.711 172.946 115.256 172.946C94.8009 172.946 78.2188 178.05 78.2188 184.346C78.2188 190.642 94.8009 195.746 115.256 195.746Z" stroke="#FF5B01" stroke-width="0.34" stroke-miterlimit="10"/>
<path opacity="0.27" d="M115.256 197.493C137.886 197.493 156.232 191.805 156.232 184.789C156.232 177.772 137.886 172.084 115.256 172.084C92.6257 172.084 74.2803 177.772 74.2803 184.789C74.2803 191.805 92.6257 197.493 115.256 197.493Z" stroke="#FF5B01" stroke-width="0.27" stroke-miterlimit="10"/>
<path opacity="0.18" d="M115.256 199.236C140.059 199.236 160.165 192.964 160.165 185.227C160.165 177.49 140.059 171.218 115.256 171.218C90.4533 171.218 70.3467 177.49 70.3467 185.227C70.3467 192.964 90.4533 199.236 115.256 199.236Z" stroke="#FF5B01" stroke-width="0.21" stroke-miterlimit="10"/>
<path opacity="0.09" d="M115.256 200.978C142.231 200.978 164.099 194.124 164.099 185.669C164.099 177.214 142.231 170.36 115.256 170.36C88.2809 170.36 66.4131 177.214 66.4131 185.669C66.4131 194.124 88.2809 200.978 115.256 200.978Z" stroke="#FF5B01" stroke-width="0.14" stroke-miterlimit="10"/>
<defs>
<linearGradient id="paint0_linear_70_4008" x1="5.9193" y1="196.249" x2="8.79354" y2="196.249" gradientUnits="userSpaceOnUse">
<stop stop-color="#666666"/>
<stop offset="0.06" stop-color="#727272"/>
<stop offset="0.33" stop-color="#A8A8A8"/>
<stop offset="0.57" stop-color="#CFCFCF"/>
<stop offset="0.76" stop-color="#E8E8E8"/>
<stop offset="0.87" stop-color="#F1F1F1"/>
<stop offset="0.95" stop-color="#F7F7F7"/>
<stop offset="1" stop-color="white"/>
</linearGradient>
<linearGradient id="paint1_linear_70_4008" x1="198.289" y1="196.268" x2="201.14" y2="196.268" gradientUnits="userSpaceOnUse">
<stop stop-color="white"/>
<stop offset="0.05" stop-color="#F7F7F7"/>
<stop offset="0.13" stop-color="#F1F1F1"/>
<stop offset="0.24" stop-color="#E8E8E8"/>
<stop offset="0.43" stop-color="#CFCFCF"/>
<stop offset="0.67" stop-color="#A8A8A8"/>
<stop offset="0.94" stop-color="#727272"/>
<stop offset="1" stop-color="#666666"/>
</linearGradient>
<linearGradient id="paint2_linear_70_4008" x1="103.311" y1="22.2871" x2="103.311" y2="-5.8958" gradientUnits="userSpaceOnUse">
<stop stop-color="#333333"/>
<stop offset="0.07" stop-color="#4B4B4B"/>
<stop offset="0.25" stop-color="#818181"/>
<stop offset="0.42" stop-color="#AEAEAE"/>
<stop offset="0.59" stop-color="#D1D1D1"/>
<stop offset="0.74" stop-color="#EAEAEA"/>
<stop offset="0.89" stop-color="#F9F9F9"/>
<stop offset="1" stop-color="white"/>
</linearGradient>
<linearGradient id="paint3_linear_70_4008" x1="189.315" y1="196.395" x2="196.241" y2="196.395" gradientUnits="userSpaceOnUse">
<stop stop-color="#F0F0F0"/>
<stop offset="0.14" stop-color="#B7B7B7"/>
<stop offset="0.27" stop-color="#888888"/>
<stop offset="0.4" stop-color="#636363"/>
<stop offset="0.51" stop-color="#484848"/>
<stop offset="0.62" stop-color="#383838"/>
<stop offset="0.7" stop-color="#333333"/>
</linearGradient>
<linearGradient id="paint4_linear_70_4008" x1="-313.677" y1="15.9304" x2="196.256" y2="15.9304" gradientUnits="userSpaceOnUse">
<stop/>
<stop offset="0.1" stop-color="#141414"/>
<stop offset="0.26" stop-color="#2C2C2C"/>
<stop offset="0.4" stop-color="#3A3A3A"/>
<stop offset="0.52" stop-color="#404040"/>
<stop offset="0.63" stop-color="#383838"/>
<stop offset="0.79" stop-color="#232323"/>
<stop offset="0.99" stop-color="#020202"/>
<stop offset="1"/>
</linearGradient>
<linearGradient id="paint5_linear_70_4008" x1="10.3802" y1="196.278" x2="14.4849" y2="196.278" gradientUnits="userSpaceOnUse">
<stop stop-color="#404040"/>
<stop offset="0.64" stop-color="#191919"/>
<stop offset="1" stop-color="#0A0A0A"/>
</linearGradient>
<linearGradient id="paint6_linear_70_4008" x1="189.296" y1="196.419" x2="196.241" y2="196.419" gradientUnits="userSpaceOnUse">
<stop stop-color="#0A0A0A"/>
<stop offset="0.36" stop-color="#191919"/>
<stop offset="1" stop-color="#404040"/>
</linearGradient>
<linearGradient id="paint7_linear_70_4008" x1="91.3101" y1="14.9933" x2="114.109" y2="14.9933" gradientUnits="userSpaceOnUse">
<stop stop-color="#333333"/>
<stop offset="0.09" stop-color="#2A2A2A"/>
<stop offset="0.29" stop-color="#1E1E1E"/>
<stop offset="0.48" stop-color="#1A1A1A"/>
<stop offset="0.79" stop-color="#1B1B1B"/>
<stop offset="0.9" stop-color="#222222"/>
<stop offset="0.98" stop-color="#2E2E2E"/>
<stop offset="1" stop-color="#333333"/>
</linearGradient>
<linearGradient id="paint8_linear_70_4008" x1="4.1043" y1="366.599" x2="199.889" y2="24.473" gradientUnits="userSpaceOnUse">
<stop stop-color="#3F3E3E"/>
<stop offset="1" stop-color="#222221"/>
</linearGradient>
</defs>
</svg>
