<svg width="21" height="20" viewBox="0 0 21 20" fill="none" xmlns="http://www.w3.org/2000/svg">
<path d="M8.83325 13.3334C8.83325 11.95 8.83325 10.8334 11.3333 10.8334H14.6666C17.1666 10.8334 17.1666 10 17.1666 8.33335V6.66669C17.1666 5.00002 17.1666 4.16669 14.6666 4.16669H13.8333" stroke="#FF5B01" stroke-width="1.5" stroke-linecap="round" stroke-linejoin="round"/>
<path d="M10.5001 1.66669H7.16675C6.62508 3.29169 6.62508 5.04169 7.16675 6.66669H10.5001C11.0417 5.04169 11.0417 3.29169 10.5001 1.66669Z" stroke="#FF5B01" stroke-width="1.5" stroke-linecap="round" stroke-linejoin="round"/>
<path d="M7.16659 1.66669H6.33325C4.66659 1.66669 3.83325 2.50002 3.83325 4.16669C3.83325 5.83335 4.66659 6.66669 6.33325 6.66669H7.16659C6.33325 5.00002 6.33325 3.33335 7.16659 1.66669Z" stroke="#FF5B01" stroke-width="1.5" stroke-linecap="round" stroke-linejoin="round"/>
<path d="M11.3333 1.66669H10.5C11.3333 3.33335 11.3333 5.00002 10.5 6.66669H11.3333C13 6.66669 13.8333 5.83335 13.8333 4.16669C13.8333 2.50002 13 1.66669 11.3333 1.66669Z" stroke="#FF5B01" stroke-width="1.5" stroke-linecap="round" stroke-linejoin="round"/>
<path d="M8.41675 18.3333H9.25008C10.5001 18.3333 10.5001 17.5 10.5001 17.0833V14.5833C10.5001 14.1666 10.5001 13.3333 9.25008 13.3333H8.41675C7.16675 13.3333 7.16675 14.1666 7.16675 14.5833V17.0833C7.16675 17.5 7.16675 18.3333 8.41675 18.3333Z" stroke="#FF5B01" stroke-width="1.5" stroke-linecap="round" stroke-linejoin="round"/>
</svg>
