<svg width="21" height="20" viewBox="0 0 21 20" fill="none" xmlns="http://www.w3.org/2000/svg">
<path d="M11.3334 18.3334H4.66675C3.00008 18.3334 2.16675 17.5 2.16675 15.8334V9.16669C2.16675 7.50002 3.00008 6.66669 4.66675 6.66669H8.83341V15.8334C8.83341 17.5 9.66675 18.3334 11.3334 18.3334Z" stroke="#FF5B01" stroke-width="1.5" stroke-miterlimit="10" stroke-linecap="round" stroke-linejoin="round"/>
<path d="M8.92507 3.33331C8.8584 3.58331 8.83341 3.85831 8.83341 4.16665V6.66665H4.66675V4.99998C4.66675 4.08331 5.41675 3.33331 6.33341 3.33331H8.92507Z" stroke="#FF5B01" stroke-width="1.5" stroke-miterlimit="10" stroke-linecap="round" stroke-linejoin="round"/>
<path d="M12.1667 6.66669V10.8334" stroke="#FF5B01" stroke-width="1.5" stroke-miterlimit="10" stroke-linecap="round" stroke-linejoin="round"/>
<path d="M15.5 6.66669V10.8334" stroke="#FF5B01" stroke-width="1.5" stroke-miterlimit="10" stroke-linecap="round" stroke-linejoin="round"/>
<path d="M14.6667 14.1667H13.0001C12.5417 14.1667 12.1667 14.5417 12.1667 15V18.3334H15.5001V15C15.5001 14.5417 15.1251 14.1667 14.6667 14.1667Z" stroke="#FF5B01" stroke-width="1.5" stroke-miterlimit="10" stroke-linecap="round" stroke-linejoin="round"/>
<path d="M5.5 10.8333V14.1666" stroke="#FF5B01" stroke-width="1.5" stroke-miterlimit="10" stroke-linecap="round" stroke-linejoin="round"/>
<path d="M8.83325 15.8334V4.16669C8.83325 2.50002 9.66659 1.66669 11.3333 1.66669H16.3333C17.9999 1.66669 18.8333 2.50002 18.8333 4.16669V15.8334C18.8333 17.5 17.9999 18.3334 16.3333 18.3334H11.3333C9.66659 18.3334 8.83325 17.5 8.83325 15.8334Z" stroke="#FF5B01" stroke-width="1.5" stroke-miterlimit="10" stroke-linecap="round" stroke-linejoin="round"/>
</svg>
