<svg width="27" height="27" viewBox="0 0 27 27" fill="none" xmlns="http://www.w3.org/2000/svg">
<g clip-path="url(#clip0_143_7414)">
<path d="M22.7113 4.42921C20.2672 1.99414 17.0172 0.652365 13.5545 0.650879C6.41922 0.650879 0.612512 6.43019 0.609656 13.5338C0.608824 15.8045 1.20475 18.021 2.33744 19.9748L0.500977 26.6509L7.3632 24.8594C9.25388 25.886 11.3827 26.4269 13.549 26.4278H13.5545H13.5545C20.6887 26.4278 26.4963 20.6475 26.4993 13.5442C26.5005 10.1015 25.1552 6.86446 22.7113 4.42921ZM13.5545 24.2518H13.5503C11.6194 24.2508 9.72583 23.7347 8.0742 22.759L7.68114 22.527L3.60895 23.5899L4.69617 19.6385L4.44008 19.2334C3.36298 17.5283 2.79437 15.5579 2.79518 13.5346C2.79754 7.63033 7.62386 2.82693 13.5586 2.82693C16.4325 2.82812 19.1337 3.94341 21.1652 5.96737C23.1965 7.99132 24.3144 10.6819 24.3136 13.5433C24.3111 19.4478 19.4846 24.2518 13.5545 24.2518Z" fill="#D4D4D4"/>
<path d="M1.09521 25.9102L2.84779 19.5391C1.76656 17.6745 1.19797 15.5591 1.19865 13.3925C1.20149 6.61354 6.743 1.09839 13.5518 1.09839C16.8564 1.09987 19.958 2.38029 22.29 4.70419C24.6225 7.02807 25.9062 10.117 25.9049 13.4021C25.902 20.1813 20.3602 25.6969 13.5523 25.6969C13.5518 25.6969 13.5526 25.6969 13.5523 25.6969H13.5468C11.4794 25.6963 9.44804 25.1796 7.64385 24.2006L1.09521 25.9102Z" fill="#80C95E"/>
<path fill-rule="evenodd" clip-rule="evenodd" d="M10.3557 8.06432C10.1162 7.5342 9.86407 7.52359 9.63623 7.51431C9.44986 7.50635 9.23651 7.50684 9.0235 7.50684C8.81032 7.50684 8.46391 7.5866 8.17095 7.90514C7.87783 8.22367 7.05176 8.9937 7.05176 10.5598C7.05176 12.1261 8.1976 13.6395 8.35732 13.8521C8.5172 14.0643 10.5692 17.3809 13.8191 18.6569C16.5199 19.7172 17.0696 19.5063 17.6558 19.4533C18.2421 19.4002 19.5474 18.6834 19.8139 17.94C20.0804 17.1968 20.0804 16.5598 20.0004 16.4266C19.9205 16.294 19.7073 16.2144 19.3876 16.0552C19.0678 15.896 17.4959 15.1258 17.2028 15.0197C16.9097 14.9136 16.6965 14.8605 16.4833 15.1792C16.2701 15.4976 15.6577 16.2144 15.4712 16.4266C15.2847 16.6394 15.0981 16.6659 14.7784 16.5067C14.4586 16.347 13.4288 16.0113 12.2072 14.9268C11.2567 14.0832 10.615 13.0412 10.4285 12.7225C10.242 12.4041 10.4085 12.2317 10.5689 12.073C10.7124 11.9304 10.8887 11.7014 11.0485 11.5155C11.2081 11.3296 11.2614 11.197 11.368 10.9847C11.4746 10.7722 11.4213 10.5863 11.3413 10.4271C11.2614 10.2679 10.64 8.69374 10.3557 8.06432Z" fill="white"/>
<path d="M22.6053 4.38842C20.1892 1.98129 16.9765 0.654949 13.5536 0.653442C6.5002 0.653442 0.760159 6.36641 0.757324 13.3885C0.756492 15.6331 1.34557 17.8242 2.46526 19.7556L0.649902 26.355L7.43336 24.5841C9.30235 25.5988 11.4067 26.1336 13.5481 26.1344H13.5536H13.5536C20.6059 26.1344 26.3468 20.4205 26.3498 13.3987C26.3509 9.99558 25.0211 6.79571 22.6053 4.38842ZM13.5536 23.9835H13.5495C11.6407 23.9825 9.76885 23.4723 8.13619 22.5078L7.74763 22.2784L3.72219 23.3292L4.79692 19.4231L4.54377 19.0227C3.47904 17.3372 2.91694 15.3893 2.91778 13.3893C2.9201 7.55282 7.69101 2.80456 13.5576 2.80456C16.3986 2.80573 19.0687 3.90822 21.0769 5.90894C23.085 7.90966 24.19 10.5693 24.1892 13.3979C24.1866 19.2346 19.4156 23.9835 13.5536 23.9835Z" fill="white"/>
</g>
<defs>
<clipPath id="clip0_143_7414">
<rect width="26" height="26" fill="white" transform="translate(0.5 0.650879)"/>
</clipPath>
</defs>
</svg>
