<svg width="122" height="102" viewBox="0 0 122 102" fill="none" xmlns="http://www.w3.org/2000/svg">
<path d="M26.226 101.985C25.8368 101.985 25.5067 101.706 25.4477 101.322L17.8299 48.6121L9.72868 49.3103L3.57314 101.31C3.52597 101.74 3.13683 102.043 2.70052 101.985C2.26421 101.938 1.95762 101.554 2.00479 101.124L8.23108 48.4958C8.27825 48.1351 8.57306 47.8442 8.93862 47.8093L18.4195 46.9948C18.8323 46.9599 19.2096 47.2508 19.2686 47.658L26.9925 101.089C27.0515 101.508 26.7567 101.903 26.3203 101.961C26.285 101.961 26.2496 101.961 26.2142 101.961L26.226 101.985Z" fill="#7E8085"/>
<path d="M25.195 90.9919H4.805C4.36044 90.9919 4 90.5442 4 89.9919C4 89.4397 4.36044 88.9919 4.805 88.9919H25.195C25.6395 88.9919 26 89.4397 26 89.9919C26 90.5442 25.6395 90.9919 25.195 90.9919Z" fill="#7E8085"/>
<path d="M121.214 101.985C120.825 101.985 120.495 101.706 120.436 101.322L112.819 48.6121L104.719 49.3103L98.5637 101.31C98.5165 101.74 98.1274 102.043 97.6912 101.985C97.2549 101.938 96.9483 101.554 97.0073 101.124L103.233 48.4958C103.28 48.1351 103.575 47.8442 103.94 47.8093L113.42 46.9948C113.833 46.9599 114.21 47.2508 114.269 47.658L121.993 101.089C122.051 101.508 121.757 101.903 121.32 101.961C121.285 101.961 121.25 101.961 121.203 101.961L121.214 101.985Z" fill="#7E8085"/>
<path d="M120.195 90.9919H99.805C99.3605 90.9919 99 90.5442 99 89.9919C99 89.4397 99.3605 88.9919 99.805 88.9919H120.195C120.64 88.9919 121 89.4397 121 89.9919C121 90.5442 120.64 90.9919 120.195 90.9919Z" fill="#7E8085"/>
<path d="M116 44.9919H6V48.9919H116V44.9919Z" fill="#2B2E35"/>
<path d="M122 40.9919H0V45.9919H122V40.9919Z" fill="#FF5B01"/>
<path d="M48.6429 40.9919L39 44.9919H52.9312L62 40.9919H48.6429Z" fill="#2B2E35"/>
<path d="M50 31.9919L49.5949 36.4685L48.9114 43.8579L45.7342 44.9919H42L50 31.9919Z" fill="#7E8085"/>
<path d="M55 33.9919V41.0721L47.946 43.8282L45 44.9919L45.9859 37.1523L48.5798 36.2458L55 33.9919Z" fill="#2B2E35"/>
<path d="M60.7479 43.0058L55.1445 45.4919C54.9125 45.6031 54.9736 45.9919 55.2299 45.9919H68.0483C68.3657 45.9919 68.6831 45.9225 68.9883 45.7836L73.8593 43.4919C74.0913 43.3808 74.018 42.9919 73.7738 42.9919H60.8578C60.8578 42.9919 60.7968 42.9919 60.7724 43.0058H60.7479Z" fill="#7E8085"/>
<path d="M65.2369 42.1308L59 44.9919H72.7188L77.8986 42.5614C78.063 42.4919 78.0161 42.2003 77.8399 42.2003L65.8476 41.9919C65.6362 41.9919 65.4366 42.0336 65.2369 42.1169V42.1308Z" fill="#7E8085"/>
<path d="M32 2.22435L32.3324 42.9919L67 31.8183L66.7389 -0.00805664L32 2.22435ZM65.5877 29.7495L35.074 39.1466L34.7891 4.87751L65.3622 2.44641L65.5877 29.7378V29.7495Z" fill="#2B2E35"/>
<path d="M34.0179 4.2249C33.9116 4.47301 34.3132 40.9919 34.3132 40.9919L66 31.1149L65.7638 1.99194L34.0061 4.2249H34.0179Z" fill="#2B2E35"/>
<path d="M65.785 1.99194L66 29.515L35.2867 38.9919L35 4.4319L65.785 1.99194Z" fill="#2B2E35"/>
<path d="M65.785 1.99194L66 29.515L63.133 30.3991L62.906 30.4698L55.0933 32.8862L54.8543 32.9569L47.0416 35.3615L46.8147 35.4322L39.0019 37.8486L38.775 37.9193L35.2867 38.9919L35 4.4319L38.5002 4.16079L38.7272 4.13722L46.5518 3.51249L46.7907 3.50071L54.6154 2.87598L54.8424 2.85241L62.667 2.23948L62.906 2.2159L65.785 1.99194Z" fill="white"/>
<path d="M31 33.9919H25V44.9919H31V33.9919Z" fill="#E9E1C2"/>
<path d="M30 33.9919H26V35.9919H30V33.9919Z" fill="#FF5200"/>
<path d="M30 36.9919H26V38.9919H30V36.9919Z" fill="#FF5200"/>
<path d="M30 39.9919H26V41.9919H30V39.9919Z" fill="#FF5200"/>
<path d="M31 45.1527L25.396 45.9919L20 34.8312L25.604 33.9919L31 45.1527Z" fill="#C1C1C1"/>
<path d="M25 36.5698L21.8432 36.9919L21 35.4141L24.1568 34.9919L25 36.5698Z" fill="#C44531"/>
<path d="M28 38.5698L24.0641 38.9919L23 37.4141L26.9487 36.9919L28 38.5698Z" fill="#FF9280"/>
<path d="M29 41.5698L25.0641 41.9919L24 40.4141L27.9487 39.9919L29 41.5698Z" fill="#FC4C4C"/>
<path d="M32 44.4731L26.8024 45.9919L16 36.5108L21.1976 34.9919L32 44.4731Z" fill="#E9E1C2"/>
<path d="M22 37.8838L18.8318 38.9919L17 37.0865L20.1682 35.9919L22 37.8838Z" fill="#B16D00"/>
<path d="M25 39.8973L21.8276 40.9919L20 39.1001L23.1609 37.9919L25 39.8973Z" fill="#D68C20"/>
<path d="M27 41.8838L23.8318 42.9919L22 41.0865L25.1682 39.9919L27 41.8838Z" fill="#D68C20"/>
<path d="M32 43.8217L27.8645 45.9919L13 38.1742L17.1239 35.9919L32 43.8217Z" fill="#C1C1C1"/>
<path d="M19 38.4919L16.5 39.9919L14 38.4919L16.5 36.9919L19 38.4919Z" fill="#8B9192"/>
<path d="M23 40.4919L20.5056 41.9919L18 40.4919L20.5056 38.9919L23 40.4919Z" fill="#8B9192"/>
<path d="M26 41.4919L23.5 42.9919L21 41.4919L23.5 39.9919L26 41.4919Z" fill="#8B9192"/>
<path d="M32 43.3916L28.9559 45.9919L10 40.5922L13.0441 37.9919L32 43.3916Z" fill="#E9E1C2"/>
<path d="M16 40.0865L14.1724 41.9919L11 40.8838L12.8276 38.9919L16 40.0865Z" fill="#FAA500"/>
<path d="M21 41.0865L19.1724 42.9919L16 41.8973L17.8276 39.9919L21 41.0865Z" fill="#FFAB18"/>
<path d="M25 42.0865L23.1724 43.9919L20 42.8974L21.8276 40.9919L25 42.0865Z" fill="#FFCF82"/>
<path d="M32 43.4323L30.7649 45.9919L8 42.7395L10.8214 39.9919L32 43.4323Z" fill="white"/>
<path d="M16 41.5535L14.4571 42.9919L10 42.4501L11.751 40.9919L16 41.5535Z" fill="#A3BAFF"/>
<path d="M21 42.53L19.8235 43.9919L16 43.4742L17.3462 41.9919L21 42.53Z" fill="#6B75E2"/>
<path d="M26 42.505L24.9206 43.9919L21 43.4893L22.2407 41.9919L26 42.505Z" fill="#4759B7"/>
<path d="M31 44.4919C31 44.7706 30.0988 44.9919 29 44.9919C27.9012 44.9919 27 44.7706 27 44.4919C27 44.2133 27.9012 43.9919 29 43.9919C30.0988 43.9919 31 44.2133 31 44.4919Z" fill="#646E84"/>
<path d="M61.8828 21.2025L40.1875 25.9862C40.0821 26.0082 40 25.9643 40 25.8985C40 25.8326 40.0821 25.7449 40.1875 25.7229L61.8828 20.994C61.9414 20.9831 62 21.016 62 21.0708C62 21.1257 61.9531 21.1806 61.8828 21.2025Z" fill="#D4D4D4"/>
<path d="M61.8478 28.0424L40.1873 34.9786C40.082 35.0132 40 34.9786 40 34.8979V8.31696C40 8.2363 40.082 8.1787 40.1873 8.16718L61.8829 6.99194C61.9415 6.99194 62 7.03803 62 7.09564L61.9532 27.8926C61.9532 27.9503 61.9063 28.0194 61.8361 28.0424H61.8478ZM40.3747 34.6445L61.7307 27.8581L61.7775 7.22238L40.3747 8.4437V34.6445Z" fill="#D4D4D4"/>
<path d="M60.0669 28.6809L54.6504 30.4123C54.5686 30.4352 54.4986 30.4123 54.4752 30.355L53.0627 25.9749L52.304 31.0315C52.2923 31.1117 52.2106 31.2034 52.1172 31.2378L49.6541 32.029C49.5607 32.0634 49.479 32.029 49.4556 31.9602L48.1015 27.5917L47.261 32.6482C47.2493 32.7399 47.1559 32.8316 47.0509 32.866L43.5838 33.9782C43.4787 34.0126 43.397 33.9782 43.362 33.9209L40 26.3533V11.2182C40 11.1609 40.035 11.115 40.0817 11.0691C40.1284 11.0347 40.1985 11.0118 40.2685 11.0118C42.0312 11.0118 43.3386 10.6678 44.1908 10.0143C45.2181 9.2231 45.2415 8.19117 45.2415 8.1797C45.2415 8.12237 45.2765 8.0765 45.3348 8.03064C45.3932 7.99624 45.4633 7.98478 45.5333 7.99624L54.1133 9.46389C54.1951 9.47536 54.2535 9.54415 54.2418 9.62441C54.2418 9.64735 54.1601 10.3124 53.7281 17.4098C53.6114 19.3247 54.1951 20.735 55.4442 21.5605C57.8606 23.1658 61.8062 22.0421 61.8413 22.0306C61.8879 22.0192 61.9347 22.0306 61.9697 22.0536C62.0047 22.088 62.0047 22.1224 61.993 22.1797L60.2303 28.5319C60.207 28.6007 60.1486 28.6695 60.0786 28.6924L60.0669 28.6809ZM54.7904 30.0568L59.9501 28.4172L61.6311 22.3517C60.779 22.5695 57.4053 23.2919 55.1756 21.8128C53.8449 20.9299 53.2145 19.4508 53.3312 17.4328C53.6814 11.6883 53.7982 10.1404 53.8332 9.73908L45.6384 8.37462C45.58 8.76446 45.3465 9.56709 44.4826 10.2436C43.5838 10.943 42.253 11.3214 40.4786 11.3672V26.1469L43.7472 33.554L46.8524 32.5679L47.833 26.6973C47.8446 26.617 47.9264 26.5253 48.0314 26.5024C48.1365 26.4795 48.2182 26.5024 48.2415 26.5826L49.8058 31.6392L51.9421 30.9627L52.8176 25.1723C52.8293 25.0921 52.8993 25.0118 52.9927 24.9889C53.0861 24.9659 53.1678 24.9889 53.1912 25.0577L54.8021 30.0568H54.7904Z" fill="#FF5B01"/>
<path d="M41 14.4125C41 14.679 40.5636 14.9377 40.0061 14.9847C39.4485 15.0318 39 14.8436 39 14.5693C39 14.295 39.4606 14.0363 40.0061 13.9971C40.5515 13.9579 41 14.146 41 14.4125Z" fill="#2B2E35"/>
<path d="M41 25.6902C41 26.2102 40.5636 26.776 40.0061 26.9443C39.4485 27.1125 39 26.8219 39 26.2866C39 25.7514 39.4606 25.1855 40.0061 25.0326C40.5515 24.8796 41 25.1702 41 25.7055V25.6902Z" fill="#2B2E35"/>
<path d="M49 26.3436C49 26.6067 48.5603 26.8863 48.0071 26.9685C47.4539 27.0507 47 26.9109 47 26.6396C47 26.3765 47.4539 26.0969 48.0071 26.0147C48.5603 25.9324 49 26.0805 48.9858 26.3436H49Z" fill="#2B2E35"/>
<path d="M53 24.3465C53 24.6103 52.776 24.8916 52.504 24.9708C52.224 25.0499 52 24.9004 52 24.6366C52 24.3729 52.232 24.0915 52.504 24.0124C52.776 23.9333 53 24.0915 53 24.3553V24.3465Z" fill="#2B2E35"/>
<path d="M62 21.3632C62 21.6299 61.7723 21.9066 61.5049 21.9757C61.2277 22.0449 61 21.8868 61 21.6201C61 21.3533 61.2277 21.0767 61.5049 21.0075C61.7822 20.9384 62 21.1063 62 21.3731V21.3632Z" fill="#2B2E35"/>
<path d="M56 22.366C56 22.6333 55.7778 22.9006 55.5043 22.9744C55.2308 23.0481 55 22.8822 55 22.6149C55 22.3475 55.2222 22.071 55.5043 22.0064C55.7778 21.9419 56 22.0986 56 22.366Z" fill="#2B2E35"/>
<path d="M54 9.44514C54 9.72189 53.7805 9.96174 53.5041 9.98942C53.2277 10.0171 53 9.81414 53 9.53739C53 9.26064 53.2277 9.01156 53.5041 8.99311C53.7805 8.97466 54 9.17761 54 9.44514Z" fill="#2B2E35"/>
<path d="M61.8828 15.2339L40.1874 18.99C40.082 19.0027 40 18.9518 40 18.8754C40 18.799 40.082 18.7099 40.1874 18.6844L61.8828 14.9919C61.9414 14.9919 62 15.0301 62 15.0938C62 15.1575 61.9531 15.2211 61.8828 15.2339Z" fill="#D4D4D4"/>
</svg>
