<svg width="129" height="102" viewBox="0 0 129 102" fill="none" xmlns="http://www.w3.org/2000/svg">
<path d="M2 86.9919H0V101.992H2V86.9919Z" fill="#2B2E35"/>
<path d="M31 86.9919H29V101.992H31V86.9919Z" fill="#2B2E35"/>
<path d="M31 43.9919H0V88.9919H31V43.9919Z" fill="#2B2E35"/>
<path d="M128.102 101.984C127.651 101.984 127.268 101.659 127.199 101.212L118.363 39.8641L108.965 40.6767L101.825 101.198C101.77 101.699 101.319 102.051 100.813 101.984C100.306 101.929 99.9508 101.483 100.006 100.981L107.228 39.7422C107.283 39.3224 107.625 38.9838 108.049 38.9432L119.047 37.9952C119.525 37.9546 119.963 38.2932 120.032 38.7672L128.991 100.954C129.06 101.442 128.718 101.902 128.212 101.97C128.171 101.97 128.13 101.97 128.088 101.97L128.102 101.984Z" fill="#2B2E35"/>
<path d="M127.085 88.9919H103.915C103.41 88.9919 103 88.5442 103 87.9919C103 87.4397 103.41 86.9919 103.915 86.9919H127.085C127.59 86.9919 128 87.4397 128 87.9919C128 88.5442 127.59 88.9919 127.085 88.9919Z" fill="#2B2E35"/>
<path d="M123 34.9919H0V49.9919H123V34.9919Z" fill="#2B2E35"/>
<path d="M9.43867 31.9919L0 34.9919H123L118.308 31.9919H9.43867Z" fill="#7E8085"/>
<path d="M62 30.2851C62 30.2851 69.2967 31.4213 71.7655 34.5287C74.2343 37.6362 71.7381 57.9919 71.7381 57.9919L94.7803 50.2439C94.7803 50.2439 101.652 33.5705 91.2143 27.0955C89.0335 25.7403 86.2904 25.6308 83.9999 26.7807C74.5772 31.5445 62 30.2988 62 30.2988V30.2851Z" fill="#FFBC46"/>
<path d="M71 30.1413C71 30.0609 71.055 29.9919 71.1193 29.9919H71.8807C71.945 29.9919 72 30.0609 72 30.1413C72 30.2218 71.945 30.2907 71.8807 30.2907H71.1193C71.055 30.2907 71 30.2218 71 30.1413Z" fill="#7E8085"/>
<path d="M72.1282 30.9919C72.0549 30.9919 72 30.923 72 30.831V30.1529C72 30.0609 72.0549 29.9919 72.1282 29.9919C72.2015 29.9919 72.2564 30.0609 72.2564 30.1529V30.831C72.2564 30.923 72.2015 30.9919 72.1282 30.9919Z" fill="#7E8085"/>
<path d="M71 27.9919H70V30.9919H71V27.9919Z" fill="#FF5B01"/>
<path d="M70.118 29.9919H70V33.9919H70.118V29.9919Z" fill="white"/>
<path d="M26.7492 11.9919H27.2508C28.2171 11.9919 29 12.8295 29 13.8633V22.1206C29 23.1544 28.2171 23.9919 27.2508 23.9919H26.7492C25.7829 23.9919 25 23.1544 25 22.1206V13.8633C25 12.8295 25.7829 11.9919 26.7492 11.9919Z" fill="#FF7E24"/>
<path d="M71.9311 7.99194H61.8138L49.6703 7.0639L44.0465 5.11382C44.0052 5.10207 43.9914 5.06683 44.0052 5.03159C44.019 4.99635 44.0603 4.9846 44.1017 4.99635L49.6979 6.94642L61.8138 7.87447H71.9311C71.9311 7.87447 72 7.89796 72 7.93321C72 7.96845 71.9724 7.99194 71.9311 7.99194Z" fill="#FFBC46"/>
<path d="M50 11.9919C49.4464 11.9919 49 11.6326 49 11.187V5.79687C49 5.35128 49.4464 4.99194 50 4.99194C50.5536 4.99194 51 5.35128 51 5.79687V11.187C51 11.6326 50.5536 11.9919 50 11.9919Z" fill="#FF5B01"/>
<path d="M62 10.9919C61.4465 10.9919 61 10.6804 61 10.2941V7.68976C61 7.30347 61.4465 6.99194 62 6.99194C62.5536 6.99194 63 7.30347 63 7.68976V10.2941C63 10.6804 62.5536 10.9919 62 10.9919Z" fill="#FF5B01"/>
<path d="M42 -0.00805664H41V10.9919H42V-0.00805664Z" fill="#2B2E35"/>
<path d="M39.4638 7.68353C39.4638 7.44054 39.4203 7.19755 39.3478 6.99194H44.6812C44.6087 7.21624 44.5652 7.44054 44.5652 7.68353C44.5652 8.20689 44.7391 8.67419 45 8.99194H39C39.2754 8.67419 39.4348 8.20689 39.4348 7.68353H39.4638Z" fill="#7E8085"/>
<path d="M38.2568 7.99194H44.7433C44.8784 7.99194 45 8.20248 45 8.49195C45 8.78142 44.8919 8.99194 44.7433 8.99194H38.2568C38.1216 8.99194 38 8.78142 38 8.49195C38 8.20248 38.1081 7.99194 38.2568 7.99194Z" fill="#2B2E35"/>
<path d="M44.5363 2.30036C44.5363 2.54335 44.5797 2.78634 44.6522 2.99194H39.3188C39.3913 2.78634 39.4348 2.54335 39.4348 2.30036C39.4348 1.77699 39.2609 1.3097 39 0.991943H45C44.7246 1.3097 44.5652 1.77699 44.5652 2.30036H44.5363Z" fill="#7E8085"/>
<path d="M44.7433 1.99194H38.2568C38.1216 1.99194 38 1.78142 38 1.49195C38 1.20248 38.1081 0.991943 38.2568 0.991943H44.7433C44.8784 0.991943 45 1.20248 45 1.49195C45 1.78142 44.8919 1.99194 44.7433 1.99194Z" fill="#2B2E35"/>
<path d="M44.7035 1.99194H39.2965C39.1327 1.99194 39 2.11928 39 2.27637V7.70752C39 7.8646 39.1327 7.99194 39.2965 7.99194H44.7035C44.8673 7.99194 45 7.8646 45 7.70752V2.27637C45 2.11928 44.8673 1.99194 44.7035 1.99194Z" fill="#FFBC46"/>
<path d="M41 1.99194H40V7.99194H41V1.99194Z" fill="#FFBC46"/>
<path d="M72 5.99194H71V12.9919H72V5.99194Z" fill="#7E8085"/>
<path d="M32.5121 7.99194H73V17.9919H31V9.58738C31 8.71844 31.6811 8.00619 32.5121 8.00619V7.99194Z" fill="#FF5B01"/>
<path d="M76 11.3522V25.25C76 26.7554 74.7037 27.9919 73.094 27.9919H68.906C67.3105 27.9919 66 26.7688 66 25.25V7.99194L72.4387 7.99194C74.4046 7.99194 76 9.49732 76 11.3522Z" fill="#FF5B01"/>
<path d="M28 25.9919C26.9025 25.9919 26 25.0162 26 23.7998V12.1841C26 10.9811 26.8903 9.99194 28 9.99194C29.1098 9.99194 30 10.9677 30 12.1841V23.7998C30 25.0028 29.1098 25.9919 28 25.9919Z" fill="#FF5B01"/>
<path d="M29.1781 9.99194H52V32.4029C52 33.2796 51.2877 33.9919 50.411 33.9919H30C28.8904 33.9919 28 33.0878 28 31.9919V11.1837C28 10.5262 28.5342 9.99194 29.1918 9.99194H29.1781Z" fill="#FF5B01"/>
<path d="M34 13.9919H32V14.9919H34V13.9919Z" fill="#FF7E24"/>
<path d="M35.2328 22.9919H36.7672C37.4492 22.9919 38 23.5222 38 24.1788V26.8051C38 27.4616 37.4492 27.9919 36.7672 27.9919H35.2328C34.5508 27.9919 34 27.4616 34 26.8051V24.1788C34 23.5222 34.5508 22.9919 35.2328 22.9919Z" fill="#FF7E24"/>
<path d="M34.8787 15.9919H37.1344C37.6197 15.9919 38 16.4465 38 16.9919V17.9768C38 18.5374 37.6065 18.9919 37.1213 18.9919H34.8655C34.3803 18.9919 34 18.5374 34 17.9919V17.0071C34 16.4465 34.3934 15.9919 34.8787 15.9919Z" fill="#FF7E24"/>
<path d="M28.1418 13.9919H34.0657C35.1269 13.9919 36 14.8513 36 15.9255V32.9919H29.3507C28.0478 32.9919 27 31.9446 27 30.6421V15.1467C27 14.5156 27.5105 14.0054 28.1418 14.0054V13.9919Z" fill="#FF7E24"/>
<path d="M48.3469 34.9919H49C48.7201 31.5668 47.6005 28.9621 45.6545 27.243C42.5222 24.4691 38.4436 25.0291 38.2703 25.0551C38.097 25.0812 37.9771 25.2375 38.0037 25.4068C38.0304 25.5761 38.1903 25.6933 38.3636 25.6672C38.4036 25.6672 42.3223 25.1333 45.228 27.7119C47.0407 29.3138 48.0803 31.7491 48.3602 34.9919H48.3469Z" fill="#FF7E24"/>
<path d="M49 34.9787C48.3696 31.6185 47.0128 29.1614 44.957 27.6473C41.8871 25.3762 38.4061 26.0934 38.2553 26.12C38.0772 26.1598 37.9675 26.3325 38.0086 26.5051C38.0497 26.6778 38.2279 26.784 38.4061 26.7575C38.4335 26.7575 41.7501 26.0801 44.5733 28.1786C46.4646 29.5864 47.7254 31.8708 48.3284 34.9919H49V34.9787Z" fill="#FF7E24"/>
<path d="M46 34.9919C43.461 29.2718 41.6718 22.9972 41.4613 19.9952C41.3824 18.8322 40.9877 17.9938 40.2774 17.4935C39.0276 16.6145 37.3042 17.1554 37.2253 17.1689C37.0542 17.223 36.9622 17.4123 37.0148 17.5746C37.0674 17.7504 37.2384 17.8451 37.4095 17.791C37.4226 17.791 38.9223 17.3312 39.909 18.0208C40.4484 18.3995 40.751 19.0756 40.8167 20.0222C41.0272 23.0243 42.79 29.2448 45.2896 34.9649H45.9868L46 34.9919Z" fill="#FF7E24"/>
<path d="M53.5586 10.9919H70.4414C71.2965 10.9919 72 11.6464 72 12.471V14.5129C72 15.3244 71.3103 15.9919 70.4414 15.9919H53.5586C52.7035 15.9919 52 15.3375 52 14.5129V12.471C52 11.6595 52.6897 10.9919 53.5586 10.9919Z" fill="#FF7E24"/>
</svg>
