<svg width="356" height="239" viewBox="0 0 356 239" fill="none" xmlns="http://www.w3.org/2000/svg">
<g clip-path="url(#clip0_70_3342)">
<path d="M325.336 44.9036C325.67 42.4767 322.247 40.4807 319.679 40.2766C318.454 40.1802 317.179 40.3673 316.017 39.9591C313.5 39.0802 312.497 35.831 310.037 34.7934C308.2 34.0165 306.086 34.7083 304.306 35.6042C302.526 36.5002 300.769 37.6286 298.78 37.7533C297.051 37.8667 295.169 37.2203 293.655 38.0652C292.527 38.6946 291.938 39.9931 290.895 40.7643C289.88 41.5127 288.554 41.6715 287.29 41.7396C286.026 41.8076 284.722 41.8189 283.571 42.3463C282.421 42.8736 281.474 44.0871 281.712 45.3289L325.33 44.898L325.336 44.9036Z" fill="#FAFAFA"/>
<path d="M243.338 28.0057C242.096 21.9101 235.872 17.2661 229.677 17.8104C227.631 17.9919 225.573 18.661 223.566 18.2073C220.574 17.5326 218.669 14.5953 217.547 11.7375C216.424 8.87961 215.682 5.74957 213.63 3.47008C210.796 0.323034 206.074 -0.431124 201.885 0.215297C196.409 1.06585 191.285 4.03145 187.828 8.3636C186.308 10.2632 184.852 12.588 182.471 13.0813C180.646 13.4613 178.809 12.6334 176.967 12.3272C173.118 11.6864 168.975 13.5633 166.923 16.8862C165.115 19.8064 164.774 23.7133 162.105 25.8737C158.976 28.414 154.384 27.2572 150.394 27.8073C146.539 28.3403 142.98 30.6878 140.967 34.022C138.955 37.3505 138.541 41.6032 139.868 45.2606L148.937 46.1736C146.33 44.1039 147.452 39.5562 150.207 37.685C152.962 35.8138 156.538 35.8422 159.866 35.9215C185.22 36.5566 210.586 36.6644 235.94 36.2448C237.811 36.2164 239.812 36.137 241.32 35.037C243.406 33.523 243.848 30.529 243.332 28.0057H243.338Z" fill="#F5F5F5"/>
<path d="M86.4439 51.0444H50.6257V164.593H86.4439V51.0444Z" fill="#F5F5F5"/>
<path d="M86.4382 51.0444H68.532V164.282H86.4382V51.0444Z" fill="#EBEBEB"/>
<path d="M67.3643 39.8965H54.7183V51.0444H67.3643V39.8965Z" fill="#F5F5F5"/>
<path d="M67.3642 39.8965H64.3486V51.0444H67.3642V39.8965Z" fill="#EBEBEB"/>
<path d="M47.6384 51.0442V50.3921H87.4925V51.0442" fill="#D4D4D4"/>
<path d="M60.7266 55.9038H57.6941V62.3H60.7266V55.9038Z" fill="#FAFAFA"/>
<path d="M68.5318 64.8122C68.5318 64.8803 64.5243 64.937 59.5758 64.937C54.6274 64.937 50.6199 64.8803 50.6199 64.8122C50.6199 64.7442 54.6274 64.6875 59.5758 64.6875C64.5243 64.6875 68.5318 64.7442 68.5318 64.8122Z" fill="#D4D4D4"/>
<path d="M78.7916 55.9038H75.759V62.3H78.7916V55.9038Z" fill="#D4D4D4"/>
<path d="M86.597 64.8118C86.597 64.8798 82.5895 64.9365 77.641 64.9365C72.6926 64.9365 68.6851 64.8798 68.6851 64.8118C68.6851 64.7437 72.6926 64.687 77.641 64.687C82.5895 64.687 86.597 64.7437 86.597 64.8118Z" fill="#D4D4D4"/>
<path d="M78.7916 68.5996H75.759V74.9958H78.7916V68.5996Z" fill="#D4D4D4"/>
<path d="M86.597 77.5076C86.597 77.5756 82.5895 77.6323 77.641 77.6323C72.6926 77.6323 68.6851 77.5756 68.6851 77.5076C68.6851 77.4395 72.6926 77.3828 77.641 77.3828C82.5895 77.3828 86.597 77.4395 86.597 77.5076Z" fill="#D4D4D4"/>
<path d="M78.7916 81.6812H75.759V88.0773H78.7916V81.6812Z" fill="#D4D4D4"/>
<path d="M86.597 90.5837C86.597 90.6518 82.5895 90.7085 77.641 90.7085C72.6926 90.7085 68.6851 90.6518 68.6851 90.5837C68.6851 90.5157 72.6926 90.459 77.641 90.459C82.5895 90.459 86.597 90.5157 86.597 90.5837Z" fill="#D4D4D4"/>
<path d="M78.7916 94.7627H75.759V101.159H78.7916V94.7627Z" fill="#D4D4D4"/>
<path d="M86.597 103.665C86.597 103.733 82.5895 103.79 77.641 103.79C72.6926 103.79 68.6851 103.733 68.6851 103.665C68.6851 103.597 72.6926 103.541 77.641 103.541C82.5895 103.541 86.597 103.597 86.597 103.665Z" fill="#D4D4D4"/>
<path d="M78.7916 107.464H75.759V113.861H78.7916V107.464Z" fill="#D4D4D4"/>
<path d="M86.597 116.372C86.597 116.44 82.5895 116.497 77.641 116.497C72.6926 116.497 68.6851 116.44 68.6851 116.372C68.6851 116.304 72.6926 116.248 77.641 116.248C82.5895 116.248 86.597 116.304 86.597 116.372Z" fill="#D4D4D4"/>
<path d="M78.7916 120.223H75.759V126.619H78.7916V120.223Z" fill="#D4D4D4"/>
<path d="M78.7916 133.146H75.759V139.542H78.7916V133.146Z" fill="#D4D4D4"/>
<path d="M86.597 129.125C86.597 129.193 82.5895 129.25 77.641 129.25C72.6926 129.25 68.6851 129.193 68.6851 129.125C68.6851 129.057 72.6926 129 77.641 129C82.5895 129 86.597 129.057 86.597 129.125Z" fill="#D4D4D4"/>
<path d="M60.7266 68.7983H57.6941V75.1945H60.7266V68.7983Z" fill="#FAFAFA"/>
<path d="M68.5318 77.7009C68.5318 77.769 64.5243 77.8257 59.5758 77.8257C54.6274 77.8257 50.6199 77.769 50.6199 77.7009C50.6199 77.6329 54.6274 77.5762 59.5758 77.5762C64.5243 77.5762 68.5318 77.6329 68.5318 77.7009Z" fill="#D4D4D4"/>
<path d="M60.7266 81.687H57.6941V88.0832H60.7266V81.687Z" fill="#FAFAFA"/>
<path d="M68.5318 90.5896C68.5318 90.6576 64.5243 90.7143 59.5758 90.7143C54.6274 90.7143 50.6199 90.6576 50.6199 90.5896C50.6199 90.5215 54.6274 90.4648 59.5758 90.4648C64.5243 90.4648 68.5318 90.5215 68.5318 90.5896Z" fill="#D4D4D4"/>
<path d="M60.7266 94.5757H57.6941V100.972H60.7266V94.5757Z" fill="#FAFAFA"/>
<path d="M68.5318 103.484C68.5318 103.552 64.5243 103.609 59.5758 103.609C54.6274 103.609 50.6199 103.552 50.6199 103.484C50.6199 103.416 54.6274 103.359 59.5758 103.359C64.5243 103.359 68.5318 103.416 68.5318 103.484Z" fill="#D4D4D4"/>
<path d="M60.7266 107.464H57.6941V113.861H60.7266V107.464Z" fill="#FAFAFA"/>
<path d="M68.5318 116.373C68.5318 116.441 64.5243 116.498 59.5758 116.498C54.6274 116.498 50.6199 116.441 50.6199 116.373C50.6199 116.305 54.6274 116.248 59.5758 116.248C64.5243 116.248 68.5318 116.305 68.5318 116.373Z" fill="#D4D4D4"/>
<path d="M60.7266 120.359H57.6941V126.755H60.7266V120.359Z" fill="#FAFAFA"/>
<path d="M68.5318 129.261C68.5318 129.33 64.5243 129.386 59.5758 129.386C54.6274 129.386 50.6199 129.33 50.6199 129.261C50.6199 129.193 54.6274 129.137 59.5758 129.137C64.5243 129.137 68.5318 129.193 68.5318 129.261Z" fill="#D4D4D4"/>
<path d="M60.7266 133.248H57.6941V139.644H60.7266V133.248Z" fill="#FAFAFA"/>
<path d="M122.069 81.1426H86.251V194.692H122.069V81.1426Z" fill="#F5F5F5"/>
<path d="M122.063 81.1426H104.157V194.38H122.063V81.1426Z" fill="#EBEBEB"/>
<path d="M102.99 69.9946H90.3435V81.1426H102.99V69.9946Z" fill="#F5F5F5"/>
<path d="M102.99 69.9946H99.9741V81.1426H102.99V69.9946Z" fill="#EBEBEB"/>
<path d="M83.2695 81.1423V80.4902H123.118V81.1423" fill="#D4D4D4"/>
<path d="M96.3521 86.002H93.3196V92.3981H96.3521V86.002Z" fill="#FAFAFA"/>
<path d="M104.157 94.9045C104.157 94.9726 100.15 95.0293 95.2013 95.0293C90.2529 95.0293 86.2454 94.9726 86.2454 94.9045C86.2454 94.8365 90.2529 94.7798 95.2013 94.7798C100.15 94.7798 104.157 94.8365 104.157 94.9045Z" fill="#D4D4D4"/>
<path d="M114.417 86.002H111.384V92.3981H114.417V86.002Z" fill="#D4D4D4"/>
<path d="M122.222 94.9045C122.222 94.9726 118.215 95.0293 113.266 95.0293C108.318 95.0293 104.31 94.9726 104.31 94.9045C104.31 94.8365 108.318 94.7798 113.266 94.7798C118.215 94.7798 122.222 94.8365 122.222 94.9045Z" fill="#D4D4D4"/>
<path d="M114.417 98.6978H111.384V105.094H114.417V98.6978Z" fill="#D4D4D4"/>
<path d="M122.222 107.6C122.222 107.668 118.215 107.725 113.266 107.725C108.318 107.725 104.31 107.668 104.31 107.6C104.31 107.532 108.318 107.476 113.266 107.476C118.215 107.476 122.222 107.532 122.222 107.6Z" fill="#D4D4D4"/>
<path d="M114.417 111.779H111.384V118.175H114.417V111.779Z" fill="#D4D4D4"/>
<path d="M122.222 120.682C122.222 120.75 118.215 120.807 113.266 120.807C108.318 120.807 104.31 120.75 104.31 120.682C104.31 120.614 108.318 120.557 113.266 120.557C118.215 120.557 122.222 120.614 122.222 120.682Z" fill="#D4D4D4"/>
<path d="M114.417 124.855H111.384V131.252H114.417V124.855Z" fill="#D4D4D4"/>
<path d="M122.222 133.763C122.222 133.831 118.215 133.888 113.266 133.888C108.318 133.888 104.31 133.831 104.31 133.763C104.31 133.695 108.318 133.639 113.266 133.639C118.215 133.639 122.222 133.695 122.222 133.763Z" fill="#D4D4D4"/>
<path d="M114.417 137.562H111.384V143.959H114.417V137.562Z" fill="#D4D4D4"/>
<path d="M122.222 146.465C122.222 146.533 118.215 146.59 113.266 146.59C108.318 146.59 104.31 146.533 104.31 146.465C104.31 146.397 108.318 146.34 113.266 146.34C118.215 146.34 122.222 146.397 122.222 146.465Z" fill="#D4D4D4"/>
<path d="M114.417 150.321H111.384V156.717H114.417V150.321Z" fill="#D4D4D4"/>
<path d="M114.417 163.244H111.384V169.64H114.417V163.244Z" fill="#D4D4D4"/>
<path d="M122.222 159.223C122.222 159.291 118.215 159.348 113.266 159.348C108.318 159.348 104.31 159.291 104.31 159.223C104.31 159.155 108.318 159.099 113.266 159.099C118.215 159.099 122.222 159.155 122.222 159.223Z" fill="#D4D4D4"/>
<path d="M96.3521 98.8906H93.3196V105.287H96.3521V98.8906Z" fill="#FAFAFA"/>
<path d="M104.157 107.799C104.157 107.867 100.15 107.924 95.2013 107.924C90.2529 107.924 86.2454 107.867 86.2454 107.799C86.2454 107.731 90.2529 107.674 95.2013 107.674C100.15 107.674 104.157 107.731 104.157 107.799Z" fill="#D4D4D4"/>
<path d="M96.3521 111.779H93.3196V118.175H96.3521V111.779Z" fill="#FAFAFA"/>
<path d="M104.157 120.688C104.157 120.756 100.15 120.812 95.2013 120.812C90.2529 120.812 86.2454 120.756 86.2454 120.688C86.2454 120.62 90.2529 120.563 95.2013 120.563C100.15 120.563 104.157 120.62 104.157 120.688Z" fill="#D4D4D4"/>
<path d="M96.3521 124.674H93.3196V131.07H96.3521V124.674Z" fill="#FAFAFA"/>
<path d="M104.157 133.576C104.157 133.644 100.15 133.701 95.2013 133.701C90.2529 133.701 86.2454 133.644 86.2454 133.576C86.2454 133.508 90.2529 133.452 95.2013 133.452C100.15 133.452 104.157 133.508 104.157 133.576Z" fill="#D4D4D4"/>
<path d="M96.3521 137.562H93.3196V143.959H96.3521V137.562Z" fill="#FAFAFA"/>
<path d="M104.157 146.465C104.157 146.533 100.15 146.59 95.2013 146.59C90.2529 146.59 86.2454 146.533 86.2454 146.465C86.2454 146.397 90.2529 146.34 95.2013 146.34C100.15 146.34 104.157 146.397 104.157 146.465Z" fill="#D4D4D4"/>
<path d="M96.3521 150.451H93.3196V156.847H96.3521V150.451Z" fill="#FAFAFA"/>
<path d="M104.157 159.36C104.157 159.428 100.15 159.484 95.2013 159.484C90.2529 159.484 86.2454 159.428 86.2454 159.36C86.2454 159.292 90.2529 159.235 95.2013 159.235C100.15 159.235 104.157 159.292 104.157 159.36Z" fill="#D4D4D4"/>
<path d="M96.3521 163.34H93.3196V169.736H96.3521V163.34Z" fill="#FAFAFA"/>
<path d="M66.3555 189.98H13.6513L13.4246 106.654H66.1287L66.3555 189.98Z" fill="#EBEBEB"/>
<path d="M66.1287 106.654H39.7766V189.98H66.1287V106.654Z" fill="#D4D4D4"/>
<path d="M38.0476 90.2495H19.4385V106.654H38.0476V90.2495Z" fill="#EBEBEB"/>
<path d="M38.0533 90.2495H33.615V106.654H38.0533V90.2495Z" fill="#D4D4D4"/>
<path d="M67.6704 105.696H9.03149V106.654H67.6704V105.696Z" fill="#D4D4D4"/>
<path d="M28.2869 113.804H23.8259V123.217H28.2869V113.804Z" fill="white"/>
<path d="M39.7766 126.908C39.7766 127.011 33.8759 127.09 26.6034 127.09C19.331 127.09 13.4246 127.011 13.4246 126.908C13.4246 126.806 19.3253 126.727 26.6034 126.727C33.8816 126.727 39.7766 126.806 39.7766 126.908Z" fill="#D4D4D4"/>
<path d="M54.8711 113.804H50.4102V123.217H54.8711V113.804Z" fill="#F5F5F5"/>
<path d="M66.3553 126.908C66.3553 127.011 60.4545 127.09 53.182 127.09C45.9096 127.09 40.0032 127.011 40.0032 126.908C40.0032 126.806 45.9039 126.727 53.182 126.727C60.4602 126.727 66.3553 126.806 66.3553 126.908Z" fill="#EBEBEB"/>
<path d="M54.8711 132.488H50.4102V141.901H54.8711V132.488Z" fill="#F5F5F5"/>
<path d="M66.3553 145.592C66.3553 145.694 60.4545 145.774 53.182 145.774C45.9096 145.774 40.0032 145.694 40.0032 145.592C40.0032 145.49 45.9039 145.411 53.182 145.411C60.4602 145.411 66.3553 145.49 66.3553 145.592Z" fill="#EBEBEB"/>
<path d="M54.8711 151.739H50.4102V161.152H54.8711V151.739Z" fill="#F5F5F5"/>
<path d="M66.3553 164.837C66.3553 164.934 60.4545 165.019 53.182 165.019C45.9096 165.019 40.0032 164.939 40.0032 164.837C40.0032 164.735 45.9039 164.656 53.182 164.656C60.4602 164.656 66.3553 164.735 66.3553 164.837Z" fill="#EBEBEB"/>
<path d="M54.8711 170.984H50.4102V180.397H54.8711V170.984Z" fill="#F5F5F5"/>
<path d="M66.3553 184.088C66.3553 184.19 60.4545 184.27 53.182 184.27C45.9096 184.27 40.0032 184.19 40.0032 184.088C40.0032 183.986 45.9039 183.907 53.182 183.907C60.4602 183.907 66.3553 183.986 66.3553 184.088Z" fill="#EBEBEB"/>
<path d="M28.2869 132.777H23.8259V142.19H28.2869V132.777Z" fill="white"/>
<path d="M39.7766 145.876C39.7766 145.978 33.8759 146.057 26.6034 146.057C19.331 146.057 13.4246 145.978 13.4246 145.876C13.4246 145.774 19.3253 145.694 26.6034 145.694C33.8816 145.694 39.7766 145.774 39.7766 145.876Z" fill="#D4D4D4"/>
<path d="M28.2869 151.745H23.8259V161.157H28.2869V151.745Z" fill="white"/>
<path d="M39.7766 164.849C39.7766 164.945 33.8759 165.03 26.6034 165.03C19.331 165.03 13.4246 164.951 13.4246 164.849C13.4246 164.747 19.3253 164.667 26.6034 164.667C33.8816 164.667 39.7766 164.747 39.7766 164.849Z" fill="#D4D4D4"/>
<path d="M28.2869 170.712H23.8259V180.125H28.2869V170.712Z" fill="white"/>
<path d="M39.7766 183.816C39.7766 183.918 33.8759 183.998 26.6034 183.998C19.331 183.998 13.4246 183.918 13.4246 183.816C13.4246 183.714 19.3253 183.635 26.6034 183.635C33.8816 183.635 39.7766 183.714 39.7766 183.816Z" fill="#D4D4D4"/>
<path d="M219.593 209.559H166.889L166.662 126.233H219.366L219.593 209.559Z" fill="#EBEBEB"/>
<path d="M219.366 126.233H193.014V209.559H219.366V126.233Z" fill="#D4D4D4"/>
<path d="M191.291 109.829H172.682V126.233H191.291V109.829Z" fill="#EBEBEB"/>
<path d="M191.291 109.829H186.853V126.233H191.291V109.829Z" fill="#D4D4D4"/>
<path d="M220.908 125.275H162.269V126.234H220.908V125.275Z" fill="#D4D4D4"/>
<path d="M181.525 133.39H177.064V142.802H181.525V133.39Z" fill="white"/>
<path d="M193.014 146.493C193.014 146.596 187.114 146.675 179.841 146.675C172.569 146.675 166.662 146.596 166.662 146.493C166.662 146.391 172.563 146.312 179.841 146.312C187.119 146.312 193.014 146.391 193.014 146.493Z" fill="#D4D4D4"/>
<path d="M208.109 133.39H203.648V142.802H208.109V133.39Z" fill="#F5F5F5"/>
<path d="M219.593 146.494C219.593 146.596 213.692 146.675 206.42 146.675C199.147 146.675 193.241 146.596 193.241 146.494C193.241 146.392 199.142 146.312 206.42 146.312C213.698 146.312 219.593 146.392 219.593 146.494Z" fill="#EBEBEB"/>
<path d="M208.109 152.073H203.648V161.486H208.109V152.073Z" fill="#F5F5F5"/>
<path d="M219.593 165.172C219.593 165.274 213.692 165.353 206.42 165.353C199.147 165.353 193.241 165.274 193.241 165.172C193.241 165.07 199.142 164.99 206.42 164.99C213.698 164.99 219.593 165.07 219.593 165.172Z" fill="#EBEBEB"/>
<path d="M208.109 171.318H203.648V180.731H208.109V171.318Z" fill="#F5F5F5"/>
<path d="M219.593 184.423C219.593 184.519 213.692 184.604 206.42 184.604C199.147 184.604 193.241 184.525 193.241 184.423C193.241 184.321 199.142 184.241 206.42 184.241C213.698 184.241 219.593 184.321 219.593 184.423Z" fill="#EBEBEB"/>
<path d="M208.109 190.563H203.648V199.976H208.109V190.563Z" fill="#F5F5F5"/>
<path d="M219.593 203.668C219.593 203.77 213.692 203.849 206.42 203.849C199.147 203.849 193.241 203.77 193.241 203.668C193.241 203.566 199.142 203.486 206.42 203.486C213.698 203.486 219.593 203.566 219.593 203.668Z" fill="#EBEBEB"/>
<path d="M181.525 152.357H177.064V161.77H181.525V152.357Z" fill="white"/>
<path d="M193.014 165.461C193.014 165.563 187.114 165.643 179.841 165.643C172.569 165.643 166.662 165.563 166.662 165.461C166.662 165.359 172.563 165.28 179.841 165.28C187.119 165.28 193.014 165.359 193.014 165.461Z" fill="#D4D4D4"/>
<path d="M181.525 171.324H177.064V180.737H181.525V171.324Z" fill="white"/>
<path d="M193.014 184.429C193.014 184.531 187.114 184.61 179.841 184.61C172.569 184.61 166.662 184.531 166.662 184.429C166.662 184.326 172.563 184.247 179.841 184.247C187.119 184.247 193.014 184.326 193.014 184.429Z" fill="#D4D4D4"/>
<path d="M181.525 190.292H177.064V199.704H181.525V190.292Z" fill="white"/>
<path d="M193.014 203.396C193.014 203.498 187.114 203.577 179.841 203.577C172.569 203.577 166.662 203.498 166.662 203.396C166.662 203.294 172.563 203.214 179.841 203.214C187.119 203.214 193.014 203.294 193.014 203.396Z" fill="#D4D4D4"/>
<path d="M333.64 125.343H297.822V238.892H333.64V125.343Z" fill="#F5F5F5"/>
<path d="M333.634 125.343H315.728V238.58H333.634V125.343Z" fill="#EBEBEB"/>
<path d="M314.554 114.195H301.908V125.343H314.554V114.195Z" fill="#F5F5F5"/>
<path d="M314.56 114.195H311.545V125.343H314.56V114.195Z" fill="#EBEBEB"/>
<path d="M294.834 125.343V124.691H334.689V125.343" fill="#D4D4D4"/>
<path d="M307.923 130.208H304.89V136.605H307.923V130.208Z" fill="#FAFAFA"/>
<path d="M315.728 139.111C315.728 139.179 311.72 139.236 306.772 139.236C301.823 139.236 297.816 139.179 297.816 139.111C297.816 139.043 301.823 138.986 306.772 138.986C311.72 138.986 315.728 139.043 315.728 139.111Z" fill="#D4D4D4"/>
<path d="M325.988 130.208H322.955V136.605H325.988V130.208Z" fill="#D4D4D4"/>
<path d="M333.793 139.111C333.793 139.179 329.786 139.236 324.837 139.236C319.889 139.236 315.881 139.179 315.881 139.111C315.881 139.043 319.889 138.986 324.837 138.986C329.786 138.986 333.793 139.043 333.793 139.111Z" fill="#D4D4D4"/>
<path d="M325.988 142.904H322.955V149.3H325.988V142.904Z" fill="#D4D4D4"/>
<path d="M333.793 151.807C333.793 151.875 329.786 151.932 324.837 151.932C319.889 151.932 315.881 151.875 315.881 151.807C315.881 151.739 319.889 151.682 324.837 151.682C329.786 151.682 333.793 151.739 333.793 151.807Z" fill="#D4D4D4"/>
<path d="M325.988 155.98H322.955V162.376H325.988V155.98Z" fill="#D4D4D4"/>
<path d="M333.793 164.888C333.793 164.956 329.786 165.013 324.837 165.013C319.889 165.013 315.881 164.956 315.881 164.888C315.881 164.82 319.889 164.763 324.837 164.763C329.786 164.763 333.793 164.82 333.793 164.888Z" fill="#D4D4D4"/>
<path d="M325.988 169.062H322.955V175.458H325.988V169.062Z" fill="#D4D4D4"/>
<path d="M333.793 177.964C333.793 178.032 329.786 178.089 324.837 178.089C319.889 178.089 315.881 178.032 315.881 177.964C315.881 177.896 319.889 177.839 324.837 177.839C329.786 177.839 333.793 177.896 333.793 177.964Z" fill="#D4D4D4"/>
<path d="M325.988 181.769H322.955V188.165H325.988V181.769Z" fill="#D4D4D4"/>
<path d="M333.793 190.672C333.793 190.74 329.786 190.796 324.837 190.796C319.889 190.796 315.881 190.74 315.881 190.672C315.881 190.604 319.889 190.547 324.837 190.547C329.786 190.547 333.793 190.604 333.793 190.672Z" fill="#D4D4D4"/>
<path d="M325.988 194.521H322.955V200.918H325.988V194.521Z" fill="#D4D4D4"/>
<path d="M325.988 207.444H322.955V213.841H325.988V207.444Z" fill="#D4D4D4"/>
<path d="M333.793 203.429C333.793 203.497 329.786 203.554 324.837 203.554C319.889 203.554 315.881 203.497 315.881 203.429C315.881 203.361 319.889 203.305 324.837 203.305C329.786 203.305 333.793 203.361 333.793 203.429Z" fill="#D4D4D4"/>
<path d="M307.923 143.097H304.89V149.493H307.923V143.097Z" fill="#FAFAFA"/>
<path d="M315.728 152C315.728 152.068 311.72 152.124 306.772 152.124C301.823 152.124 297.816 152.068 297.816 152C297.816 151.932 301.823 151.875 306.772 151.875C311.72 151.875 315.728 151.932 315.728 152Z" fill="#D4D4D4"/>
<path d="M307.923 155.986H304.89V162.382H307.923V155.986Z" fill="#FAFAFA"/>
<path d="M315.728 164.888C315.728 164.956 311.72 165.013 306.772 165.013C301.823 165.013 297.816 164.956 297.816 164.888C297.816 164.82 301.823 164.764 306.772 164.764C311.72 164.764 315.728 164.82 315.728 164.888Z" fill="#D4D4D4"/>
<path d="M307.923 168.875H304.89V175.271H307.923V168.875Z" fill="#FAFAFA"/>
<path d="M315.728 177.783C315.728 177.851 311.72 177.908 306.772 177.908C301.823 177.908 297.816 177.851 297.816 177.783C297.816 177.715 301.823 177.658 306.772 177.658C311.72 177.658 315.728 177.715 315.728 177.783Z" fill="#D4D4D4"/>
<path d="M307.923 181.769H304.89V188.165H307.923V181.769Z" fill="#FAFAFA"/>
<path d="M315.728 190.672C315.728 190.74 311.72 190.796 306.772 190.796C301.823 190.796 297.816 190.74 297.816 190.672C297.816 190.604 301.823 190.547 306.772 190.547C311.72 190.547 315.728 190.604 315.728 190.672Z" fill="#D4D4D4"/>
<path d="M307.923 194.658H304.89V201.054H307.923V194.658Z" fill="#FAFAFA"/>
<path d="M315.728 203.56C315.728 203.628 311.72 203.685 306.772 203.685C301.823 203.685 297.816 203.628 297.816 203.56C297.816 203.492 301.823 203.436 306.772 203.436C311.72 203.436 315.728 203.492 315.728 203.56Z" fill="#D4D4D4"/>
<path d="M307.923 207.546H304.89V213.943H307.923V207.546Z" fill="#FAFAFA"/>
<path d="M358.779 154.965H332.336V238.79H358.779V154.965Z" fill="#F5F5F5"/>
<path d="M358.773 154.965H345.555V238.557H358.773V154.965Z" fill="#EBEBEB"/>
<path d="M344.693 146.737H335.357V154.965H344.693V146.737Z" fill="#F5F5F5"/>
<path d="M344.693 146.737H342.466V154.965H344.693V146.737Z" fill="#EBEBEB"/>
<path d="M330.131 154.965V154.489H359.55V154.965" fill="#D4D4D4"/>
<path d="M339.796 158.554H337.557V163.278H339.796V158.554Z" fill="#FAFAFA"/>
<path d="M345.555 165.132C345.555 165.183 342.596 165.222 338.945 165.222C335.295 165.222 332.336 165.183 332.336 165.132C332.336 165.081 335.295 165.041 338.945 165.041C342.596 165.041 345.555 165.081 345.555 165.132Z" fill="#D4D4D4"/>
<path d="M353.128 158.554H350.889V163.278H353.128V158.554Z" fill="#D4D4D4"/>
<path d="M358.892 165.132C358.892 165.183 355.933 165.222 352.283 165.222C348.633 165.222 345.674 165.183 345.674 165.132C345.674 165.081 348.633 165.041 352.283 165.041C355.933 165.041 358.892 165.081 358.892 165.132Z" fill="#D4D4D4"/>
<path d="M353.128 167.927H350.889V172.651H353.128V167.927Z" fill="#D4D4D4"/>
<path d="M358.892 174.505C358.892 174.556 355.933 174.596 352.283 174.596C348.633 174.596 345.674 174.556 345.674 174.505C345.674 174.454 348.633 174.414 352.283 174.414C355.933 174.414 358.892 174.454 358.892 174.505Z" fill="#D4D4D4"/>
<path d="M353.128 177.584H350.889V182.307H353.128V177.584Z" fill="#D4D4D4"/>
<path d="M358.892 184.156C358.892 184.207 355.933 184.247 352.283 184.247C348.633 184.247 345.674 184.207 345.674 184.156C345.674 184.105 348.633 184.065 352.283 184.065C355.933 184.065 358.892 184.105 358.892 184.156Z" fill="#D4D4D4"/>
<path d="M353.128 187.241H350.889V191.964H353.128V187.241Z" fill="#D4D4D4"/>
<path d="M358.892 193.813C358.892 193.864 355.933 193.904 352.283 193.904C348.633 193.904 345.674 193.864 345.674 193.813C345.674 193.762 348.633 193.722 352.283 193.722C355.933 193.722 358.892 193.762 358.892 193.813Z" fill="#D4D4D4"/>
<path d="M353.128 196.62H350.889V201.343H353.128V196.62Z" fill="#D4D4D4"/>
<path d="M358.892 203.192C358.892 203.243 355.933 203.283 352.283 203.283C348.633 203.283 345.674 203.243 345.674 203.192C345.674 203.141 348.633 203.101 352.283 203.101C355.933 203.101 358.892 203.141 358.892 203.192Z" fill="#D4D4D4"/>
<path d="M353.128 206.038H350.889V210.762H353.128V206.038Z" fill="#D4D4D4"/>
<path d="M353.128 215.576H350.889V220.299H353.128V215.576Z" fill="#D4D4D4"/>
<path d="M358.892 212.61C358.892 212.661 355.933 212.701 352.283 212.701C348.633 212.701 345.674 212.661 345.674 212.61C345.674 212.559 348.633 212.52 352.283 212.52C355.933 212.52 358.892 212.559 358.892 212.61Z" fill="#D4D4D4"/>
<path d="M339.796 168.075H337.557V172.798H339.796V168.075Z" fill="#FAFAFA"/>
<path d="M345.555 174.647C345.555 174.698 342.596 174.738 338.945 174.738C335.295 174.738 332.336 174.698 332.336 174.647C332.336 174.596 335.295 174.556 338.945 174.556C342.596 174.556 345.555 174.596 345.555 174.647Z" fill="#D4D4D4"/>
<path d="M339.796 177.59H337.557V182.313H339.796V177.59Z" fill="#FAFAFA"/>
<path d="M345.555 184.162C345.555 184.213 342.596 184.252 338.945 184.252C335.295 184.252 332.336 184.213 332.336 184.162C332.336 184.11 335.295 184.071 338.945 184.071C342.596 184.071 345.555 184.11 345.555 184.162Z" fill="#D4D4D4"/>
<path d="M339.796 187.104H337.557V191.828H339.796V187.104Z" fill="#FAFAFA"/>
<path d="M345.555 193.677C345.555 193.728 342.596 193.767 338.945 193.767C335.295 193.767 332.336 193.728 332.336 193.677C332.336 193.626 335.295 193.586 338.945 193.586C342.596 193.586 345.555 193.626 345.555 193.677Z" fill="#D4D4D4"/>
<path d="M339.796 196.62H337.557V201.343H339.796V196.62Z" fill="#FAFAFA"/>
<path d="M345.555 203.191C345.555 203.242 342.596 203.282 338.945 203.282C335.295 203.282 332.336 203.242 332.336 203.191C332.336 203.14 335.295 203.101 338.945 203.101C342.596 203.101 345.555 203.14 345.555 203.191Z" fill="#D4D4D4"/>
<path d="M339.796 206.134H337.557V210.858H339.796V206.134Z" fill="#FAFAFA"/>
<path d="M345.555 212.706C345.555 212.757 342.596 212.797 338.945 212.797C335.295 212.797 332.336 212.757 332.336 212.706C332.336 212.655 335.295 212.616 338.945 212.616C342.596 212.616 345.555 212.655 345.555 212.706Z" fill="#D4D4D4"/>
<path d="M339.796 215.649H337.557V220.373H339.796V215.649Z" fill="#FAFAFA"/>
<path d="M360.026 85.9568C360.513 82.4072 355.508 79.4926 351.75 79.1864C349.959 79.039 348.094 79.3169 346.394 78.7215C342.715 77.44 341.241 72.6825 337.653 71.1686C334.966 70.0345 331.877 71.0438 329.275 72.3537C326.673 73.6635 324.1 75.3136 321.192 75.5007C318.664 75.6651 315.915 74.7239 313.704 75.96C312.055 76.8786 311.193 78.7838 309.674 79.9009C308.189 80.9953 306.245 81.2278 304.403 81.3298C302.555 81.4319 300.65 81.4489 298.967 82.2201C297.289 82.9913 295.894 84.7661 296.246 86.5806L360.032 85.9512L360.026 85.9568Z" fill="#EBEBEB"/>
<path d="M250.61 78.1714C251.035 75.0867 246.682 72.5464 243.411 72.2855C241.853 72.1608 240.232 72.3989 238.752 71.8829C235.549 70.7659 234.274 66.6265 231.145 65.311C228.81 64.3243 226.123 65.2032 223.856 66.343C221.594 67.4827 219.355 68.9173 216.821 69.0818C214.622 69.2235 212.23 68.407 210.308 69.4844C208.874 70.2839 208.12 71.9396 206.8 72.9149C205.507 73.8676 203.818 74.0717 202.214 74.1567C200.61 74.2418 198.949 74.2588 197.487 74.9279C196.024 75.597 194.817 77.145 195.117 78.7214L250.605 78.1714H250.61Z" fill="#F5F5F5"/>
<g opacity="0.3">
<path d="M380.5 238.853C380.5 238.932 289.608 239 177.511 239C65.4144 239 -25.5 238.932 -25.5 238.853C-25.5 238.773 65.3747 238.705 177.511 238.705C289.648 238.705 380.5 238.773 380.5 238.853Z" fill="black"/>
</g>
<path d="M224.78 173.02V113.101H228.963V104.731H287.528V113.101H291.388V173.02H224.78Z" fill="#FF5B01"/>
<path d="M289.523 113.129C289.523 113.209 275.029 113.277 257.157 113.277C239.285 113.277 224.785 113.209 224.785 113.129C224.785 113.05 239.273 112.982 257.157 112.982C275.041 112.982 289.523 113.05 289.523 113.129Z" fill="#263238"/>
<path d="M285.629 117.082H230.686V123.16H285.629V117.082Z" fill="white"/>
<path d="M235.43 123.16C235.351 123.16 235.283 121.799 235.283 120.121C235.283 118.442 235.351 117.082 235.43 117.082C235.51 117.082 235.578 118.442 235.578 120.121C235.578 121.799 235.51 123.16 235.43 123.16Z" fill="#D4D4D4"/>
<path d="M240.317 123.16C240.237 123.16 240.169 121.799 240.169 120.121C240.169 118.442 240.237 117.082 240.317 117.082C240.396 117.082 240.464 118.442 240.464 120.121C240.464 121.799 240.396 123.16 240.317 123.16Z" fill="#D4D4D4"/>
<path d="M245.208 123.16C245.129 123.16 245.061 121.799 245.061 120.121C245.061 118.442 245.129 117.082 245.208 117.082C245.288 117.082 245.356 118.442 245.356 120.121C245.356 121.799 245.288 123.16 245.208 123.16Z" fill="#D4D4D4"/>
<path d="M250.1 123.16C250.021 123.16 249.953 121.799 249.953 120.121C249.953 118.442 250.021 117.082 250.1 117.082C250.179 117.082 250.247 118.442 250.247 120.121C250.247 121.799 250.179 123.16 250.1 123.16Z" fill="#D4D4D4"/>
<path d="M254.992 123.16C254.913 123.16 254.844 121.799 254.844 120.121C254.844 118.442 254.913 117.082 254.992 117.082C255.071 117.082 255.139 118.442 255.139 120.121C255.139 121.799 255.071 123.16 254.992 123.16Z" fill="#D4D4D4"/>
<path d="M259.878 123.16C259.798 123.16 259.73 121.799 259.73 120.121C259.73 118.442 259.798 117.082 259.878 117.082C259.957 117.082 260.025 118.442 260.025 120.121C260.025 121.799 259.957 123.16 259.878 123.16Z" fill="#D4D4D4"/>
<path d="M264.77 123.16C264.69 123.16 264.622 121.799 264.622 120.121C264.622 118.442 264.69 117.082 264.77 117.082C264.849 117.082 264.917 118.442 264.917 120.121C264.917 121.799 264.849 123.16 264.77 123.16Z" fill="#D4D4D4"/>
<path d="M269.662 123.16C269.582 123.16 269.514 121.799 269.514 120.121C269.514 118.442 269.582 117.082 269.662 117.082C269.741 117.082 269.809 118.442 269.809 120.121C269.809 121.799 269.741 123.16 269.662 123.16Z" fill="#D4D4D4"/>
<path d="M274.553 123.16C274.474 123.16 274.406 121.799 274.406 120.121C274.406 118.442 274.474 117.082 274.553 117.082C274.633 117.082 274.701 118.442 274.701 120.121C274.701 121.799 274.633 123.16 274.553 123.16Z" fill="#D4D4D4"/>
<path d="M279.439 123.16C279.36 123.16 279.292 121.799 279.292 120.121C279.292 118.442 279.36 117.082 279.439 117.082C279.519 117.082 279.587 118.442 279.587 120.121C279.587 121.799 279.519 123.16 279.439 123.16Z" fill="#D4D4D4"/>
<path d="M285.629 127.605H230.686V133.684H285.629V127.605Z" fill="white"/>
<path d="M235.43 133.69C235.351 133.69 235.283 132.329 235.283 130.651C235.283 128.972 235.351 127.611 235.43 127.611C235.51 127.611 235.578 128.972 235.578 130.651C235.578 132.329 235.51 133.69 235.43 133.69Z" fill="#D4D4D4"/>
<path d="M240.317 133.69C240.237 133.69 240.169 132.329 240.169 130.651C240.169 128.972 240.237 127.611 240.317 127.611C240.396 127.611 240.464 128.972 240.464 130.651C240.464 132.329 240.396 133.69 240.317 133.69Z" fill="#D4D4D4"/>
<path d="M245.208 133.69C245.129 133.69 245.061 132.329 245.061 130.651C245.061 128.972 245.129 127.611 245.208 127.611C245.288 127.611 245.356 128.972 245.356 130.651C245.356 132.329 245.288 133.69 245.208 133.69Z" fill="#D4D4D4"/>
<path d="M250.1 133.69C250.021 133.69 249.953 132.329 249.953 130.651C249.953 128.972 250.021 127.611 250.1 127.611C250.179 127.611 250.247 128.972 250.247 130.651C250.247 132.329 250.179 133.69 250.1 133.69Z" fill="#D4D4D4"/>
<path d="M254.992 133.69C254.913 133.69 254.844 132.329 254.844 130.651C254.844 128.972 254.913 127.611 254.992 127.611C255.071 127.611 255.139 128.972 255.139 130.651C255.139 132.329 255.071 133.69 254.992 133.69Z" fill="#D4D4D4"/>
<path d="M259.878 133.69C259.798 133.69 259.73 132.329 259.73 130.651C259.73 128.972 259.798 127.611 259.878 127.611C259.957 127.611 260.025 128.972 260.025 130.651C260.025 132.329 259.957 133.69 259.878 133.69Z" fill="#D4D4D4"/>
<path d="M264.77 133.69C264.69 133.69 264.622 132.329 264.622 130.651C264.622 128.972 264.69 127.611 264.77 127.611C264.849 127.611 264.917 128.972 264.917 130.651C264.917 132.329 264.849 133.69 264.77 133.69Z" fill="#D4D4D4"/>
<path d="M269.662 133.69C269.582 133.69 269.514 132.329 269.514 130.651C269.514 128.972 269.582 127.611 269.662 127.611C269.741 127.611 269.809 128.972 269.809 130.651C269.809 132.329 269.741 133.69 269.662 133.69Z" fill="#D4D4D4"/>
<path d="M274.553 133.69C274.474 133.69 274.406 132.329 274.406 130.651C274.406 128.972 274.474 127.611 274.553 127.611C274.633 127.611 274.701 128.972 274.701 130.651C274.701 132.329 274.633 133.69 274.553 133.69Z" fill="#D4D4D4"/>
<path d="M279.439 133.69C279.36 133.69 279.292 132.329 279.292 130.651C279.292 128.972 279.36 127.611 279.439 127.611C279.519 127.611 279.587 128.972 279.587 130.651C279.587 132.329 279.519 133.69 279.439 133.69Z" fill="#D4D4D4"/>
<path d="M285.629 138.136H230.686V144.214H285.629V138.136Z" fill="white"/>
<path d="M235.43 144.214C235.351 144.214 235.283 142.853 235.283 141.175C235.283 139.497 235.351 138.136 235.43 138.136C235.51 138.136 235.578 139.497 235.578 141.175C235.578 142.853 235.51 144.214 235.43 144.214Z" fill="#D4D4D4"/>
<path d="M240.317 144.214C240.237 144.214 240.169 142.853 240.169 141.175C240.169 139.497 240.237 138.136 240.317 138.136C240.396 138.136 240.464 139.497 240.464 141.175C240.464 142.853 240.396 144.214 240.317 144.214Z" fill="#D4D4D4"/>
<path d="M245.208 144.214C245.129 144.214 245.061 142.853 245.061 141.175C245.061 139.497 245.129 138.136 245.208 138.136C245.288 138.136 245.356 139.497 245.356 141.175C245.356 142.853 245.288 144.214 245.208 144.214Z" fill="#D4D4D4"/>
<path d="M250.1 144.214C250.021 144.214 249.953 142.853 249.953 141.175C249.953 139.497 250.021 138.136 250.1 138.136C250.179 138.136 250.247 139.497 250.247 141.175C250.247 142.853 250.179 144.214 250.1 144.214Z" fill="#D4D4D4"/>
<path d="M254.992 144.214C254.913 144.214 254.844 142.853 254.844 141.175C254.844 139.497 254.913 138.136 254.992 138.136C255.071 138.136 255.139 139.497 255.139 141.175C255.139 142.853 255.071 144.214 254.992 144.214Z" fill="#D4D4D4"/>
<path d="M259.878 144.214C259.798 144.214 259.73 142.853 259.73 141.175C259.73 139.497 259.798 138.136 259.878 138.136C259.957 138.136 260.025 139.497 260.025 141.175C260.025 142.853 259.957 144.214 259.878 144.214Z" fill="#D4D4D4"/>
<path d="M264.77 144.214C264.69 144.214 264.622 142.853 264.622 141.175C264.622 139.497 264.69 138.136 264.77 138.136C264.849 138.136 264.917 139.497 264.917 141.175C264.917 142.853 264.849 144.214 264.77 144.214Z" fill="#D4D4D4"/>
<path d="M269.662 144.214C269.582 144.214 269.514 142.853 269.514 141.175C269.514 139.497 269.582 138.136 269.662 138.136C269.741 138.136 269.809 139.497 269.809 141.175C269.809 142.853 269.741 144.214 269.662 144.214Z" fill="#D4D4D4"/>
<path d="M274.553 144.214C274.474 144.214 274.406 142.853 274.406 141.175C274.406 139.497 274.474 138.136 274.553 138.136C274.633 138.136 274.701 139.497 274.701 141.175C274.701 142.853 274.633 144.214 274.553 144.214Z" fill="#D4D4D4"/>
<path d="M279.439 144.214C279.36 144.214 279.292 142.853 279.292 141.175C279.292 139.497 279.36 138.136 279.439 138.136C279.519 138.136 279.587 139.497 279.587 141.175C279.587 142.853 279.519 144.214 279.439 144.214Z" fill="#D4D4D4"/>
<path d="M285.629 148.66H230.686V154.738H285.629V148.66Z" fill="white"/>
<path d="M235.43 154.744C235.351 154.744 235.283 153.383 235.283 151.705C235.283 150.026 235.351 148.666 235.43 148.666C235.51 148.666 235.578 150.026 235.578 151.705C235.578 153.383 235.51 154.744 235.43 154.744Z" fill="#D4D4D4"/>
<path d="M240.317 154.744C240.237 154.744 240.169 153.383 240.169 151.705C240.169 150.026 240.237 148.666 240.317 148.666C240.396 148.666 240.464 150.026 240.464 151.705C240.464 153.383 240.396 154.744 240.317 154.744Z" fill="#D4D4D4"/>
<path d="M245.208 154.744C245.129 154.744 245.061 153.383 245.061 151.705C245.061 150.026 245.129 148.666 245.208 148.666C245.288 148.666 245.356 150.026 245.356 151.705C245.356 153.383 245.288 154.744 245.208 154.744Z" fill="#D4D4D4"/>
<path d="M250.1 154.744C250.021 154.744 249.953 153.383 249.953 151.705C249.953 150.026 250.021 148.666 250.1 148.666C250.179 148.666 250.247 150.026 250.247 151.705C250.247 153.383 250.179 154.744 250.1 154.744Z" fill="#D4D4D4"/>
<path d="M254.992 154.744C254.913 154.744 254.844 153.383 254.844 151.705C254.844 150.026 254.913 148.666 254.992 148.666C255.071 148.666 255.139 150.026 255.139 151.705C255.139 153.383 255.071 154.744 254.992 154.744Z" fill="#D4D4D4"/>
<path d="M259.878 154.744C259.798 154.744 259.73 153.383 259.73 151.705C259.73 150.026 259.798 148.666 259.878 148.666C259.957 148.666 260.025 150.026 260.025 151.705C260.025 153.383 259.957 154.744 259.878 154.744Z" fill="#D4D4D4"/>
<path d="M264.77 154.744C264.69 154.744 264.622 153.383 264.622 151.705C264.622 150.026 264.69 148.666 264.77 148.666C264.849 148.666 264.917 150.026 264.917 151.705C264.917 153.383 264.849 154.744 264.77 154.744Z" fill="#D4D4D4"/>
<path d="M269.662 154.744C269.582 154.744 269.514 153.383 269.514 151.705C269.514 150.026 269.582 148.666 269.662 148.666C269.741 148.666 269.809 150.026 269.809 151.705C269.809 153.383 269.741 154.744 269.662 154.744Z" fill="#D4D4D4"/>
<path d="M274.553 154.744C274.474 154.744 274.406 153.383 274.406 151.705C274.406 150.026 274.474 148.666 274.553 148.666C274.633 148.666 274.701 150.026 274.701 151.705C274.701 153.383 274.633 154.744 274.553 154.744Z" fill="#D4D4D4"/>
<path d="M279.439 154.744C279.36 154.744 279.292 153.383 279.292 151.705C279.292 150.026 279.36 148.666 279.439 148.666C279.519 148.666 279.587 150.026 279.587 151.705C279.587 153.383 279.519 154.744 279.439 154.744Z" fill="#D4D4D4"/>
<path d="M285.629 159.189H230.686V165.268H285.629V159.189Z" fill="white"/>
<path d="M235.43 165.268C235.351 165.268 235.283 163.907 235.283 162.229C235.283 160.55 235.351 159.189 235.43 159.189C235.51 159.189 235.578 160.55 235.578 162.229C235.578 163.907 235.51 165.268 235.43 165.268Z" fill="#D4D4D4"/>
<path d="M240.317 165.268C240.237 165.268 240.169 163.907 240.169 162.229C240.169 160.55 240.237 159.189 240.317 159.189C240.396 159.189 240.464 160.55 240.464 162.229C240.464 163.907 240.396 165.268 240.317 165.268Z" fill="#D4D4D4"/>
<path d="M245.208 165.268C245.129 165.268 245.061 163.907 245.061 162.229C245.061 160.55 245.129 159.189 245.208 159.189C245.288 159.189 245.356 160.55 245.356 162.229C245.356 163.907 245.288 165.268 245.208 165.268Z" fill="#D4D4D4"/>
<path d="M250.1 165.268C250.021 165.268 249.953 163.907 249.953 162.229C249.953 160.55 250.021 159.189 250.1 159.189C250.179 159.189 250.247 160.55 250.247 162.229C250.247 163.907 250.179 165.268 250.1 165.268Z" fill="#D4D4D4"/>
<path d="M254.992 165.268C254.913 165.268 254.844 163.907 254.844 162.229C254.844 160.55 254.913 159.189 254.992 159.189C255.071 159.189 255.139 160.55 255.139 162.229C255.139 163.907 255.071 165.268 254.992 165.268Z" fill="#D4D4D4"/>
<path d="M259.878 165.268C259.798 165.268 259.73 163.907 259.73 162.229C259.73 160.55 259.798 159.189 259.878 159.189C259.957 159.189 260.025 160.55 260.025 162.229C260.025 163.907 259.957 165.268 259.878 165.268Z" fill="#D4D4D4"/>
<path d="M264.77 165.268C264.69 165.268 264.622 163.907 264.622 162.229C264.622 160.55 264.69 159.189 264.77 159.189C264.849 159.189 264.917 160.55 264.917 162.229C264.917 163.907 264.849 165.268 264.77 165.268Z" fill="#D4D4D4"/>
<path d="M269.662 165.268C269.582 165.268 269.514 163.907 269.514 162.229C269.514 160.55 269.582 159.189 269.662 159.189C269.741 159.189 269.809 160.55 269.809 162.229C269.809 163.907 269.741 165.268 269.662 165.268Z" fill="#D4D4D4"/>
<path d="M274.553 165.268C274.474 165.268 274.406 163.907 274.406 162.229C274.406 160.55 274.474 159.189 274.553 159.189C274.633 159.189 274.701 160.55 274.701 162.229C274.701 163.907 274.633 165.268 274.553 165.268Z" fill="#D4D4D4"/>
<path d="M279.439 165.268C279.36 165.268 279.292 163.907 279.292 162.229C279.292 160.55 279.36 159.189 279.439 159.189C279.519 159.189 279.587 160.55 279.587 162.229C279.587 163.907 279.519 165.268 279.439 165.268Z" fill="#D4D4D4"/>
<path d="M321.028 170.751H161.232V238.852H321.028V170.751Z" fill="#FF5B01"/>
<path d="M309.317 183.164H203.864V197.879H309.317V183.164Z" fill="white"/>
<path d="M279.326 209.939H219.179V238.853H279.326V209.939Z" fill="#263238"/>
<g opacity="0.3">
<path d="M211.629 212.553C211.629 212.553 211.618 212.406 211.606 212.151C211.601 211.867 211.589 211.493 211.584 211.033C211.572 210.041 211.55 208.669 211.527 206.973L211.629 207.076C208.047 207.087 203.07 207.104 197.566 207.121C197.435 207.251 197.747 206.939 197.713 206.973V208.425C197.713 208.901 197.713 209.378 197.713 209.843C197.713 210.778 197.713 211.686 197.713 212.559L197.572 212.417C201.607 212.445 205.093 212.468 207.616 212.485C208.846 212.502 209.838 212.513 210.558 212.525C210.881 212.53 211.147 212.536 211.351 212.542C211.533 212.547 211.635 212.553 211.64 212.559C211.646 212.564 211.561 212.57 211.385 212.576C211.187 212.576 210.932 212.587 210.62 212.593C209.906 212.604 208.925 212.615 207.712 212.632C205.167 212.65 201.647 212.672 197.577 212.701H197.435V212.559C197.435 211.686 197.435 210.778 197.435 209.843C197.435 209.378 197.435 208.901 197.435 208.425C197.435 208.187 197.435 207.943 197.435 207.705V206.985V206.973C197.401 207.002 197.713 206.69 197.583 206.826C203.087 206.843 208.064 206.86 211.646 206.871H211.748V206.973C211.725 208.692 211.703 210.092 211.691 211.096C211.68 211.549 211.674 211.912 211.669 212.19C211.663 212.44 211.652 212.564 211.646 212.559L211.629 212.553Z" fill="black"/>
</g>
<g opacity="0.3">
<path d="M315.541 179.337C315.541 179.337 315.53 179.189 315.518 178.934C315.513 178.65 315.501 178.276 315.496 177.817C315.484 176.825 315.462 175.452 315.439 173.757L315.541 173.859C311.959 173.87 306.982 173.887 301.478 173.904C301.348 174.035 301.654 173.723 301.625 173.757V174.483C301.625 174.727 301.625 174.965 301.625 175.203C301.625 175.679 301.625 176.156 301.625 176.621C301.625 177.556 301.625 178.463 301.625 179.337L301.484 179.195C305.519 179.223 309.006 179.246 311.528 179.263C312.758 179.28 313.75 179.291 314.47 179.303C314.793 179.308 315.059 179.314 315.263 179.32C315.445 179.325 315.547 179.331 315.552 179.337C315.558 179.342 315.473 179.348 315.297 179.354C315.099 179.354 314.844 179.365 314.532 179.371C313.818 179.382 312.837 179.393 311.624 179.41C309.079 179.427 305.559 179.45 301.489 179.478H301.348V179.337C301.348 178.463 301.348 177.556 301.348 176.621C301.348 176.156 301.348 175.679 301.348 175.203C301.348 174.965 301.348 174.721 301.348 174.483V173.763V173.751C301.314 173.78 301.625 173.468 301.495 173.604C306.999 173.621 311.976 173.638 315.558 173.649H315.66V173.751C315.637 175.469 315.615 176.87 315.603 177.874C315.592 178.327 315.586 178.69 315.575 178.968C315.569 179.218 315.558 179.342 315.552 179.337H315.541Z" fill="black"/>
</g>
<g opacity="0.3">
<path d="M218.295 201.116H204.232V206.702H218.295V201.116Z" fill="black"/>
</g>
<path d="M309.317 190.348C309.317 190.428 285.709 190.496 256.59 190.496C227.472 190.496 203.864 190.428 203.864 190.348C203.864 190.269 227.466 190.201 256.59 190.201C285.714 190.201 309.317 190.269 309.317 190.348Z" fill="#FF5B01"/>
<path d="M209.844 198.803C209.764 198.803 209.696 195.094 209.696 190.524C209.696 185.954 209.764 182.245 209.844 182.245C209.923 182.245 209.991 185.954 209.991 190.524C209.991 195.094 209.923 198.803 209.844 198.803Z" fill="#FF5B01"/>
<path d="M216.209 198.803C216.13 198.803 216.062 195.094 216.062 190.524C216.062 185.954 216.13 182.245 216.209 182.245C216.289 182.245 216.357 185.954 216.357 190.524C216.357 195.094 216.289 198.803 216.209 198.803Z" fill="#FF5B01"/>
<path d="M222.858 198.803C222.779 198.803 222.711 195.094 222.711 190.524C222.711 185.954 222.779 182.245 222.858 182.245C222.937 182.245 223.005 185.954 223.005 190.524C223.005 195.094 222.937 198.803 222.858 198.803Z" fill="#FF5B01"/>
<path d="M229.513 198.803C229.433 198.803 229.365 195.094 229.365 190.524C229.365 185.954 229.433 182.245 229.513 182.245C229.592 182.245 229.66 185.954 229.66 190.524C229.66 195.094 229.592 198.803 229.513 198.803Z" fill="#FF5B01"/>
<path d="M236.162 198.803C236.082 198.803 236.014 195.094 236.014 190.524C236.014 185.954 236.082 182.245 236.162 182.245C236.241 182.245 236.309 185.954 236.309 190.524C236.309 195.094 236.241 198.803 236.162 198.803Z" fill="#FF5B01"/>
<path d="M242.811 198.803C242.731 198.803 242.663 195.094 242.663 190.524C242.663 185.954 242.731 182.245 242.811 182.245C242.89 182.245 242.958 185.954 242.958 190.524C242.958 195.094 242.89 198.803 242.811 198.803Z" fill="#FF5B01"/>
<path d="M249.465 198.803C249.386 198.803 249.318 195.094 249.318 190.524C249.318 185.954 249.386 182.245 249.465 182.245C249.545 182.245 249.613 185.954 249.613 190.524C249.613 195.094 249.545 198.803 249.465 198.803Z" fill="#FF5B01"/>
<path d="M256.114 198.803C256.035 198.803 255.967 195.094 255.967 190.524C255.967 185.954 256.035 182.245 256.114 182.245C256.194 182.245 256.262 185.954 256.262 190.524C256.262 195.094 256.194 198.803 256.114 198.803Z" fill="#FF5B01"/>
<path d="M262.763 198.803C262.684 198.803 262.616 195.094 262.616 190.524C262.616 185.954 262.684 182.245 262.763 182.245C262.842 182.245 262.91 185.954 262.91 190.524C262.91 195.094 262.842 198.803 262.763 198.803Z" fill="#FF5B01"/>
<path d="M269.412 198.803C269.333 198.803 269.265 195.094 269.265 190.524C269.265 185.954 269.333 182.245 269.412 182.245C269.491 182.245 269.559 185.954 269.559 190.524C269.559 195.094 269.491 198.803 269.412 198.803Z" fill="#FF5B01"/>
<path d="M276.067 198.803C275.987 198.803 275.919 195.094 275.919 190.524C275.919 185.954 275.987 182.245 276.067 182.245C276.146 182.245 276.214 185.954 276.214 190.524C276.214 195.094 276.146 198.803 276.067 198.803Z" fill="#FF5B01"/>
<path d="M282.716 198.803C282.636 198.803 282.568 195.094 282.568 190.524C282.568 185.954 282.636 182.245 282.716 182.245C282.795 182.245 282.863 185.954 282.863 190.524C282.863 195.094 282.795 198.803 282.716 198.803Z" fill="#FF5B01"/>
<path d="M289.365 198.803C289.285 198.803 289.217 195.094 289.217 190.524C289.217 185.954 289.285 182.245 289.365 182.245C289.444 182.245 289.512 185.954 289.512 190.524C289.512 195.094 289.444 198.803 289.365 198.803Z" fill="#FF5B01"/>
<path d="M296.019 198.803C295.94 198.803 295.872 195.094 295.872 190.524C295.872 185.954 295.94 182.245 296.019 182.245C296.099 182.245 296.167 185.954 296.167 190.524C296.167 195.094 296.099 198.803 296.019 198.803Z" fill="#FF5B01"/>
<path d="M302.668 198.803C302.589 198.803 302.521 195.094 302.521 190.524C302.521 185.954 302.589 182.245 302.668 182.245C302.747 182.245 302.816 185.954 302.816 190.524C302.816 195.094 302.747 198.803 302.668 198.803Z" fill="#FF5B01"/>
<path d="M309.317 198.803C309.238 198.803 309.17 195.094 309.17 190.524C309.17 185.954 309.238 182.245 309.317 182.245C309.396 182.245 309.464 185.954 309.464 190.524C309.464 195.094 309.396 198.803 309.317 198.803Z" fill="#FF5B01"/>
<path d="M269.044 224.614H259.81V231.736H269.044V224.614Z" fill="#2B2E35"/>
<g opacity="0.3">
<path d="M269.044 224.614H259.81V231.736H269.044V224.614Z" fill="black"/>
</g>
<path d="M266.731 231.685C266.731 231.685 266.714 230.097 266.714 228.141C266.714 226.185 266.72 224.597 266.731 224.597C266.742 224.597 266.748 226.185 266.748 228.141C266.748 230.097 266.742 231.685 266.731 231.685Z" fill="#263238"/>
<path d="M268.262 230.114H267.553V230.914H268.262V230.114Z" fill="#F5F5F5"/>
<path d="M263.676 224.631H262.627V226.151H263.676V224.631Z" fill="#263238"/>
<path d="M263.676 230.194H262.627V231.714H263.676V230.194Z" fill="#263238"/>
<path d="M276.73 224.604H267.496V231.725H276.73V224.604Z" fill="#2B2E35"/>
<path d="M274.412 231.68C274.412 231.68 274.395 230.092 274.395 228.136C274.395 226.179 274.4 224.592 274.412 224.592C274.423 224.592 274.429 226.179 274.429 228.136C274.429 230.092 274.423 231.68 274.412 231.68Z" fill="#263238"/>
<path d="M275.948 230.109H275.239V230.908H275.948V230.109Z" fill="#F5F5F5"/>
<g opacity="0.5">
<path d="M271.362 224.626H270.313V226.146H271.362V224.626Z" fill="white"/>
</g>
<g opacity="0.5">
<path d="M271.362 230.188H270.313V231.708H271.362V230.188Z" fill="white"/>
</g>
<path d="M277.246 217.481H268.012V224.603H277.246V217.481Z" fill="#2B2E35"/>
<path d="M274.933 224.558C274.933 224.558 274.916 222.97 274.916 221.014C274.916 219.057 274.922 217.47 274.933 217.47C274.945 217.47 274.95 219.057 274.95 221.014C274.95 222.97 274.945 224.558 274.933 224.558Z" fill="#263238"/>
<path d="M276.464 222.981H275.755V223.781H276.464V222.981Z" fill="#F5F5F5"/>
<path d="M271.878 217.498H270.829V219.018H271.878V217.498Z" fill="#263238"/>
<path d="M271.878 223.066H270.829V224.586H271.878V223.066Z" fill="#263238"/>
<path d="M277.036 231.731H267.802V238.853H277.036V231.731Z" fill="#2B2E35"/>
<g opacity="0.3">
<path d="M277.036 231.731H267.802V238.853H277.036V231.731Z" fill="black"/>
</g>
<path d="M274.724 238.802C274.724 238.802 274.707 237.214 274.707 235.258C274.707 233.302 274.712 231.714 274.724 231.714C274.735 231.714 274.741 233.302 274.741 235.258C274.741 237.214 274.735 238.802 274.724 238.802Z" fill="#263238"/>
<path d="M276.254 237.231H275.545V238.03H276.254V237.231Z" fill="#F5F5F5"/>
<path d="M271.668 231.748H270.62V233.268H271.668V231.748Z" fill="#263238"/>
<path d="M271.668 237.316H270.62V238.836H271.668V237.316Z" fill="#263238"/>
<path d="M267.355 231.731H258.121V238.853H267.355V231.731Z" fill="#2B2E35"/>
<path d="M265.036 238.802C265.036 238.802 265.019 237.214 265.019 235.258C265.019 233.302 265.025 231.714 265.036 231.714C265.048 231.714 265.053 233.302 265.053 235.258C265.053 237.214 265.048 238.802 265.036 238.802Z" fill="#263238"/>
<path d="M266.572 237.231H265.864V238.03H266.572V237.231Z" fill="#F5F5F5"/>
<g opacity="0.5">
<path d="M261.987 231.748H260.938V233.268H261.987V231.748Z" fill="white"/>
</g>
<g opacity="0.5">
<path d="M261.987 237.316H260.938V238.836H261.987V237.316Z" fill="white"/>
</g>
<path d="M250.236 209.372H248.076V238.801H250.236V209.372Z" fill="#FF5B01"/>
<path d="M317.978 170.751C317.978 170.831 291.161 170.899 258.087 170.899C225.012 170.899 198.189 170.831 198.189 170.751C198.189 170.672 225.001 170.604 258.087 170.604C291.173 170.604 317.978 170.672 317.978 170.751Z" fill="#263238"/>
<path d="M-10.7395 238.852V132.703L38.9151 108.655V133.231L91.7099 108.655V133.752H197.3V238.852H-10.7395Z" fill="#2B2E35"/>
<path d="M174.688 163.527H2.0481V192.004H174.688V163.527Z" fill="white"/>
<path d="M181.292 177.766C181.292 177.845 140.996 177.913 91.3018 177.913C41.6075 177.913 1.30566 177.845 1.30566 177.766C1.30566 177.686 41.5905 177.618 91.3018 177.618C141.013 177.618 181.292 177.686 181.292 177.766Z" fill="#2B2E35"/>
<path d="M12.3929 191.561C12.3929 191.561 12.4156 191.692 12.4269 191.936L12.4553 193.019H12.3362C12.2852 190.507 12.2512 184.836 12.2512 178.253C12.2682 173.791 12.2852 169.753 12.2966 166.782C12.3136 165.347 12.3306 164.168 12.3419 163.306L12.3703 162.359C12.3816 162.144 12.3873 162.03 12.3986 162.03C12.4099 162.03 12.4213 162.144 12.4269 162.359L12.4553 163.306C12.4666 164.168 12.4836 165.347 12.5006 166.782C12.512 169.753 12.529 173.791 12.546 178.253C12.546 184.836 12.512 190.501 12.461 193.019H12.3419L12.3703 191.936C12.3816 191.692 12.3929 191.561 12.4043 191.561H12.3929Z" fill="#2B2E35"/>
<path d="M24.8746 191.312C24.8746 191.312 24.8973 191.442 24.9086 191.686C24.9143 191.964 24.9256 192.321 24.937 192.769H24.8179C24.7669 190.257 24.7329 184.587 24.7329 178.004C24.7499 173.541 24.7669 169.504 24.7783 166.533C24.7953 165.098 24.8123 163.918 24.8236 163.057C24.8349 162.671 24.8463 162.359 24.8519 162.11C24.8633 161.894 24.8689 161.781 24.8803 161.781C24.8916 161.781 24.903 161.894 24.9086 162.11C24.9143 162.359 24.9256 162.671 24.937 163.057C24.9483 163.918 24.9653 165.098 24.9823 166.533C24.9937 169.504 25.0107 173.541 25.0277 178.004C25.0277 184.587 24.9937 190.252 24.9426 192.769H24.8236C24.8349 192.321 24.8463 191.964 24.8519 191.686C24.8633 191.442 24.8746 191.312 24.886 191.312H24.8746Z" fill="#2B2E35"/>
<path d="M37.3619 191.142C37.3619 191.142 37.3846 191.261 37.3959 191.493C37.4016 191.76 37.4129 192.1 37.4243 192.514H37.3052C37.2542 190.138 37.2202 184.78 37.2202 178.559C37.2372 174.346 37.2542 170.53 37.2656 167.717C37.2826 166.362 37.2996 165.251 37.3109 164.434C37.3222 164.071 37.3336 163.777 37.3392 163.538C37.3506 163.334 37.3563 163.227 37.3676 163.227C37.3789 163.227 37.3903 163.334 37.3959 163.538C37.4016 163.777 37.4129 164.071 37.4243 164.434C37.4356 165.251 37.4526 166.362 37.4696 167.717C37.481 170.53 37.498 174.346 37.515 178.559C37.515 184.78 37.481 190.138 37.4299 192.514H37.3109C37.3222 192.094 37.3336 191.76 37.3392 191.493C37.3506 191.261 37.3619 191.142 37.3733 191.142H37.3619Z" fill="#2B2E35"/>
<path d="M49.8436 190.813C49.8436 190.813 49.8663 190.943 49.8776 191.187C49.8833 191.465 49.8946 191.822 49.906 192.27H49.7869C49.7359 189.758 49.7019 184.088 49.7019 177.505C49.7189 173.042 49.7359 169.005 49.7473 166.034C49.7643 164.593 49.7813 163.419 49.7926 162.558C49.8039 162.172 49.8153 161.86 49.8209 161.611C49.8323 161.395 49.8379 161.282 49.8493 161.282C49.8606 161.282 49.872 161.395 49.8776 161.611C49.8833 161.86 49.8946 162.172 49.906 162.558C49.9173 163.419 49.9343 164.599 49.9513 166.034C49.9626 169.005 49.9797 173.042 49.9967 177.505C49.9967 184.088 49.9626 189.753 49.9116 192.27H49.7926C49.8039 191.822 49.8153 191.465 49.8209 191.187C49.8323 190.943 49.8436 190.813 49.855 190.813H49.8436Z" fill="#2B2E35"/>
<path d="M62.3309 190.666C62.3309 190.666 62.3536 190.785 62.3649 191.012C62.3706 191.272 62.3819 191.607 62.3933 192.015H62.2742C62.2232 189.679 62.1892 184.417 62.1892 178.299C62.2062 174.154 62.2232 170.405 62.2346 167.644C62.2516 166.311 62.2686 165.223 62.2799 164.418C62.2912 164.066 62.3026 163.771 62.3082 163.539C62.3196 163.34 62.3253 163.232 62.3366 163.232C62.3479 163.232 62.3593 163.34 62.3649 163.539C62.3706 163.771 62.3819 164.06 62.3933 164.418C62.4046 165.223 62.4216 166.317 62.4386 167.644C62.45 170.411 62.467 174.159 62.484 178.299C62.484 184.411 62.45 189.679 62.3989 192.015H62.2799C62.2912 191.607 62.3026 191.272 62.3082 191.012C62.3196 190.785 62.3309 190.666 62.3423 190.666H62.3309Z" fill="#2B2E35"/>
<path d="M74.8126 191.505C74.8126 191.505 74.8353 191.635 74.8466 191.891C74.8523 192.18 74.8636 192.548 74.875 193.013H74.7559C74.7049 190.405 74.6709 184.519 74.6709 177.686C74.6879 173.054 74.7049 168.858 74.7162 165.779C74.7333 164.282 74.7503 163.063 74.7616 162.172C74.7729 161.77 74.7843 161.446 74.7899 161.191C74.8013 160.964 74.8069 160.851 74.8183 160.851C74.8296 160.851 74.8409 160.97 74.8466 161.191C74.8523 161.446 74.8636 161.77 74.875 162.172C74.8863 163.063 74.9033 164.287 74.9203 165.779C74.9316 168.863 74.9486 173.054 74.9657 177.686C74.9657 184.519 74.9316 190.405 74.8806 193.013H74.7616C74.7729 192.548 74.7843 192.18 74.7899 191.891C74.8013 191.635 74.8126 191.505 74.8239 191.505H74.8126Z" fill="#2B2E35"/>
<path d="M87.2999 190.291C87.2999 190.291 87.3226 190.41 87.3339 190.631C87.3396 190.892 87.3509 191.221 87.3623 191.624H87.2432C87.1922 189.322 87.1582 184.128 87.1582 178.094C87.1582 173.989 87.1752 170.275 87.2036 167.581C87.2206 166.272 87.2376 165.194 87.2489 164.395C87.2602 164.049 87.2716 163.76 87.2772 163.527C87.2886 163.329 87.2942 163.227 87.3056 163.227C87.3169 163.227 87.3283 163.329 87.3339 163.527C87.3396 163.76 87.3509 164.043 87.3623 164.395C87.3736 165.189 87.3906 166.266 87.4076 167.581C87.436 170.269 87.453 173.989 87.453 178.094C87.453 184.128 87.4189 189.316 87.3679 191.624H87.2489C87.2602 191.221 87.2716 190.892 87.2772 190.631C87.2886 190.405 87.2999 190.291 87.3113 190.291H87.2999Z" fill="#2B2E35"/>
<path d="M99.7816 191.386C99.7816 191.386 99.8043 191.505 99.8156 191.737C99.8213 192.004 99.8326 192.338 99.844 192.758H99.7249C99.6739 190.388 99.6399 185.041 99.6399 178.832C99.6569 174.624 99.6739 170.819 99.6852 168.007C99.7022 166.652 99.7192 165.546 99.7306 164.729C99.7419 164.372 99.7533 164.077 99.7589 163.839C99.7703 163.635 99.7759 163.527 99.7873 163.527C99.7986 163.527 99.8099 163.635 99.8156 163.839C99.8213 164.077 99.8326 164.372 99.844 164.729C99.8553 165.546 99.8723 166.657 99.8893 168.007C99.9006 170.814 99.9176 174.624 99.9346 178.832C99.9346 185.041 99.9006 190.388 99.8496 192.758H99.7306C99.7419 192.338 99.7533 192.004 99.7589 191.737C99.7703 191.505 99.7816 191.386 99.7929 191.386H99.7816Z" fill="#2B2E35"/>
<path d="M112.269 191.137C112.269 191.137 112.292 191.256 112.303 191.488C112.309 191.755 112.32 192.089 112.331 192.503H112.212C112.161 190.15 112.127 184.854 112.127 178.701C112.144 174.534 112.161 170.757 112.173 167.973C112.19 166.635 112.207 165.535 112.218 164.724C112.229 164.367 112.241 164.078 112.246 163.839C112.258 163.635 112.263 163.533 112.275 163.533C112.286 163.533 112.297 163.641 112.303 163.839C112.309 164.072 112.32 164.367 112.331 164.724C112.343 165.535 112.36 166.635 112.377 167.973C112.388 170.757 112.405 174.528 112.422 178.701C112.422 184.854 112.388 190.156 112.337 192.503H112.218C112.229 192.089 112.241 191.755 112.246 191.488C112.258 191.256 112.269 191.137 112.28 191.137H112.269Z" fill="#2B2E35"/>
<path d="M124.751 190.887C124.751 190.887 124.773 191.006 124.785 191.233C124.79 191.494 124.802 191.828 124.813 192.237H124.694C124.643 189.906 124.609 184.655 124.609 178.56C124.626 174.426 124.643 170.689 124.654 167.933C124.671 166.607 124.688 165.518 124.7 164.713C124.711 164.361 124.722 164.072 124.728 163.839C124.739 163.641 124.745 163.533 124.756 163.533C124.768 163.533 124.779 163.641 124.785 163.839C124.79 164.072 124.802 164.361 124.813 164.713C124.824 165.518 124.841 166.607 124.858 167.933C124.87 170.695 124.887 174.432 124.904 178.56C124.904 184.661 124.87 189.912 124.819 192.237H124.7C124.711 191.828 124.722 191.494 124.728 191.233C124.739 191.006 124.751 190.887 124.762 190.887H124.751Z" fill="#2B2E35"/>
<path d="M137.238 190.637C137.238 190.637 137.261 190.756 137.272 190.977L137.3 191.97H137.181C137.13 189.662 137.096 184.456 137.096 178.412C137.096 174.301 137.113 170.575 137.142 167.882C137.159 166.566 137.176 165.489 137.187 164.69C137.198 164.338 137.21 164.054 137.215 163.822C137.227 163.624 137.232 163.521 137.244 163.521C137.255 163.521 137.266 163.624 137.272 163.822C137.278 164.054 137.289 164.338 137.3 164.69C137.312 165.489 137.329 166.566 137.346 167.882C137.374 170.575 137.391 174.301 137.391 178.412C137.391 184.456 137.357 189.656 137.306 191.97H137.187C137.198 191.567 137.21 191.238 137.215 190.977C137.227 190.751 137.238 190.637 137.249 190.637H137.238Z" fill="#2B2E35"/>
<path d="M149.72 190.388C149.72 190.388 149.742 190.501 149.754 190.728C149.759 190.989 149.771 191.312 149.782 191.715H149.663C149.612 189.429 149.578 184.269 149.578 178.281C149.578 174.204 149.595 170.519 149.623 167.848C149.64 166.544 149.657 165.478 149.669 164.684C149.68 164.338 149.691 164.054 149.697 163.822C149.708 163.624 149.714 163.521 149.725 163.521C149.737 163.521 149.748 163.624 149.754 163.822C149.759 164.054 149.771 164.338 149.782 164.684C149.793 165.472 149.81 166.544 149.827 167.848C149.856 170.519 149.873 174.21 149.873 178.281C149.873 184.269 149.839 189.424 149.788 191.715H149.669C149.68 191.312 149.691 190.989 149.697 190.728C149.708 190.507 149.72 190.388 149.731 190.388H149.72Z" fill="#2B2E35"/>
<path d="M162.207 190.189C162.207 190.189 162.23 190.303 162.241 190.524C162.247 190.779 162.258 191.102 162.269 191.499H162.15C162.099 189.231 162.065 184.111 162.065 178.168C162.065 174.125 162.082 170.462 162.111 167.808C162.128 166.515 162.145 165.455 162.156 164.667C162.167 164.327 162.179 164.043 162.184 163.816C162.196 163.624 162.201 163.521 162.213 163.521C162.224 163.521 162.235 163.624 162.241 163.816C162.247 164.043 162.258 164.327 162.269 164.667C162.281 165.449 162.298 166.515 162.315 167.808C162.343 170.456 162.36 174.119 162.36 178.168C162.36 184.111 162.326 189.231 162.275 191.499H162.156C162.167 191.102 162.179 190.779 162.184 190.524C162.196 190.303 162.207 190.189 162.218 190.189H162.207Z" fill="#2B2E35"/>
<g opacity="0.3">
<path d="M49.6453 238.852H40.3379V156.916C40.3379 154.347 42.4238 152.26 44.9916 152.26C47.565 152.26 49.6453 154.347 49.6453 156.916V238.852Z" fill="black"/>
</g>
<g opacity="0.3">
<path d="M69.2406 152.26C71.8084 152.26 73.8943 154.347 73.8943 156.916V238.852H64.5869V156.916C64.5869 154.347 66.6729 152.26 69.2406 152.26Z" fill="black"/>
</g>
<path d="M44.5664 238.853H35.259V151.841C35.259 149.267 37.345 147.186 39.9127 147.186C42.4805 147.186 44.5664 149.272 44.5664 151.841V238.853Z" fill="#FFBC46"/>
<path d="M67.9937 238.853H58.6863V151.841C58.6863 149.267 60.7722 147.186 63.34 147.186C65.9134 147.186 67.9937 149.272 67.9937 151.841V238.853Z" fill="#FFBC46"/>
<g opacity="0.3">
<path d="M-10.1726 132.703L38.9152 112.375V108.655L-10.1726 132.703Z" fill="black"/>
</g>
<g opacity="0.3">
<path d="M40.6721 133.01L91.7098 112.868V109.143L40.6721 133.01Z" fill="black"/>
</g>
<path d="M41.0909 106.797L-10.9861 132.194L-10.4893 133.214L41.5877 107.816L41.0909 106.797Z" fill="#263238"/>
<path d="M91.4675 108.144L38.6753 132.726L39.1537 133.754L91.9459 109.172L91.4675 108.144Z" fill="#263238"/>
<g opacity="0.3">
<path d="M3.32361 151.495C3.32361 151.495 3.31228 151.347 3.30094 151.092L3.27826 149.975C3.26693 148.983 3.24425 147.611 3.22158 145.915L3.32361 146.017C-0.258776 146.029 -5.23557 146.046 -10.7395 146.063C-10.8699 146.193 -10.5638 145.881 -10.5921 145.915V146.641C-10.5921 146.885 -10.5921 147.123 -10.5921 147.361C-10.5921 147.837 -10.5921 148.314 -10.5921 148.779C-10.5921 149.714 -10.5921 150.622 -10.5921 151.495L-10.7339 151.353C-6.698 151.381 -3.21198 151.404 -0.689568 151.421C0.540461 151.438 1.53242 151.449 2.2523 151.461C2.57539 151.466 2.8418 151.472 3.04586 151.478C3.22725 151.483 3.32928 151.489 3.33495 151.495C3.34062 151.5 3.25559 151.506 3.07987 151.512C2.88148 151.512 2.62641 151.523 2.31465 151.529C1.60044 151.54 0.619817 151.552 -0.593206 151.569C-3.13829 151.586 -6.65832 151.608 -10.7339 151.637H-10.8756V151.495C-10.8756 150.622 -10.8756 149.714 -10.8756 148.779C-10.8756 148.314 -10.8756 147.837 -10.8756 147.361C-10.8756 147.123 -10.8756 146.879 -10.8756 146.641V145.921V145.91C-10.9096 145.938 -10.5978 145.626 -10.7282 145.762C-5.22423 145.779 -0.247438 145.796 3.33495 145.807H3.43698V145.91L3.3803 150.032L3.35762 151.126C3.35195 151.376 3.34062 151.5 3.33495 151.495H3.32361Z" fill="black"/>
</g>
<g opacity="0.3">
<path d="M9.67202 140.347H-4.39111V145.932H9.67202V140.347Z" fill="black"/>
</g>
<g opacity="0.3">
<path d="M107.32 227.636C107.32 227.636 107.309 227.489 107.298 227.234C107.292 226.95 107.281 226.576 107.275 226.117C107.264 225.124 107.241 223.752 107.218 222.057L107.32 222.159C103.738 222.17 98.7612 222.187 93.2573 222.204C93.1269 222.335 93.433 222.023 93.4047 222.057V222.783C93.4047 223.026 93.4047 223.265 93.4047 223.503V224.92C93.4047 225.856 93.4047 226.763 93.399 227.636L93.2573 227.495C97.2932 227.523 100.779 227.546 103.302 227.563C104.532 227.58 105.524 227.591 106.243 227.602C106.567 227.608 106.833 227.614 107.037 227.619C107.218 227.625 107.32 227.631 107.326 227.636C107.332 227.642 107.247 227.648 107.071 227.653C106.873 227.653 106.618 227.665 106.306 227.67C105.592 227.682 104.611 227.693 103.398 227.71C100.853 227.727 97.3328 227.75 93.263 227.778H93.1213V227.636C93.1213 226.763 93.1213 225.856 93.1213 224.92C93.1213 224.455 93.1213 223.979 93.1213 223.503C93.1213 223.265 93.1213 223.021 93.1213 222.783V222.062V222.051C93.0873 222.079 93.399 221.768 93.2686 221.904C98.7726 221.921 103.749 221.938 107.332 221.949H107.434V222.051C107.411 223.769 107.388 225.17 107.377 226.173C107.366 226.627 107.36 226.99 107.354 227.268C107.349 227.517 107.337 227.642 107.332 227.636H107.32Z" fill="black"/>
</g>
<g opacity="0.3">
<path d="M113.669 216.494H99.606V222.079H113.669V216.494Z" fill="black"/>
</g>
<g opacity="0.3">
<path d="M22.3296 210.387C22.3296 210.387 22.3182 210.24 22.3069 209.985C22.3012 209.701 22.2899 209.327 22.2786 208.867C22.2672 207.875 22.2446 206.503 22.2219 204.807L22.3239 204.91C18.7415 204.921 13.7647 204.938 8.26077 204.955C8.1304 205.085 8.43649 204.773 8.40815 204.807V210.393L8.26077 210.251C12.2966 210.279 15.7827 210.302 18.3051 210.319C19.5351 210.336 20.527 210.347 21.2469 210.359C21.57 210.364 21.8364 210.37 22.0405 210.376C22.2219 210.381 22.3239 210.387 22.3296 210.393C22.3352 210.398 22.2502 210.404 22.0745 210.41C21.8761 210.41 21.621 210.421 21.3093 210.427C20.5951 210.438 19.6144 210.449 18.4014 210.466C15.8563 210.484 12.3363 210.506 8.26077 210.535H8.11907V210.393C8.11907 209.52 8.11907 208.612 8.11907 207.677V204.819V204.807C8.08506 204.836 8.39681 204.524 8.26644 204.66C13.7704 204.677 18.7472 204.694 22.3296 204.705H22.4316V204.807C22.4089 206.526 22.3863 207.926 22.3749 208.93C22.3636 209.383 22.3579 209.746 22.3466 210.024C22.3409 210.274 22.3296 210.398 22.3239 210.393L22.3296 210.387Z" fill="black"/>
</g>
<g opacity="0.3">
<path d="M81.6317 142.19C81.6317 142.19 81.6203 142.042 81.609 141.787C81.6033 141.504 81.592 141.129 81.5863 140.67C81.575 139.678 81.5523 138.306 81.5296 136.61L81.6317 136.712C78.0493 136.724 73.0725 136.741 67.5685 136.758C67.4382 136.888 67.7442 136.576 67.7159 136.61V138.062C67.7159 138.538 67.7159 139.014 67.7159 139.479C67.7159 140.415 67.7159 141.322 67.7159 142.196L67.5742 142.054C71.61 142.082 75.0961 142.105 77.6185 142.122C78.8485 142.139 79.8405 142.15 80.5603 142.161C80.8834 142.167 81.1498 142.173 81.3539 142.178C81.5353 142.184 81.6373 142.19 81.643 142.196C81.6487 142.201 81.5636 142.207 81.3879 142.213C81.1895 142.213 80.9345 142.224 80.6227 142.23C79.9085 142.241 78.9279 142.252 77.7148 142.269C75.1698 142.286 71.6497 142.309 67.5799 142.337H67.4382V142.196C67.4382 141.322 67.4382 140.415 67.4382 139.479C67.4382 139.014 67.4382 138.538 67.4382 138.062V136.622V136.61C67.4041 136.639 67.7159 136.327 67.5855 136.463C73.0895 136.48 78.0663 136.497 81.6487 136.508H81.7507V136.61C81.728 138.328 81.7053 139.729 81.694 140.733C81.6827 141.186 81.677 141.549 81.6713 141.827C81.6657 142.076 81.6543 142.201 81.6487 142.196L81.6317 142.19Z" fill="black"/>
</g>
<g opacity="0.3">
<path d="M166.345 150.633C166.345 150.633 166.333 150.486 166.322 150.23C166.316 149.947 166.305 149.573 166.299 149.113C166.288 148.121 166.265 146.749 166.243 145.053L166.345 145.155C162.762 145.167 157.786 145.184 152.282 145.201C152.151 145.331 152.457 145.019 152.429 145.053V145.779C152.429 146.023 152.429 146.261 152.429 146.499C152.429 146.976 152.429 147.452 152.429 147.917C152.429 148.853 152.429 149.76 152.429 150.633L152.287 150.491C156.323 150.52 159.809 150.542 162.332 150.559C163.562 150.576 164.554 150.588 165.273 150.599C165.597 150.605 165.863 150.61 166.067 150.616C166.248 150.622 166.35 150.627 166.356 150.633C166.362 150.639 166.277 150.644 166.101 150.65C165.903 150.65 165.648 150.661 165.336 150.667C164.622 150.678 163.641 150.69 162.428 150.707C159.883 150.724 156.363 150.746 152.293 150.775H152.151V150.633C152.151 149.76 152.151 148.853 152.151 147.917C152.151 147.452 152.151 146.976 152.151 146.499C152.151 146.261 152.151 146.017 152.151 145.779V145.059V145.048C152.117 145.076 152.429 144.764 152.299 144.9C157.803 144.917 162.779 144.934 166.362 144.946H166.464V145.048C166.441 146.766 166.418 148.166 166.407 149.17C166.396 149.624 166.39 149.987 166.384 150.264C166.379 150.514 166.367 150.639 166.362 150.633H166.345Z" fill="black"/>
</g>
<g opacity="0.3">
<path d="M188.536 203.259C188.536 203.259 188.525 203.112 188.514 202.857C188.508 202.573 188.497 202.199 188.491 201.74C188.48 200.747 188.457 199.375 188.434 197.68L188.536 197.782C184.954 197.793 179.977 197.81 174.473 197.827C174.343 197.958 174.649 197.646 174.621 197.68V198.406C174.621 198.649 174.621 198.888 174.621 199.126C174.621 199.602 174.621 200.078 174.621 200.543C174.621 201.479 174.621 202.386 174.621 203.259L174.479 203.118C178.515 203.146 182.001 203.169 184.523 203.186C185.753 203.203 186.745 203.214 187.465 203.225C187.788 203.231 188.054 203.237 188.259 203.242C188.44 203.248 188.542 203.254 188.548 203.259C188.553 203.265 188.468 203.271 188.293 203.276C188.094 203.276 187.839 203.288 187.527 203.293C186.813 203.305 185.832 203.316 184.619 203.333C182.074 203.35 178.554 203.373 174.479 203.401H174.337V203.259C174.337 202.386 174.337 201.479 174.337 200.543C174.337 200.078 174.337 199.602 174.337 199.126C174.337 198.888 174.337 198.644 174.337 198.406V197.686V197.674C174.303 197.703 174.615 197.391 174.484 197.527C179.988 197.544 184.965 197.561 188.548 197.572H188.65V197.674C188.627 199.392 188.604 200.793 188.593 201.797C188.582 202.25 188.576 202.613 188.57 202.891C188.565 203.14 188.553 203.265 188.548 203.259H188.536Z" fill="black"/>
</g>
<g opacity="0.3">
<path d="M113.448 151.637H99.3848V157.222H113.448V151.637Z" fill="black"/>
</g>
<g opacity="0.3">
<path d="M180.408 139.604H166.345V145.189H180.408V139.604Z" fill="black"/>
</g>
<path d="M155.717 207.875H124.75V238.852H155.717V207.875Z" fill="#263238"/>
<path d="M361.573 231.771H350.038V235.388H361.573V231.771Z" fill="#FF5B01"/>
<path d="M341.978 230.132V234.918H345.918L347.493 232.627H376.254V230.132H341.978Z" fill="#263238"/>
<path d="M341.734 214.986C341.723 214.827 341.593 214.703 341.428 214.708C339.869 214.771 332.478 215.111 330.959 215.842C329.797 216.404 328.521 218.49 327.62 219.902C326.974 220.912 325.551 223.151 325.268 224.297C325.024 225.266 324.877 227.279 324.894 228.277L325.302 233.562H332.002L332.671 231.816C333.107 230.676 334.201 229.927 335.42 229.927H342.074V221.155L341.729 214.986H341.734Z" fill="#2B2E35"/>
<path d="M330.165 216.427C329.241 217.305 328.317 218.808 327.62 219.897C327.025 220.832 325.761 222.823 325.347 224.019C325.341 224.042 325.336 224.065 325.324 224.082C325.529 224.025 325.84 223.911 325.937 223.719C326.084 223.424 326.271 222.42 328.601 218.627C329.309 217.47 330.001 216.795 330.16 216.421L330.165 216.427Z" fill="#FF5B01"/>
<path d="M338.294 216.035C336.582 216.132 332.869 216.381 331.684 216.789C330.137 217.317 328.402 221.411 328.323 221.592L327.155 224.586C327.127 224.671 327.189 224.756 327.28 224.756H330.301C330.415 224.756 330.528 224.734 330.636 224.694L338.583 221.734C338.94 221.598 339.178 221.258 339.178 220.872V216.869C339.178 216.387 338.775 216.007 338.294 216.035Z" fill="#263238"/>
<path d="M327.484 224.467C327.484 224.467 328.606 221.955 328.981 221.133C329.547 219.891 330.879 217.345 331.775 217.073C332.597 216.824 334.972 216.523 338.311 216.336C338.322 216.336 338.333 216.336 338.345 216.336C338.639 216.336 338.883 216.58 338.883 216.875V220.969C338.883 221.173 338.753 221.36 338.56 221.434L332.688 222.159C332.212 222.216 331.786 222.483 331.52 222.885L330.505 224.439C330.443 224.462 330.381 224.473 330.318 224.473H327.484V224.467Z" fill="#FF5B01"/>
<path d="M332.472 222.199L330.471 224.422L331.577 217.039L331.855 216.942L331.31 222.414C331.299 222.533 331.418 222.624 331.531 222.579L332.472 222.199Z" fill="#263238"/>
<path d="M324.763 228.793C324.758 228.697 324.786 228.618 324.837 228.618L325.908 228.521C325.999 228.515 326.078 228.68 326.09 228.878L326.135 229.701C326.141 229.831 326.101 229.944 326.044 229.956L324.95 230.143C324.899 230.149 324.854 230.08 324.848 229.984L324.758 228.805L324.763 228.793Z" fill="#EBEBEB"/>
<path d="M332.472 232.626H324.763V235.717H332.472V232.626Z" fill="#263238"/>
<path d="M333.243 234.674C333.209 237.004 335.068 238.921 337.398 238.955C339.728 238.989 341.644 237.129 341.678 234.799C341.712 232.468 339.852 230.552 337.523 230.518C335.193 230.484 333.277 232.343 333.243 234.674Z" fill="#263238"/>
<path d="M333.243 234.663V234.674C333.209 237.004 335.068 238.921 337.398 238.955C339.728 238.989 341.644 237.129 341.678 234.799C341.678 234.799 341.678 234.793 341.678 234.787L333.243 234.668V234.663Z" fill="#263238"/>
<path d="M334.502 234.691C334.479 236.33 335.783 237.674 337.421 237.696C339.059 237.719 340.402 236.415 340.425 234.776C340.448 233.137 339.144 231.793 337.506 231.771C335.868 231.748 334.524 233.052 334.502 234.691Z" fill="#FAFAFA"/>
<path d="M337.506 231.771C335.868 231.748 334.524 233.052 334.501 234.691L340.425 234.776C340.448 233.137 339.144 231.793 337.506 231.771Z" fill="#D4D4D4"/>
<path d="M335.658 234.708C335.641 235.706 336.44 236.523 337.438 236.54C338.435 236.557 339.251 235.757 339.268 234.759C339.285 233.761 338.486 232.945 337.489 232.928C336.491 232.911 335.675 233.71 335.658 234.708Z" fill="#263238"/>
<path d="M329.02 218.717H329.19C329.627 218.717 329.978 219.069 329.978 219.505V222.12C329.978 222.556 329.627 222.908 329.19 222.908H329.02C328.584 222.908 328.232 222.556 328.232 222.12V219.505C328.232 219.069 328.584 218.717 329.02 218.717Z" fill="#263238"/>
<path d="M327.507 225.51H327.416V221.071C327.416 220.628 327.773 220.271 328.215 220.271H328.425V220.362H328.215C327.824 220.362 327.507 220.679 327.507 221.071V225.51Z" fill="#263238"/>
<path d="M328.108 225.516L327.864 221.365C327.853 221.218 327.904 221.082 328.006 220.974C328.108 220.866 328.238 220.81 328.385 220.81V220.9C328.266 220.9 328.153 220.951 328.068 221.036C327.983 221.127 327.943 221.241 327.949 221.36L328.193 225.51H328.108V225.516Z" fill="#263238"/>
<path d="M328.385 225.113H327.201V226.486H328.385V225.113Z" fill="#263238"/>
<path d="M327.943 222.505H327.461V222.596H327.943V222.505Z" fill="#263238"/>
<path d="M331.973 216.155C331.973 216.155 332.007 216.155 332.075 216.143L332.387 216.109C332.659 216.075 333.062 216.03 333.583 215.973C334.626 215.854 336.145 215.684 338.044 215.463C338.282 215.434 338.526 215.406 338.775 215.383C338.9 215.372 339.03 215.383 339.155 215.406C339.28 215.44 339.404 215.48 339.523 215.548C339.756 215.678 339.954 215.877 340.079 216.126C340.141 216.251 340.187 216.381 340.209 216.523C340.226 216.591 340.221 216.665 340.226 216.733V216.943C340.226 218.077 340.226 219.302 340.226 220.594C340.226 223.18 340.226 226.055 340.226 229.128V229.151H340.204C339.212 229.151 338.197 229.151 337.16 229.151C336.644 229.151 336.117 229.151 335.59 229.151C335.323 229.151 335.063 229.145 334.802 229.191C334.541 229.225 334.286 229.31 334.037 229.406C333.271 229.735 332.659 230.376 332.37 231.136C332.336 231.232 332.296 231.323 332.274 231.425C332.251 231.521 332.217 231.618 332.206 231.72L332.183 231.867L332.172 231.941V232.015L332.16 232.168V232.253C332.16 232.253 332.126 232.281 332.132 232.275H332.07C331.667 232.275 331.265 232.275 330.868 232.275C329.281 232.275 327.745 232.275 326.277 232.275H326.254V232.253C326.254 230.926 326.254 229.644 326.254 228.425C326.254 227.813 326.254 227.217 326.254 226.633C326.254 226.344 326.254 226.055 326.254 225.771C326.254 225.63 326.254 225.488 326.254 225.352C326.254 225.21 326.265 225.074 326.282 224.938C326.35 224.388 326.526 223.872 326.781 223.424C327.025 222.97 327.257 222.528 327.484 222.103C327.937 221.258 328.351 220.475 328.731 219.767C329.111 219.058 329.445 218.423 329.746 217.867C329.819 217.731 329.893 217.595 329.961 217.464C329.995 217.402 330.029 217.334 330.063 217.277C330.097 217.215 330.142 217.164 330.182 217.107C330.352 216.897 330.533 216.733 330.715 216.614C331.078 216.364 331.406 216.268 331.627 216.217C331.849 216.166 331.968 216.16 331.968 216.16C331.968 216.16 331.939 216.16 331.883 216.172C331.826 216.183 331.741 216.194 331.627 216.223C331.406 216.274 331.083 216.376 330.721 216.625C330.545 216.75 330.358 216.909 330.193 217.118C330.154 217.17 330.114 217.226 330.074 217.283C330.04 217.34 330.006 217.408 329.972 217.47L329.763 217.873L328.754 219.772C328.38 220.481 327.96 221.264 327.512 222.114C327.286 222.539 327.053 222.976 326.809 223.435C326.56 223.883 326.384 224.394 326.316 224.938C326.299 225.074 326.288 225.21 326.288 225.352C326.288 225.488 326.288 225.63 326.288 225.771V226.633C326.288 227.217 326.288 227.813 326.288 228.425C326.288 229.65 326.288 230.926 326.288 232.253L326.265 232.23C327.733 232.23 329.269 232.23 330.857 232.23H332.121C332.121 232.23 332.075 232.27 332.098 232.253V232.168L332.109 232.015V231.941L332.126 231.867L332.149 231.714C332.16 231.612 332.194 231.516 332.217 231.413C332.24 231.311 332.279 231.221 332.313 231.119C332.608 230.347 333.232 229.695 334.008 229.366C334.258 229.27 334.518 229.179 334.785 229.151C335.051 229.106 335.318 229.117 335.578 229.111C336.105 229.111 336.627 229.111 337.148 229.111C338.186 229.111 339.2 229.111 340.192 229.111L340.17 229.134C340.17 226.061 340.17 223.186 340.17 220.6C340.17 219.307 340.17 218.088 340.17 216.948C340.17 216.807 340.17 216.665 340.153 216.529C340.136 216.393 340.09 216.262 340.028 216.143C339.909 215.899 339.711 215.707 339.489 215.582C339.376 215.519 339.257 215.474 339.132 215.446C339.008 215.423 338.883 215.406 338.758 215.423C338.509 215.446 338.265 215.474 338.027 215.502C336.128 215.712 334.609 215.882 333.566 215.996C333.045 216.052 332.642 216.098 332.37 216.126C332.234 216.143 332.132 216.149 332.058 216.16C331.99 216.166 331.951 216.172 331.951 216.172L331.973 216.155Z" fill="#263238"/>
<path d="M338.826 225.885C338.826 225.885 338.849 225.885 338.894 225.873C338.94 225.868 339.002 225.851 339.076 225.8C339.144 225.754 339.223 225.675 339.257 225.562C339.274 225.505 339.286 225.443 339.28 225.374C339.28 225.306 339.263 225.238 339.229 225.17C339.161 225.04 339.008 224.927 338.832 224.927C338.651 224.927 338.458 224.927 338.254 224.927C337.846 224.927 337.392 224.927 336.922 224.927C336.809 224.927 336.701 224.972 336.621 225.046C336.542 225.119 336.491 225.221 336.48 225.329C336.468 225.437 336.48 225.545 336.536 225.635C336.587 225.726 336.667 225.794 336.758 225.834C336.848 225.873 336.945 225.868 337.047 225.868C337.143 225.868 337.239 225.868 337.33 225.868C337.511 225.868 337.681 225.868 337.834 225.868C338.141 225.868 338.39 225.868 338.566 225.873H338.764C338.809 225.879 338.832 225.879 338.832 225.885C338.832 225.89 338.809 225.885 338.764 225.885H338.566C338.39 225.89 338.141 225.89 337.834 225.896C337.681 225.896 337.511 225.896 337.33 225.896C337.239 225.896 337.143 225.896 337.047 225.896C336.996 225.896 336.95 225.896 336.899 225.896C336.848 225.896 336.797 225.879 336.746 225.862C336.65 225.822 336.559 225.749 336.502 225.647C336.446 225.55 336.429 225.431 336.44 225.318C336.451 225.204 336.508 225.091 336.599 225.006C336.689 224.927 336.809 224.875 336.933 224.875C337.404 224.875 337.857 224.875 338.265 224.875C338.469 224.875 338.662 224.875 338.849 224.875C339.042 224.875 339.201 225 339.274 225.142C339.308 225.216 339.325 225.289 339.325 225.363C339.325 225.431 339.32 225.505 339.297 225.562C339.257 225.681 339.172 225.76 339.098 225.805C339.025 225.851 338.957 225.868 338.911 225.873C338.866 225.873 338.843 225.873 338.843 225.873L338.826 225.885Z" fill="#263238"/>
<path d="M338.662 224.779C338.662 224.779 338.322 224.802 337.908 224.802C337.494 224.802 337.154 224.79 337.154 224.779C337.154 224.768 337.494 224.756 337.908 224.756C338.322 224.756 338.662 224.768 338.662 224.779Z" fill="white"/>
<path d="M332.824 235.745L332.121 235.694C332.302 233.171 332.574 231.663 332.943 231.079C333.651 229.962 334.36 229.758 335.142 229.627C335.873 229.502 336.604 229.531 337.318 229.559H337.494C338.962 229.621 342.035 229.57 342.069 229.57L342.08 230.274C342.052 230.274 338.957 230.325 337.466 230.268H337.29C336.616 230.234 335.918 230.205 335.261 230.319C334.564 230.438 334.093 230.574 333.532 231.459C333.362 231.725 333.045 232.638 332.818 235.745H332.824Z" fill="#263238"/>
<path d="M377.122 207.014H342.448V230.109H377.122V207.014Z" fill="#2B2E35"/>
<path d="M376.702 229.65C376.702 229.502 376.697 221.031 376.685 207.535L376.702 207.552C367.412 207.552 355.616 207.552 342.817 207.552L342.84 207.53C342.84 215.389 342.84 222.873 342.84 229.644L342.817 229.621C362.752 229.633 376.515 229.644 376.702 229.644C376.515 229.644 362.752 229.655 342.817 229.667H342.794V229.644C342.794 222.873 342.794 215.389 342.794 207.53V207.507H342.823C355.622 207.507 367.417 207.507 376.708 207.507H376.725V207.524C376.713 221.019 376.708 229.491 376.708 229.638L376.702 229.65Z" fill="#263238"/>
<path d="M337.517 217.952C337.517 217.952 337.506 217.963 337.483 217.98L337.387 218.048C337.302 218.111 337.177 218.196 337.024 218.298C336.718 218.508 336.287 218.791 335.811 219.097C335.335 219.404 334.898 219.676 334.581 219.868C334.422 219.965 334.292 220.044 334.201 220.095L334.099 220.152L334.059 220.169C334.059 220.169 334.071 220.158 334.093 220.141L334.195 220.073C334.292 220.01 334.416 219.931 334.564 219.834C334.881 219.63 335.312 219.358 335.788 219.052C336.259 218.746 336.689 218.474 337.007 218.264L337.375 218.026L337.477 217.963C337.477 217.963 337.511 217.941 337.517 217.946V217.952Z" fill="#FAFAFA"/>
<path d="M336.015 218.349C336.015 218.349 336.003 218.36 335.981 218.377L335.884 218.445C335.799 218.508 335.675 218.593 335.522 218.695C335.216 218.905 334.785 219.188 334.309 219.494C333.833 219.8 333.396 220.073 333.079 220.265C332.92 220.362 332.79 220.441 332.699 220.492L332.597 220.549L332.557 220.566C332.557 220.566 332.568 220.555 332.591 220.538L332.693 220.47C332.784 220.407 332.914 220.328 333.062 220.231C333.379 220.027 333.81 219.755 334.286 219.449C334.756 219.143 335.187 218.871 335.505 218.661C335.658 218.564 335.782 218.485 335.873 218.423L335.975 218.36C335.975 218.36 336.009 218.338 336.015 218.343V218.349Z" fill="#FAFAFA"/>
<path d="M328.606 220.912C328.606 220.912 328.595 220.884 328.578 220.832C328.561 220.781 328.544 220.708 328.521 220.617C328.482 220.436 328.425 220.175 328.431 219.886C328.431 219.596 328.51 219.336 328.601 219.171C328.646 219.086 328.691 219.024 328.725 218.984C328.759 218.944 328.782 218.927 328.782 218.927C328.788 218.927 328.708 219.018 328.629 219.188C328.55 219.353 328.482 219.608 328.476 219.891C328.476 220.175 328.521 220.43 328.555 220.617C328.589 220.798 328.612 220.918 328.606 220.918V220.912Z" fill="#FAFAFA"/>
<path d="M325.024 227.155C325.024 227.155 325.024 227.121 325.024 227.058C325.024 226.996 325.024 226.905 325.024 226.792C325.03 226.565 325.047 226.253 325.075 225.907C325.103 225.561 325.137 225.25 325.166 225.028C325.177 224.915 325.194 224.824 325.2 224.762C325.211 224.7 325.217 224.666 325.222 224.666C325.222 224.666 325.222 224.7 325.222 224.762L325.2 225.028C325.177 225.267 325.154 225.567 325.126 225.907C325.103 226.248 325.081 226.554 325.064 226.786C325.058 226.894 325.047 226.979 325.047 227.053C325.047 227.115 325.035 227.149 325.035 227.149L325.024 227.155Z" fill="#FAFAFA"/>
<path d="M334.666 228.862C334.666 228.862 334.496 228.896 334.235 228.981C334.105 229.02 333.952 229.083 333.787 229.162C333.623 229.247 333.453 229.344 333.283 229.468C333.113 229.593 332.965 229.729 332.835 229.86C332.71 229.99 332.603 230.12 332.529 230.234C332.37 230.461 332.296 230.614 332.285 230.614C332.285 230.614 332.302 230.574 332.336 230.5C332.353 230.466 332.376 230.421 332.404 230.376C332.433 230.33 332.461 230.274 332.506 230.217C332.58 230.098 332.688 229.967 332.812 229.831C332.937 229.695 333.09 229.559 333.26 229.429C333.43 229.304 333.612 229.202 333.776 229.122C333.946 229.043 334.099 228.986 334.235 228.947C334.303 228.924 334.365 228.913 334.416 228.901C334.467 228.89 334.518 228.879 334.558 228.873C334.638 228.862 334.677 228.856 334.677 228.862H334.666Z" fill="#FAFAFA"/>
<path d="M343.333 223.548C343.333 223.548 343.333 223.537 343.333 223.509V223.395C343.333 223.293 343.327 223.151 343.327 222.97C343.327 222.596 343.316 222.063 343.304 221.399C343.282 220.072 343.248 218.241 343.214 216.217C343.174 214.192 343.146 212.361 343.134 211.034C343.129 210.37 343.129 209.832 343.129 209.463V208.924L343.134 208.885C343.134 208.885 343.134 208.896 343.134 208.924V209.038C343.134 209.14 343.14 209.282 343.14 209.463C343.14 209.837 343.151 210.37 343.163 211.034C343.185 212.361 343.219 214.192 343.253 216.217C343.293 218.241 343.321 220.072 343.333 221.399C343.338 222.063 343.338 222.601 343.338 222.97C343.338 223.151 343.338 223.299 343.338 223.395V223.509V223.548H343.333Z" fill="#FAFAFA"/>
<path d="M335.987 231.771H324.452V235.388H335.987V231.771Z" fill="#FF5B01"/>
<path d="M316.391 230.132V234.918H320.331L321.906 232.627H350.673V230.132H316.391Z" fill="#263238"/>
<path d="M316.148 214.986C316.136 214.827 316.006 214.703 315.842 214.708C314.283 214.771 306.891 215.111 305.372 215.842C304.21 216.404 302.935 218.49 302.033 219.902C301.387 220.912 299.965 223.151 299.681 224.297C299.437 225.266 299.29 227.279 299.307 228.277L299.715 233.562H306.415L307.084 231.816C307.52 230.676 308.614 229.927 309.833 229.927H316.488V221.155L316.142 214.986H316.148Z" fill="#2B2E35"/>
<path d="M304.578 216.427C303.654 217.305 302.73 218.808 302.033 219.897C301.438 220.832 300.174 222.823 299.76 224.019C299.755 224.042 299.749 224.065 299.738 224.082C299.942 224.025 300.253 223.911 300.35 223.719C300.497 223.424 300.684 222.42 303.014 218.627C303.722 217.47 304.414 216.795 304.573 216.421L304.578 216.427Z" fill="#FF5B01"/>
<path d="M312.707 216.035C310.995 216.132 307.282 216.381 306.097 216.789C304.55 217.317 302.815 221.411 302.736 221.592L301.568 224.586C301.54 224.671 301.602 224.756 301.693 224.756H304.714C304.828 224.756 304.941 224.734 305.049 224.694L312.996 221.734C313.353 221.598 313.591 221.258 313.591 220.872V216.869C313.591 216.387 313.188 216.007 312.707 216.035Z" fill="#263238"/>
<path d="M301.897 224.467C301.897 224.467 303.02 221.955 303.394 221.133C303.961 219.891 305.293 217.345 306.188 217.073C307.01 216.824 309.385 216.523 312.724 216.336C312.735 216.336 312.746 216.336 312.758 216.336C313.053 216.336 313.296 216.58 313.296 216.875V220.969C313.296 221.173 313.166 221.36 312.973 221.434L307.101 222.159C306.625 222.216 306.2 222.483 305.933 222.885L304.913 224.439C304.85 224.462 304.788 224.473 304.726 224.473H301.892L301.897 224.467Z" fill="#FF5B01"/>
<path d="M306.885 222.199L304.885 224.422L305.99 217.039L306.268 216.942L305.723 222.414C305.712 222.533 305.831 222.624 305.944 222.579L306.885 222.199Z" fill="#263238"/>
<path d="M299.176 228.793C299.171 228.697 299.199 228.618 299.25 228.618L300.322 228.521C300.412 228.515 300.492 228.68 300.503 228.878L300.554 229.701C300.56 229.831 300.52 229.944 300.463 229.956L299.369 230.143C299.318 230.149 299.273 230.08 299.267 229.984L299.176 228.805V228.793Z" fill="#EBEBEB"/>
<path d="M306.885 232.626H299.177V235.717H306.885V232.626Z" fill="#263238"/>
<path d="M307.656 234.674C307.622 237.004 309.481 238.921 311.811 238.955C314.141 238.989 316.057 237.129 316.091 234.799C316.125 232.468 314.265 230.552 311.936 230.518C309.606 230.484 307.69 232.343 307.656 234.674Z" fill="#263238"/>
<path d="M307.656 234.663V234.674C307.622 237.004 309.481 238.921 311.811 238.955C314.141 238.989 316.057 237.129 316.091 234.799C316.091 234.799 316.091 234.793 316.091 234.787L307.656 234.668V234.663Z" fill="#263238"/>
<path d="M308.915 234.691C308.892 236.33 310.196 237.674 311.834 237.696C313.472 237.719 314.815 236.415 314.838 234.776C314.861 233.137 313.557 231.793 311.919 231.771C310.281 231.748 308.937 233.052 308.915 234.691Z" fill="#FAFAFA"/>
<path d="M311.919 231.771C310.281 231.748 308.937 233.052 308.915 234.691L314.838 234.776C314.861 233.137 313.557 231.793 311.919 231.771Z" fill="#D4D4D4"/>
<path d="M310.071 234.708C310.054 235.706 310.853 236.523 311.851 236.54C312.848 236.557 313.665 235.757 313.682 234.759C313.699 233.761 312.899 232.945 311.902 232.928C310.904 232.911 310.088 233.71 310.071 234.708Z" fill="#263238"/>
<path d="M303.433 218.717H303.603C304.04 218.717 304.391 219.069 304.391 219.505V222.12C304.391 222.556 304.04 222.908 303.603 222.908H303.433C302.997 222.908 302.645 222.556 302.645 222.12V219.505C302.645 219.069 302.997 218.717 303.433 218.717Z" fill="#263238"/>
<path d="M301.92 225.51H301.829V221.071C301.829 220.628 302.186 220.271 302.628 220.271H302.838V220.362H302.628C302.237 220.362 301.92 220.679 301.92 221.071V225.51Z" fill="#263238"/>
<path d="M302.521 225.516L302.277 221.365C302.266 221.218 302.317 221.082 302.419 220.974C302.521 220.866 302.651 220.81 302.798 220.81V220.9C302.679 220.9 302.566 220.951 302.481 221.036C302.396 221.121 302.356 221.241 302.362 221.36L302.606 225.51H302.521V225.516Z" fill="#263238"/>
<path d="M302.798 225.113H301.614V226.486H302.798V225.113Z" fill="#263238"/>
<path d="M302.362 222.505H301.88V222.596H302.362V222.505Z" fill="#263238"/>
<path d="M306.387 216.155C306.387 216.155 306.421 216.155 306.489 216.143L306.8 216.109C307.072 216.075 307.475 216.03 307.996 215.973C309.039 215.854 310.558 215.684 312.457 215.463C312.695 215.434 312.939 215.406 313.189 215.383C313.313 215.372 313.444 215.383 313.568 215.406C313.693 215.44 313.818 215.48 313.937 215.548C314.169 215.678 314.368 215.877 314.492 216.126C314.555 216.251 314.6 216.381 314.623 216.523C314.64 216.591 314.634 216.665 314.64 216.733V216.943C314.64 218.077 314.64 219.302 314.64 220.594C314.64 223.18 314.64 226.055 314.64 229.128V229.151H314.617C313.625 229.151 312.61 229.151 311.573 229.151C311.057 229.151 310.53 229.151 310.003 229.151C309.737 229.151 309.476 229.145 309.215 229.191C308.954 229.225 308.699 229.31 308.45 229.406C307.685 229.735 307.072 230.376 306.783 231.136C306.749 231.232 306.71 231.323 306.687 231.425C306.664 231.521 306.63 231.618 306.619 231.72L306.596 231.867L306.585 231.941V232.015L306.574 232.168V232.253C306.574 232.253 306.54 232.281 306.545 232.275H306.483C306.08 232.275 305.678 232.275 305.281 232.275C303.694 232.275 302.158 232.275 300.69 232.275H300.667V232.253C300.667 230.926 300.667 229.644 300.667 228.425C300.667 227.813 300.667 227.217 300.667 226.633V225.771C300.667 225.63 300.667 225.488 300.667 225.352C300.667 225.21 300.679 225.074 300.696 224.938C300.764 224.388 300.939 223.872 301.194 223.424C301.438 222.97 301.671 222.528 301.897 222.103C302.351 221.258 302.765 220.475 303.144 219.767C303.524 219.058 303.859 218.423 304.159 217.867L304.374 217.464C304.408 217.402 304.442 217.334 304.476 217.277C304.516 217.215 304.556 217.164 304.595 217.107C304.765 216.897 304.947 216.733 305.128 216.614C305.491 216.364 305.82 216.268 306.041 216.217C306.262 216.166 306.381 216.16 306.381 216.16C306.381 216.16 306.353 216.16 306.296 216.172C306.239 216.183 306.154 216.194 306.041 216.223C305.82 216.274 305.497 216.376 305.134 216.625C304.958 216.75 304.771 216.909 304.607 217.118C304.567 217.17 304.527 217.226 304.488 217.283C304.454 217.34 304.42 217.408 304.386 217.47C304.318 217.6 304.25 217.731 304.176 217.873C303.881 218.428 303.547 219.063 303.167 219.772C302.793 220.481 302.373 221.264 301.926 222.114C301.699 222.539 301.466 222.976 301.223 223.435C300.973 223.883 300.798 224.394 300.73 224.938C300.713 225.074 300.701 225.21 300.701 225.352C300.701 225.488 300.701 225.63 300.701 225.771C300.701 226.055 300.701 226.344 300.701 226.633C300.701 227.217 300.701 227.813 300.701 228.425C300.701 229.65 300.701 230.926 300.701 232.253L300.679 232.23C302.147 232.23 303.683 232.23 305.27 232.23H306.534C306.534 232.23 306.489 232.27 306.511 232.253V232.168L306.523 232.015V231.941L306.54 231.867L306.562 231.714C306.574 231.612 306.608 231.516 306.63 231.413C306.653 231.311 306.693 231.221 306.727 231.119C307.021 230.347 307.645 229.695 308.422 229.366C308.671 229.27 308.932 229.179 309.198 229.151C309.464 229.106 309.731 229.117 309.992 229.111C310.519 229.111 311.04 229.111 311.562 229.111C312.599 229.111 313.614 229.111 314.606 229.111L314.583 229.134C314.583 226.061 314.583 223.186 314.583 220.6C314.583 219.307 314.583 218.088 314.583 216.948C314.583 216.807 314.583 216.665 314.566 216.529C314.549 216.393 314.504 216.262 314.441 216.143C314.322 215.899 314.124 215.707 313.903 215.582C313.789 215.519 313.67 215.474 313.546 215.446C313.421 215.423 313.296 215.406 313.172 215.423C312.922 215.446 312.678 215.474 312.44 215.502C310.541 215.712 309.022 215.882 307.979 215.996C307.458 216.052 307.055 216.098 306.783 216.126C306.647 216.143 306.545 216.149 306.472 216.16C306.404 216.166 306.364 216.172 306.364 216.172L306.387 216.155Z" fill="#263238"/>
<path d="M313.24 225.885C313.24 225.885 313.262 225.885 313.308 225.873C313.353 225.868 313.415 225.851 313.489 225.8C313.557 225.754 313.636 225.675 313.67 225.562C313.687 225.505 313.699 225.443 313.693 225.374C313.693 225.306 313.676 225.238 313.642 225.17C313.574 225.04 313.421 224.927 313.245 224.927C313.064 224.927 312.871 224.927 312.667 224.927C312.259 224.927 311.805 224.927 311.335 224.927C311.222 224.927 311.114 224.972 311.035 225.046C310.955 225.119 310.904 225.221 310.893 225.329C310.882 225.437 310.893 225.545 310.95 225.635C311.001 225.726 311.08 225.794 311.171 225.834C311.261 225.873 311.358 225.868 311.46 225.868C311.556 225.868 311.652 225.868 311.743 225.868C311.924 225.868 312.095 225.868 312.248 225.868C312.554 225.868 312.803 225.868 312.979 225.873H313.177C313.223 225.879 313.245 225.879 313.245 225.885C313.245 225.89 313.223 225.885 313.177 225.885H312.979C312.803 225.89 312.554 225.89 312.248 225.896C312.095 225.896 311.924 225.896 311.743 225.896C311.652 225.896 311.556 225.896 311.46 225.896C311.409 225.896 311.363 225.896 311.312 225.896C311.261 225.896 311.21 225.879 311.159 225.862C311.063 225.822 310.972 225.749 310.916 225.647C310.859 225.55 310.842 225.431 310.853 225.318C310.865 225.204 310.921 225.091 311.012 225.006C311.103 224.927 311.222 224.875 311.346 224.875C311.817 224.875 312.27 224.875 312.678 224.875C312.882 224.875 313.075 224.875 313.262 224.875C313.455 224.875 313.614 225 313.687 225.142C313.721 225.216 313.738 225.289 313.738 225.363C313.738 225.431 313.733 225.505 313.71 225.562C313.67 225.681 313.585 225.76 313.512 225.805C313.438 225.851 313.37 225.868 313.325 225.873C313.279 225.873 313.257 225.873 313.257 225.873L313.24 225.885Z" fill="#263238"/>
<path d="M313.075 224.779C313.075 224.779 312.735 224.802 312.321 224.802C311.907 224.802 311.567 224.79 311.567 224.779C311.567 224.768 311.907 224.756 312.321 224.756C312.735 224.756 313.075 224.768 313.075 224.779Z" fill="white"/>
<path d="M307.237 235.745L306.534 235.694C306.715 233.171 306.987 231.663 307.356 231.079C308.07 229.962 308.773 229.758 309.555 229.627C310.286 229.502 311.018 229.531 311.732 229.559H311.908C313.376 229.621 316.448 229.57 316.482 229.57L316.493 230.274C316.465 230.274 313.37 230.325 311.879 230.268H311.703C311.029 230.234 310.332 230.205 309.674 230.319C308.977 230.438 308.507 230.574 307.945 231.459C307.775 231.725 307.458 232.638 307.231 235.745H307.237Z" fill="#263238"/>
<path d="M351.535 207.014H316.862V230.109H351.535V207.014Z" fill="#2B2E35"/>
<path d="M351.115 229.65C351.115 229.502 351.11 221.031 351.099 207.535L351.115 207.552C341.825 207.552 330.029 207.552 317.23 207.552L317.253 207.53C317.253 215.389 317.253 222.873 317.253 229.644L317.23 229.621C337.166 229.633 350.928 229.644 351.115 229.644C350.928 229.644 337.166 229.655 317.23 229.667H317.208V229.644C317.208 222.873 317.208 215.389 317.208 207.53V207.507H317.236C330.035 207.507 341.831 207.507 351.121 207.507H351.138V207.524C351.127 221.019 351.121 229.491 351.121 229.638L351.115 229.65Z" fill="#263238"/>
<path d="M311.93 217.952C311.93 217.952 311.919 217.963 311.896 217.98L311.8 218.048C311.715 218.111 311.59 218.196 311.437 218.298C311.131 218.508 310.7 218.791 310.224 219.097C309.748 219.404 309.312 219.676 308.994 219.868C308.835 219.965 308.705 220.044 308.614 220.095L308.512 220.152L308.473 220.169C308.473 220.169 308.484 220.158 308.507 220.141L308.609 220.073C308.699 220.01 308.83 219.931 308.977 219.834C309.295 219.63 309.725 219.358 310.201 219.052C310.672 218.746 311.103 218.474 311.42 218.264C311.573 218.167 311.698 218.088 311.789 218.026L311.891 217.963C311.891 217.963 311.925 217.941 311.93 217.946V217.952Z" fill="#FAFAFA"/>
<path d="M310.428 218.349C310.428 218.349 310.417 218.36 310.394 218.377L310.298 218.445C310.213 218.508 310.088 218.593 309.935 218.695C309.629 218.905 309.198 219.188 308.722 219.494C308.246 219.801 307.809 220.073 307.492 220.266C307.333 220.362 307.203 220.441 307.112 220.492L307.01 220.549L306.97 220.566C306.97 220.566 306.982 220.555 307.004 220.538L307.107 220.47L307.475 220.232C307.792 220.027 308.223 219.755 308.699 219.449C309.17 219.143 309.601 218.871 309.918 218.661C310.071 218.564 310.196 218.485 310.286 218.423C310.326 218.4 310.36 218.377 310.388 218.36C310.411 218.349 310.422 218.338 310.428 218.343V218.349Z" fill="#FAFAFA"/>
<path d="M303.02 220.912C303.02 220.912 303.008 220.884 302.991 220.832C302.974 220.781 302.957 220.708 302.935 220.617C302.895 220.436 302.838 220.175 302.844 219.886C302.844 219.596 302.923 219.336 303.014 219.171C303.059 219.086 303.105 219.024 303.139 218.984C303.173 218.944 303.195 218.927 303.195 218.927C303.201 218.927 303.122 219.018 303.042 219.188C302.963 219.353 302.895 219.608 302.889 219.891C302.889 220.175 302.935 220.43 302.969 220.617C303.003 220.798 303.025 220.918 303.02 220.918V220.912Z" fill="#FAFAFA"/>
<path d="M299.437 227.155C299.437 227.155 299.437 227.121 299.437 227.058C299.437 226.996 299.437 226.905 299.437 226.792C299.443 226.565 299.46 226.253 299.488 225.907C299.517 225.561 299.551 225.25 299.579 225.028C299.59 224.915 299.607 224.824 299.613 224.762C299.624 224.7 299.63 224.666 299.636 224.666C299.636 224.666 299.636 224.7 299.636 224.762C299.63 224.836 299.624 224.926 299.613 225.028C299.59 225.267 299.568 225.567 299.539 225.907C299.517 226.248 299.494 226.554 299.477 226.786C299.471 226.894 299.46 226.979 299.46 227.053C299.46 227.115 299.449 227.149 299.449 227.149L299.437 227.155Z" fill="#FAFAFA"/>
<path d="M309.079 228.862C309.079 228.862 308.909 228.896 308.648 228.981C308.518 229.02 308.365 229.083 308.2 229.162C308.036 229.247 307.866 229.344 307.696 229.468C307.526 229.593 307.378 229.729 307.248 229.86C307.123 229.99 307.016 230.12 306.942 230.234C306.783 230.461 306.71 230.614 306.698 230.614C306.698 230.614 306.715 230.574 306.749 230.5C306.766 230.466 306.789 230.421 306.817 230.376C306.846 230.33 306.874 230.274 306.919 230.217C306.993 230.098 307.101 229.967 307.225 229.831C307.35 229.695 307.503 229.559 307.673 229.429C307.843 229.304 308.025 229.202 308.189 229.122C308.359 229.043 308.512 228.986 308.648 228.947C308.716 228.924 308.779 228.913 308.83 228.901C308.881 228.89 308.932 228.879 308.971 228.873C309.051 228.862 309.09 228.856 309.09 228.862H309.079Z" fill="#FAFAFA"/>
<path d="M317.746 223.548C317.746 223.548 317.746 223.537 317.746 223.509V223.395C317.746 223.293 317.74 223.151 317.74 222.97C317.74 222.596 317.729 222.063 317.718 221.399C317.695 220.072 317.661 218.241 317.627 216.217C317.587 214.192 317.559 212.361 317.548 211.034C317.542 210.37 317.542 209.832 317.542 209.463C317.542 209.282 317.542 209.134 317.542 209.038V208.924V208.885C317.542 208.885 317.542 208.896 317.542 208.924V209.038C317.542 209.14 317.548 209.282 317.548 209.463C317.548 209.837 317.559 210.37 317.57 211.034C317.593 212.361 317.627 214.192 317.661 216.217C317.701 218.241 317.729 220.072 317.74 221.399C317.746 222.063 317.746 222.601 317.746 222.97V223.509L317.74 223.548H317.746Z" fill="#FAFAFA"/>
<path d="M338.821 234.673C338.787 237.004 340.646 238.921 342.976 238.955C345.305 238.989 347.221 237.129 347.255 234.798C347.289 232.468 345.43 230.551 343.1 230.517C340.771 230.483 338.855 232.343 338.821 234.673Z" fill="#263238"/>
<path d="M338.821 234.662V234.673C338.787 237.004 340.646 238.921 342.976 238.955C345.305 238.989 347.221 237.129 347.255 234.798C347.255 234.798 347.255 234.793 347.255 234.787L338.821 234.668V234.662Z" fill="#263238"/>
<path d="M340.079 234.691C340.056 236.329 341.36 237.673 342.998 237.696C344.636 237.719 345.98 236.414 346.003 234.776C346.025 233.137 344.722 231.793 343.083 231.77C341.445 231.748 340.102 233.052 340.079 234.691Z" fill="#FAFAFA"/>
<path d="M343.083 231.77C341.445 231.748 340.102 233.052 340.079 234.691L346.003 234.776C346.025 233.137 344.721 231.793 343.083 231.77Z" fill="#D4D4D4"/>
<path d="M341.235 234.708C341.218 235.706 342.018 236.522 343.015 236.539C344.013 236.556 344.829 235.757 344.846 234.759C344.863 233.761 344.064 232.944 343.066 232.927C342.069 232.91 341.252 233.71 341.235 234.708Z" fill="#263238"/>
<path d="M337.494 235.887C337.494 235.887 336.854 229.905 343.055 229.905C348.774 229.905 348.65 235.053 348.593 235.847H347.697C347.697 235.847 348.156 230.772 343.055 230.772C337.953 230.772 338.401 235.949 338.401 235.949C338.401 235.949 338.027 235.927 337.5 235.887H337.494Z" fill="#FF5B01"/>
<path d="M340.816 230.523C340.816 230.523 340.799 230.529 340.765 230.54C340.731 230.551 340.686 230.563 340.623 230.585C340.498 230.625 340.328 230.687 340.119 230.784C339.705 230.971 339.161 231.322 338.713 231.855C338.265 232.389 338.016 232.99 337.902 233.426C337.846 233.647 337.812 233.829 337.795 233.959C337.783 234.022 337.783 234.073 337.778 234.107C337.778 234.141 337.772 234.158 337.766 234.158C337.766 234.158 337.766 234.141 337.766 234.107C337.766 234.073 337.766 234.022 337.778 233.959C337.789 233.829 337.817 233.647 337.868 233.42C337.976 232.973 338.22 232.371 338.679 231.827C339.132 231.283 339.688 230.937 340.107 230.755C340.317 230.665 340.493 230.602 340.618 230.568C340.68 230.551 340.731 230.54 340.759 230.534C340.793 230.529 340.81 230.523 340.81 230.523H340.816Z" fill="#FAFAFA"/>
</g>
<defs>
<clipPath id="clip0_70_3342">
<rect width="406" height="239" fill="white" transform="translate(-25.5)"/>
</clipPath>
</defs>
</svg>
