<svg width="86" height="20" viewBox="0 0 86 20" fill="none" xmlns="http://www.w3.org/2000/svg">
<path d="M1.02377 19.9327C0.83569 19.9327 0.675821 19.8665 0.544165 19.734C0.412508 19.6016 0.34668 19.4313 0.34668 19.2232V17.2367C0.34668 16.9529 0.403104 16.7258 0.515953 16.5556C0.628801 16.3853 0.713437 16.2623 0.769862 16.1866L10.5877 3.41605H1.30589C1.099 3.41605 0.929731 3.34983 0.798074 3.2174C0.685225 3.08496 0.628801 2.92415 0.628801 2.73496V0.7768C0.628801 0.568686 0.685225 0.398411 0.798074 0.265976C0.929731 0.13354 1.099 0.0673218 1.30589 0.0673218H14.7913C14.9982 0.0673218 15.1675 0.13354 15.2991 0.265976C15.4308 0.398411 15.4966 0.568686 15.4966 0.7768V2.73496C15.4966 2.96199 15.459 3.15118 15.3837 3.30254C15.3085 3.45389 15.2239 3.59579 15.1298 3.72822L5.5095 16.5556H15.1016C15.3085 16.5556 15.4778 16.6218 15.6094 16.7542C15.7411 16.8867 15.8069 17.0569 15.8069 17.265V19.2516C15.8069 19.4408 15.7411 19.6016 15.6094 19.734C15.4778 19.8665 15.3085 19.9327 15.1016 19.9327H1.02377Z" fill="white"/>
<path d="M19.7566 19.9327C19.5685 19.9327 19.4087 19.8665 19.277 19.734C19.1454 19.6016 19.0795 19.4408 19.0795 19.2516V0.7768C19.0795 0.568686 19.1454 0.398411 19.277 0.265976C19.4087 0.13354 19.5685 0.0673218 19.7566 0.0673218H32.17C32.3769 0.0673218 32.5461 0.13354 32.6778 0.265976C32.8094 0.398411 32.8753 0.568686 32.8753 0.7768V2.64982C32.8753 2.83901 32.8094 2.99983 32.6778 3.13226C32.5461 3.2647 32.3769 3.33092 32.17 3.33092H22.8882V8.35401H31.5493C31.7562 8.35401 31.9255 8.42023 32.0571 8.55266C32.1888 8.66618 32.2546 8.827 32.2546 9.03511V10.7946C32.2546 11.0027 32.1888 11.173 32.0571 11.3054C31.9255 11.419 31.7562 11.4757 31.5493 11.4757H22.8882V16.6691H32.3957C32.6026 16.6691 32.7718 16.7353 32.9035 16.8677C33.0351 17.0002 33.101 17.1704 33.101 17.3786V19.2516C33.101 19.4408 33.0351 19.6016 32.9035 19.734C32.7718 19.8665 32.6026 19.9327 32.3957 19.9327H19.7566Z" fill="white"/>
<path d="M41.6512 19.9327C41.4632 19.9327 41.3033 19.8665 41.1716 19.734C41.04 19.6016 40.9741 19.4408 40.9741 19.2516V3.55795H35.7549C35.5668 3.55795 35.4069 3.49173 35.2753 3.35929C35.1436 3.22686 35.0778 3.06604 35.0778 2.87685V0.7768C35.0778 0.568686 35.1436 0.398411 35.2753 0.265976C35.4069 0.13354 35.5668 0.0673218 35.7549 0.0673218H50.1431C50.35 0.0673218 50.5192 0.13354 50.6509 0.265976C50.7826 0.398411 50.8484 0.568686 50.8484 0.7768V2.87685C50.8484 3.06604 50.7826 3.22686 50.6509 3.35929C50.5192 3.49173 50.35 3.55795 50.1431 3.55795H44.952V19.2516C44.952 19.4408 44.8862 19.6016 44.7546 19.734C44.6229 19.8665 44.4536 19.9327 44.2467 19.9327H41.6512Z" fill="white"/>
<path d="M58.7328 19.9327C58.5447 19.9327 58.3848 19.8665 58.2532 19.734C58.1215 19.6016 58.0557 19.4408 58.0557 19.2516V3.55795H52.8365C52.6484 3.55795 52.4885 3.49173 52.3569 3.35929C52.2252 3.22686 52.1594 3.06604 52.1594 2.87685V0.7768C52.1594 0.568686 52.2252 0.398411 52.3569 0.265976C52.4885 0.13354 52.6484 0.0673218 52.8365 0.0673218H67.2246C67.4315 0.0673218 67.6008 0.13354 67.7325 0.265976C67.8641 0.398411 67.93 0.568686 67.93 0.7768V2.87685C67.93 3.06604 67.8641 3.22686 67.7325 3.35929C67.6008 3.49173 67.4315 3.55795 67.2246 3.55795H62.0336V19.2516C62.0336 19.4408 61.9678 19.6016 61.8361 19.734C61.7045 19.8665 61.5352 19.9327 61.3283 19.9327H58.7328Z" fill="white"/>
<path d="M67.5132 19.9327C67.3627 19.9327 67.2216 19.8759 67.09 19.7624C66.9771 19.6489 66.9207 19.507 66.9207 19.3367C66.9207 19.261 66.9395 19.1759 66.9771 19.0813L73.7763 0.7768C73.8327 0.587605 73.9361 0.42679 74.0866 0.294355C74.2559 0.142999 74.4816 0.0673218 74.7637 0.0673218H77.8388C78.1209 0.0673218 78.3372 0.142999 78.4877 0.294355C78.6381 0.42679 78.751 0.587605 78.8262 0.7768L85.6254 19.0813C85.6442 19.1759 85.6536 19.261 85.6536 19.3367C85.6536 19.507 85.5971 19.6489 85.4843 19.7624C85.3714 19.8759 85.2398 19.9327 85.0893 19.9327H82.6349C82.3716 19.9327 82.1741 19.8759 82.0424 19.7624C81.9296 19.63 81.8543 19.507 81.8167 19.3935L80.4907 15.9312H72.1117L70.7858 19.3935C70.7482 19.507 70.6635 19.63 70.5319 19.7624C70.419 19.8759 70.2309 19.9327 69.9676 19.9327H67.5132ZM73.0992 12.6676H79.5033L76.2871 3.8985L73.0992 12.6676Z" fill="white"/>
</svg>
