<svg width="64" height="64" viewBox="0 0 64 64" fill="none" xmlns="http://www.w3.org/2000/svg">
<rect width="64" height="64" rx="4.92308" fill="#F6F6F6"/>
<path d="M18.9391 35.1007V31.6869H20.3083C20.339 31.6869 20.3697 31.6807 20.4004 31.6746V17.0061C20.3697 17.0061 20.339 17 20.3083 17H13.3148C12.3325 17 11.522 17.7982 11.522 18.7683V29.9124C11.522 30.8887 12.3263 31.6869 13.3148 31.6869H17.9076V35.1007H18.9391Z" fill="#FF5B01"/>
<path d="M18.282 35.9542H12.7929C11.8105 35.9542 11 36.7524 11 37.7286V45.2317C11 46.208 11.8043 47 12.7929 47H48.0917C49.0802 47 49.8846 46.2018 49.8846 45.2317V28.9546H37.052V35.9542H18.282Z" fill="#2B2E35"/>
<path d="M52.0828 18.9402H50.3574V26.1178H52.0828V24.5399H52.9424V20.5182H52.0828V18.9402Z" fill="#FF5B01"/>
<path d="M49.8231 26.2959V18.7683C49.8231 17.7921 49.031 17 48.067 17H20.9651V28.0704H48.067C49.031 28.0704 49.8231 27.2722 49.8231 26.2959Z" fill="#2B2E35"/>
<path d="M31.1206 18.2095H22.7703V23.4776H31.1206V18.2095Z" fill="#FF5B01"/>
<path d="M33.2882 21.7462C32.9996 21.7462 32.7725 21.4454 32.7725 21.077C32.7725 20.7086 33.0058 20.4077 33.2882 20.4077C33.5707 20.4077 33.804 20.7086 33.804 21.077C33.804 21.4454 33.5707 21.7462 33.2882 21.7462Z" fill="#FF5B01"/>
<path d="M33.2882 19.8366C32.9996 19.8366 32.7725 19.5357 32.7725 19.1673C32.7725 18.7989 33.0058 18.498 33.2882 18.498C33.5707 18.498 33.804 18.7989 33.804 19.1673C33.804 19.5357 33.5707 19.8366 33.2882 19.8366Z" fill="#FF5B01"/>
<path d="M35.1178 21.7462C34.8292 21.7462 34.6021 21.4454 34.6021 21.077C34.6021 20.7086 34.8292 20.4077 35.1178 20.4077C35.4064 20.4077 35.6336 20.7086 35.6336 21.077C35.6336 21.4454 35.4064 21.7462 35.1178 21.7462Z" fill="#FF5B01"/>
<path d="M35.1178 19.8366C34.8292 19.8366 34.6021 19.5357 34.6021 19.1673C34.6021 18.7989 34.8292 18.498 35.1178 18.498C35.4064 18.498 35.6336 18.7989 35.6336 19.1673C35.6336 19.5357 35.4064 19.8366 35.1178 19.8366Z" fill="#FF5B01"/>
<path d="M36.9476 21.7462C36.6591 21.7462 36.4319 21.4454 36.4319 21.077C36.4319 20.7086 36.6591 20.4077 36.9476 20.4077C37.2362 20.4077 37.4634 20.7086 37.4634 21.077C37.4634 21.4454 37.2301 21.7462 36.9476 21.7462Z" fill="#FF5B01"/>
<path d="M36.9476 19.8366C36.6591 19.8366 36.4319 19.5357 36.4319 19.1673C36.4319 18.7989 36.6591 18.498 36.9476 18.498C37.2362 18.498 37.4634 18.7989 37.4634 19.1673C37.4634 19.5357 37.2301 19.8366 36.9476 19.8366Z" fill="#FF5B01"/>
<path d="M38.7772 21.7462C38.4948 21.7462 38.2615 21.4454 38.2615 21.077C38.2615 20.7086 38.4948 20.4077 38.7772 20.4077C39.0597 20.4077 39.293 20.7086 39.293 21.077C39.293 21.4454 39.0597 21.7462 38.7772 21.7462Z" fill="#FF5B01"/>
<path d="M38.7772 19.8366C38.4948 19.8366 38.2615 19.5357 38.2615 19.1673C38.2615 18.7989 38.4948 18.498 38.7772 18.498C39.0597 18.498 39.293 18.7989 39.293 19.1673C39.293 19.5357 39.0597 19.8366 38.7772 19.8366Z" fill="#FF5B01"/>
<path d="M40.6071 21.7462C40.3246 21.7462 40.0913 21.4454 40.0913 21.077C40.0913 20.7086 40.3246 20.4077 40.6071 20.4077C40.8895 20.4077 41.1228 20.7086 41.1228 21.077C41.1228 21.4454 40.8957 21.7462 40.6071 21.7462Z" fill="#FF5B01"/>
<path d="M40.6071 19.8366C40.3246 19.8366 40.0913 19.5357 40.0913 19.1673C40.0913 18.7989 40.3246 18.498 40.6071 18.498C40.8895 18.498 41.1228 18.7989 41.1228 19.1673C41.1228 19.5357 40.8957 19.8366 40.6071 19.8366Z" fill="#FF5B01"/>
<path d="M42.4367 21.7462C42.1481 21.7462 41.9209 21.4454 41.9209 21.077C41.9209 20.7086 42.1542 20.4077 42.4367 20.4077C42.7191 20.4077 42.9524 20.7086 42.9524 21.077C42.9524 21.4454 42.7191 21.7462 42.4367 21.7462Z" fill="#FF5B01"/>
<path d="M42.4367 19.8366C42.1481 19.8366 41.9209 19.5357 41.9209 19.1673C41.9209 18.7989 42.1542 18.498 42.4367 18.498C42.7191 18.498 42.9524 18.7989 42.9524 19.1673C42.9524 19.5357 42.7191 19.8366 42.4367 19.8366Z" fill="#FF5B01"/>
<path d="M44.1682 20.1191C44.1682 19.0078 45.0769 18.1052 46.2006 18.1052C46.5383 18.1052 46.8514 18.1973 47.1338 18.3385L44.4998 21.2182C44.291 20.8989 44.1682 20.5244 44.1682 20.1191Z" fill="#FF5B01"/>
<path d="M46.2006 22.133C45.8813 22.133 45.5805 22.0532 45.3103 21.9242L47.9198 19.063C48.1101 19.37 48.2268 19.7322 48.2268 20.1191C48.2268 21.2304 47.3181 22.133 46.1945 22.133H46.2006Z" fill="#FF5B01"/>
<path d="M42.136 32.9026C42.136 31.7913 43.0447 30.8887 44.1683 30.8887C44.506 30.8887 44.8192 30.9746 45.1016 31.122L42.4676 34.0017C42.2588 33.6824 42.136 33.3078 42.136 32.9026Z" fill="#FF5B01"/>
<path d="M44.1684 34.9167C43.8491 34.9167 43.5482 34.8369 43.2781 34.7079L45.8876 31.8467C46.0841 32.1537 46.1946 32.5159 46.1946 32.9028C46.1946 34.0141 45.2859 34.9167 44.1622 34.9167H44.1684Z" fill="#FF5B01"/>
<path d="M42.136 37.9741C42.136 36.8628 43.0447 35.9602 44.1683 35.9602C44.506 35.9602 44.8192 36.0523 45.1016 36.1935L42.4676 39.0732C42.2588 38.7539 42.136 38.3794 42.136 37.9741Z" fill="#FF5B01"/>
<path d="M44.1684 39.9882C43.8491 39.9882 43.5482 39.9084 43.2781 39.7795L45.8876 36.9182C46.0841 37.2252 46.1946 37.5875 46.1946 37.9743C46.1946 39.0856 45.2859 39.9882 44.1622 39.9882H44.1684Z" fill="#FF5B01"/>
<path d="M18.5275 34.9165H18.374V35.8805H18.5275V34.9165Z" fill="#FF5B01"/>
<path d="M21.7021 35.9543H15.1814V36.3043H21.7021V35.9543Z" fill="#FF5B01"/>
</svg>
