<svg width="64" height="64" viewBox="0 0 64 64" fill="none" xmlns="http://www.w3.org/2000/svg">
<rect width="64" height="64" rx="4.92308" fill="#F6F6F6"/>
<path d="M41.2667 17H22V18.6845H41.2667V17Z" fill="#FF5B01"/>
<path d="M38.8508 21.6711L41.2667 18.8728H22L24.416 21.6711H38.8508Z" fill="#FF5B01"/>
<path d="M41.2667 45.3154H22V47H41.2667V45.3154Z" fill="#FF5B01"/>
<path d="M38.8508 42.3289H24.416L22 45.1216H41.2667L38.8508 42.3289Z" fill="#FF5B01"/>
<path d="M36.5344 42.085L24.3438 36.0063V36.4164L35.7087 42.085H36.5344Z" fill="#2B2E35"/>
<path d="M37.9141 42.0851L24.3438 35.3137V35.7238L37.094 42.0851H37.9141Z" fill="#2B2E35"/>
<path d="M38.9171 41.2039L24.3438 33.9338V34.3439L38.9171 41.6139V41.2039Z" fill="#2B2E35"/>
<path d="M38.9171 39.8242L24.3438 32.5542V32.9642L38.9171 40.2343V39.8242Z" fill="#2B2E35"/>
<path d="M35.1491 42.0849L24.3438 36.6934V37.1034L34.329 42.0849H35.1491Z" fill="#2B2E35"/>
<path d="M38.9171 40.5169L24.3438 33.2468V33.6569L38.9171 40.9269V40.5169Z" fill="#2B2E35"/>
<path d="M33.7693 42.0849L24.3438 37.386V37.796L32.9492 42.0849H33.7693Z" fill="#2B2E35"/>
<path d="M28.2392 42.0849L24.3438 40.1455V40.5556L27.4136 42.0849H28.2392Z" fill="#2B2E35"/>
<path d="M38.9171 42.0849V41.8965L24.3438 34.6265V35.0365L38.4738 42.0849H38.9171Z" fill="#2B2E35"/>
<path d="M38.9171 39.137L24.3438 31.8669V32.277L38.9171 39.547V39.137Z" fill="#2B2E35"/>
<path d="M26.8539 42.0851L24.3438 40.8328V41.2428L26.0338 42.0851H26.8539Z" fill="#2B2E35"/>
<path d="M32.384 42.0851L24.3438 38.0732V38.4833L31.5639 42.0851H32.384Z" fill="#2B2E35"/>
<path d="M31.0043 42.085L24.3438 38.7659V39.1759L30.1786 42.085H31.0043Z" fill="#2B2E35"/>
<path d="M29.619 42.0849L24.3438 39.4529V39.8629L28.7989 42.0849H29.619Z" fill="#2B2E35"/>
<path d="M38.9171 37.7573L24.3438 30.4873V30.8974L38.9171 38.1674V37.7573Z" fill="#2B2E35"/>
<path d="M38.9171 22.0092L28.5661 27.1736L28.2835 27.0351L38.4793 21.9482H37.626L27.8569 26.8245L27.5743 26.6804L37.0608 21.9482H36.2074L27.1476 26.4699L26.865 26.3313L35.6478 21.9482H34.7944L26.4383 26.1152L26.1613 25.9767L34.2292 21.9482H33.3759L25.7346 25.7606L25.452 25.622L32.8162 21.9482H31.9573L25.0253 25.4059L24.7427 25.2674L31.3977 21.9482H30.5443L24.3438 25.0402V25.3782L38.9171 32.6483V31.1965L37.77 31.7672L37.4874 31.6287L38.9171 30.9139V30.4872L37.0608 31.4126L36.7782 31.2741L38.9171 30.2102V29.7835L36.3515 31.0635L36.0689 30.925L38.9171 29.5009V29.0742L35.6422 30.7089L35.3596 30.5703L38.9171 28.7916V28.3705L34.9385 30.3542L34.6559 30.2157L38.9171 28.0879V27.6612L34.2292 29.9996L33.9466 29.8611L38.9171 27.3786V26.9575L33.52 29.6505L33.2374 29.5064L38.9171 26.6749V26.2482L32.8107 29.2959L32.5336 29.1573L38.9171 25.9711V25.5445L32.107 28.9412L31.8244 28.8027L38.9171 25.2619V24.8352L31.3977 28.5866L31.1151 28.4481L38.9171 24.5526V24.1259L30.6884 28.2375L30.4058 28.0934L38.9171 23.8489V23.4222L29.9791 27.8829L29.7021 27.7443L38.9171 23.1396V22.7129L29.2699 27.5282L28.9928 27.3897L38.9171 22.4359V22.0092Z" fill="#2B2E35"/>
<path d="M38.9171 32.9256L24.3438 25.6555V26.0656L38.9171 33.3356V32.9256Z" fill="#2B2E35"/>
<path d="M38.9171 34.3052L24.3438 27.0352V27.4452L38.9171 34.7152V34.3052Z" fill="#2B2E35"/>
<path d="M38.9171 33.6182L24.3438 26.3481V26.7582L38.9171 34.0282V33.6182Z" fill="#2B2E35"/>
<path d="M24.3438 23.3446L27.1476 21.9482H24.3438V23.3446Z" fill="#2B2E35"/>
<path d="M24.3438 24.7632L29.9791 21.9482H29.1258L24.3438 24.331V24.7632Z" fill="#2B2E35"/>
<path d="M24.3438 42.085H25.4686L24.3438 41.5254V42.085Z" fill="#2B2E35"/>
<path d="M38.9171 38.4444L24.3438 31.1743V31.5844L38.9171 38.8544V38.4444Z" fill="#2B2E35"/>
<path d="M38.9171 37.0647L24.3438 29.7947V30.2047L38.9171 37.4748V37.0647Z" fill="#2B2E35"/>
<path d="M24.3438 24.0539L28.5661 21.9482H27.7128L24.3438 23.6272V24.0539Z" fill="#2B2E35"/>
<path d="M38.9171 36.3777L24.3438 29.1077V29.5177L38.9171 36.7878V36.3777Z" fill="#2B2E35"/>
<path d="M38.9171 34.9978L24.3438 27.7278V28.1378L38.9171 35.4079V34.9978Z" fill="#2B2E35"/>
<path d="M38.9171 35.6848L24.3438 28.4148V28.8248L38.9171 36.0949V35.6848Z" fill="#2B2E35"/>
</svg>
