<svg width="64" height="64" viewBox="0 0 64 64" fill="none" xmlns="http://www.w3.org/2000/svg">
<rect width="64" height="64" rx="4.92308" fill="#F6F6F6"/>
<path d="M25.6111 28.7965L26.4541 29.784L25.6111 30.7716L26.4541 31.7591L25.6111 32.7467L26.4541 33.7342L25.6111 34.7218L26.4541 35.7093L25.6111 36.6969L26.4541 37.6845L25.6111 38.672L26.4541 39.6596L25.6111 40.6471L26.4541 41.6347L25.6111 42.6222L26.4541 43.6098L25.6111 44.5973L26.4481 45.6451L27.0202 46.1569L28.0077 47L28.9953 46.1569L29.9828 47L30.9704 46.1569L31.9579 47L32.9455 46.1569L33.933 47L34.9206 46.1569L35.9082 47L36.8957 46.1569L37.8833 47L38.8708 46.1569L39.8584 47L40.8459 46.1569L41.8335 47L42.821 46.1569L43.8086 47L44.7961 46.1569L45.7837 47L46.4762 46.2774L47.1928 45.5849L46.3497 44.5973L47.1928 43.6098L46.3497 42.6222L47.1928 41.6347L46.3497 40.6471L47.1928 39.6596L46.3497 38.672L47.1928 37.6845L46.3497 36.6969L47.1928 35.7093L46.3497 34.7218L47.1928 33.7342L46.3497 32.7467L47.1928 31.7591L46.3497 30.7716L47.1928 29.784L46.3497 28.7965L47.1928 27.8089L46.3497 26.8153L45.7837 26.2493L44.7961 25.4062L43.8086 26.2493L42.821 25.4062L41.8335 26.2493L40.8459 25.4062L39.8584 26.2493L38.8708 25.4062L37.8833 26.2493L36.8957 25.4062L35.9082 26.2493L34.9206 25.4062L33.933 26.2493L32.9455 25.4062L31.9579 26.2493L30.9704 25.4062L29.9828 26.2493L28.9953 25.4062L28.0077 26.2493L27.0202 25.4062L26.3277 26.1228L25.6111 26.8153L26.4541 27.8029L25.6111 28.7904V28.7965ZM41.6588 43.6459C41.6588 43.1281 42.0743 42.7126 42.5922 42.7126C43.1101 42.7126 43.5256 43.1281 43.5256 43.6459C43.5256 44.1638 43.1101 44.5793 42.5922 44.5793C42.0743 44.5793 41.6588 44.1638 41.6588 43.6459ZM41.6588 39.9305C41.6588 39.4127 42.0743 38.9972 42.5922 38.9972C43.1101 38.9972 43.5256 39.4127 43.5256 39.9305C43.5256 40.4484 43.1101 40.8639 42.5922 40.8639C42.0743 40.8639 41.6588 40.4484 41.6588 39.9305ZM41.6588 36.2152C41.6588 35.7033 42.0743 35.2818 42.5922 35.2818C43.1101 35.2818 43.5256 35.7033 43.5256 36.2152C43.5256 36.727 43.1101 37.1485 42.5922 37.1485C42.0743 37.1485 41.6588 36.727 41.6588 36.2152ZM41.6588 32.4998C41.6588 31.9819 42.0743 31.5664 42.5922 31.5664C43.1101 31.5664 43.5256 31.9819 43.5256 32.4998C43.5256 33.0176 43.1101 33.4332 42.5922 33.4332C42.0743 33.4332 41.6588 33.0176 41.6588 32.4998ZM41.6588 28.7844C41.6588 28.2666 42.0743 27.851 42.5922 27.851C43.1101 27.851 43.5256 28.2666 43.5256 28.7844C43.5256 29.3023 43.1101 29.7178 42.5922 29.7178C42.0743 29.7178 41.6588 29.3023 41.6588 28.7844ZM37.54 43.6459C37.54 43.1281 37.9555 42.7126 38.4734 42.7126C38.9912 42.7126 39.4067 43.1281 39.4067 43.6459C39.4067 44.1638 38.9912 44.5793 38.4734 44.5793C37.9555 44.5793 37.54 44.1638 37.54 43.6459ZM37.54 39.9305C37.54 39.4127 37.9555 38.9972 38.4734 38.9972C38.9912 38.9972 39.4067 39.4127 39.4067 39.9305C39.4067 40.4484 38.9912 40.8639 38.4734 40.8639C37.9555 40.8639 37.54 40.4484 37.54 39.9305ZM37.54 36.2152C37.54 35.7033 37.9555 35.2818 38.4734 35.2818C38.9912 35.2818 39.4067 35.7033 39.4067 36.2152C39.4067 36.727 38.9912 37.1485 38.4734 37.1485C37.9555 37.1485 37.54 36.727 37.54 36.2152ZM37.54 32.4998C37.54 31.9819 37.9555 31.5664 38.4734 31.5664C38.9912 31.5664 39.4067 31.9819 39.4067 32.4998C39.4067 33.0176 38.9912 33.4332 38.4734 33.4332C37.9555 33.4332 37.54 33.0176 37.54 32.4998ZM37.54 28.7844C37.54 28.2666 37.9555 27.851 38.4734 27.851C38.9912 27.851 39.4067 28.2666 39.4067 28.7844C39.4067 29.3023 38.9912 29.7178 38.4734 29.7178C37.9555 29.7178 37.54 29.3023 37.54 28.7844ZM33.4212 43.6459C33.4212 43.1281 33.8427 42.7126 34.3546 42.7126C34.8664 42.7126 35.2879 43.1281 35.2879 43.6459C35.2879 44.1638 34.8724 44.5793 34.3546 44.5793C33.8367 44.5793 33.4212 44.1638 33.4212 43.6459ZM33.4212 39.9305C33.4212 39.4127 33.8427 38.9972 34.3546 38.9972C34.8664 38.9972 35.2879 39.4127 35.2879 39.9305C35.2879 40.4484 34.8724 40.8639 34.3546 40.8639C33.8367 40.8639 33.4212 40.4484 33.4212 39.9305ZM33.4212 36.2152C33.4212 35.7033 33.8427 35.2818 34.3546 35.2818C34.8664 35.2818 35.2879 35.7033 35.2879 36.2152C35.2879 36.727 34.8724 37.1485 34.3546 37.1485C33.8367 37.1485 33.4212 36.727 33.4212 36.2152ZM33.4212 32.4998C33.4212 31.9819 33.8427 31.5664 34.3546 31.5664C34.8664 31.5664 35.2879 31.9819 35.2879 32.4998C35.2879 33.0176 34.8724 33.4332 34.3546 33.4332C33.8367 33.4332 33.4212 33.0176 33.4212 32.4998ZM33.4212 28.7844C33.4212 28.2666 33.8427 27.851 34.3546 27.851C34.8664 27.851 35.2879 28.2666 35.2879 28.7844C35.2879 29.3023 34.8724 29.7178 34.3546 29.7178C33.8367 29.7178 33.4212 29.3023 33.4212 28.7844ZM29.3024 43.6459C29.3024 43.1281 29.7179 42.7126 30.2357 42.7126C30.7536 42.7126 31.1691 43.1281 31.1691 43.6459C31.1691 44.1638 30.7536 44.5793 30.2357 44.5793C29.7179 44.5793 29.3024 44.1638 29.3024 43.6459ZM29.3024 39.9305C29.3024 39.4127 29.7179 38.9972 30.2357 38.9972C30.7536 38.9972 31.1691 39.4127 31.1691 39.9305C31.1691 40.4484 30.7536 40.8639 30.2357 40.8639C29.7179 40.8639 29.3024 40.4484 29.3024 39.9305ZM29.3024 36.2152C29.3024 35.7033 29.7179 35.2818 30.2357 35.2818C30.7536 35.2818 31.1691 35.7033 31.1691 36.2152C31.1691 36.727 30.7536 37.1485 30.2357 37.1485C29.7179 37.1485 29.3024 36.727 29.3024 36.2152ZM29.3024 32.4998C29.3024 31.9819 29.7179 31.5664 30.2357 31.5664C30.7536 31.5664 31.1691 31.9819 31.1691 32.4998C31.1691 33.0176 30.7536 33.4332 30.2357 33.4332C29.7179 33.4332 29.3024 33.0176 29.3024 32.4998ZM29.3024 28.7844C29.3024 28.2666 29.7179 27.851 30.2357 27.851C30.7536 27.851 31.1691 28.2666 31.1691 28.7844C31.1691 29.3023 30.7536 29.7178 30.2357 29.7178C29.7179 29.7178 29.3024 29.3023 29.3024 28.7844Z" fill="#2B2E35"/>
<path d="M25.6111 28.7965L26.4541 29.784L25.6111 30.7716L26.4541 31.7591L25.6111 32.7467L26.4541 33.7342L25.6111 34.7218L26.4541 35.7093L25.6111 36.6969L26.4541 37.6845L25.6111 38.672L26.4541 39.6596L25.6111 40.6471L26.4541 41.6347L25.6111 42.6222L26.4541 43.6098L25.6111 44.5973L26.4481 45.6451L27.0202 46.1569L28.0077 47L28.9953 46.1569L29.9828 47L30.9704 46.1569L31.9579 47L32.9455 46.1569L33.933 47L34.9206 46.1569L35.9082 47L36.8957 46.1569L37.8833 47L38.8708 46.1569L39.8584 47L40.8459 46.1569L41.8335 47L42.821 46.1569L43.8086 47L44.7961 46.1569L45.7837 47L46.4762 46.2774L47.1928 45.5849L46.3497 44.5973L47.1928 43.6098L46.3497 42.6222L47.1928 41.6347L46.3497 40.6471L47.1928 39.6596L46.3497 38.672L47.1928 37.6845L46.3497 36.6969L47.1928 35.7093L46.3497 34.7218L47.1928 33.7342L46.3497 32.7467L47.1928 31.7591L46.3497 30.7716L47.1928 29.784L46.3497 28.7965L47.1928 27.8089L46.3497 26.8153L45.7837 26.2493L44.7961 25.4062L43.8086 26.2493L42.821 25.4062L41.8335 26.2493L40.8459 25.4062L39.8584 26.2493L38.8708 25.4062L37.8833 26.2493L36.8957 25.4062L35.9082 26.2493L34.9206 25.4062L33.933 26.2493L32.9455 25.4062L31.9579 26.2493L30.9704 25.4062L29.9828 26.2493L28.9953 25.4062L28.0077 26.2493L27.0202 25.4062L26.3277 26.1228L25.6111 26.8153L26.4541 27.8029L25.6111 28.7904V28.7965ZM41.6588 43.6459C41.6588 43.1281 42.0743 42.7126 42.5922 42.7126C43.1101 42.7126 43.5256 43.1281 43.5256 43.6459C43.5256 44.1638 43.1101 44.5793 42.5922 44.5793C42.0743 44.5793 41.6588 44.1638 41.6588 43.6459ZM41.6588 39.9305C41.6588 39.4127 42.0743 38.9972 42.5922 38.9972C43.1101 38.9972 43.5256 39.4127 43.5256 39.9305C43.5256 40.4484 43.1101 40.8639 42.5922 40.8639C42.0743 40.8639 41.6588 40.4484 41.6588 39.9305ZM41.6588 36.2152C41.6588 35.7033 42.0743 35.2818 42.5922 35.2818C43.1101 35.2818 43.5256 35.7033 43.5256 36.2152C43.5256 36.727 43.1101 37.1485 42.5922 37.1485C42.0743 37.1485 41.6588 36.727 41.6588 36.2152ZM41.6588 32.4998C41.6588 31.9819 42.0743 31.5664 42.5922 31.5664C43.1101 31.5664 43.5256 31.9819 43.5256 32.4998C43.5256 33.0176 43.1101 33.4332 42.5922 33.4332C42.0743 33.4332 41.6588 33.0176 41.6588 32.4998ZM41.6588 28.7844C41.6588 28.2666 42.0743 27.851 42.5922 27.851C43.1101 27.851 43.5256 28.2666 43.5256 28.7844C43.5256 29.3023 43.1101 29.7178 42.5922 29.7178C42.0743 29.7178 41.6588 29.3023 41.6588 28.7844ZM37.54 43.6459C37.54 43.1281 37.9555 42.7126 38.4734 42.7126C38.9912 42.7126 39.4067 43.1281 39.4067 43.6459C39.4067 44.1638 38.9912 44.5793 38.4734 44.5793C37.9555 44.5793 37.54 44.1638 37.54 43.6459ZM37.54 39.9305C37.54 39.4127 37.9555 38.9972 38.4734 38.9972C38.9912 38.9972 39.4067 39.4127 39.4067 39.9305C39.4067 40.4484 38.9912 40.8639 38.4734 40.8639C37.9555 40.8639 37.54 40.4484 37.54 39.9305ZM37.54 36.2152C37.54 35.7033 37.9555 35.2818 38.4734 35.2818C38.9912 35.2818 39.4067 35.7033 39.4067 36.2152C39.4067 36.727 38.9912 37.1485 38.4734 37.1485C37.9555 37.1485 37.54 36.727 37.54 36.2152ZM37.54 32.4998C37.54 31.9819 37.9555 31.5664 38.4734 31.5664C38.9912 31.5664 39.4067 31.9819 39.4067 32.4998C39.4067 33.0176 38.9912 33.4332 38.4734 33.4332C37.9555 33.4332 37.54 33.0176 37.54 32.4998ZM37.54 28.7844C37.54 28.2666 37.9555 27.851 38.4734 27.851C38.9912 27.851 39.4067 28.2666 39.4067 28.7844C39.4067 29.3023 38.9912 29.7178 38.4734 29.7178C37.9555 29.7178 37.54 29.3023 37.54 28.7844ZM33.4212 43.6459C33.4212 43.1281 33.8427 42.7126 34.3546 42.7126C34.8664 42.7126 35.2879 43.1281 35.2879 43.6459C35.2879 44.1638 34.8724 44.5793 34.3546 44.5793C33.8367 44.5793 33.4212 44.1638 33.4212 43.6459ZM33.4212 39.9305C33.4212 39.4127 33.8427 38.9972 34.3546 38.9972C34.8664 38.9972 35.2879 39.4127 35.2879 39.9305C35.2879 40.4484 34.8724 40.8639 34.3546 40.8639C33.8367 40.8639 33.4212 40.4484 33.4212 39.9305ZM33.4212 36.2152C33.4212 35.7033 33.8427 35.2818 34.3546 35.2818C34.8664 35.2818 35.2879 35.7033 35.2879 36.2152C35.2879 36.727 34.8724 37.1485 34.3546 37.1485C33.8367 37.1485 33.4212 36.727 33.4212 36.2152ZM33.4212 32.4998C33.4212 31.9819 33.8427 31.5664 34.3546 31.5664C34.8664 31.5664 35.2879 31.9819 35.2879 32.4998C35.2879 33.0176 34.8724 33.4332 34.3546 33.4332C33.8367 33.4332 33.4212 33.0176 33.4212 32.4998ZM33.4212 28.7844C33.4212 28.2666 33.8427 27.851 34.3546 27.851C34.8664 27.851 35.2879 28.2666 35.2879 28.7844C35.2879 29.3023 34.8724 29.7178 34.3546 29.7178C33.8367 29.7178 33.4212 29.3023 33.4212 28.7844ZM29.3024 43.6459C29.3024 43.1281 29.7179 42.7126 30.2357 42.7126C30.7536 42.7126 31.1691 43.1281 31.1691 43.6459C31.1691 44.1638 30.7536 44.5793 30.2357 44.5793C29.7179 44.5793 29.3024 44.1638 29.3024 43.6459ZM29.3024 39.9305C29.3024 39.4127 29.7179 38.9972 30.2357 38.9972C30.7536 38.9972 31.1691 39.4127 31.1691 39.9305C31.1691 40.4484 30.7536 40.8639 30.2357 40.8639C29.7179 40.8639 29.3024 40.4484 29.3024 39.9305ZM29.3024 36.2152C29.3024 35.7033 29.7179 35.2818 30.2357 35.2818C30.7536 35.2818 31.1691 35.7033 31.1691 36.2152C31.1691 36.727 30.7536 37.1485 30.2357 37.1485C29.7179 37.1485 29.3024 36.727 29.3024 36.2152ZM29.3024 32.4998C29.3024 31.9819 29.7179 31.5664 30.2357 31.5664C30.7536 31.5664 31.1691 31.9819 31.1691 32.4998C31.1691 33.0176 30.7536 33.4332 30.2357 33.4332C29.7179 33.4332 29.3024 33.0176 29.3024 32.4998ZM29.3024 28.7844C29.3024 28.2666 29.7179 27.851 30.2357 27.851C30.7536 27.851 31.1691 28.2666 31.1691 28.7844C31.1691 29.3023 30.7536 29.7178 30.2357 29.7178C29.7179 29.7178 29.3024 29.3023 29.3024 28.7844Z" fill="#2B2E35"/>
<path d="M29.519 24.9306L29.9887 25.3341L30.9763 24.4911L31.7892 25.1835L38.5817 18.3851L37.8892 17.7227L37.3171 17.1326L29.519 24.9306Z" fill="#FF5B01"/>
<path d="M33.0176 24.5451L33.9449 25.334L34.9325 24.4909L35.2938 24.798L38.2023 21.8896L37.7627 21.3777L38.6057 20.3902L37.9493 19.6194L33.0176 24.5451Z" fill="#FF5B01"/>
<path d="M35.9201 25.334L36.9137 24.491L37.817 25.2678L38.7564 24.4608L37.7628 23.3529L38.6058 22.3653L38.4733 22.2087L35.613 25.069L35.9201 25.334Z" fill="#FF5B01"/>
<path d="M17.843 20.3902L20.3842 17.843L19.3966 17L18.4091 17.843L17.843 18.4151L17 19.4026L17.843 20.3902Z" fill="#FF5B01"/>
<path d="M17.2228 33.5114L33.5054 17.2288L33.2405 17L32.2469 17.843L31.2593 17L30.9342 17.277L17.3131 30.898L17 31.2654L17.843 32.2589L17 33.2465L17.2228 33.5114Z" fill="#FF5B01"/>
<path d="M35.2156 17L34.228 17.843L33.8246 17.5058L17.4998 33.8306L17.843 34.234L17 35.2216L17.7527 36.1008L24.8643 28.9892L24.6897 28.7965L25.5387 27.8029L24.6536 26.7672L25.8458 25.623L26.9719 24.4488L28.0076 25.334L29.0012 24.491L29.1939 24.6596L36.1007 17.7527L35.2156 17Z" fill="#FF5B01"/>
<path d="M24.6896 34.7277L25.5387 33.7342L24.7499 32.8188L19.6194 37.9493L20.3902 38.6117L21.3777 37.7687L21.8896 38.2022L25.0028 35.089L24.6896 34.7277Z" fill="#FF5B01"/>
<path d="M25.3942 37.5218L24.6897 36.7029L25.5387 35.7153L25.2738 35.4082L22.2087 38.4732L22.3713 38.6117L23.3589 37.7687L24.3464 38.6117L25.3942 37.5218Z" fill="#FF5B01"/>
<path d="M25.3882 31.5844L24.6897 30.7714L25.5388 29.7839L25.1353 29.3142L17.1265 37.323L17.7166 37.8891L18.4091 38.6117L18.385 38.5876L25.3882 31.5844Z" fill="#FF5B01"/>
<path d="M30.0008 17.6142L29.2842 17L28.2967 17.843L27.7306 17.3673L17.3613 27.7366L17.843 28.3027L17 29.2902L17.6082 30.0068L30.0008 17.6142Z" fill="#FF5B01"/>
<path d="M17.4697 23.9129L23.9069 17.4757L23.3529 17L22.3653 17.843L21.6367 17.2228L17.2168 21.6367L17.843 22.3713L17 23.3589L17.4697 23.9129Z" fill="#FF5B01"/>
<path d="M17.0843 27.4115L27.4115 17.0903L27.3031 17L26.3155 17.843L25.328 17L24.3404 17.843L24.226 17.7467L17.7407 24.232L17.843 24.3465L17 25.34L17.843 26.3276L17 27.3151L17.0843 27.4115Z" fill="#FF5B01"/>
<path d="M25.6111 28.7965L26.4541 29.784L25.6111 30.7716L26.4541 31.7591L25.6111 32.7467L26.4541 33.7342L25.6111 34.7218L26.4541 35.7093L25.6111 36.6969L26.4541 37.6845L25.6111 38.672L26.4541 39.6596L25.6111 40.6471L26.4541 41.6347L25.6111 42.6222L26.4541 43.6098L25.6111 44.5973L26.4481 45.6451L27.0202 46.1569L28.0077 47L28.9953 46.1569L29.9828 47L30.9704 46.1569L31.9579 47L32.9455 46.1569L33.933 47L34.9206 46.1569L35.9082 47L36.8957 46.1569L37.8833 47L38.8708 46.1569L39.8584 47L40.8459 46.1569L41.8335 47L42.821 46.1569L43.8086 47L44.7961 46.1569L45.7837 47L46.4762 46.2774L47.1928 45.5849L46.3497 44.5973L47.1928 43.6098L46.3497 42.6222L47.1928 41.6347L46.3497 40.6471L47.1928 39.6596L46.3497 38.672L47.1928 37.6845L46.3497 36.6969L47.1928 35.7093L46.3497 34.7218L47.1928 33.7342L46.3497 32.7467L47.1928 31.7591L46.3497 30.7716L47.1928 29.784L46.3497 28.7965L47.1928 27.8089L46.3497 26.8153L45.7837 26.2493L44.7961 25.4062L43.8086 26.2493L42.821 25.4062L41.8335 26.2493L40.8459 25.4062L39.8584 26.2493L38.8708 25.4062L37.8833 26.2493L36.8957 25.4062L35.9082 26.2493L34.9206 25.4062L33.933 26.2493L32.9455 25.4062L31.9579 26.2493L30.9704 25.4062L29.9828 26.2493L28.9953 25.4062L28.0077 26.2493L27.0202 25.4062L26.3277 26.1228L25.6111 26.8153L26.4541 27.8029L25.6111 28.7904V28.7965ZM41.6588 43.6459C41.6588 43.1281 42.0743 42.7126 42.5922 42.7126C43.1101 42.7126 43.5256 43.1281 43.5256 43.6459C43.5256 44.1638 43.1101 44.5793 42.5922 44.5793C42.0743 44.5793 41.6588 44.1638 41.6588 43.6459ZM41.6588 39.9305C41.6588 39.4127 42.0743 38.9972 42.5922 38.9972C43.1101 38.9972 43.5256 39.4127 43.5256 39.9305C43.5256 40.4484 43.1101 40.8639 42.5922 40.8639C42.0743 40.8639 41.6588 40.4484 41.6588 39.9305ZM41.6588 36.2152C41.6588 35.7033 42.0743 35.2818 42.5922 35.2818C43.1101 35.2818 43.5256 35.7033 43.5256 36.2152C43.5256 36.727 43.1101 37.1485 42.5922 37.1485C42.0743 37.1485 41.6588 36.727 41.6588 36.2152ZM41.6588 32.4998C41.6588 31.9819 42.0743 31.5664 42.5922 31.5664C43.1101 31.5664 43.5256 31.9819 43.5256 32.4998C43.5256 33.0176 43.1101 33.4332 42.5922 33.4332C42.0743 33.4332 41.6588 33.0176 41.6588 32.4998ZM41.6588 28.7844C41.6588 28.2666 42.0743 27.851 42.5922 27.851C43.1101 27.851 43.5256 28.2666 43.5256 28.7844C43.5256 29.3023 43.1101 29.7178 42.5922 29.7178C42.0743 29.7178 41.6588 29.3023 41.6588 28.7844ZM37.54 43.6459C37.54 43.1281 37.9555 42.7126 38.4734 42.7126C38.9912 42.7126 39.4067 43.1281 39.4067 43.6459C39.4067 44.1638 38.9912 44.5793 38.4734 44.5793C37.9555 44.5793 37.54 44.1638 37.54 43.6459ZM37.54 39.9305C37.54 39.4127 37.9555 38.9972 38.4734 38.9972C38.9912 38.9972 39.4067 39.4127 39.4067 39.9305C39.4067 40.4484 38.9912 40.8639 38.4734 40.8639C37.9555 40.8639 37.54 40.4484 37.54 39.9305ZM37.54 36.2152C37.54 35.7033 37.9555 35.2818 38.4734 35.2818C38.9912 35.2818 39.4067 35.7033 39.4067 36.2152C39.4067 36.727 38.9912 37.1485 38.4734 37.1485C37.9555 37.1485 37.54 36.727 37.54 36.2152ZM37.54 32.4998C37.54 31.9819 37.9555 31.5664 38.4734 31.5664C38.9912 31.5664 39.4067 31.9819 39.4067 32.4998C39.4067 33.0176 38.9912 33.4332 38.4734 33.4332C37.9555 33.4332 37.54 33.0176 37.54 32.4998ZM37.54 28.7844C37.54 28.2666 37.9555 27.851 38.4734 27.851C38.9912 27.851 39.4067 28.2666 39.4067 28.7844C39.4067 29.3023 38.9912 29.7178 38.4734 29.7178C37.9555 29.7178 37.54 29.3023 37.54 28.7844ZM33.4212 43.6459C33.4212 43.1281 33.8427 42.7126 34.3546 42.7126C34.8664 42.7126 35.2879 43.1281 35.2879 43.6459C35.2879 44.1638 34.8724 44.5793 34.3546 44.5793C33.8367 44.5793 33.4212 44.1638 33.4212 43.6459ZM33.4212 39.9305C33.4212 39.4127 33.8427 38.9972 34.3546 38.9972C34.8664 38.9972 35.2879 39.4127 35.2879 39.9305C35.2879 40.4484 34.8724 40.8639 34.3546 40.8639C33.8367 40.8639 33.4212 40.4484 33.4212 39.9305ZM33.4212 36.2152C33.4212 35.7033 33.8427 35.2818 34.3546 35.2818C34.8664 35.2818 35.2879 35.7033 35.2879 36.2152C35.2879 36.727 34.8724 37.1485 34.3546 37.1485C33.8367 37.1485 33.4212 36.727 33.4212 36.2152ZM33.4212 32.4998C33.4212 31.9819 33.8427 31.5664 34.3546 31.5664C34.8664 31.5664 35.2879 31.9819 35.2879 32.4998C35.2879 33.0176 34.8724 33.4332 34.3546 33.4332C33.8367 33.4332 33.4212 33.0176 33.4212 32.4998ZM33.4212 28.7844C33.4212 28.2666 33.8427 27.851 34.3546 27.851C34.8664 27.851 35.2879 28.2666 35.2879 28.7844C35.2879 29.3023 34.8724 29.7178 34.3546 29.7178C33.8367 29.7178 33.4212 29.3023 33.4212 28.7844ZM29.3024 43.6459C29.3024 43.1281 29.7179 42.7126 30.2357 42.7126C30.7536 42.7126 31.1691 43.1281 31.1691 43.6459C31.1691 44.1638 30.7536 44.5793 30.2357 44.5793C29.7179 44.5793 29.3024 44.1638 29.3024 43.6459ZM29.3024 39.9305C29.3024 39.4127 29.7179 38.9972 30.2357 38.9972C30.7536 38.9972 31.1691 39.4127 31.1691 39.9305C31.1691 40.4484 30.7536 40.8639 30.2357 40.8639C29.7179 40.8639 29.3024 40.4484 29.3024 39.9305ZM29.3024 36.2152C29.3024 35.7033 29.7179 35.2818 30.2357 35.2818C30.7536 35.2818 31.1691 35.7033 31.1691 36.2152C31.1691 36.727 30.7536 37.1485 30.2357 37.1485C29.7179 37.1485 29.3024 36.727 29.3024 36.2152ZM29.3024 32.4998C29.3024 31.9819 29.7179 31.5664 30.2357 31.5664C30.7536 31.5664 31.1691 31.9819 31.1691 32.4998C31.1691 33.0176 30.7536 33.4332 30.2357 33.4332C29.7179 33.4332 29.3024 33.0176 29.3024 32.4998ZM29.3024 28.7844C29.3024 28.2666 29.7179 27.851 30.2357 27.851C30.7536 27.851 31.1691 28.2666 31.1691 28.7844C31.1691 29.3023 30.7536 29.7178 30.2357 29.7178C29.7179 29.7178 29.3024 29.3023 29.3024 28.7844Z" fill="#2B2E35"/>
</svg>
