<svg width="64" height="64" viewBox="0 0 64 64" fill="none" xmlns="http://www.w3.org/2000/svg">
<rect width="64" height="64" rx="4.92308" fill="#F6F6F6"/>
<path d="M52.065 21.0183C51.6779 19.4872 51.0404 18.5708 50.3232 18.4968H50.2208C48.684 18.4968 47.0732 22.0315 46.6293 26.38C46.4073 28.5941 46.5097 30.7001 46.9195 32.3166C47.3066 33.8477 47.9441 34.7698 48.6612 34.8381C49.0369 34.8722 49.4182 34.6901 49.7825 34.3372C49.8451 34.2233 49.902 34.1095 49.9647 33.99C49.6061 34.3599 49.2304 34.5591 48.8491 34.5591C48.8092 34.5591 48.7751 34.5591 48.7409 34.5591C47.1927 34.3998 46.3276 30.8196 46.7772 26.3971C47.2269 21.9575 48.7808 18.6334 50.3403 18.7985C51.1201 18.8782 51.7405 19.7946 52.0991 21.3826C52.4406 22.9023 52.5146 24.8831 52.3097 26.9549C52.0422 29.6187 51.3762 31.8783 50.5452 33.2216C50.5623 33.2273 50.5794 33.2387 50.5908 33.25C51.4161 31.81 52.0877 29.5276 52.3495 26.9549C52.5715 24.7408 52.4691 22.6348 52.0593 21.0183H52.065Z" fill="#2B2E35"/>
<path d="M49.1107 26.6305C48.8887 28.839 49.0766 30.0741 49.2416 30.2847C49.4408 30.1083 49.8791 28.9414 50.1011 26.733C50.3231 24.5246 50.1295 23.2951 49.9702 23.0789C49.771 23.2553 49.3327 24.4221 49.1107 26.6305Z" fill="#2B2E35"/>
<path d="M50.1467 21.3088C49.7711 21.3088 48.9344 23.0676 48.5815 26.5738C48.4335 28.048 48.4164 29.4424 48.5416 30.5011C48.6783 31.6964 48.9458 32.0322 49.0653 32.0493H49.071C49.441 32.0493 50.2777 30.2905 50.6306 26.7844C50.9891 23.2611 50.5053 21.3487 50.1524 21.3088H50.1467ZM50.4826 26.7673C50.4427 27.1657 50.0614 30.6833 49.2304 30.6833H49.1962C48.3367 30.5922 48.6783 26.995 48.7181 26.5852C48.7579 26.1867 49.1393 22.6692 49.976 22.6692C50.3175 22.7033 50.4883 23.1188 50.5566 24.0182C50.6135 24.7638 50.5907 25.7371 50.4826 26.7673Z" fill="#2B2E35"/>
<path d="M50.2207 20.2444C49.3555 20.2444 48.2172 22.7545 47.8415 26.4997C47.665 28.2528 47.6935 29.9148 47.9269 31.1841C48.1432 32.3452 48.5131 33.0624 48.9172 33.1022H48.9571C49.7824 33.1022 50.9208 30.5921 51.3021 26.8469C51.4786 25.0938 51.4501 23.4318 51.2167 22.1625C51.0061 21.0014 50.6362 20.2842 50.2264 20.2444H50.2207ZM51.0118 26.8184C50.7842 29.0781 50.0784 32.4363 49.0652 32.4363H49.0197C48.5814 32.3907 48.2912 31.7533 48.1489 30.5466C48.0236 29.4594 48.0407 28.0365 48.1944 26.5338C48.4221 24.2799 49.1278 20.916 50.141 20.916H50.1865C51.2224 21.0242 51.2509 24.5019 51.0175 26.8184H51.0118Z" fill="#2B2E35"/>
<path d="M51.7287 21.4624C51.4157 20.0679 50.8977 19.2369 50.3115 19.1743C50.2887 19.1743 50.2659 19.1743 50.2432 19.1743C49.1162 19.1743 47.6135 22.0885 47.1753 26.4314C46.7256 30.9165 47.6477 34.0527 48.7974 34.1666C48.8202 34.1666 48.843 34.1666 48.8657 34.1666C49.9927 34.1666 51.4954 31.2524 51.9336 26.9095C52.1385 24.8775 52.0702 22.9423 51.7344 21.4624H51.7287ZM51.6889 26.8867C51.3645 30.0912 50.3001 33.4949 48.9625 33.4949C48.9397 33.4949 48.9113 33.4949 48.8885 33.4949C48.2738 33.4323 47.8128 32.6582 47.5509 31.2581C47.3119 29.9546 47.2777 28.2528 47.4599 26.4655C47.79 23.2041 48.9113 19.7264 50.2659 19.863C50.8806 19.9256 51.3417 20.6997 51.6035 22.0999C51.8426 23.4033 51.8767 25.1109 51.6946 26.8924L51.6889 26.8867Z" fill="#2B2E35"/>
<path d="M19.9513 32.6184L47.7046 34.7699C47.2208 34.3031 46.8224 33.5063 46.5435 32.4135C46.1223 30.7515 46.0142 28.5999 46.2418 26.3403C46.6289 22.5495 47.8754 19.4532 49.2813 18.4514L21.7442 17.1935C20.2018 17.0512 18.369 19.7321 17.9193 24.1603C17.4697 28.5886 18.4031 32.4647 19.9513 32.6241V32.6184ZM45.8719 19.2597C46.4069 19.2995 46.811 19.7605 46.7712 20.3013C46.7313 20.8363 46.2703 21.2404 45.7296 21.2006C45.1945 21.1607 44.7904 20.6997 44.8303 20.159C44.8701 19.6239 45.3368 19.2198 45.8719 19.2597ZM43.7317 30.4782C44.2668 30.5181 44.6709 30.9848 44.6311 31.5141C44.5912 32.0492 44.1245 32.4533 43.5894 32.4135C43.0544 32.3736 42.6503 31.9069 42.6901 31.3718C42.73 30.8368 43.191 30.4327 43.7317 30.4725V30.4782ZM41.7794 23.1756C42.3145 23.2155 42.7186 23.6765 42.6788 24.2172C42.6389 24.7523 42.1779 25.1564 41.6372 25.1165C41.1021 25.0767 40.698 24.61 40.7378 24.0749C40.7777 23.5399 41.2444 23.1358 41.7794 23.1756ZM38.1765 27.8714C38.1367 28.4064 37.67 28.8105 37.1349 28.7707C36.5999 28.7309 36.1958 28.2698 36.2356 27.7291C36.2755 27.1941 36.7422 26.7899 37.2772 26.8298C37.8122 26.8696 38.2164 27.3364 38.1765 27.8714ZM36.3039 18.884C36.8389 18.9238 37.2431 19.3906 37.2032 19.9256C37.1634 20.4606 36.7023 20.8647 36.1616 20.8249C35.6266 20.7851 35.2225 20.3183 35.2623 19.7833C35.3022 19.2483 35.7632 18.8441 36.3039 18.884ZM33.145 31.8443C33.1051 32.3793 32.6384 32.7834 32.1034 32.7436C31.5683 32.7037 31.1642 32.237 31.204 31.702C31.2439 31.167 31.7106 30.7628 32.2456 30.8027C32.7807 30.8425 33.1848 31.3092 33.145 31.8443ZM30.8056 23.1756C31.3407 23.2155 31.7448 23.6765 31.7049 24.2172C31.6651 24.7523 31.1984 25.1564 30.6633 25.1165C30.1283 25.0767 29.7242 24.6157 29.764 24.0749C29.8039 23.5399 30.2649 23.1358 30.8056 23.1756ZM27.0832 27.7519C27.0433 28.2869 26.5766 28.691 26.0416 28.6512C25.5065 28.6113 25.1024 28.1446 25.1423 27.6096C25.1821 27.0745 25.6488 26.6704 26.1839 26.7102C26.7189 26.7501 27.123 27.2111 27.0832 27.7519ZM25.4781 18.497C26.0131 18.5368 26.4172 19.0035 26.3774 19.5386C26.3375 20.0736 25.8708 20.4777 25.3358 20.4379C24.8007 20.398 24.3966 19.9313 24.4365 19.3963C24.4763 18.8612 24.943 18.4571 25.4724 18.497H25.4781ZM20.7311 32.0776C20.1961 32.0378 19.7919 31.5711 19.8318 31.036C19.8716 30.501 20.3384 30.0969 20.8734 30.1367C21.4084 30.1766 21.8125 30.6376 21.7727 31.1783C21.7329 31.7134 21.2661 32.1175 20.7311 32.0776ZM20.8677 22.1966C21.4027 22.2365 21.8012 22.7032 21.767 23.2382C21.7272 23.7733 21.2604 24.1774 20.7254 24.1375C20.1904 24.0977 19.7862 23.6367 19.8261 23.096C19.8659 22.5609 20.3327 22.1568 20.8677 22.1966Z" fill="#FF5B01"/>
<path d="M38.2051 46.2161C38.7516 45.8462 39.0305 45.3453 39.0475 44.6964C39.1784 40.8431 41.1934 40.1202 43.5327 39.2835C45.485 38.5834 47.6536 37.7979 49.3554 35.0886C49.1562 35.1797 48.957 35.2309 48.7635 35.2309C48.7179 35.2309 48.6724 35.2309 48.6269 35.2252L21.9948 33.1648C20.6857 35.1797 18.6993 35.9481 16.7754 36.688C14.3052 37.6443 12.1651 38.4696 12 41.7936C13.8555 42.4368 33.7428 49.267 38.2051 46.2218V46.2161ZM39.6793 36.4831C40.2314 36.4831 40.6811 36.7791 40.6811 37.1491C40.6811 37.519 40.2314 37.815 39.6793 37.815C39.1272 37.815 38.6776 37.519 38.6776 37.1491C38.6776 36.7791 39.1272 36.4831 39.6793 36.4831ZM17.5325 38.481C16.9803 38.481 16.5307 38.185 16.5307 37.815C16.5307 37.445 16.9803 37.1491 17.5325 37.1491C18.0846 37.1491 18.5342 37.445 18.5342 37.815C18.5342 38.185 18.0846 38.481 17.5325 38.481ZM19.536 42.3855C18.9839 42.3855 18.5342 42.0896 18.5342 41.7196C18.5342 41.3496 18.9839 41.0537 19.536 41.0537C20.0881 41.0537 20.5377 41.3496 20.5377 41.7196C20.5377 42.0896 20.0938 42.3855 19.536 42.3855ZM37.3343 43.4215C37.3343 43.7857 36.8846 44.0874 36.3325 44.0874C35.7804 44.0874 35.3308 43.7914 35.3308 43.4215C35.3308 43.0515 35.7804 42.7555 36.3325 42.7555C36.8846 42.7555 37.3343 43.0515 37.3343 43.4215ZM22.8828 36.1189C22.3307 36.1189 21.881 35.8229 21.881 35.4529C21.881 35.0829 22.3307 34.787 22.8828 34.787C23.4349 34.787 23.8845 35.0829 23.8845 35.4529C23.8845 35.8229 23.4349 36.1189 22.8828 36.1189ZM26.3548 39.1469C25.8027 39.1469 25.353 38.8509 25.353 38.481C25.353 38.111 25.8027 37.815 26.3548 37.815C26.9069 37.815 27.3565 38.111 27.3565 38.481C27.3565 38.8509 26.9069 39.1469 26.3548 39.1469ZM28.3583 43.0515C27.8062 43.0515 27.3565 42.7555 27.3565 42.3855C27.3565 42.0156 27.8062 41.7196 28.3583 41.7196C28.9104 41.7196 29.3601 42.0156 29.3601 42.3855C29.3601 42.7555 28.9104 43.0515 28.3583 43.0515ZM30.8456 46.2503C30.2935 46.2503 29.8439 45.9543 29.8439 45.5843C29.8439 45.2144 30.2935 44.9184 30.8456 44.9184C31.3977 44.9184 31.8474 45.2144 31.8474 45.5843C31.8474 45.9543 31.3977 46.2503 30.8456 46.2503ZM31.7051 36.7791C31.153 36.7791 30.7033 36.4831 30.7033 36.1132C30.7033 35.7432 31.153 35.4472 31.7051 35.4472C32.2572 35.4472 32.7068 35.7432 32.7068 36.1132C32.7068 36.4831 32.2572 36.7791 31.7051 36.7791ZM33.6858 39.5112C33.6858 39.1469 34.1355 38.8452 34.6876 38.8452C35.2397 38.8452 35.6894 39.1412 35.6894 39.5112C35.6894 39.8811 35.2397 40.1771 34.6876 40.1771C34.1355 40.1771 33.6858 39.8811 33.6858 39.5112Z" fill="#2B2E35"/>
</svg>
