<svg width="21" height="20" viewBox="0 0 21 20" fill="none" xmlns="http://www.w3.org/2000/svg">
<path d="M11.3416 2.43335L16.2583 4.61668C17.6749 5.24168 17.6749 6.27502 16.2583 6.90002L11.3416 9.08335C10.7833 9.33335 9.8666 9.33335 9.30827 9.08335L4.3916 6.90002C2.97493 6.27502 2.97493 5.24168 4.3916 4.61668L9.30827 2.43335C9.8666 2.18335 10.7833 2.18335 11.3416 2.43335Z" stroke="#FF5B01" stroke-width="1.5" stroke-linecap="round" stroke-linejoin="round"/>
<path d="M3 9.16669C3 9.86669 3.525 10.675 4.16667 10.9584L9.825 13.475C10.2583 13.6667 10.75 13.6667 11.175 13.475L16.8333 10.9584C17.475 10.675 18 9.86669 18 9.16669" stroke="#FF5B01" stroke-width="1.5" stroke-linecap="round" stroke-linejoin="round"/>
<path d="M3 13.3333C3 14.1083 3.45833 14.8083 4.16667 15.125L9.825 17.6416C10.2583 17.8333 10.75 17.8333 11.175 17.6416L16.8333 15.125C17.5417 14.8083 18 14.1083 18 13.3333" stroke="#FF5B01" stroke-width="1.5" stroke-linecap="round" stroke-linejoin="round"/>
</svg>
