<svg width="21" height="20" viewBox="0 0 21 20" fill="none" xmlns="http://www.w3.org/2000/svg">
<path d="M3.0083 9.34998V13.0916C3.0083 16.8333 4.5083 18.3333 8.24997 18.3333H12.7416C16.4833 18.3333 17.9833 16.8333 17.9833 13.0916V9.34998" stroke="#FF5B01" stroke-width="1.5" stroke-linecap="round" stroke-linejoin="round"/>
<path d="M10.5 10C12.025 10 13.15 8.75835 13 7.23335L12.45 1.66669H8.55832L7.99999 7.23335C7.84999 8.75835 8.97499 10 10.5 10Z" stroke="#FF5B01" stroke-width="1.5" stroke-linecap="round" stroke-linejoin="round"/>
<path d="M15.7584 10C17.4417 10 18.6751 8.63335 18.5084 6.95835L18.2751 4.66669C17.9751 2.50002 17.1417 1.66669 14.9584 1.66669H12.4167L13.0001 7.50835C13.1417 8.88335 14.3834 10 15.7584 10Z" stroke="#FF5B01" stroke-width="1.5" stroke-linecap="round" stroke-linejoin="round"/>
<path d="M5.1999 10C6.5749 10 7.81657 8.88335 7.9499 7.50835L8.13324 5.66669L8.53324 1.66669H5.99157C3.80824 1.66669 2.9749 2.50002 2.6749 4.66669L2.4499 6.95835C2.28324 8.63335 3.51657 10 5.1999 10Z" stroke="#FF5B01" stroke-width="1.5" stroke-linecap="round" stroke-linejoin="round"/>
</svg>
