<svg width="21" height="20" viewBox="0 0 21 20" fill="none" xmlns="http://www.w3.org/2000/svg">
<path d="M18.8333 5.00002V7.01669C18.8333 8.33335 17.9999 9.16669 16.6832 9.16669H13.8333V3.34169C13.8333 2.41669 14.5916 1.66669 15.5166 1.66669C16.4249 1.67502 17.2583 2.04169 17.8583 2.64169C18.4583 3.25002 18.8333 4.08335 18.8333 5.00002Z" stroke="#FF5B01" stroke-width="1.5" stroke-miterlimit="10" stroke-linecap="round" stroke-linejoin="round"/>
<path d="M2.16675 5.83335V17.5C2.16675 18.1917 2.95006 18.5834 3.50006 18.1667L4.92508 17.1C5.25841 16.85 5.72509 16.8834 6.02509 17.1834L7.4084 18.575C7.7334 18.9 8.26677 18.9 8.59177 18.575L9.99176 17.175C10.2834 16.8834 10.7501 16.85 11.0751 17.1L12.5001 18.1667C13.0501 18.575 13.8334 18.1834 13.8334 17.5V3.33335C13.8334 2.41669 14.5834 1.66669 15.5001 1.66669H6.33341H5.50008C3.00008 1.66669 2.16675 3.15835 2.16675 5.00002V5.83335Z" stroke="#FF5B01" stroke-width="1.5" stroke-miterlimit="10" stroke-linecap="round" stroke-linejoin="round"/>
</svg>
