<svg width="51" height="102" viewBox="0 0 51 102" fill="none" xmlns="http://www.w3.org/2000/svg">
<path d="M49.2892 58.0001C49.2892 58.0001 49.5893 61.9173 49.7078 64.9041C49.8262 67.8909 50 84.6285 50 84.6285C50 84.6285 47.9544 85.9669 46.5722 85.9914C44.4634 86.024 43.5077 84.5877 43.5077 84.5877L42.4098 65.459L38.5634 84.6694C38.5634 84.6694 35.4357 85.3222 33.9903 85.0529C32.545 84.7836 32 83.1515 32 83.1515L36.7468 58.2939L49.2813 57.9919L49.2892 58.0001Z" fill="#2B2E35"/>
<path d="M37.0495 22.7398C37.2822 21.8345 37.5149 21.3901 38.4537 20.7235C39.3926 20.0569 43.0517 19.3903 44.8331 20.9375C46.6065 22.4847 45.9084 25.3404 45.6195 26.3197C45.2905 27.4307 44.6967 28.8051 44.4881 30.3358C44.3918 31.0271 45.0337 32.5825 45.2423 32.9776C44.5121 33.8828 43.1721 34.2367 42.1048 34.3437C41.495 34.4013 41.0215 35.1008 40.532 34.9774C40.9974 33.9075 40.7246 31.8748 40.3876 31.488C39.9142 30.9448 39.3525 30.9777 38.6624 31.1259C37.7396 31.3152 37.9482 30.0972 37.3705 29.8997C36.9933 29.768 37.234 29.5705 37.3303 29.3729C37.2661 29.2413 36.9772 29.1672 36.9211 29.052C36.7766 28.764 37.0976 28.657 37.0575 28.5088C36.9452 28.1385 35.91 28.122 36.0063 27.7188C36.1668 27.0275 37.3624 25.6696 37.1939 25.217C36.8569 24.2952 36.8489 23.6039 37.0655 22.7398H37.0495Z" fill="#FFB680"/>
<path d="M37.5497 22.6315C37.5497 22.6315 38.7656 22.1436 40.4185 23.4502C41.4755 24.2855 41.5152 25.2697 42.9218 25.6749C44.1377 26.0223 43.9152 26.9237 43.9152 26.9237L44.9642 29.9919C44.9642 29.9919 47.2053 28.3627 47.3563 24.7652C47.4278 23.2104 46.9748 21.1842 46.9748 21.1842C46.9748 21.1842 47.3881 20.5226 48 20.1422C47.7377 19.8279 46.3391 19.9189 45.8861 20.1422C45.6636 19.5219 45.2185 17.9919 44.0662 17.9919C44.2967 18.422 44.2569 18.7941 44.2569 19.2242C44.098 18.8272 42.9775 18.422 42.1748 18.3558C42.3338 18.7528 42.5245 18.852 42.6199 19.2573C40.347 17.9919 36 20.7211 36 20.7211C36 20.7211 36.4132 22.218 37.5417 22.6398L37.5497 22.6315Z" fill="#2B2E35"/>
<path d="M43.0084 26.0952C43.0084 26.0952 43.05 24.8603 44.1317 25.0035C45.2217 25.1467 45.3465 26.8021 44.1566 27.7774C42.9668 28.7528 43.0001 26.0862 43.0001 26.0862L43.0084 26.0952Z" fill="#FFB680"/>
<path d="M40.1031 36.9919L34.5993 45.4208C34.5993 45.4208 31.7454 45.4208 30.3756 45.2438C28.9242 45.0584 26.2824 44.7297 25.1979 43.9205C24.2521 43.2125 23.2655 41.9313 21.6429 41.9734C20.5666 41.9987 20.9253 43.9205 22.0995 45.1342C23.877 46.9717 24.3825 46.6683 27.163 47.6292C29.9434 48.5901 32.3733 49.7954 34.5259 49.9893C36.0262 50.1241 41 45.1342 41 45.1342L40.0949 36.9919H40.1031Z" fill="#FFB680"/>
<path d="M10 36.9919L10.5686 37.9919H11L10.4314 36.9919H10Z" fill="#6A6C6D"/>
<path d="M9 36.9919L9.56129 37.9919H10L9.43871 36.9919H9Z" fill="#6A6C6D"/>
<path d="M7 36.9919L7.56864 37.9919H8L7.43138 36.9919H7Z" fill="#6A6C6D"/>
<path d="M8 36.9919L8.57615 37.9919H9L8.42385 36.9919H8Z" fill="#6A6C6D"/>
<path d="M12 36.9919L12.5613 37.9919H13L12.4387 36.9919H12Z" fill="#6A6C6D"/>
<path d="M15 36.9919H13L13.6493 37.9919H15V36.9919Z" fill="#6A6C6D"/>
<path d="M12 36.9919L12.5577 37.9919H13L12.4423 36.9919H12Z" fill="#BCBCBC"/>
<path d="M11 36.9919L11.5577 37.9919H12L11.4423 36.9919H11Z" fill="#BCBCBC"/>
<path d="M10 36.9919L10.5577 37.9919H11L10.4423 36.9919H10Z" fill="#BCBCBC"/>
<path d="M9 36.9919L9.55769 37.9919H10L9.44231 36.9919H9Z" fill="#BCBCBC"/>
<path d="M8 36.9919L8.55769 37.9919H9L8.44231 36.9919H8Z" fill="#BCBCBC"/>
<path d="M7 36.9919L7.01151 37.9919H8L7 36.9919Z" fill="#BCBCBC"/>
<path d="M18.4439 34.9919C17.875 34.9919 16.4728 35.0918 16 35.2831V39.7008C16.4728 39.8838 17.875 39.9919 18.4439 39.9919C20.3189 39.9919 20.992 38.8771 21 37.4961C20.992 36.1151 20.3189 35.0003 18.4439 35.0003V34.9919Z" fill="#6A6C6D"/>
<path d="M14 36.0917V37.8997C14.4084 38.3667 15.1204 38.7584 16 38.9919V34.9919C15.1204 35.233 14.4084 35.6172 14 36.0842V36.0917Z" fill="#BCBCBC"/>
<path d="M21 39.9919L18 39.8757V35.0462L21 34.9919V39.9919Z" fill="#BCBCBC"/>
<path d="M22 35.4919C22 35.7697 21.796 35.9919 21.5411 35.9919H19.4589C19.2039 35.9919 19 35.7697 19 35.4919C19 35.2142 19.2039 34.9919 19.4589 34.9919H21.5411C21.796 34.9919 22 35.2142 22 35.4919Z" fill="#6A6C6D"/>
<path d="M22 37.4919C22 37.7697 21.796 37.9919 21.5411 37.9919H19.4589C19.2039 37.9919 19 37.7697 19 37.4919C19 37.2142 19.2039 36.9919 19.4589 36.9919H21.5411C21.796 36.9919 22 37.2142 22 37.4919Z" fill="#6A6C6D"/>
<path d="M22 39.4919C22 39.7697 21.796 39.9919 21.5411 39.9919H19.4589C19.2039 39.9919 19 39.7697 19 39.4919C19 39.2141 19.2039 38.9919 19.4589 38.9919H21.5411C21.796 38.9919 22 39.2141 22 39.4919Z" fill="#6A6C6D"/>
<path d="M27.7492 46.0303C27.5589 45.9758 27.3687 45.8902 27.1611 45.7578C26.1319 45.0728 26.1319 43.1345 26.0801 41.959C26.0368 41.0015 26.2617 39.9351 25.4055 39.9351C24.4888 39.9351 23.7796 39.8728 22.4218 39.8884C21.2543 39.9039 20.9689 39.7482 20.9516 39.2812C20.9083 38.0434 20.917 35.8872 20.9256 34.9919H20.0175C20.0175 34.9919 20.0175 40.5345 20.0002 40.8225C19.9916 41.2351 20.2251 41.3207 20.4673 41.3207H22.1191C22.1191 41.3207 22.1277 42.3716 22.1277 42.8153C22.1277 42.9399 22.2056 42.9943 22.3007 43.0488C22.3872 43.0955 22.5083 43.1267 22.5429 43.2356C22.7677 43.2123 22.958 43.189 23.0445 43.1812C23.8228 43.1033 23.918 44.1386 23.6326 44.2165C23.3731 44.2866 22.9753 44.3566 22.5775 44.4189C22.5775 44.5279 22.5775 44.6446 22.5775 44.7614C23.0012 44.6836 23.4769 44.6057 23.6153 44.5902C24.2552 44.5123 24.5147 45.5788 24.039 45.6722C23.6931 45.7422 23.0877 45.8356 22.5775 45.9135C22.5775 46.0458 22.5775 46.1782 22.5775 46.3105C23.0358 46.2327 23.7796 46.1081 23.9612 46.0925C24.6012 46.0458 24.6963 47.0111 24.4023 47.0734C23.892 47.1824 23.0877 47.3303 22.5775 47.4159C22.5775 47.7584 22.5775 47.9764 22.5775 47.9764L28 47.9919C28 47.9919 27.8703 47.1668 27.7319 46.0458L27.7492 46.0303Z" fill="#FF552E"/>
<path d="M24.3992 45.9919C24.2155 46.0036 23.4635 46.0972 23 46.1557C23 46.4715 23 46.7697 23 46.9919C23.5247 46.9218 24.3292 46.8165 24.8451 46.7346C25.1337 46.6878 25.0375 45.9568 24.3992 45.9978V45.9919Z" fill="#EF3D20"/>
<path d="M24.2181 44.995C24.0557 45.0067 23.4974 45.0712 23 45.124C23 45.3996 23 45.6987 23 45.9919C23.5989 45.9333 24.3094 45.8629 24.7155 45.8102C25.2737 45.7398 24.9591 44.9364 24.2181 44.995Z" fill="#EF3D20"/>
<path d="M23.4055 43.0016C23.3356 43.0078 23.1818 43.0266 23 43.0454C23 43.058 23.007 43.0768 23.014 43.0956C23.014 43.1834 23.021 43.5344 23.028 43.9919C23.3496 43.9418 23.6781 43.8854 23.8809 43.829C24.1116 43.7663 24.0347 42.9326 23.4055 42.9953V43.0016Z" fill="#EF3D20"/>
<path d="M27.6699 39.9955H29.3646C30.2713 39.9955 31 39.3206 31 38.4905V36.4891C31 35.6591 30.2628 34.9919 29.3646 34.9919H21.0097C21.0012 35.8918 20.9842 38.0406 21.0351 39.2663C21.052 39.7239 21.3317 39.8791 22.4756 39.8713C23.8059 39.8558 24.5008 39.9179 25.399 39.9179C26.2294 39.9179 26.0176 40.9806 26.0599 41.9348C26.1108 43.1062 26.1108 45.0455 27.1191 45.7204C27.314 45.8523 27.5089 45.9376 27.6953 45.9919C27.4242 43.8121 27.4241 40.3446 27.6868 39.9877L27.6699 39.9955Z" fill="#FF552E"/>
<path d="M26.9378 48.7643C27.1555 48.7135 27.6169 48.6408 28 48.5827L27.7649 46.9919C27.7649 46.9919 22.9765 47.5948 21.4007 48.314C21.2527 48.3866 20.9915 48.728 21.0002 49.1493C21.0002 49.4254 21.0089 49.7304 21.0089 49.9919C22.045 49.9193 25.2749 49.6941 25.6928 49.607C26.2762 49.4835 26.5461 48.8515 26.9378 48.7571V48.7643Z" fill="#6A6C6D"/>
<path d="M21 50.9849H28L27.7157 48.9919C27.356 49.0487 26.9044 49.1196 26.6953 49.1692C26.319 49.2544 26.0681 49.8785 25.4994 49.999C25.098 50.0841 21.9952 50.304 21 50.3749C21 50.7224 21 50.9919 21 50.9919V50.9849Z" fill="#FF552E"/>
<path d="M23 40.3472C23 40.7852 23.2555 41 23.6968 40.9917C24.3162 40.9752 24.9355 40.6447 24.9975 40.3142C25.0439 40.0581 24.44 39.9919 23.8129 39.9919C23.3716 39.9919 23.0077 40.025 23.0077 40.3472H23Z" fill="#FFC536"/>
<path d="M26 35.9989C25.4624 35.9989 24.9417 36.0199 24.5049 36.0408C22.909 36.1245 22.4722 37.3664 22.0858 38.0919C21.8338 38.5664 22.0858 38.9012 23.5305 38.957C23.9925 38.971 24.5049 38.985 25.0341 38.9919C25.1852 38.7757 25.4372 38.3222 25.6976 37.485C25.874 36.9199 25.958 36.3826 26 35.9919V35.9989Z" fill="#CCCCCC"/>
<path d="M27.9912 35.9989C27.6564 35.9989 27.304 35.9989 26.9515 35.9989C26.9075 36.4076 26.8194 36.9827 26.6167 37.5924C26.3877 38.2645 26.1674 38.7079 26 38.9919C26.326 38.9919 26.652 38.9919 26.9691 38.9919C27.1189 38.7841 27.3921 38.3268 27.6828 37.4816C27.8767 36.9203 27.9559 36.3799 28 35.9919L27.9912 35.9989Z" fill="#CCCCCC"/>
<path d="M29 35.9919C28.7621 35.9919 28.4009 35.9919 27.9603 35.9919C27.9163 36.4007 27.8282 36.9758 27.6256 37.5855C27.3965 38.2645 27.1762 38.7079 27 38.9919C27.3524 38.9919 27.6872 38.9919 27.978 38.9919C28.1278 38.7772 28.4009 38.3268 28.6828 37.4816C28.8678 36.9203 28.9559 36.3869 29 35.9989V35.9919Z" fill="#CCCCCC"/>
<path d="M29.6529 35.9919C29.6227 36.4004 29.5622 36.9708 29.4232 37.5764C29.266 38.2595 29.1209 38.7032 29 38.9919C29.1693 38.9919 29.2962 38.9849 29.3688 38.9779C30.07 38.9356 29.9975 37.7877 29.9975 37.3159C29.9975 36.9004 30.0519 36.161 29.6529 35.9919Z" fill="#CCCCCC"/>
<path d="M29 35.9919C28.7877 35.9919 28.5531 35.9919 28.3073 35.9919C28.2514 36.3799 28.1508 36.9204 27.905 37.4816C27.5363 38.3338 27.2011 38.7841 27 38.9919C27.2682 38.9919 27.5251 38.9919 27.771 38.9919C27.9944 38.7079 28.2738 38.2645 28.5643 37.5855C28.8212 36.9758 28.9442 36.4007 28.9888 35.9919H29Z" fill="#E84C43"/>
<path d="M26 35.9989C25.8814 35.9989 25.7684 35.9989 25.6497 35.9989C25.6215 36.3878 25.5706 36.9225 25.4463 37.485C25.2655 38.3183 25.096 38.7697 25 38.985C25.1299 38.985 25.2599 38.985 25.3898 38.9919C25.5028 38.7072 25.6441 38.2628 25.7853 37.5892C25.9153 36.9781 25.9774 36.3947 26 35.9919V35.9989Z" fill="#E84C43"/>
<path d="M28.9944 36.0267C28.9382 35.9989 28.8764 35.9919 28.7977 35.9919C28.7697 35.9919 28.7135 35.9919 28.6517 35.9919C28.6236 36.3808 28.5674 36.9156 28.4494 37.4781C28.2697 38.3253 28.0955 38.7767 28 38.9919C28.1461 38.9919 28.2809 38.9919 28.3932 38.9919C28.5056 38.7072 28.6404 38.2628 28.7865 37.5961C28.9157 37.0058 28.9719 36.4433 29 36.0336L28.9944 36.0267Z" fill="#E84C43"/>
<path d="M48.7167 59.7042C47.6903 60.3228 38.4115 60.0737 36 57.6636C36.6342 51.2286 36.3671 43.4117 36.6926 42.2308C37.5854 39.0333 38.5366 37.0972 40.6811 34.7513C43.0175 35.4181 45.8045 32.9919 45.8045 32.9919C45.8045 32.9919 48.4663 34.4139 49.6429 35.8038C51.028 37.4587 51.1031 42.2709 50.9362 46.4645C49.8932 48.481 49.7347 59.0775 48.7083 59.6961L48.7167 59.7042Z" fill="#FF5B01"/>
<path d="M51 61.4672C51 61.4672 44.888 62.3025 41.6737 61.8653C40.0665 61.6467 36 60.5146 36 60.5146C36.0812 59.9134 36.3409 58.5081 36.3977 57.8757C37.5665 57.6024 46.7386 61.4047 47.8993 58.4222C48.3701 57.2198 48.8734 54.8073 48.8247 52.8945C48.7841 51.1846 49.9204 48.9516 50.9351 46.9919C50.8863 48.327 50.6672 49.6075 50.7403 50.6849C51 54.6121 50.7403 59.1639 51 61.4593V61.4672Z" fill="#FF5B01"/>
<path d="M42 44.5723C42.5515 43.4408 43.6546 40.8593 43.9261 40.3899C47.1929 34.7073 51.1724 34.4726 50.9942 40.0295C50.9179 42.5775 49.0511 45.8044 47.8293 47.9919C45.7589 46.785 44.011 45.8882 42 44.5639V44.5723Z" fill="#FF5B01"/>
<path d="M26.0124 43.9762C26.1771 42.8973 28.5072 42.7614 29.7423 43.2966C30.9773 43.8318 31.2984 45.0042 32.1218 45.5904C33.8015 46.7967 40.0508 48.5893 41.0141 48.6997C41.5246 48.7592 42.5044 46.4399 43.3196 44.9447C45.4027 46.321 44.8428 45.9557 47 47.2215C45.2792 50.6876 43.8383 52.5651 42.8997 52.9219C41.9528 53.2872 38.8816 52.1658 36.7079 50.917C35.4976 50.2203 33.3898 48.946 31.5866 48.2409C30.1457 47.6717 28.0214 46.8817 27.5274 46.27C26.7041 45.2421 25.856 45.0467 26.0207 43.9762H26.0124Z" fill="#FFB680"/>
<path d="M21.1443 42.472C21.3815 41.7453 22.2229 41.7453 22.919 43.1608C23.2785 43.895 22.3759 45.8858 21.4962 44.5308C20.9607 43.7058 20.8842 43.2743 21.1443 42.472Z" fill="#FFB680"/>
<path d="M43 64.9919C43 64.9919 40.2302 67.4909 39.5084 71.5465C38.7866 75.6021 36 83.9919 36 83.9919H38.9712L43 64.9919Z" fill="#434547"/>
<path d="M49.5987 84.0716C49.5987 84.0716 49.7252 88.0657 49.5987 91.4835C49.4722 94.9013 49.5481 96.9023 49.8095 98.223C49.9866 99.1195 50.5346 101.769 48.3171 101.817C46.0912 101.857 45.307 102.121 42.7859 101.913C40.2564 101.713 39.017 102.033 39.0001 101.153C38.9748 99.5117 43.4099 99.2875 44.5144 98.271C45.619 97.2545 45.425 96.35 45.1384 92.3319C44.8264 87.8496 44.2109 83.7915 44.506 83.9996L49.6072 84.0636L49.5987 84.0716Z" fill="#FFB680"/>
<path d="M38 83.7254C38 83.7254 38 87.5539 37.5838 91.3245C37.2003 94.8312 37.2166 96.7372 37.4614 98.1068C37.6328 99.0309 38.1632 101.762 36.0171 101.811C33.8628 101.853 33.1039 102.125 30.664 101.91C28.216 101.704 27.0164 102.034 27.0001 101.127C26.9756 99.4352 31.2679 99.2042 32.3369 98.1563C33.4058 97.1084 33.2997 96.2668 33.1773 92.1166C33.0386 87.2568 32.394 82.7848 32.6796 82.9994L38 83.7337V83.7254Z" fill="#FFB680"/>
<path d="M26 101.992H38V100.992H26V101.992Z" fill="#434547"/>
<path d="M33 101.992C33 101.992 31.491 99.0907 29.952 98.9992C28.4129 98.9078 28 99.7059 28 99.7059C28 99.7059 29.2312 99.4398 29.952 100.354C30.3949 100.92 30.6502 101.984 30.6502 101.984H33V101.992Z" fill="#434547"/>
<path d="M44.92 84.9158C43.9272 84.7356 43.5251 84.1377 43.0082 83.6545C43 82.9092 43 82.3032 43 82.3032C43 82.3032 44.6574 82.5079 46.881 82.4834C48.5959 82.4588 50.8359 81.9919 50.8359 81.9919C50.8359 81.9919 50.9754 83.1549 51 84.3261C50.0892 84.8585 48.5549 84.8339 47.6113 84.8912C46.7661 84.9404 45.7569 85.0714 44.9118 84.924L44.92 84.9158Z" fill="#7E8085"/>
<path d="M46.5102 85.9678C44.5665 86.0454 43.0738 85.9797 43.0328 85.1082C43.0164 84.762 43.0082 84.3561 43 83.9919C43.5167 84.3441 43.9185 84.7799 44.9109 84.9112C45.7557 85.0187 46.7562 84.9231 47.6092 84.8873C48.5441 84.8455 50.086 84.8635 50.9964 84.4755C50.9964 84.6963 51.0046 84.9232 50.9964 85.1321C50.9553 85.8364 48.4621 85.8842 46.5102 85.9618V85.9678Z" fill="#545658"/>
<path d="M32.5967 84.0992C31.6715 83.6969 31.4012 82.995 31 82.3787C31.1556 81.6168 31.2866 80.9919 31.2866 80.9919C31.2866 80.9919 32.8588 81.5826 35.0369 82.0448C36.7155 82.4043 39 82.43 39 82.43C39 82.43 38.8854 83.6455 38.6561 84.8525C37.6571 85.1949 36.1586 84.8182 35.2334 84.6642C34.3982 84.5272 33.3828 84.433 32.5967 84.0907V84.0992Z" fill="#7E8085"/>
<path d="M34.165 85.5706C32.2441 85.2343 30.8076 84.8032 31.021 83.57C31.1113 83.0785 31.218 82.5007 31.3248 81.9919C31.727 82.6042 31.9897 83.3113 32.9255 83.7253C33.7135 84.0702 34.7232 84.165 35.5687 84.303C36.4963 84.4582 37.9985 84.8377 39 84.4927C38.9425 84.8118 38.8769 85.1222 38.803 85.4154C38.5485 86.3985 36.1023 85.8984 34.1732 85.562L34.165 85.5706Z" fill="#545658"/>
<path d="M38 101.992H50V100.992H38V101.992Z" fill="#434547"/>
<path d="M45 101.992C45 101.992 43.491 99.0907 41.952 98.9992C40.4129 98.9078 40 99.7059 40 99.7059C40 99.7059 41.2312 99.4398 41.952 100.354C42.3949 100.92 42.6501 101.984 42.6501 101.984H45V101.992Z" fill="#434547"/>
<path d="M47 33.1789L45.7532 31.9919C45.7532 31.9919 43.3607 33.0794 42.215 33.4916C41.322 33.8115 41.0019 34.3232 41.0019 34.3232C41.0019 34.3232 40.8587 35.3822 43.0658 34.8349C45.273 34.2948 47 33.1789 47 33.1789Z" fill="#FF5B01"/>
<path d="M7 -0.00805664H0V101.992H7V-0.00805664Z" fill="#7E8085"/>
<path d="M5 -0.00805664H3V101.992H5V-0.00805664Z" fill="#2B2E35"/>
</svg>
