<svg width="110" height="103" viewBox="0 0 110 103" fill="none" xmlns="http://www.w3.org/2000/svg">
<path d="M17.7963 16.5979C18.1568 17.1386 18.4427 17.7673 18.8903 18.2451C19.3876 18.7733 19.7854 18.8613 20.407 18.5092C22.0978 17.5535 22.6075 18.3709 24.2858 18.8235C27.2446 19.6157 30.9494 20.3199 33.8336 18.9996C34.4055 18.7355 34.8655 18.3834 35.3752 18.0062C36.0838 17.4781 37.7249 18.7104 38.2843 19.075C42.0264 21.5396 44.6371 24.8718 46.7381 28.8327C47.4219 30.1279 48.0559 31.4608 48.6527 32.8188C49.1127 33.8625 49.3861 35.0319 49.9456 36.0127C50.878 37.6599 55.4033 37.4839 57.007 37.8485C59.1702 38.3515 60.3761 38.3641 62.5642 38.8293C64.69 39.2694 64.0809 38.8671 64.9635 36.9935C65.6473 35.5474 66.5797 33.1835 64.4663 32.2907C62.7755 31.5739 60.8361 31.423 59.108 30.7566C54.0233 28.8202 50.4926 27.3364 47.6084 22.5204C45.5695 19.1253 42.0512 14.7746 38.073 13.6932C37.9984 13.6681 37.9113 13.6555 37.8243 13.6429C38.8065 8.22337 34.5298 4.66482 30.2159 2.50203C25.3674 0.0751804 18.9897 0.276367 15.8071 5.30611C15.3347 6.06057 15.0363 6.82761 14.8872 7.59465C14.2904 10.7382 16.0806 14.0201 17.8336 16.5979L17.7963 16.5979ZM19.4995 8.23593C19.2881 4.72769 23.0302 3.50798 26.4863 4.07383C26.4863 4.07383 31.5959 5.25582 34.9401 10.3862C38.2843 15.5039 33.1623 17.8302 28.3635 16.7488C23.5647 15.68 19.7108 11.7442 19.4995 8.23593Z" fill="#FF5B01"/>
<path d="M58.77 29.9919L61.3974 38.2847L61.0904 38.487L109.77 48.9919C109.488 48.8782 89.8685 41.0152 72.7293 34.4417C66.8608 32.4697 61.8393 30.8515 58.77 30.0046L58.77 29.9919Z" fill="#2B2E35"/>
<path d="M17.7956 15.6322C18.1545 16.1741 18.4392 16.8042 18.8849 17.2831C19.38 17.8124 19.7761 17.9006 20.395 17.5477C22.0785 16.59 22.586 17.4091 24.2571 17.8628C27.2032 18.6567 30.892 19.3624 33.7638 18.0392C34.3332 17.7746 34.7911 17.4217 35.2987 17.0437C36.0042 16.5144 37.6382 17.7494 38.1952 18.1148C41.9211 20.5848 44.5206 23.9244 46.6126 27.894C47.2934 29.192 47.9246 30.5278 48.5188 31.8888C48.9768 32.9348 49.2491 34.1068 49.8062 35.0898C50.7346 36.7406 52.1457 37.6732 53.7301 38.0512C55.884 38.5553 61.4419 39.5005 64.8707 39.9919C65.4401 38.5175 65.6629 37.7992 66.5418 35.9215C67.2226 34.4723 66.3561 32.2543 64.2642 31.3596C62.5807 30.6412 60.6497 30.49 58.9291 29.8221C53.8663 27.8814 50.3508 26.3944 47.4666 21.5678C45.4366 18.1652 41.9335 13.8049 37.9724 12.7212C37.8981 12.6959 37.8115 12.6834 37.7248 12.6708C38.7027 7.23928 34.4445 3.6729 30.1492 1.50535C25.3217 -0.926838 18.9715 -0.725212 15.8026 4.3156C15.3323 5.07172 15.0352 5.84045 14.8867 6.60918C14.2925 9.75968 16.075 13.0488 17.8203 15.6322L17.7956 15.6322ZM19.4914 7.25187C19.281 3.73591 22.9945 2.51352 26.4481 3.0806C26.4481 3.0806 31.5356 4.2652 34.8654 9.40683C38.1952 14.5359 33.0953 16.8672 28.3172 15.7835C23.5391 14.7123 19.7019 10.7678 19.4914 7.25187Z" fill="#FF5B01"/>
<path d="M108.77 23.1538C108.77 23.1538 107.605 20.5655 94.4023 23.1153C81.1998 25.6651 60.9312 27.869 60.9312 27.869L60.77 36.9919L108.77 23.1666L108.77 23.1538Z" fill="#AEADB8"/>
<path d="M108.77 23.6664C108.77 23.6664 107.4 20.4853 94.2552 22.8923C81.1105 25.2993 60.9181 28.42 60.9181 28.42L60.77 35.9919L108.77 23.6664Z" fill="#2B2E35"/>
<path d="M6.7914 50.8259C6.90126 51.5107 12.6379 49.917 15.8846 48.9584C17.3737 48.5226 18.9238 48.3109 20.4739 48.3234L24.8436 48.3856C33.7415 47.4519 37.1347 42.895 38.3797 40.2182C38.8557 39.1848 40.0763 38.7739 41.0649 39.2969L44.1773 40.9528C45.6298 41.7247 47.3386 41.8741 48.9009 41.3387L66.77 35.5991L64.6706 27.9919L51.4397 29.5482L46.6063 33.495C45.5932 34.3167 44.2262 34.5533 43.0178 34.0926C42.969 34.0677 42.9202 34.0553 42.8592 34.0304C42.139 33.7565 41.3822 33.495 40.5767 33.2335C35.255 31.478 28.3344 29.8221 28.3344 29.8221C28.3344 29.8221 12.7356 26.0248 5.90038 34.74C5.74171 34.9392 5.59524 35.1384 5.44878 35.3501C1.32327 41.3138 5.53422 46.5181 10.1846 46.3064C10.5385 46.4807 10.2334 46.9538 9.68414 47.5266C8.63445 48.6346 6.66936 50.166 6.76701 50.801L6.7914 50.8259ZM16.8001 34.5159C20.4618 35.0264 24.1723 35.0388 27.8584 34.7774C29.2132 34.6778 30.4826 34.7027 31.5201 35.0388C33.6683 35.7236 34.8522 37.6161 34.8522 37.6161C34.8522 37.6161 36.9394 41.0399 32.0327 43.3557C27.1138 45.6715 16.4827 47.2527 8.67109 42.8203C1.83592 38.9483 8.78093 33.4078 16.7878 34.5408L16.8001 34.5159Z" fill="#FF5B01"/>
<path d="M59.6273 32.0899C59.1345 30.5064 57.4485 29.6367 55.8662 30.1299C54.284 30.6232 53.4151 32.3105 53.9079 33.894C54.4007 35.4775 56.0867 36.3472 57.6689 35.8539C59.2512 35.3607 60.1331 33.6734 59.6273 32.0899Z" fill="#FF5B01"/>
<path d="M56.3984 30.0391C55.9276 30.2021 55.6604 30.7452 55.8131 31.2477L57.0092 35.3214C57.1619 35.8238 57.6708 36.109 58.1416 35.946C58.6124 35.7831 58.8797 35.2399 58.727 34.7375L57.5309 30.6638C57.3782 30.1478 56.8692 29.8762 56.3984 30.0391Z" fill="#FF5B01"/>
<path d="M88.77 61.0105L88.8811 60.9919L92.77 89.8437L91.5849 89.9918L88.77 61.0105Z" fill="#AEADB8"/>
<path d="M90.7801 90.666C90.6846 89.8343 91.2768 89.0992 92.0981 89.0025C92.9195 88.9057 93.6644 89.486 93.7599 90.3178C93.8554 91.1496 93.2633 91.8847 92.442 91.9814C91.6206 92.0781 90.8756 91.4978 90.7801 90.666Z" fill="#FFBC46"/>
<path d="M96.6937 72.9919L96.77 73.0675L77.6861 95.9918L76.77 95.1987L96.6937 72.9919Z" fill="#757E7F"/>
<path d="M76.1278 94.5119C76.6653 93.8778 77.606 93.8202 78.2395 94.3582C78.873 94.8963 78.9498 95.857 78.4123 96.4719C77.8747 97.106 76.9341 97.1637 76.3005 96.6257C75.667 96.0876 75.5902 95.1268 76.1278 94.5119Z" fill="#FF5B01"/>
<path d="M59.2123 70.5513L53.77 60.9919L-0.000164628 89.7976L5.44207 99.357L59.2123 70.5513Z" fill="#757E7F"/>
<path d="M50.392 58.6019L1 84.9919L10.9087 102.365L60.3006 75.9749L50.392 58.6019Z" fill="#FFBC46"/>
<path d="M44.5681 62.7527L58.0006 71.992L56.0764 68.4136L45.2828 60.9919L44 61.7114L44.5681 62.7527Z" fill="#FF5B01"/>
<path d="M53.0002 61.9919L48 58.9281L49.8266 57.9919L51.0813 58.7579L53.0002 61.9919Z" fill="#FF5B01"/>
<path d="M49.0313 70.3872L58.0853 75.992L60.0005 75.0039L47 66.9919L49.0313 70.3872Z" fill="#FF5B01"/>
<path d="M53.5491 78.9919L55.0001 78.1318L52 75.9919L53.5491 78.9919Z" fill="#FF5B01"/>
<path d="M9.00014 82.0453L8.70504 98.9918L7 95.437L7.2295 81.8007L8.4919 80.9919L9.00014 82.0453Z" fill="#FF5B01"/>
<path d="M3.89203 89.9919L4.00014 83.9919L2.03602 85.073L2 86.5865L3.89203 89.9919Z" fill="#FF5B01"/>
<path d="M13.0001 90.4241L12.8183 100.884L11 101.992L11.2645 86.9919L13.0001 90.4241Z" fill="#FF5B01"/>
<path d="M18.0001 98.2618L16 98.9919L16.0964 95.9919L18.0001 98.2618Z" fill="#FF5B01"/>
<path d="M34.4305 87.2184L21 77.9919L22.9134 81.5768L33.713 88.992L35.0009 88.275L34.4305 87.2184Z" fill="#FF5B01"/>
<path d="M26 87.9919L31.0003 91.0689L29.1854 91.992L27.9446 91.2227L26 87.9919Z" fill="#FF5B01"/>
<path d="M29.9603 78.6035L20.9045 72.9919L19 73.9601L32.0008 81.992L29.9603 78.6035Z" fill="#FF5B01"/>
<path d="M25.4511 70.9919L24 71.8311L27.0002 73.992L25.4511 70.9919Z" fill="#FF5B01"/>
<path d="M36.4688 86.9286L36 69.9919L37.6251 73.6461L38.0001 87.2573L36.9376 87.992L36.4688 86.9286Z" fill="#FF5B01"/>
<path d="M41 79.9919L41.2037 85.992L43.0001 85.0105L42.9446 83.5105L41 79.9919Z" fill="#FF5B01"/>
<path d="M31.3226 78.4571L31 67.9832L32.5646 66.9919L33.0001 81.992L31.3226 78.4571Z" fill="#FF5B01"/>
<path d="M27 70.6477L28.8482 69.9919L29.0001 72.992L27 70.6477Z" fill="#FF5B01"/>
</svg>
